<svg width="50" height="50" viewBox="0 0 50 50" fill="none" xmlns="http://www.w3.org/2000/svg">
<mask id="mask0" mask-type="alpha" maskUnits="userSpaceOnUse" x="0" y="0" width="50" height="50">
<circle cx="25" cy="25" r="25" fill="#436EAB"/>
</mask>
<g mask="url(#mask0)">
<path d="M25.015 0C14.5749 0 11.5215 0.0107701 10.928 0.0600051C8.78553 0.238097 7.45234 0.575433 5.99991 1.29857C4.88058 1.85439 3.99782 2.49867 3.12659 3.40183C1.53992 5.04889 0.578297 7.07521 0.23019 9.48388C0.0609453 10.6532 0.0117104 10.8917 0.00170955 16.8645C-0.00213693 18.8554 0.00170955 21.4757 0.00170955 24.9902C0.00170955 35.4218 0.013249 38.4721 0.0632532 39.0645C0.236345 41.1493 0.563295 42.4609 1.25566 43.8956C2.57885 46.642 5.10599 48.7037 8.08316 49.473C9.11402 49.7384 10.2526 49.8846 11.7142 49.9538C12.3335 49.9808 18.6456 50 24.9615 50C31.2774 50 37.5933 49.9923 38.1972 49.9615C39.8897 49.8819 40.8725 49.75 41.9591 49.4692C44.9555 48.696 47.4365 46.6651 48.7866 43.8803C49.4655 42.4801 49.8098 41.1185 49.9655 39.1425C49.9994 38.7117 50.0136 31.8431 50.0136 24.9837C50.0136 18.1231 49.9982 11.2671 49.9644 10.8363C49.8067 8.82844 49.4624 7.47833 48.7616 6.05128C48.1866 4.88311 47.548 4.01072 46.621 3.11873C44.9667 1.53859 42.9434 0.576972 40.5324 0.22925C39.3643 0.0603897 39.1316 0.0103855 33.1541 0H25.015Z" fill="url(#paint0_radial)"/>
<path d="M25.015 0C14.5749 0 11.5215 0.0107701 10.928 0.0600051C8.78553 0.238097 7.45234 0.575433 5.99991 1.29857C4.88058 1.85439 3.99782 2.49867 3.12659 3.40183C1.53992 5.04889 0.578297 7.07521 0.23019 9.48388C0.0609453 10.6532 0.0117104 10.8917 0.00170955 16.8645C-0.00213693 18.8554 0.00170955 21.4757 0.00170955 24.9902C0.00170955 35.4218 0.013249 38.4721 0.0632532 39.0645C0.236345 41.1493 0.563296 42.4609 1.25566 43.8956C2.57885 46.642 5.10599 48.7037 8.08316 49.473C9.11402 49.7384 10.2526 49.8846 11.7142 49.9538C12.3335 49.9808 18.6456 50 24.9615 50C31.2774 50 37.5933 49.9923 38.1972 49.9615C39.8897 49.8819 40.8725 49.75 41.9591 49.4692C44.9555 48.696 47.4365 46.6651 48.7866 43.8803C49.4655 42.4801 49.8098 41.1185 49.9655 39.1425C49.9994 38.7117 50.0136 31.8431 50.0136 24.9837C50.0136 18.1231 49.9982 11.2671 49.9644 10.8363C49.8067 8.82844 49.4624 7.47833 48.7616 6.05128C48.1866 4.88311 47.548 4.01072 46.621 3.11873C44.9667 1.53859 42.9434 0.576972 40.5324 0.22925C39.3643 0.0603897 39.1316 0.0103855 33.1541 0H25.015Z" fill="url(#paint1_radial)"/>
</g>
<path d="M25.0016 8.3335C20.4752 8.3335 19.9071 8.35329 18.1293 8.43419C16.355 8.51544 15.1439 8.79634 14.0842 9.2085C12.988 9.63419 12.0581 10.2036 11.1318 11.1304C10.2047 12.0568 9.63523 12.9866 9.20815 14.0825C8.79495 15.1425 8.5137 16.354 8.43384 18.1276C8.35433 19.9054 8.3335 20.4738 8.3335 25.0002C8.3335 29.5265 8.35364 30.0929 8.43419 31.8706C8.51579 33.645 8.79669 34.8561 9.2085 35.9158C9.63454 37.012 10.204 37.9418 11.1307 38.8682C12.0568 39.7953 12.9866 40.3661 14.0821 40.7918C15.1425 41.204 16.354 41.4849 18.1279 41.5661C19.9057 41.647 20.4734 41.6668 24.9995 41.6668C29.5262 41.6668 30.0925 41.647 31.8703 41.5661C33.6446 41.4849 34.8571 41.204 35.9175 40.7918C37.0134 40.3661 37.9418 39.7953 38.8679 38.8682C39.795 37.9418 40.3644 37.012 40.7915 35.9161C41.2012 34.8561 41.4825 33.6446 41.5658 31.871C41.6456 30.0932 41.6665 29.5265 41.6665 25.0002C41.6665 20.4738 41.6456 19.9057 41.5658 18.1279C41.4825 16.3536 41.2012 15.1425 40.7915 14.0828C40.3644 12.9866 39.795 12.0568 38.8679 11.1304C37.9408 10.2033 37.0137 9.63384 35.9165 9.2085C34.854 8.79634 33.6422 8.51544 31.8679 8.43419C30.0901 8.35329 29.5241 8.3335 24.9963 8.3335H25.0016ZM23.5064 11.337C23.9502 11.3363 24.4453 11.337 25.0016 11.337C29.4515 11.337 29.979 11.3529 31.7363 11.4328C33.3613 11.5071 34.2432 11.7786 34.8307 12.0068C35.6085 12.3088 36.163 12.67 36.746 13.2533C37.3293 13.8366 37.6904 14.3922 37.9932 15.17C38.2213 15.7568 38.4932 16.6387 38.5672 18.2637C38.647 20.0206 38.6644 20.5484 38.6644 24.9963C38.6644 29.4443 38.647 29.972 38.5672 31.729C38.4929 33.354 38.2213 34.2359 37.9932 34.8227C37.6911 35.6005 37.3293 36.1543 36.746 36.7373C36.1627 37.3206 35.6088 37.6818 34.8307 37.9838C34.2439 38.213 33.3613 38.4838 31.7363 38.5581C29.9793 38.638 29.4515 38.6554 25.0016 38.6554C20.5512 38.6554 20.0238 38.638 18.2668 38.5581C16.6418 38.4831 15.7599 38.2116 15.172 37.9835C14.3943 37.6814 13.8387 37.3203 13.2554 36.737C12.672 36.1536 12.3109 35.5995 12.0081 34.8213C11.78 34.2345 11.5081 33.3526 11.4342 31.7276C11.3543 29.9706 11.3384 29.4429 11.3384 24.9922C11.3384 20.5415 11.3543 20.0165 11.4342 18.2595C11.5085 16.6345 11.78 15.7526 12.0081 15.1651C12.3102 14.3873 12.672 13.8318 13.2554 13.2484C13.8387 12.6651 14.3943 12.304 15.172 12.0012C15.7595 11.772 16.6418 11.5012 18.2668 11.4266C19.8043 11.3571 20.4002 11.3363 23.5064 11.3328V11.337ZM33.8981 14.1043C32.7939 14.1043 31.8981 14.9991 31.8981 16.1036C31.8981 17.2078 32.7939 18.1036 33.8981 18.1036C35.0022 18.1036 35.8981 17.2078 35.8981 16.1036C35.8981 14.9995 35.0022 14.1036 33.8981 14.1036V14.1043ZM25.0016 16.4411C20.2748 16.4411 16.4425 20.2734 16.4425 25.0002C16.4425 29.7269 20.2748 33.5574 25.0016 33.5574C29.7283 33.5574 33.5592 29.7269 33.5592 25.0002C33.5592 20.2734 29.7279 16.4411 25.0012 16.4411H25.0016ZM25.0016 19.4446C28.0696 19.4446 30.5571 21.9318 30.5571 25.0002C30.5571 28.0682 28.0696 30.5557 25.0016 30.5557C21.9331 30.5557 19.446 28.0682 19.446 25.0002C19.446 21.9318 21.9331 19.4446 25.0016 19.4446Z" fill="white"/>
<defs>
<radialGradient id="paint0_radial" cx="0" cy="0" r="1" gradientUnits="userSpaceOnUse" gradientTransform="translate(13.2849 53.851) rotate(-90) scale(49.5537 46.1014)">
<stop stop-color="#FFDD55"/>
<stop offset="0.1" stop-color="#FFDD55"/>
<stop offset="0.5" stop-color="#FF543E"/>
<stop offset="1" stop-color="#C837AB"/>
</radialGradient>
<radialGradient id="paint1_radial" cx="0" cy="0" r="1" gradientUnits="userSpaceOnUse" gradientTransform="translate(-8.37755 3.60192) rotate(78.6776) scale(22.1509 91.3301)">
<stop stop-color="#3771C8"/>
<stop offset="0.128" stop-color="#3771C8"/>
<stop offset="1" stop-color="#6600FF" stop-opacity="0"/>
</radialGradient>
</defs>
</svg>
