<svg width="96" height="96" viewBox="0 0 96 96" fill="none" xmlns="http://www.w3.org/2000/svg">
    <g clip-path="url(#clip0)">
        <path d="M96 48C96 58.8699 92.387 68.8967 86.2961 76.9431C85.3696 78.1677 84.3838 79.3469 83.3438 80.4756C76.7571 87.6438 68.0149 92.8022 58.1448 94.9241C54.8745 95.6294 51.4812 96 48 96C44.5188 96 41.1255 95.6294 37.8552 94.9241C27.9851 92.8022 19.2429 87.6438 12.6562 80.4756C11.6162 79.3469 10.6304 78.1677 9.70386 76.9431C3.61304 68.8967 0 58.8699 0 48C0 36.8994 3.76758 26.6785 10.0957 18.5479C11.0383 17.335 12.0388 16.1689 13.0913 15.0542C15.5325 12.468 18.2578 10.1543 21.2183 8.16211C22.9951 6.96313 24.8562 5.88135 26.7935 4.927C33.1882 1.771 40.3865 0 48 0C55.6135 0 62.8132 1.77319 69.208 4.927C71.1416 5.88135 73.0049 6.96313 74.7803 8.15991C77.7407 10.1528 80.4653 12.4666 82.9065 15.0527C83.959 16.1675 84.958 17.3328 85.9021 18.5457C92.2302 26.6763 96 36.8994 96 48Z" fill="#C4E9F7"/>
        <path d="M86.2966 76.9431C77.5332 88.5198 63.6406 96 48.0004 96C32.3603 96 18.4677 88.5198 9.7043 76.9431C8.66426 57.4768 8.79317 38.012 10.0961 18.5479C10.2097 16.8179 10.3349 15.0879 10.4682 13.3579C10.778 9.36914 13.8967 6.17358 17.8759 5.74438C20.8503 5.42285 23.8225 5.15039 26.7939 4.927C40.9333 3.85181 55.0712 3.85181 69.2085 4.927C72.1806 5.15039 75.1506 5.42285 78.1228 5.74438C82.102 6.17358 85.2207 9.36914 85.5305 13.3579C85.6638 15.0879 85.789 16.8157 85.9025 18.5457C87.2055 38.0098 87.3366 57.4768 86.2966 76.9431Z" fill="#274B7B"/>
        <path d="M83.3444 80.4756C80.4879 83.5825 77.2279 86.3137 73.6464 88.5806C72.4298 89.3525 71.1781 90.0696 69.8927 90.7295H69.8905C66.2233 92.6125 62.2828 94.0349 58.1454 94.9241C54.7557 95.0515 51.3705 95.1145 48.0006 95.1145C44.6307 95.1145 41.2469 95.0515 37.8558 94.9241C33.7316 94.0371 29.8058 92.6221 26.1495 90.7493C25.7972 90.5691 25.4486 90.3853 25.1014 90.1948C23.9025 89.5444 22.735 88.8428 21.6027 88.0928C18.3148 85.9255 15.3119 83.3635 12.6569 80.4756C11.3326 58.7249 11.4777 36.7625 13.0919 15.0542C13.1271 14.5583 13.1644 14.0632 13.2032 13.5696C13.4112 10.9028 15.4994 8.75977 18.1698 8.47119C19.1849 8.36206 20.2001 8.25806 21.2189 8.16211C30.1229 7.29785 39.1178 6.86279 48.0006 6.86279C56.8812 6.86279 65.8761 7.29785 74.7809 8.15991C75.7997 8.25806 76.8141 8.36206 77.8292 8.47119C80.5018 8.75977 82.59 10.9028 82.7958 13.5696C82.8346 14.0632 82.8719 14.5569 82.9071 15.0527C84.5236 36.7603 84.6686 58.7227 83.3444 80.4756Z" fill="#40649C"/>
        <path d="M80.6463 29.9539C80.7203 31.6582 79.4327 33.115 77.732 33.2468C71.3204 33.7463 56.3138 33.8372 48.0001 33.8372C39.6864 33.8372 24.6783 33.7463 18.266 33.2468C16.5653 33.115 15.2777 31.6582 15.3517 29.9539C15.5868 24.561 15.9127 19.1785 16.328 13.812C16.4181 12.6504 17.3351 11.7136 18.5062 11.5884C28.2928 10.5322 38.2142 9.99756 48.0001 9.99756C57.7845 9.99756 67.7074 10.5322 77.494 11.5884C78.6651 11.7136 79.5799 12.6482 79.67 13.812C80.086 19.1785 80.4112 24.5618 80.6463 29.9539Z" fill="#274B7B"/>
        <path d="M48 31.094C42.8261 31.094 25.4077 31.0515 18.479 30.5125C18.2519 30.4949 18.082 30.3015 18.0922 30.073C18.3208 24.8201 18.6408 19.5107 19.0422 14.2893C28.6516 13.261 38.392 12.7402 48 12.7402C57.6079 12.7402 67.3491 13.2617 76.9563 14.2893C77.3576 19.5093 77.677 24.8179 77.9062 30.073C77.9165 30.3015 77.7465 30.4949 77.5195 30.5125C70.5908 31.0522 53.173 31.094 48 31.094Z" fill="#3F4B4F"/>
        <path d="M36.3176 45.4587C36.207 46.9733 34.9641 48.1562 33.4451 48.228C30.9058 48.3503 28.365 48.3686 25.8264 48.2807C25.3679 48.2668 24.9109 48.2485 24.4546 48.228C22.937 48.1562 21.6919 46.9733 21.5813 45.4587C21.4729 43.9946 21.4729 42.5304 21.5813 41.0663C21.6919 39.5509 22.937 38.3703 24.4546 38.297C24.9109 38.2758 25.3679 38.2553 25.8264 38.2436C28.365 38.1564 30.9036 38.1747 33.4451 38.297C34.9641 38.3703 36.207 39.5509 36.3176 41.0663C36.426 42.5304 36.426 43.9946 36.3176 45.4587Z" fill="#CACACA"/>
        <path d="M36.3179 45.4585C36.2073 46.9732 34.9644 48.156 33.4453 48.2278C30.906 48.3501 28.3652 48.3684 25.8267 48.2805C24.8862 47.7598 24.2263 46.7981 24.1436 45.6658C24.0264 44.064 24.0264 42.4607 24.1436 40.8589C24.2263 39.7266 24.8862 38.7649 25.8267 38.2442C28.3652 38.1563 30.9038 38.1746 33.4453 38.2969C34.9644 38.3709 36.2073 39.5515 36.3179 41.0662C36.4263 42.5303 36.4263 43.9944 36.3179 45.4585Z" fill="#F1F4FE"/>
        <path d="M28.4561 41.7473L28.1807 41.918C28.095 41.9751 28.0093 41.9941 27.9434 41.9941C27.6672 41.9941 27.4775 41.6997 27.4775 41.4053C27.4775 41.2061 27.5632 41.0156 27.7529 40.9014L29.0068 40.1418C29.083 40.0942 29.1782 40.0752 29.2822 40.0752C29.5862 40.0752 29.9377 40.2561 29.9377 40.541V46.582C29.9377 46.886 29.5671 47.0383 29.1973 47.0383C28.8267 47.0383 28.4561 46.886 28.4561 46.582V41.7473Z" fill="#3F4B4F"/>
        <path d="M55.0442 45.4587C54.9336 46.9733 53.6907 48.1562 52.1709 48.228C49.6323 48.3503 47.0916 48.3686 44.553 48.2807C44.0938 48.2668 43.6375 48.2485 43.1804 48.228C41.6636 48.1562 40.4185 46.9733 40.3079 45.4587C40.1995 43.9946 40.1995 42.5304 40.3079 41.0663C40.4185 39.5509 41.6636 38.3703 43.1804 38.297C43.6375 38.2758 44.0938 38.2553 44.553 38.2436C47.0916 38.1564 49.6301 38.1747 52.1709 38.297C53.6907 38.3703 54.9336 39.5509 55.0442 41.0663C55.1526 42.5304 55.1526 43.9946 55.0442 45.4587Z" fill="#CACACA"/>
        <path d="M55.044 45.4585C54.9334 46.9732 53.6905 48.156 52.1707 48.2278C49.6321 48.3501 47.0914 48.3684 44.5528 48.2805C43.6116 47.7598 42.9525 46.7981 42.8697 45.6658C42.7518 44.064 42.7518 42.4607 42.8697 40.8589C42.9525 39.7266 43.6116 38.7649 44.5528 38.2442C47.0914 38.1563 49.6299 38.1746 52.1707 38.2969C53.6905 38.3709 54.9334 39.5515 55.044 41.0662C55.1524 42.5303 55.1524 43.9944 55.044 45.4585Z" fill="#F1F4FE"/>
        <path d="M47.6995 40.0942C48.8018 40.0942 49.9128 40.7878 49.9128 42.0608C49.9128 44.1218 46.9773 44.7964 46.9773 45.6606V45.7456H49.4661C49.7041 45.7456 49.9128 46.0408 49.9128 46.3828C49.9128 46.7249 49.7041 47.0383 49.4661 47.0383H46.0845C45.8186 47.0383 45.4385 46.8574 45.4385 46.582V45.6606C45.4385 44.1694 48.4304 43.3147 48.4304 42.1084C48.4304 41.8044 48.2407 41.4338 47.709 41.4338C47.3289 41.4338 46.9963 41.6235 46.9963 42.1465C46.9963 42.4219 46.7019 42.6877 46.217 42.6877C45.8376 42.6877 45.552 42.5164 45.552 41.918C45.5527 40.7593 46.6162 40.0942 47.6995 40.0942Z" fill="#3F4B4F"/>
        <path d="M73.7708 45.4587C73.6602 46.9733 72.4172 48.1562 70.8982 48.228C68.3589 48.3503 65.8181 48.3686 63.2795 48.2807C62.821 48.2668 62.364 48.2485 61.9077 48.228C60.3901 48.1562 59.145 46.9733 59.0344 45.4587C58.926 43.9946 58.926 42.5304 59.0344 41.0663C59.145 39.5509 60.3901 38.3703 61.9077 38.297C62.364 38.2758 62.821 38.2553 63.2795 38.2436C65.8181 38.1564 68.3567 38.1747 70.8982 38.297C72.4172 38.3703 73.6602 39.5509 73.7708 41.0663C73.8792 42.5304 73.8792 43.9946 73.7708 45.4587Z" fill="#CACACA"/>
        <path d="M73.77 45.4585C73.6594 46.9732 72.4165 48.156 70.8975 48.2278C68.3582 48.3501 65.8174 48.3684 63.2788 48.2805C62.3384 47.7598 61.6785 46.7981 61.5957 45.6658C61.4785 44.064 61.4785 42.4607 61.5957 40.8589C61.6785 39.7266 62.3384 38.7649 63.2788 38.2442C65.8174 38.1563 68.356 38.1746 70.8975 38.2969C72.4165 38.3709 73.6594 39.5515 73.77 41.0662C73.8784 42.5303 73.8784 43.9944 73.77 45.4585Z" fill="#F1F4FE"/>
        <path d="M67.1992 44.948V44.7678C67.1992 44.1313 66.8103 44.0076 66.2874 44.0076C65.9644 44.0076 65.8604 43.7227 65.8604 43.4377C65.8604 43.1528 65.9644 42.8679 66.2874 42.8679C66.6484 42.8679 67.0286 42.8203 67.0286 42.0513C67.0286 41.5005 66.7151 41.3672 66.3254 41.3672C65.8604 41.3672 65.6223 41.4814 65.6223 41.8521C65.6223 42.175 65.4802 42.3933 64.9294 42.3933C64.2454 42.3933 64.1597 42.2505 64.1597 41.7949C64.1597 41.0537 64.6914 40.0942 66.3254 40.0942C67.5325 40.0942 68.4443 40.5315 68.4443 41.814C68.4443 42.5076 68.1873 43.1528 67.7126 43.3718C68.2729 43.5806 68.6816 43.9988 68.6816 44.7678V44.9487C68.6816 46.5066 67.6079 47.0955 66.2786 47.0955C64.6445 47.0955 64.0176 46.0979 64.0176 45.2996C64.0176 44.8726 64.1978 44.7583 64.7207 44.7583C65.3286 44.7583 65.4802 44.8916 65.4802 45.2527C65.4802 45.6987 65.8984 45.8035 66.3262 45.8035C66.9714 45.8035 67.1992 45.5654 67.1992 44.948Z" fill="#3F4B4F"/>
        <path d="M36.3176 59.6114C36.207 61.1267 34.9641 62.3096 33.4451 62.3806C30.9058 62.503 28.365 62.5213 25.8264 62.4341C25.3679 62.4202 24.9109 62.4019 24.4546 62.3806C22.937 62.3096 21.6919 61.1267 21.5813 59.6114C21.4729 58.1472 21.4729 56.6831 21.5813 55.219C21.6919 53.7044 22.937 52.5237 24.4546 52.4497C24.9109 52.4292 25.3679 52.408 25.8264 52.397C28.365 52.3091 30.9036 52.3274 33.4451 52.4497C34.9641 52.5237 36.207 53.7044 36.3176 55.219C36.426 56.6831 36.426 58.1472 36.3176 59.6114Z" fill="#CACACA"/>
        <path d="M36.3179 59.6112C36.2073 61.1266 34.9644 62.3095 33.4453 62.3805C30.906 62.5028 28.3652 62.5212 25.8267 62.434C24.8862 61.9125 24.2263 60.9516 24.1436 59.8193C24.0264 58.2167 24.0264 56.6142 24.1436 55.0116C24.2263 53.8793 24.8862 52.9184 25.8267 52.3969C28.3652 52.3097 30.9038 52.328 33.4453 52.4504C34.9644 52.5236 36.2073 53.7043 36.3179 55.2196C36.4263 56.683 36.4263 58.1471 36.3179 59.6112Z" fill="#F1F4FE"/>
        <path d="M55.0442 59.6114C54.9336 61.1267 53.6907 62.3096 52.1709 62.3806C49.6323 62.503 47.0916 62.5213 44.553 62.4341C44.0938 62.4202 43.6375 62.4019 43.1804 62.3806C41.6636 62.3096 40.4185 61.1267 40.3079 59.6114C40.1995 58.1472 40.1995 56.6831 40.3079 55.219C40.4185 53.7044 41.6636 52.5237 43.1804 52.4497C43.6375 52.4292 44.0938 52.408 44.553 52.397C47.0916 52.3091 49.6301 52.3274 52.1709 52.4497C53.6907 52.5237 54.9336 53.7044 55.0442 55.219C55.1526 56.6831 55.1526 58.1472 55.0442 59.6114Z" fill="#CACACA"/>
        <path d="M55.044 59.6112C54.9334 61.1266 53.6905 62.3095 52.1707 62.3805C49.6321 62.5028 47.0914 62.5212 44.5528 62.434C43.6116 61.9125 42.9525 60.9516 42.8697 59.8193C42.7518 58.2167 42.7518 56.6142 42.8697 55.0116C42.9525 53.8793 43.6116 52.9184 44.5528 52.3969C47.0914 52.3097 49.6299 52.328 52.1707 52.4504C53.6905 52.5236 54.9334 53.7043 55.044 55.2196C55.1524 56.683 55.1524 58.1471 55.044 59.6112Z" fill="#F1F4FE"/>
        <path d="M73.7708 59.6114C73.6602 61.1267 72.4172 62.3096 70.8982 62.3806C68.3589 62.503 65.8181 62.5213 63.2795 62.4341C62.821 62.4202 62.364 62.4019 61.9077 62.3806C60.3901 62.3096 59.145 61.1267 59.0344 59.6114C58.926 58.1472 58.926 56.6831 59.0344 55.219C59.145 53.7044 60.3901 52.5237 61.9077 52.4497C62.364 52.4292 62.821 52.408 63.2795 52.397C65.8181 52.3091 68.3567 52.3274 70.8982 52.4497C72.4172 52.5237 73.6602 53.7044 73.7708 55.219C73.8792 56.6831 73.8792 58.1472 73.7708 59.6114Z" fill="#CACACA"/>
        <path d="M73.77 59.6112C73.6594 61.1266 72.4165 62.3095 70.8975 62.3805C68.3582 62.5028 65.8174 62.5212 63.2788 62.434C62.3384 61.9125 61.6785 60.9516 61.5957 59.8193C61.4785 58.2167 61.4785 56.6142 61.5957 55.0116C61.6785 53.8793 62.3384 52.9184 63.2788 52.3969C65.8174 52.3097 68.356 52.328 70.8975 52.4504C72.4165 52.5236 73.6594 53.7043 73.77 55.2196C73.8784 56.683 73.8784 58.1471 73.77 59.6112Z" fill="#F1F4FE"/>
        <path d="M36.3176 73.7644C36.207 75.2791 34.9641 76.4619 33.4451 76.5337C30.9058 76.6553 28.365 76.6743 25.8264 76.5864C25.3679 76.5725 24.9109 76.5542 24.4546 76.5337C22.937 76.4619 21.6919 75.2791 21.5813 73.7644C21.4729 72.3003 21.4729 70.8355 21.5813 69.3714C21.6919 67.8567 22.937 66.676 24.4546 66.6021C24.9109 66.5816 25.3679 66.5611 25.8264 66.5493C28.365 66.4614 30.9036 66.4798 33.4451 66.6021C34.9641 66.676 36.207 67.8567 36.3176 69.3714C36.426 70.8362 36.426 72.3003 36.3176 73.7644Z" fill="#CACACA"/>
        <path d="M36.3179 73.7643C36.2073 75.279 34.9644 76.4618 33.4453 76.5336C30.906 76.6552 28.3652 76.6742 25.8267 76.5864C24.8862 76.0649 24.2263 75.1039 24.1436 73.9716C24.0264 72.3691 24.0264 70.7665 24.1436 69.164C24.2263 68.0317 24.8862 67.0707 25.8267 66.5492C28.3652 66.4621 30.9038 66.4804 33.4453 66.6027C34.9644 66.6767 36.2073 67.8566 36.3179 69.372C36.4263 70.8361 36.4263 72.3002 36.3179 73.7643Z" fill="#F1F4FE"/>
        <path d="M31.2969 70.0439C31.2969 70.2908 31.1445 70.6614 30.9929 70.9463L28.77 75.2017C28.6938 75.3438 28.5518 75.4009 28.3518 75.4009C27.8867 75.4009 27.4114 75.0779 27.4114 74.6509C27.4114 74.5652 27.4304 74.489 27.478 74.4033L29.8152 70.3574V69.6924H28.1145V70.3289C28.1145 70.5852 27.7534 70.7844 27.3645 70.7844C26.9653 70.7844 26.6328 70.5852 26.6328 70.3289V68.8567C26.6328 68.6282 26.9558 68.4004 27.2788 68.4004H30.6509C30.9358 68.4004 31.2969 68.6282 31.2969 68.8567V70.0439Z" fill="#3F4B4F"/>
        <path d="M55.0442 73.7644C54.9336 75.2791 53.6907 76.4619 52.1709 76.5337C49.6323 76.6553 47.0916 76.6743 44.553 76.5864C44.0938 76.5725 43.6375 76.5542 43.1804 76.5337C41.6636 76.4619 40.4185 75.2791 40.3079 73.7644C40.1995 72.3003 40.1995 70.8355 40.3079 69.3714C40.4185 67.8567 41.6636 66.676 43.1804 66.6021C43.6375 66.5816 44.0938 66.5611 44.553 66.5493C47.0916 66.4614 49.6301 66.4798 52.1709 66.6021C53.6907 66.676 54.9336 67.8567 55.0442 69.3714C55.1526 70.8362 55.1526 72.3003 55.0442 73.7644Z" fill="#CACACA"/>
        <path d="M55.044 73.7643C54.9334 75.279 53.6905 76.4618 52.1707 76.5336C49.6321 76.6552 47.0914 76.6742 44.5528 76.5864C43.6116 76.0649 42.9525 75.1039 42.8697 73.9716C42.7518 72.3691 42.7518 70.7665 42.8697 69.164C42.9525 68.0317 43.6116 67.0707 44.5528 66.5492C47.0914 66.4621 49.6299 66.4804 52.1707 66.6027C53.6905 66.6767 54.9334 67.8566 55.044 69.372C55.1524 70.8361 55.1524 72.3002 55.044 73.7643Z" fill="#F1F4FE"/>
        <path d="M49.7793 70.0908C49.7793 70.8796 49.3999 71.3542 48.8389 71.5447C49.542 71.782 50.0078 72.3518 50.0078 73.3303V73.4438C50.0078 74.8596 48.9912 75.4009 47.6802 75.4009C46.3691 75.4009 45.3438 74.8596 45.3438 73.4438V73.3303C45.3438 72.3518 45.8184 71.782 46.5215 71.5447C45.9612 71.3542 45.5811 70.8796 45.5811 70.0908C45.5811 68.9036 46.4548 68.4004 47.6802 68.4004C48.9055 68.4004 49.7793 68.9036 49.7793 70.0908ZM48.5254 73.0549C48.5254 72.4375 48.2119 72.1526 47.6802 72.1526C47.1484 72.1526 46.8254 72.4375 46.8254 73.0549V73.2637C46.8254 73.9192 47.158 74.2136 47.6802 74.2136C48.2214 74.2136 48.5254 73.9001 48.5254 73.2637V73.0549ZM47.0056 70.2812C47.0056 70.7749 47.2532 70.9653 47.6802 70.9653C48.1079 70.9653 48.3547 70.7749 48.3547 70.2812C48.3547 69.7964 48.1079 69.5876 47.6802 69.5876C47.2532 69.5876 47.0056 69.7964 47.0056 70.2812Z" fill="#3F4B4F"/>
        <path d="M73.7708 73.7644C73.6602 75.2791 72.4172 76.4619 70.8982 76.5337C68.3589 76.6553 65.8181 76.6743 63.2795 76.5864C62.821 76.5725 62.364 76.5542 61.9077 76.5337C60.3901 76.4619 59.145 75.2791 59.0344 73.7644C58.926 72.3003 58.926 70.8355 59.0344 69.3714C59.145 67.8567 60.3901 66.676 61.9077 66.6021C62.364 66.5816 62.821 66.5611 63.2795 66.5493C65.8181 66.4614 68.3567 66.4798 70.8982 66.6021C72.4172 66.676 73.6602 67.8567 73.7708 69.3714C73.8792 70.8362 73.8792 72.3003 73.7708 73.7644Z" fill="#CACACA"/>
        <path d="M73.77 73.7643C73.6594 75.279 72.4165 76.4618 70.8975 76.5336C68.3582 76.6552 65.8174 76.6742 63.2788 76.5864C62.3384 76.0649 61.6785 75.1039 61.5957 73.9716C61.4785 72.3691 61.4785 70.7665 61.5957 69.164C61.6785 68.0317 62.3384 67.0707 63.2788 66.5492C65.8174 66.4621 68.356 66.4804 70.8975 66.6027C72.4165 66.6767 73.6594 67.8566 73.77 69.372C73.8784 70.8361 73.8784 72.3002 73.77 73.7643Z" fill="#F1F4FE"/>
        <path d="M64.041 70.7273V70.6416C64.041 69.0083 65.0576 68.4004 66.3687 68.4004C67.6797 68.4004 68.7051 69.0083 68.7051 70.6416V73.1589C68.7051 74.793 67.6511 75.4009 66.283 75.4009C64.6775 75.4009 64.041 74.4033 64.041 73.6152C64.041 73.1589 64.26 73.0168 64.7346 73.0168C65.1433 73.0168 65.5044 73.1216 65.5044 73.5581C65.5044 73.9192 65.8838 74.1096 66.3306 74.1096C66.8909 74.1096 67.2234 73.8152 67.2234 73.1589V72.3042C66.9194 72.6367 66.4917 72.7224 66.0361 72.7224C64.9529 72.7224 64.041 72.2471 64.041 70.7273ZM67.2234 70.5376C67.2234 69.8821 66.9004 69.5972 66.3687 69.5972C65.8369 69.5972 65.5234 69.8821 65.5234 70.5376V70.6233C65.5234 71.3162 65.8369 71.582 66.3782 71.582C66.8909 71.582 67.2234 71.3352 67.2234 70.7083V70.5376Z" fill="#3F4B4F"/>
        <path d="M36.3173 87.916C36.2081 89.4329 34.9659 90.6143 33.4454 90.6868C31.0138 90.8018 28.5807 90.8252 26.149 90.749C24.5817 89.9456 23.0634 89.0601 21.6022 88.0925C21.5927 88.0339 21.5861 87.9746 21.5824 87.916C21.4725 86.4526 21.4725 84.9893 21.5824 83.5237C21.6923 82.009 22.9381 80.8298 24.455 80.7551C24.9113 80.7339 25.3676 80.7141 25.826 80.7024C28.3654 80.6145 30.9039 80.6321 33.4454 80.7551C34.9659 80.8298 36.2081 82.009 36.3173 83.5237C36.4271 84.9893 36.4271 86.4526 36.3173 87.916Z" fill="#CACACA"/>
        <path d="M36.3169 87.916C36.2078 89.4329 34.9656 90.6143 33.4451 90.6868C31.0134 90.8018 28.5803 90.8252 26.1487 90.749C25.7964 90.5689 25.4478 90.385 25.1006 90.1946C24.5579 89.6577 24.2034 88.9348 24.1426 88.124C24.0254 86.5215 24.0254 84.919 24.1426 83.3157C24.2268 82.1855 24.8853 81.2239 25.8257 80.7024C28.365 80.6145 30.9036 80.6321 33.4451 80.7551C34.9656 80.8298 36.2078 82.009 36.3169 83.5237C36.4268 84.9893 36.4268 86.4526 36.3169 87.916Z" fill="#F1F4FE"/>
        <path d="M55.0442 87.9167C54.9336 89.4313 53.6907 90.6142 52.1709 90.6859C49.6323 90.8083 47.0916 90.8266 44.553 90.7394C44.0938 90.7255 43.6375 90.7065 43.1804 90.6859C41.6636 90.6142 40.4185 89.432 40.3079 87.9167C40.1995 86.4526 40.1995 84.9884 40.3079 83.5243C40.4185 82.0097 41.6636 80.829 43.1804 80.7551C43.6375 80.7338 44.0938 80.7133 44.553 80.7016C47.0916 80.6144 49.6301 80.6327 52.1709 80.7551C53.6907 80.829 54.9336 82.009 55.0442 83.5243C55.1526 84.9884 55.1526 86.4526 55.0442 87.9167Z" fill="#CACACA"/>
        <path d="M55.044 87.917C54.9334 89.4317 53.6905 90.6145 52.1707 90.6863C49.6321 90.8086 47.0914 90.8269 44.5528 90.7398C43.6116 90.2183 42.9525 89.2566 42.8697 88.125C42.7518 86.5225 42.7518 84.9199 42.8697 83.3174C42.9525 82.1851 43.6116 81.2234 44.5528 80.7027C47.0914 80.6148 49.6299 80.6331 52.1707 80.7554C53.6905 80.8294 54.9334 82.01 55.044 83.5247C55.1524 84.9888 55.1524 86.4529 55.044 87.917Z" fill="#F1F4FE"/>
        <path d="M73.7709 87.916C73.7556 88.1453 73.7123 88.3687 73.6457 88.5803C72.4291 89.3523 71.1774 90.0693 69.892 90.7292H69.8898C67.686 90.812 65.4814 90.8157 63.2797 90.7395C62.819 90.7256 62.3627 90.7058 61.9064 90.6868C60.3896 90.6143 59.1459 89.4329 59.0339 87.916C58.9262 86.4526 58.9262 84.9893 59.0339 83.5237C59.1459 82.009 60.3896 80.8298 61.9064 80.7551C62.3627 80.7339 62.819 80.7141 63.2797 80.7024C65.8168 80.6145 68.3561 80.6321 70.8969 80.7551C72.4174 80.8298 73.6596 82.009 73.7709 83.5237C73.8786 84.9893 73.8786 86.4526 73.7709 87.916Z" fill="#CACACA"/>
        <path d="M73.771 87.916C73.7556 88.1453 73.7124 88.3687 73.6458 88.5803C72.4292 89.3523 71.1753 90.0693 69.8899 90.7292C67.686 90.812 65.4814 90.8157 63.2798 90.7395C62.3394 90.218 61.6787 89.2563 61.5967 88.124C61.4795 86.5215 61.4795 84.9189 61.5967 83.3157C61.6787 82.1855 62.3394 81.2239 63.2798 80.7024C65.8169 80.6145 68.3562 80.6321 70.897 80.7551C72.4175 80.8298 73.6597 82.009 73.771 83.5237C73.8787 84.9893 73.8787 86.4526 73.771 87.916Z" fill="#F1F4FE"/>
        <path d="M27.9656 88.4697V86.9661H26.4619C26.0276 86.9661 25.7324 86.5779 25.7324 85.989C25.7324 85.4309 26.0276 84.9966 26.4619 84.9966H27.9656V83.5083C27.9656 83.1362 28.3999 82.7642 28.958 82.7642C29.5476 82.7642 29.9351 83.1362 29.9351 83.5083V84.9966H31.4233C31.7954 84.9966 32.1675 85.4309 32.1675 85.989C32.1675 86.5779 31.7954 86.9661 31.4233 86.9661H29.9351V88.4697C29.9351 88.9041 29.5476 89.1985 28.958 89.1985C28.3999 89.1985 27.9656 88.9041 27.9656 88.4697Z" fill="#3F4B4F"/>
        <path d="M68.8367 87.7439C68.9143 87.8369 68.9604 88.0229 68.9604 88.1936C68.9604 88.6902 68.4646 89.0308 68.0149 89.0308C67.8442 89.0308 67.5959 89 67.4253 88.7363L66.4175 87.1858L65.3943 88.7517C65.2544 88.9846 65.0684 89.0308 64.8516 89.0308C64.4795 89.0308 63.8745 88.7363 63.8745 88.2244C63.8745 88.0229 63.9521 87.8523 64.0605 87.7285L65.0837 86.271L63.4717 85.8059C63.115 85.7283 62.9443 85.4185 62.9443 85.0149C62.9443 84.6121 63.301 84.1624 63.7969 84.1624C63.8438 84.1624 63.9214 84.1624 64.0298 84.2085L65.658 84.7358L65.5803 83.1538C65.5957 82.6426 65.9832 82.4097 66.4175 82.4097C66.8518 82.4097 67.2239 82.6426 67.2393 83.1538L67.177 84.7666L68.8206 84.2085C68.8982 84.1777 68.9758 84.1624 69.0535 84.1624C69.5339 84.1624 69.8599 84.6736 69.8599 85.1233C69.8599 85.4338 69.7046 85.7283 69.3325 85.8059L67.7512 86.178L68.8367 87.7439Z" fill="#3F4B4F"/>
        <path d="M45.6526 84.7358H49.6838C50.0566 84.7358 50.4287 85.1702 50.4287 85.7283C50.4287 86.3171 50.0566 86.7053 49.6838 86.7053H45.6526C45.2183 86.7053 44.9238 86.3171 44.9238 85.7283C44.9238 85.1702 45.2183 84.7358 45.6526 84.7358Z" fill="#3F4B4F"/>
        <path d="M29.1353 59.4238H26.9124C26.637 59.4238 26.418 59.2437 26.418 58.9111C26.418 58.835 26.437 58.7302 26.4941 58.6255L28.6885 54.3225C28.8313 54.0464 29.0686 53.9424 29.3066 53.9424C29.563 53.9424 30.0471 54.1606 30.0471 54.5027C30.0471 54.5598 30.0281 54.6169 29.9995 54.6836L28.3186 58.0557H29.1353V57.3906C29.1353 57.0771 29.5059 56.9438 29.8765 56.9438C30.2471 56.9438 30.6177 57.0771 30.6177 57.3906V58.0557H31.0256C31.3296 58.0557 31.4819 58.3977 31.4819 58.7397C31.4819 59.0818 31.2542 59.4238 31.0256 59.4238H30.6177V60.4309C30.6177 60.7349 30.2471 60.8872 29.8765 60.8872C29.5059 60.8872 29.1353 60.7349 29.1353 60.4309V59.4238Z" fill="#3F4B4F"/>
        <path d="M47.6763 56.479C48.9873 56.479 50.0039 57.0298 50.0039 58.5503V58.7305C50.0039 60.3169 48.9683 60.9153 47.6953 60.9153C46.1653 60.9153 45.3486 60.0415 45.3486 59.1479C45.3486 58.6353 45.624 58.4932 46.0898 58.4932C46.7358 58.4932 46.8303 58.74 46.8303 59.0439C46.8303 59.4241 47.1914 59.6233 47.6572 59.6233C48.1985 59.6233 48.5215 59.3479 48.5215 58.7305V58.5503C48.5215 57.9233 48.1985 57.6187 47.6763 57.6187H46.2319C45.7954 57.6187 45.6621 57.4004 45.6621 57.0393C45.6621 56.9441 45.6716 56.8687 45.6812 56.7639L45.9375 54.3704C45.9661 54.0847 46.0422 53.9141 46.2034 53.9141H49.2341C49.519 53.9141 49.6619 54.2371 49.6619 54.5601C49.6619 54.8831 49.519 55.2061 49.2341 55.2061H47.1533L47.0581 56.479H47.6763Z" fill="#3F4B4F"/>
        <path d="M68.7344 58.5876V58.6733C68.7344 60.3074 67.7185 60.9153 66.4075 60.9153C65.0964 60.9153 64.0703 60.3074 64.0703 58.6733V56.156C64.0703 54.522 65.125 53.9141 66.4924 53.9141C68.0986 53.9141 68.7351 54.9109 68.7351 55.6997C68.7351 56.156 68.5161 56.2981 68.0415 56.2981C67.6328 56.2981 67.2717 56.1941 67.2717 55.7568C67.2717 55.3958 66.8916 55.2053 66.4456 55.2053C65.8845 55.2053 65.5527 55.4998 65.5527 56.156V57.0107C65.8567 56.6782 66.2837 56.5925 66.74 56.5925C67.8225 56.5933 68.7344 57.0679 68.7344 58.5876ZM65.552 58.7781C65.552 59.4336 65.875 59.7185 66.4075 59.7185C66.9392 59.7185 67.2527 59.4336 67.2527 58.7781V58.6924C67.2527 57.9988 66.9392 57.7329 66.3979 57.7329C65.8845 57.7329 65.5527 57.9797 65.5527 58.6067V58.7781H65.552Z" fill="#3F4B4F"/>
        <path d="M23.8909 27.1594C22.1338 27.1008 20.6982 26.1934 20.6982 25.2559C20.6982 24.7578 21.1377 24.0261 21.6943 24.0261C22.3096 24.0261 22.8076 24.8896 23.8909 25.0801V22.7078C22.5439 22.1951 20.9619 21.5659 20.9619 19.6909C20.9619 17.8313 22.3389 16.9377 23.8909 16.718V16.3079C23.8909 16.1028 24.1252 15.9131 24.4475 15.9131C24.7258 15.9131 25.0042 16.1035 25.0042 16.3079V16.6741C25.9116 16.7034 27.6255 16.9377 27.6255 17.9485C27.6255 18.344 27.3618 19.1489 26.7173 19.1489C26.2339 19.1489 25.9556 18.6809 25.0042 18.6069V20.7456C26.3364 21.2429 27.8884 21.9314 27.8884 23.9082C27.8884 25.7246 26.7173 26.8225 25.0042 27.1008V27.5256C25.0042 27.7307 24.7258 27.9211 24.4475 27.9211C24.1252 27.9211 23.8909 27.7307 23.8909 27.5256V27.1594ZM24.0374 20.394V18.6516C23.3782 18.7834 23.0999 19.1204 23.0999 19.4712C23.0999 19.896 23.4807 20.1597 24.0374 20.394ZM24.8577 23.1033V25.0654C25.3557 24.9482 25.7512 24.6699 25.7512 24.1433C25.7512 23.6599 25.385 23.3523 24.8577 23.1033Z" fill="#2C363B"/>
    </g>
    <defs>
        <clipPath id="clip0">
            <rect width="96" height="96" fill="white"/>
        </clipPath>
    </defs>
</svg>
