<svg width="96" height="97" viewBox="0 0 96 97" fill="none" xmlns="http://www.w3.org/2000/svg">
    <g clip-path="url(#clip0)">
        <path d="M96 48.1768C96 74.6868 74.51 96.1768 48 96.1768C21.49 96.1768 0 74.6868 0 48.1768C0 21.6667 21.49 0.176758 48 0.176758C74.51 0.176758 96 21.6667 96 48.1768Z" fill="#40649C"/>
        <path d="M79.0281 24.2627V84.7996C77.7485 85.885 76.4126 86.9038 75.0232 87.8523C74.1165 88.4712 73.1855 89.0608 72.2334 89.6174H23.7668C22.8147 89.0608 21.8845 88.4712 20.9771 87.8523C19.1262 86.5867 17.3662 85.1973 15.7109 83.6929V24.2627H79.0281Z" fill="#B0B6CC"/>
        <path d="M10.7773 32.5234H22.9883V78.948H10.7773V32.5234Z" fill="#C5CAE2"/>
        <path d="M22.9883 38.5322V78.948H15.0869V41.1858C15.0869 39.7202 16.2756 38.5322 17.7412 38.5322H22.9883Z" fill="#F1F4FE"/>
        <path d="M26.2883 24.1309V31.8411C26.2883 33.2861 25.1165 34.458 23.6714 34.458H10.0974C8.65234 34.458 7.48047 33.2861 7.48047 31.8411V27.9028L26.2883 24.1309Z" fill="#C5CAE2"/>
        <path d="M26.2883 30.125V31.8418C26.2883 33.2869 25.1165 34.4587 23.6714 34.4587H11.9219V32.1047C11.9219 31.012 12.8081 30.125 13.9009 30.125H26.2883Z" fill="#F1F4FE"/>
        <path d="M26.2866 79.6294V83.5676H15.5764C15.2234 83.2461 14.877 82.9187 14.5356 82.5876C12.7705 80.8716 11.1387 79.02 9.65332 77.0491C9.79614 77.0242 9.94556 77.0117 10.0964 77.0117H23.6697C25.1155 77.0117 26.2866 78.1836 26.2866 79.6294Z" fill="#C5CAE2"/>
        <path d="M26.2866 79.2334V83.5671H15.5764C15.2234 83.2456 14.877 82.9182 14.5356 82.5872C13.7344 81.8093 12.9624 81.0022 12.2183 80.1694C12.5691 79.6077 13.1917 79.2334 13.9006 79.2334H26.2866Z" fill="#F1F4FE"/>
        <path d="M31.5215 32.5234H43.7332V78.948H31.5215V32.5234Z" fill="#C5CAE2"/>
        <path d="M43.7329 38.5322V78.948H35.8315V41.1858C35.8315 39.7202 37.0203 38.5322 38.4858 38.5322H43.7329Z" fill="#F1F4FE"/>
        <path d="M47.0322 24.1309V31.8411C47.0322 33.2861 45.8604 34.458 44.4153 34.458H30.8413C29.3955 34.458 28.2236 33.2861 28.2236 31.8411V27.9028L47.0322 24.1309Z" fill="#C5CAE2"/>
        <path d="M47.0325 30.125V31.8418C47.0325 33.2869 45.8606 34.4587 44.4155 34.4587H32.666V32.1047C32.666 31.012 33.5522 30.125 34.645 30.125H47.0325Z" fill="#F1F4FE"/>
        <path d="M47.0315 79.6287V83.5676H28.2236V79.6287C28.2236 78.1836 29.3955 77.0117 30.8406 77.0117H44.4146C45.8596 77.0117 47.0315 78.1836 47.0315 79.6287Z" fill="#C5CAE2"/>
        <path d="M47.0315 79.2344V83.5681H32.665V81.2134C32.665 80.1206 33.5513 79.2344 34.644 79.2344H47.0315Z" fill="#F1F4FE"/>
        <path d="M52.2656 32.5234H64.4773V78.948H52.2656V32.5234Z" fill="#C5CAE2"/>
        <path d="M64.4775 38.5322V78.948H56.5762V41.1858C56.5762 39.7202 57.7642 38.5322 59.2297 38.5322H64.4775Z" fill="#F1F4FE"/>
        <path d="M67.7769 24.1309V31.8411C67.7769 33.2861 66.605 34.458 65.1592 34.458H51.5852C50.1401 34.458 48.9683 33.2861 48.9683 31.8411V27.9028L67.7769 24.1309Z" fill="#C5CAE2"/>
        <path d="M67.7769 30.125V31.8418C67.7769 33.2869 66.605 34.4587 65.1592 34.4587H53.4097V32.1047C53.4097 31.012 54.2959 30.125 55.3894 30.125H67.7769Z" fill="#F1F4FE"/>
        <path d="M67.7764 79.6287V83.5676H48.9678V79.6287C48.9678 78.1836 50.1396 77.0117 51.5854 77.0117H65.1594C66.6045 77.0117 67.7764 78.1836 67.7764 79.6287Z" fill="#C5CAE2"/>
        <path d="M67.7761 79.2344V83.5681H53.4097V81.2134C53.4097 80.1206 54.2959 79.2344 55.3887 79.2344H67.7761Z" fill="#F1F4FE"/>
        <path d="M73.0098 32.5234H85.2214V78.948H73.0098V32.5234Z" fill="#C5CAE2"/>
        <path d="M85.2217 38.5322V78.948H77.3203V41.1858C77.3203 39.7202 78.5083 38.5322 79.9739 38.5322H85.2217Z" fill="#F1F4FE"/>
        <path d="M88.5208 24.1309V31.8411C88.5208 33.2861 87.3496 34.458 85.9038 34.458H72.3298C70.8848 34.458 69.7129 33.2861 69.7129 31.8411V27.9028L88.5208 24.1309Z" fill="#C5CAE2"/>
        <path d="M88.5208 30.125V31.8418C88.5208 33.2869 87.3496 34.4587 85.9038 34.4587H74.1543V32.1047C74.1543 31.012 75.0405 30.125 76.134 30.125H88.5208Z" fill="#F1F4FE"/>
        <path d="M86.3474 77.0491C85.7871 77.7954 85.2034 78.5227 84.5999 79.2339C83.6089 80.4014 82.5623 81.5205 81.4651 82.5876C81.1245 82.9187 80.7781 83.2461 80.425 83.5676H69.7119V79.6294C69.7119 78.1836 70.8838 77.0117 72.3296 77.0117H85.9028C86.0537 77.0117 86.2024 77.0256 86.3474 77.0491Z" fill="#C5CAE2"/>
        <path d="M84.6001 79.2334C83.6091 80.4009 82.5625 81.52 81.4653 82.5872C81.1248 82.9182 80.7783 83.2456 80.4253 83.5671H74.1543V81.2139C74.1543 80.1211 75.0398 79.2334 76.1326 79.2334H84.6001Z" fill="#F1F4FE"/>
        <path d="M47.0596 0.562378L1.44802 24.0204C-0.47019 25.007 0.23147 27.9044 2.38772 27.9044H93.6123C95.7693 27.9044 96.4702 25.007 94.5528 24.0204L48.9405 0.562378C48.3501 0.259155 47.6499 0.259155 47.0596 0.562378Z" fill="#F1F4FE"/>
        <path d="M11.7012 23.5935L48 4.9248L84.2988 23.5935H11.7012Z" fill="#C5CAE2"/>
        <path d="M81.4651 82.5879C79.4766 84.5222 77.3218 86.283 75.0234 87.8525C72.7134 89.428 70.259 90.8086 67.6824 91.9666H28.3184C25.7424 90.8086 23.2874 89.428 20.9773 87.8525C18.6797 86.283 16.5242 84.5222 14.5356 82.5879H81.4651Z" fill="#C5CAE2"/>
        <path d="M81.4651 82.5879C79.4766 84.5222 77.3218 86.283 75.0234 87.8525H20.9773C18.6797 86.283 16.5242 84.5222 14.5356 82.5879H81.4651Z" fill="#F1F4FE"/>
        <path d="M72.2336 89.6172C70.7644 90.4792 69.2461 91.2629 67.6824 91.9661C61.678 94.6716 55.0144 96.1768 48.0007 96.1768C40.9871 96.1768 34.3235 94.6716 28.3184 91.9661C26.7554 91.2629 25.2371 90.4792 23.7671 89.6172H72.2336Z" fill="#F1F4FE"/>
        <path d="M25.8882 8.79248C25.8882 8.17651 26.543 7.86816 27.1978 7.86816H31.144C33.0696 7.86816 34.9944 8.56177 34.9944 11.2952C34.9944 12.8545 34.3784 13.8748 33.3582 14.3179C34.5322 14.761 35.3416 15.4729 35.3416 17.3984V17.8027C35.3416 20.8445 33.6475 21.9417 31.4714 21.9417H27.1978C26.3892 21.9417 25.8882 21.5183 25.8882 21.0371V8.79248ZM28.8728 13.1628H30.8936C31.6252 13.1628 31.9915 12.489 31.9915 11.8342C31.9915 11.1604 31.6252 10.4866 30.8936 10.4866H28.8728V13.1628ZM30.7976 19.3232C31.76 19.3232 32.3379 18.7842 32.3379 17.5522V17.2439C32.3379 15.9351 31.76 15.4729 30.7976 15.4729H28.8728V19.3232H30.7976Z" fill="#F974AC"/>
        <path d="M35.9385 20.7095C35.9385 20.6516 35.9575 20.5747 35.9766 20.4978L39.5574 8.75415C39.7698 8.08032 40.6355 7.75293 41.5217 7.75293C42.4072 7.75293 43.2729 8.07959 43.4846 8.75415L47.0852 20.4978C47.1042 20.5747 47.1233 20.6516 47.1233 20.7095C47.1233 21.4221 46.0261 21.9414 45.1985 21.9414C44.7173 21.9414 44.332 21.7876 44.2163 21.3833L43.5615 18.9766H39.4995L38.8455 21.3833C38.7297 21.7876 38.3445 21.9414 37.8633 21.9414C37.0356 21.9414 35.9385 21.4221 35.9385 20.7095ZM42.9265 16.6665L41.5217 11.5066L40.1162 16.6665H42.9265Z" fill="#F974AC"/>
        <path d="M54.9026 21.1331L51.2441 14.4717V21.0181C51.2441 21.634 50.4934 21.9417 49.7427 21.9417C48.9919 21.9417 48.2412 21.634 48.2412 21.0181V8.79248C48.2412 8.15747 48.9919 7.86816 49.7427 7.86816C50.8208 7.86816 51.2251 7.96484 51.9568 9.37036L55.0754 15.3191V8.77344C55.0754 8.1377 55.8262 7.86816 56.5769 7.86816C57.3284 7.86816 58.0791 8.1377 58.0791 8.77344V21.0181C58.0791 21.634 57.3284 21.9417 56.5769 21.9417C55.884 21.9417 55.2681 21.8069 54.9026 21.1331Z" fill="#F974AC"/>
        <path d="M60.1582 8.77344C60.1582 8.1377 60.9089 7.86816 61.6597 7.86816C62.4111 7.86816 63.1619 8.1377 63.1619 8.77344V13.3936L66.7617 8.29224C66.9734 7.98389 67.2429 7.86816 67.5513 7.86816C68.321 7.86816 69.3223 8.65771 69.3223 9.40845C69.3223 9.56226 69.2834 9.77393 69.1296 9.98633L65.9722 13.9517L69.9573 20.0549C70.054 20.2087 70.1118 20.3823 70.1118 20.5559C70.1118 21.3066 69.1685 22.0574 68.302 22.0574C67.8977 22.0574 67.5125 21.9036 67.262 21.4993L63.9697 16.4932L63.1611 17.5332V21.0181C63.1611 21.634 62.4104 21.9417 61.6597 21.9417C60.9089 21.9417 60.1582 21.634 60.1582 21.0181V8.77344Z" fill="#F974AC"/>
    </g>
    <defs>
        <clipPath id="clip0">
            <rect width="96" height="96" fill="white" transform="translate(0 0.176758)"/>
        </clipPath>
    </defs>
</svg>
