<svg width="96" height="96" viewBox="0 0 96 96" fill="none" xmlns="http://www.w3.org/2000/svg">
<g clip-path="url(#clip0)">
<path d="M96 48C96 57.4863 93.249 66.3303 88.4985 73.7747C87.1091 75.9514 85.552 78.0088 83.8396 79.9285C83.8235 79.9468 83.8081 79.9644 83.792 79.9819C83.365 80.4617 82.9263 80.9319 82.478 81.3926C82.2561 81.6218 82.0312 81.8489 81.8057 82.0701C80.6477 83.2244 79.4312 84.3135 78.1597 85.3403C76.9233 86.3416 75.6379 87.282 74.3042 88.1536C74.053 88.3184 73.8025 88.481 73.5476 88.6392C72.0981 89.5562 70.5952 90.3948 69.0439 91.1514C62.6902 94.2583 55.5469 96 48 96C40.4531 96 33.312 94.2583 26.9583 91.1528C26.2866 90.8254 25.6245 90.4812 24.9719 90.1245C24.5171 89.8755 24.0667 89.6191 23.6221 89.3562C22.6362 88.7747 21.6746 88.1572 20.7378 87.509C19.8113 86.8682 18.906 86.1965 18.0286 85.4927C15.9185 83.8044 13.9556 81.9412 12.1589 79.9248C10.4465 78.0051 8.88721 75.9478 7.4978 73.7688C2.75098 66.3245 0 57.4827 0 48C0 21.49 21.49 0 48 0C74.51 0 96 21.49 96 48Z" fill="#274B7B"/>
<path d="M82.233 75.9906C81.8653 81.6002 78.617 86.1903 74.306 87.5218C73.7493 87.6954 73.1744 87.8133 72.5877 87.8712C56.1968 89.5067 39.8038 89.5067 23.4114 87.8712C18.2684 87.3585 14.1807 82.3238 13.7654 75.9906C12.4376 55.7992 12.4376 35.61 13.7654 15.4193C14.1807 9.08531 18.2691 4.05064 23.4114 3.53795C27.1475 3.16588 30.8814 2.87804 34.6182 2.67589C47.2745 1.98741 59.9307 2.27452 72.5877 3.53795C77.73 4.05064 81.8177 9.08531 82.233 15.4193C83.563 35.61 83.563 55.7992 82.233 75.9906Z" fill="#EC4081"/>
<path d="M82.2329 75.9901C81.8652 81.5997 78.6169 86.1898 74.3059 87.5214C61.6511 88.2099 48.9985 87.9227 36.3445 86.6593C31.2043 86.1466 27.116 81.112 26.6985 74.778C25.3713 54.5873 25.3713 34.3959 26.6985 14.2045C27.0684 8.60146 30.313 4.01064 34.6182 2.6747C47.2744 1.98623 59.9307 2.27407 72.5876 3.53749C77.73 4.05019 81.8176 9.08486 82.2329 15.4181C83.563 35.6095 83.563 55.7987 82.2329 75.9901Z" fill="#F974AC"/>
<path d="M88.4986 73.7751C79.9776 87.1389 65.0238 96.0005 48.0001 96.0005C30.975 96.0005 16.0182 87.1353 7.4979 73.7693C6.88047 59.2798 7.15879 44.7874 8.33286 30.2971C8.81626 24.3396 13.5521 19.6038 19.5096 19.1204C38.5021 17.5823 57.4959 17.5823 76.4884 19.1204C82.4466 19.6038 87.1839 24.3396 87.6659 30.2971C88.8392 44.7896 89.1175 59.2812 88.4986 73.7751Z" fill="#A0D1E0"/>
<path d="M83.8397 79.9285C79.7073 84.5662 74.6859 88.3967 69.044 91.1514C62.0296 91.5549 54.9786 91.7585 48.0001 91.7585C41.0238 91.7585 33.972 91.5549 26.9583 91.1528C21.3143 88.3967 16.2928 84.564 12.159 79.9248C10.9498 63.4028 11.0479 46.6934 12.4549 30.1992C12.7757 26.439 15.8834 23.4888 19.8428 23.1848C29.1842 22.4663 38.6588 22.1016 48.0001 22.1016C57.3414 22.1016 66.8138 22.4663 76.1558 23.1848C80.1153 23.4888 83.2244 26.439 83.5438 30.1992C84.9522 46.6948 85.0504 63.405 83.8397 79.9285Z" fill="#C4E9F7"/>
<path d="M84.0276 70.6394L78.7491 69.1907L84.2224 69.2237C84.9754 69.2281 85.5891 68.6223 85.5943 67.8694L85.5994 66.9846C85.6038 66.2317 84.9973 65.618 84.2444 65.6136L78.771 65.5799L84.0664 64.1956C84.7952 64.0052 85.231 63.2603 85.0406 62.5323L84.8172 61.6761C84.6267 60.948 83.8819 60.5115 83.1538 60.7019L77.8584 62.0869L82.6148 59.3792C83.2688 59.0064 83.4973 58.1743 83.1253 57.5203L82.6873 56.7512C82.3152 56.0965 81.4825 55.8687 80.8284 56.2407L76.0721 58.9485L79.9656 55.1018C80.501 54.573 80.5061 53.7102 79.9773 53.1748L79.3555 52.5449C78.8267 52.0095 77.9632 52.0044 77.4278 52.5332L73.5342 56.3799L76.2998 51.6565C76.68 51.0069 76.4617 50.1719 75.812 49.7918L75.0481 49.3443C74.3985 48.9641 73.5635 49.1824 73.1834 49.8321L70.4178 54.5554L71.8665 49.2776C72.0657 48.551 71.6394 47.801 70.9129 47.6018L70.0603 47.3682C69.3338 47.169 68.5845 47.596 68.3846 48.3218L66.9358 53.5996L66.9695 48.1262C66.9739 47.374 66.3675 46.7595 65.6145 46.7552L64.7298 46.75C63.9776 46.7456 63.3631 47.3521 63.3587 48.1043L63.3257 53.5777L61.9414 48.2823C61.751 47.5542 61.0061 47.1177 60.2781 47.3081L59.4219 47.5323C58.6931 47.7227 58.2574 48.4676 58.4478 49.1956L59.8321 54.491L57.1243 49.7346C56.7515 49.0799 55.9195 48.8521 55.2654 49.2241L54.4964 49.6621C53.8423 50.0342 53.6138 50.8662 53.9866 51.521L56.6944 56.2774L52.8477 52.3838C52.3181 51.8484 51.4553 51.8433 50.9199 52.3721L50.2908 52.9939C49.7547 53.5227 49.7495 54.3855 50.2783 54.9209L54.125 58.8152L49.4016 56.0496C48.752 55.6695 47.9177 55.8877 47.5369 56.5374L47.0901 57.3006C46.71 57.9502 46.9282 58.7852 47.5779 59.166L52.3013 61.9309L47.0227 60.4822C46.2969 60.283 45.5469 60.71 45.3477 61.4358L45.1133 62.2891C44.9141 63.0149 45.3411 63.7649 46.0669 63.9641L51.3455 65.4129L45.8721 65.3799C45.1192 65.3755 44.5054 65.982 44.501 66.7342L44.4951 67.6189C44.4907 68.3719 45.0972 68.9856 45.8501 68.99L51.3235 69.0237L46.0281 70.408C45.2993 70.5984 44.8635 71.3433 45.054 72.0713L45.2774 72.9275C45.4678 73.6556 46.2127 74.0921 46.9407 73.9016L52.2368 72.5174L47.4798 75.2251C46.8257 75.5972 46.5972 76.43 46.97 77.084L47.4073 77.8531C47.7801 78.5071 48.6121 78.7356 49.2661 78.3628L54.0232 75.6551L50.1289 79.5017C49.5935 80.0306 49.5884 80.8941 50.1172 81.4295L50.739 82.0586C51.2686 82.594 52.1314 82.5992 52.6668 82.0703L56.5603 78.2237L53.7947 82.9471C53.4146 83.5967 53.6328 84.4317 54.2825 84.8118L55.0464 85.2593C55.6961 85.6394 56.531 85.4212 56.9112 84.7715L59.6768 80.0481L58.2281 85.3267C58.0288 86.0525 58.4558 86.8025 59.1817 87.0017L60.0349 87.2354C60.7608 87.4346 61.5108 87.0083 61.71 86.2825L63.1587 81.0039L63.125 86.4773C63.1206 87.2303 63.7271 87.844 64.48 87.8484L65.3648 87.8535C66.117 87.8579 66.7315 87.2522 66.7359 86.4993L66.7688 81.0259L68.1538 86.3213C68.3443 87.0494 69.0884 87.4859 69.8172 87.2954L70.6734 87.0713C71.4014 86.8809 71.8372 86.136 71.6468 85.408L70.2625 80.1126L72.9702 84.8697C73.3431 85.5237 74.1751 85.7522 74.8291 85.3794L75.5982 84.9422C76.2522 84.5694 76.4807 83.7373 76.1087 83.0833L73.4009 78.3262L77.2476 82.2205C77.7764 82.7559 78.6392 82.761 79.1746 82.2322L79.8045 81.6104C80.3399 81.0808 80.345 80.2181 79.8162 79.6827L75.9695 75.7891L80.6929 78.554C81.3426 78.9348 82.1775 78.7166 82.5577 78.0669L83.0044 77.303C83.3846 76.6534 83.1663 75.8184 82.5166 75.4383L77.7932 72.6726L83.0718 74.1214C83.7976 74.3206 84.5476 73.8936 84.7469 73.1678L84.9812 72.3145C85.1805 71.5887 84.7535 70.8387 84.0276 70.6394Z" fill="#FCBC77"/>
<path d="M84.7522 67.302C84.7522 78.1851 75.9302 87.0071 65.0471 87.0071C54.1648 87.0071 45.3428 78.1851 45.3428 67.302C45.3428 56.4197 54.1648 47.5977 65.0471 47.5977C75.9302 47.5977 84.7522 56.4197 84.7522 67.302Z" fill="#FCBC77"/>
<path d="M83.3008 67.3013C83.3008 77.3823 75.1284 85.5547 65.0474 85.5547C54.9663 85.5547 46.7939 77.3823 46.7939 67.3013C46.7939 57.2202 54.9663 49.0479 65.0474 49.0479C75.1284 49.0479 83.3008 57.2202 83.3008 67.3013Z" fill="#FEE175"/>
<path d="M80.2815 67.302C80.2815 75.7153 73.4604 82.5364 65.0471 82.5364C56.6338 82.5364 49.8135 75.7153 49.8135 67.302C49.8135 58.8887 56.6338 52.0684 65.0471 52.0684C73.4604 52.0684 80.2815 58.8887 80.2815 67.302Z" fill="#FCBC77"/>
<path d="M77.7087 70.778C77.5358 71.4064 77.3205 72.0136 77.0649 72.5936C74.7446 77.881 69.1921 81.0421 63.4616 80.3375C62.8317 80.2614 62.2011 80.1376 61.5712 79.9647C59.6406 79.4345 57.9304 78.5006 56.5051 77.276C55.5478 76.4586 54.7202 75.5079 54.0434 74.4657C53.5329 73.6835 53.1081 72.8463 52.7748 71.9725C51.8146 69.4559 51.6169 66.6229 52.3845 63.8265C52.3903 63.8046 52.3962 63.7841 52.4035 63.7628C54.343 56.8275 61.5075 52.7501 68.4589 54.6229C68.4802 54.6273 68.5021 54.6332 68.5226 54.6383C71.3198 55.4066 73.6554 57.0231 75.3283 59.1346C75.9098 59.8656 76.4123 60.6595 76.8232 61.4974C77.3747 62.6144 77.7687 63.809 77.9826 65.049C78.3085 66.8998 78.2382 68.848 77.7087 70.778Z" fill="#FEE175"/>
<path d="M75.3283 59.1355L52.7748 71.9727C51.8146 69.4561 51.6169 66.623 52.3845 63.8274C52.3903 63.8054 52.3962 63.7849 52.4035 63.7629L68.4589 54.623C68.4802 54.6274 68.5021 54.6333 68.5227 54.6392C71.3205 55.4067 73.6555 57.0232 75.3283 59.1355Z" fill="#FFEEB8"/>
<path d="M77.9839 65.0486L56.5056 77.2756C55.5483 76.4583 54.7207 75.5083 54.0439 74.4653L76.8237 61.4971C77.376 62.614 77.7693 63.8086 77.9839 65.0486Z" fill="#FFEEB8"/>
<path d="M77.0649 72.5938C74.7446 77.8804 69.1921 81.0415 63.4609 80.3376L77.0649 72.5938Z" fill="#FFEEB8"/>
<path d="M48.3885 44.9896L44.6729 49.0084L47.2218 44.1649C47.5726 43.4991 47.317 42.6744 46.6505 42.3243L45.8675 41.9119C45.2017 41.5618 44.377 41.8175 44.0269 42.4832L41.4774 47.3267L42.6859 41.9888C42.8521 41.2542 42.3922 40.5247 41.6575 40.3585L40.7948 40.1629C40.0609 39.9967 39.3306 40.4574 39.1644 41.1912L37.9559 46.5299L37.742 41.0609C37.7127 40.3087 37.0784 39.7227 36.3263 39.752L35.4422 39.7865C34.69 39.8157 34.1041 40.45 34.1341 41.2022L34.348 46.6712L32.7257 41.4439C32.5023 40.7247 31.7391 40.3226 31.0199 40.546L30.1746 40.8082C29.4561 41.0316 29.054 41.7955 29.2774 42.514L30.8997 47.7413L27.9796 43.1116C27.5775 42.4752 26.7359 42.2847 26.0994 42.6861L25.3509 43.1585C24.7144 43.5606 24.524 44.4022 24.9254 45.0387L27.8455 49.6683L23.8267 45.952C23.2738 45.4415 22.4117 45.4752 21.9005 46.0274L21.2999 46.6771C20.7894 47.2301 20.8231 48.0921 21.3753 48.6033L25.3941 52.3189L20.5506 49.7701C19.8848 49.4193 19.0601 49.6756 18.71 50.3414L18.2977 51.1243C17.9476 51.7908 18.2032 52.6148 18.869 52.9657L23.7132 55.5145L18.3746 54.306C17.6407 54.1397 16.9105 54.6004 16.7442 55.3343L16.5487 56.1971C16.3831 56.931 16.8431 57.6612 17.577 57.8275L22.9156 59.036L17.4466 59.2506C16.6944 59.2799 16.1085 59.9134 16.1378 60.6656L16.1729 61.5496C16.2022 62.3018 16.8358 62.8878 17.588 62.8585L23.057 62.6439L17.8289 64.2662C17.1104 64.4896 16.7083 65.2535 16.931 65.972L17.1932 66.8172C17.4166 67.5357 18.1805 67.9378 18.899 67.7152L24.1263 66.0921L19.4974 69.0123C18.8602 69.4144 18.6698 70.2559 19.0719 70.8924L19.5435 71.6409C19.9456 72.2782 20.7872 72.4686 21.4237 72.0665L26.0533 69.1463L22.3377 73.1651C21.8265 73.7181 21.8602 74.5802 22.4124 75.0914L23.0628 75.692C23.6151 76.2032 24.4779 76.1695 24.9884 75.6165L28.7047 71.5977L26.1551 76.4412C25.805 77.107 26.0606 77.9317 26.7264 78.2818L27.5094 78.6942C28.1759 79.0443 28.9998 78.7887 29.3507 78.1229L31.8995 73.2794L30.691 78.6173C30.5247 79.3519 30.9854 80.0814 31.7193 80.2476L32.5821 80.4432C33.3167 80.6095 34.0462 80.1488 34.2125 79.4149L35.421 74.0763L35.6356 79.546C35.6649 80.2982 36.2984 80.8841 37.0506 80.8541L37.9346 80.8197C38.6868 80.7904 39.2728 80.1568 39.2435 79.4046L39.0289 73.9349L40.6512 79.1629C40.8746 79.8814 41.6385 80.2835 42.357 80.0601L43.2022 79.7979C43.9215 79.5745 44.3228 78.8114 44.1002 78.0921L42.4779 72.8648L45.398 77.4945C45.7994 78.1309 46.6409 78.3214 47.2774 77.92L48.026 77.4476C48.6632 77.0462 48.8536 76.2039 48.4515 75.5675L45.5313 70.9378L49.5501 74.6541C50.1031 75.1646 50.9659 75.1309 51.4764 74.5787L52.077 73.929C52.5882 73.3761 52.5545 72.514 52.0015 72.0028L47.9827 68.2872L52.8263 70.836C53.4928 71.1868 54.3167 70.9305 54.6676 70.2647L55.0792 69.4818C55.43 68.8153 55.1744 67.9913 54.5079 67.6405L49.6644 65.0916L55.003 66.3001C55.7369 66.4664 56.4671 66.0057 56.6334 65.2718L56.8282 64.409C56.9945 63.6751 56.5338 62.9449 55.7999 62.7786L50.462 61.5701L55.931 61.3555C56.6832 61.3263 57.2691 60.6927 57.2391 59.9405L57.2047 59.0565C57.1754 58.3043 56.5418 57.7183 55.7896 57.7476L50.3199 57.9622L55.5472 56.3399C56.2664 56.1165 56.6685 55.3526 56.4451 54.6341L56.1829 53.7889C55.9596 53.0697 55.1964 52.6683 54.4771 52.8909L49.2498 54.5133L53.8795 51.5931C54.5159 51.1917 54.7064 50.3502 54.305 49.713L53.8326 48.9652C53.4312 48.328 52.5897 48.1375 51.9525 48.5396L47.3236 51.4598L51.0391 47.441C51.5496 46.888 51.5159 46.0252 50.9637 45.5147L50.314 44.9141C49.7618 44.4029 48.8997 44.4373 48.3885 44.9896Z" fill="#FCBC77"/>
<path d="M56.3928 60.302C56.3928 71.1843 47.5708 80.0063 36.6885 80.0063C25.8054 80.0063 16.9834 71.1843 16.9834 60.302C16.9834 49.4197 25.8054 40.5977 36.6885 40.5977C47.5708 40.5977 56.3928 49.4197 56.3928 60.302Z" fill="#FCBC77"/>
<path d="M54.9424 60.3022C54.9424 70.3833 46.77 78.5557 36.689 78.5557C26.6079 78.5557 18.4355 70.3833 18.4355 60.3022C18.4355 50.2212 26.6079 42.0488 36.689 42.0488C46.77 42.0488 54.9424 50.2212 54.9424 60.3022Z" fill="#FEE175"/>
<path d="M51.9221 60.3027C51.9221 68.7161 45.1018 75.5371 36.6885 75.5371C28.2744 75.5371 21.4541 68.7161 21.4541 60.3027C21.4541 51.8894 28.2744 45.0684 36.6885 45.0684C45.1018 45.0684 51.9221 51.8894 51.9221 60.3027Z" fill="#FCBC77"/>
<path d="M45.6029 50.6625C46.0812 51.1049 46.5206 51.5758 46.9184 52.0695C50.5446 56.5629 50.7943 62.9474 47.5314 67.7111C47.1732 68.2348 46.7733 68.7372 46.3295 69.2169C44.9708 70.6869 43.3537 71.7753 41.6105 72.477C40.4445 72.9508 39.2199 73.2475 37.9828 73.369C37.0534 73.4621 36.1151 73.4533 35.1857 73.3471C32.5094 73.0409 29.9035 71.9123 27.7743 69.9442C27.7575 69.9289 27.7421 69.9142 27.7267 69.8974C22.4628 64.9835 22.1412 56.746 27.0031 51.4367C27.0162 51.4206 27.0316 51.4037 27.0463 51.3883C29.0158 49.2577 31.5258 47.9291 34.1713 47.4157C35.0883 47.2355 36.0236 47.1549 36.9567 47.1762C38.2018 47.2003 39.444 47.4003 40.643 47.7812C42.4359 48.3444 44.133 49.3031 45.6029 50.6625Z" fill="#FEE175"/>
<path d="M34.1714 47.416L35.1858 73.3474C32.5095 73.0413 29.9036 71.9126 27.7751 69.9446C27.7583 69.9292 27.7422 69.9146 27.7268 69.8977L27.0039 51.437C27.0171 51.4209 27.0325 51.4041 27.0471 51.3887C29.0166 49.2581 31.5259 47.9294 34.1714 47.416Z" fill="#FFEEB8"/>
<path d="M40.644 47.7808L41.6108 72.4766C40.4456 72.9497 39.2202 73.2471 37.9832 73.3679L36.957 47.1758C38.2021 47.2 39.4443 47.3999 40.644 47.7808Z" fill="#FFEEB8"/>
<path d="M46.918 52.0693C50.5442 56.5627 50.7939 62.9473 47.531 67.7109L46.918 52.0693Z" fill="#FFEEB8"/>
<path d="M58.8066 80.5305V86.439C58.8066 88.0518 57.5 89.3562 55.8894 89.3562H23.6218C21.6626 88.1982 19.7957 86.9077 18.0283 85.4927V80.5305C18.0283 78.9199 19.3328 77.6133 20.9456 77.6133H55.8894C57.5 77.6133 58.8066 78.9199 58.8066 80.5305Z" fill="#FCBC77"/>
<path d="M56.1501 80.1443V86.8247C56.1501 88.647 55.0134 90.1243 53.613 90.1243H24.9717C24.5168 89.8752 24.0664 89.6189 23.6218 89.356C22.636 88.7744 21.6743 88.157 20.7375 87.5088C20.7024 87.2891 20.6826 87.0598 20.6826 86.8247V80.1443C20.6826 78.322 21.8193 76.8447 23.2219 76.8447H53.613C55.0134 76.8447 56.1501 78.322 56.1501 80.1443Z" fill="#FCBC77"/>
<path d="M58.8069 80.5298V86.439C58.8069 88.0503 57.501 89.3569 55.8896 89.3569H28.1265C26.5166 89.3569 25.21 88.0503 25.21 86.439V80.5298C25.21 78.9199 26.5166 77.6133 28.1265 77.6133H55.8889C57.501 77.6133 58.8069 78.9199 58.8069 80.5298Z" fill="#FEE175"/>
<path d="M28.4844 78.7852H30.6238V87.854H28.4844V78.7852Z" fill="#FCBC77"/>
<path d="M33.6504 78.7852H35.7905V87.854H33.6504V78.7852Z" fill="#FCBC77"/>
<path d="M38.8174 78.7852H40.9575V87.854H38.8174V78.7852Z" fill="#FCBC77"/>
<path d="M43.9844 78.7852H46.1245V87.854H43.9844V78.7852Z" fill="#FCBC77"/>
<path d="M49.1504 78.7852H51.2905V87.854H49.1504V78.7852Z" fill="#FFEEB8"/>
<path d="M21.0449 78.7852H23.1851V87.854H21.0449V78.7852Z" fill="#FEE175"/>
<path d="M54.3164 78.7852H56.4565V87.854H54.3164V78.7852Z" fill="#FCBC77"/>
<path d="M83.7913 79.9824C83.3643 80.4621 82.9256 80.9324 82.4773 81.3931C82.2554 81.6223 82.0305 81.8494 81.805 82.0705C80.647 83.2248 79.4304 84.314 78.159 85.3408C76.9226 86.342 75.6372 87.2825 74.3035 88.154L46.3381 74.438C44.8901 73.7283 44.2925 71.9807 45.0015 70.5327L47.6038 65.2278C48.3128 63.782 50.0625 63.1843 51.5083 63.8955L82.8823 79.2829C83.2412 79.4587 83.5467 79.6982 83.7913 79.9824Z" fill="#FCBC77"/>
<path d="M82.0035 81.669L81.8058 82.0704C80.6478 83.2247 79.4313 84.3138 78.1598 85.3407C76.9235 86.3419 75.6381 87.2823 74.3043 88.1539C74.0531 88.3187 73.8026 88.4813 73.5477 88.6395L48.0433 76.1283C46.7858 75.5108 46.4152 73.6849 47.2186 72.0494L50.1608 66.0501C50.9628 64.4161 52.632 63.5892 53.8917 64.2066L81.1766 77.5916C82.4349 78.2091 82.8048 80.035 82.0035 81.669Z" fill="#FCBC77"/>
<path d="M83.7919 79.9822C83.3649 80.462 82.9261 80.9322 82.4779 81.3929C81.1222 82.7955 79.6801 84.1138 78.1595 85.3406C76.9232 86.3419 75.6378 87.2823 74.3041 88.1539L52.784 77.5997C51.3404 76.8907 50.7428 75.1431 51.4518 73.6966L54.0541 68.3917C54.7631 66.9459 56.5106 66.3482 57.9564 67.0572L82.8829 79.2828C83.2418 79.4586 83.5472 79.6981 83.7919 79.9822Z" fill="#FEE175"/>
<path d="M57.7576 68.2656L59.6787 69.2083L55.6848 77.3506L53.7637 76.408L57.7576 68.2656Z" fill="#FCBC77"/>
<path d="M62.3962 70.541L64.3181 71.4836L60.3235 79.626L58.4023 78.6841L62.3962 70.541Z" fill="#FCBC77"/>
<path d="M67.0339 72.8164L68.9558 73.759L64.9612 81.9014L63.04 80.9587L67.0339 72.8164Z" fill="#FCBC77"/>
<path d="M71.6726 75.0918L73.5945 76.0344L69.5999 84.1768L67.6787 83.2341L71.6726 75.0918Z" fill="#FCBC77"/>
<path d="M76.312 77.3672L78.2332 78.3098L74.2385 86.4521L72.3174 85.5095L76.312 77.3672Z" fill="#FFEEB8"/>
<path d="M51.0786 64.9902L52.9998 65.9329L49.0059 74.0752L47.084 73.1326L51.0786 64.9902Z" fill="#FEE175"/>
<path d="M82.8762 80.5833L82.4785 81.3926C81.1228 82.7952 79.6807 84.1135 78.1602 85.3403L80.9558 79.6406L82.8762 80.5833Z" fill="#FCBC77"/>
<path d="M74.0574 45.4233H72.9983C70.0913 45.4233 67.7344 43.0671 67.7344 40.1594V33.7112C67.7344 30.8042 70.0913 28.4473 72.9983 28.4473H74.0574C76.9651 28.4473 79.3213 30.8042 79.3213 33.7112V40.1594C79.3213 43.0671 76.9651 45.4233 74.0574 45.4233Z" fill="white"/>
<path d="M73.5281 78.4587C70.3289 78.4587 67.7354 75.8652 67.7354 72.6653V53.949C67.7354 50.7498 70.3289 48.1562 73.5281 48.1562C76.728 48.1562 79.3215 50.7498 79.3215 53.949V72.6653C79.3215 75.8652 76.728 78.4587 73.5281 78.4587Z" fill="white"/>
<path d="M30.5834 53.0339L36.8391 51.4504C39.3696 50.8103 39.3696 47.2148 36.8391 46.574L30.5834 44.9905C29.6877 44.7642 28.989 44.0647 28.7626 43.1697L27.1791 36.9141C26.5383 34.3828 22.9428 34.3828 22.3019 36.9141L20.7192 43.1697C20.4921 44.0647 19.7934 44.7642 18.8976 44.9905L12.642 46.574C10.1115 47.2148 10.1115 50.8103 12.642 51.4504L18.8976 53.0339C19.7934 53.261 20.4921 53.9597 20.7192 54.8555L22.3019 61.1111C22.9428 63.6416 26.5383 63.6416 27.1791 61.1111L28.7626 54.8555C28.989 53.9597 29.6877 53.261 30.5834 53.0339Z" fill="white"/>
</g>
<defs>
<clipPath id="clip0">
<rect width="96" height="96" fill="white"/>
</clipPath>
</defs>
</svg>
