<svg width="96" height="96" viewBox="0 0 96 96" fill="none" xmlns="http://www.w3.org/2000/svg">
    <g clip-path="url(#clip0)">
        <path d="M48.0008 95.9996C74.5103 95.9996 96.0006 74.5094 96.0006 47.9998C96.0006 21.4902 74.5103 0 48.0008 0C21.4912 0 0.000976562 21.4902 0.000976562 47.9998C0.000976562 74.5094 21.4912 95.9996 48.0008 95.9996Z" fill="#5CC693"/>
        <path d="M88.163 7.59236V74.2964C85.3751 78.5459 81.9309 82.3252 77.9754 85.4911C69.7605 92.068 59.3396 96.0001 48 96.0001C36.6604 96.0001 26.2395 92.068 18.0245 85.4911C14.069 82.3252 10.6247 78.5457 7.83691 74.2964V7.59236C7.83691 3.39968 11.2361 0.000488281 15.4288 0.000488281H80.5714C84.7638 0.000488281 88.163 3.39968 88.163 7.59236Z" fill="#FD7034"/>
        <path d="M19.2491 0C15.0564 0 11.6572 3.39919 11.6572 7.59188V79.3545C10.2759 77.7578 9.00054 76.0689 7.83691 74.2959V7.59188C7.83691 3.39919 11.2361 0 15.4286 0H19.2491Z" fill="#F96D0D"/>
        <path d="M81.3072 17.3132V82.5615C72.677 90.8822 60.9357 95.9995 48.0012 95.9995C38.9557 95.9995 30.496 93.4977 23.2745 89.1463C22.291 88.5546 21.331 87.9296 20.3965 87.2713C18.3747 85.8471 16.4684 84.2719 14.6934 82.5595V11.8099C14.6934 9.64502 16.4469 7.88965 18.6117 7.88965H71.8837L81.3072 17.3132Z" fill="#EDEDED"/>
        <path d="M64.068 6.68955H58.3653C58.3653 5.37555 57.3002 4.31055 55.9863 4.31055H40.0125C38.6985 4.31055 37.6335 5.37573 37.6335 6.68955H31.9308C30.0122 6.68955 28.457 8.24467 28.457 10.1634V17.1504C28.457 19.069 30.0122 20.6242 31.9308 20.6242H64.0682C65.9868 20.6242 67.542 19.069 67.542 17.1504V10.1634C67.5418 8.24467 65.9867 6.68955 64.068 6.68955Z" fill="#C2C2C2"/>
        <path d="M64.068 4.53427H58.3653C58.3653 3.22027 57.3002 2.15527 55.9863 2.15527H40.0125C38.6985 2.15527 37.6335 3.22046 37.6335 4.53427H31.9308C30.0122 4.53427 28.457 6.0894 28.457 8.00809V14.9951C28.457 16.9138 30.0122 18.4689 31.9308 18.4689H64.0682C65.9868 18.4689 67.542 16.9138 67.542 14.9951V8.00809C67.5418 6.0894 65.9867 4.53427 64.068 4.53427Z" fill="#FCC72E"/>
        <path d="M73.3892 33.615H41.8423C40.7801 33.615 39.9189 32.754 39.9189 31.6916V31.4829C39.9189 30.4208 40.7799 29.5596 41.8423 29.5596H73.3892C74.4514 29.5596 75.3126 30.4206 75.3126 31.4829V31.6916C75.3126 32.7538 74.4514 33.615 73.3892 33.615Z" fill="#474F70"/>
        <path d="M73.3892 50.4666H41.8423C40.7801 50.4666 39.9189 49.6056 39.9189 48.5432V48.3345C39.9189 47.2723 40.7799 46.4111 41.8423 46.4111H73.3892C74.4514 46.4111 75.3126 47.2721 75.3126 48.3345V48.5432C75.3126 49.6056 74.4514 50.4666 73.3892 50.4666Z" fill="#474F70"/>
        <path d="M81.3074 17.3132C77.1912 19.4879 72.883 17.9794 72.1895 15.8282C72.1895 15.8282 76.919 15.5813 79.844 15.8498L81.3074 17.3132Z" fill="#C2C2C2"/>
        <path d="M73.3892 84.1702H41.8423C40.7801 84.1702 39.9189 83.3092 39.9189 82.2468V82.0381C39.9189 80.9759 40.7799 80.1147 41.8423 80.1147H73.3892C74.4514 80.1147 75.3126 80.9757 75.3126 82.0381V82.2468C75.3126 83.3092 74.4514 84.1702 73.3892 84.1702Z" fill="#474F70"/>
        <path d="M73.3892 67.3186H41.8423C40.7801 67.3186 39.9189 66.4576 39.9189 65.3952V65.1866C39.9189 64.1244 40.7799 63.2632 41.8423 63.2632H73.3892C74.4514 63.2632 75.3126 64.1242 75.3126 65.1866V65.3952C75.3126 66.4574 74.4514 67.3186 73.3892 67.3186Z" fill="#474F70"/>
        <path d="M71.8828 14.5676V7.88965L81.3064 17.3132H74.6282C73.1119 17.3132 71.8828 16.0841 71.8828 14.5676Z" fill="#F7F7F7"/>
        <path d="M33.1298 38.5915H21.669C20.9657 38.5915 20.3955 38.0214 20.3955 37.318V25.8575C20.3955 25.1542 20.9657 24.584 21.669 24.584H33.1296C33.8329 24.584 34.4031 25.1542 34.4031 25.8575V37.318C34.4031 38.0212 33.8331 38.5915 33.1298 38.5915ZM22.9425 36.0445H31.8563V27.1308H22.9425V36.0445Z" fill="#474F70"/>
        <path d="M33.1298 55.4431H21.669C20.9657 55.4431 20.3955 54.8729 20.3955 54.1696V42.709C20.3955 42.0057 20.9657 41.4355 21.669 41.4355H33.1296C33.8329 41.4355 34.4031 42.0057 34.4031 42.709V54.1696C34.4031 54.8731 33.8331 55.4431 33.1298 55.4431ZM22.9425 52.8963H31.8563V43.9825H22.9425V52.8963Z" fill="#474F70"/>
        <path d="M29.5307 51.8431C29.2046 51.8431 28.8789 51.7186 28.6303 51.4701L24.3692 47.209C23.8717 46.7116 23.8717 45.9053 24.3692 45.4081C24.8664 44.9108 25.6729 44.9108 26.1701 45.4081L30.4312 49.6692C30.9287 50.1666 30.9287 50.9729 30.4312 51.4701C30.1824 51.7186 29.8564 51.8431 29.5307 51.8431Z" fill="#FF4F6F"/>
        <path d="M25.2686 51.8431C24.9425 51.8431 24.6168 51.7186 24.3682 51.4701C23.8708 50.9727 23.8708 50.1665 24.3682 49.6692L28.6293 45.4081C29.1266 44.9108 29.933 44.9108 30.4303 45.4081C30.9277 45.9055 30.9277 46.7118 30.4303 47.209L26.1691 51.4701C25.9205 51.7186 25.5944 51.8431 25.2686 51.8431Z" fill="#FF4F6F"/>
        <path d="M33.1298 72.2947H21.669C20.9657 72.2947 20.3955 71.7245 20.3955 71.0212V59.5606C20.3955 58.8573 20.9657 58.2871 21.669 58.2871H33.1296C33.8329 58.2871 34.4031 58.8573 34.4031 59.5606V71.0212C34.4031 71.7245 33.8331 72.2947 33.1298 72.2947ZM22.9425 69.7477H31.8563V60.8339H22.9425V69.7477Z" fill="#474F70"/>
        <path d="M33.1292 75.1387H21.67C20.9667 75.1387 20.3965 75.7089 20.3965 76.4122V87.2718C21.331 87.9301 22.291 88.555 23.2744 89.1468H33.129C33.8324 89.1468 34.4025 88.5766 34.4025 87.8733V76.4122C34.4027 75.7087 33.8327 75.1387 33.1292 75.1387ZM31.8559 86.5998H22.9437V77.6855H31.8559V86.5998Z" fill="#474F70"/>
        <path d="M29.5307 85.5467C29.2046 85.5467 28.8789 85.4222 28.6303 85.1738L24.3692 80.9126C23.8717 80.4152 23.8717 79.609 24.3692 79.1117C24.8664 78.6145 25.6729 78.6145 26.1701 79.1117L30.4312 83.3728C30.9287 83.8703 30.9287 84.6765 30.4312 85.1738C30.1824 85.4222 29.8564 85.5467 29.5307 85.5467Z" fill="#FF4F6F"/>
        <path d="M25.2686 85.5467C24.9425 85.5467 24.6168 85.4222 24.3682 85.1738C23.8708 84.6763 23.8708 83.8701 24.3682 83.3728L28.6293 79.1117C29.1266 78.6145 29.933 78.6145 30.4303 79.1117C30.9277 79.6091 30.9277 80.4154 30.4303 80.9126L26.1691 85.1738C25.9205 85.4222 25.5944 85.5467 25.2686 85.5467Z" fill="#FF4F6F"/>
    </g>
    <defs>
        <clipPath id="clip0">
            <rect width="96" height="96" fill="white"/>
        </clipPath>
    </defs>
</svg>
