<svg width="96" height="97" viewBox="0 0 96 97" fill="none" xmlns="http://www.w3.org/2000/svg">
    <g clip-path="url(#clip0)">
        <path d="M1.05371 49.4774C1.05371 23.5577 22.0593 2.54409 47.9761 2.53126C73.8445 2.51842 94.9459 23.6089 94.9459 49.4776C94.9459 60.0299 91.4633 69.7682 85.5858 77.6078C83.1124 80.9067 79.205 82.8187 75.0816 82.8187H19.3619C16.3639 82.8187 13.5209 81.4758 11.6242 79.154C5.0173 71.0662 1.05371 60.735 1.05371 49.4774Z" fill="#56CCF2"/>
        <path d="M57.5806 3.29808V3.51135V12.8789V13.0922V44.4957V71.322V95.4441C54.4873 96.0854 51.2831 96.4238 47.9998 96.4238C44.7164 96.4238 41.5122 96.0854 38.4189 95.4441V71.322V44.4957V13.0922V12.8789V3.51135V3.29808C38.4189 1.71073 39.7058 0.423828 41.2932 0.423828H54.7064C56.2937 0.423828 57.5806 1.71073 57.5806 3.29808Z" fill="#409A8F"/>
        <path d="M46.8503 0.423828H54.7066C56.294 0.423828 57.5809 1.71073 57.5809 3.29808V3.51135V12.8789V13.0922V44.4957V71.322V95.4441C55.3667 95.9032 53.0947 96.204 50.7785 96.3397C48.4622 96.204 46.1902 95.9032 43.9761 95.4441V71.322V44.4957V13.0922V12.8789V3.51135V3.29808C43.9761 1.71073 45.263 0.423828 46.8503 0.423828Z" fill="#53B1A2"/>
        <path d="M29.6045 33.9563V34.1696V89.6754C29.6045 91.0977 28.1046 92.0338 26.8355 91.3917C20.3684 88.1198 14.7613 83.3957 10.4429 77.6476V34.1696V33.9563C10.4429 32.3689 11.7298 31.082 13.3171 31.082H26.7303C28.3176 31.082 29.6045 32.3689 29.6045 33.9563Z" fill="#FF4927"/>
        <path d="M18.7312 31.082H26.7302C28.3176 31.082 29.6045 32.3689 29.6045 33.9563V34.1696V88.9005C29.6045 90.6952 27.695 91.8537 26.1082 91.0155C22.3625 89.0369 18.9171 86.5664 15.8569 83.6904V34.1696V33.9563C15.8569 32.3689 17.1438 31.082 18.7312 31.082Z" fill="#FF5526"/>
        <path d="M44.9341 61.5276V61.7408V96.3212C38.035 95.8762 31.5415 93.9432 25.7725 90.8363V61.7408V61.5276C25.7725 59.9402 27.0594 58.6533 28.6467 58.6533H42.0599C43.6472 58.6533 44.9341 59.9402 44.9341 61.5276Z" fill="#015D96"/>
        <path d="M31.521 93.4456C29.5379 92.7023 27.6177 91.83 25.7725 90.8363V61.7408V61.5276C25.7725 59.9402 27.0594 58.6533 28.6467 58.6533H34.3952C32.8079 58.6533 31.521 59.9402 31.521 61.5276V61.7408V93.4456Z" fill="#014C7E"/>
        <path d="M47.9996 96.4232C47.0628 96.4232 46.1333 96.3925 45.2101 96.3385C43.9525 96.0319 43.0176 94.901 43.0176 93.549V85.8843C43.0176 84.2969 44.3045 83.01 45.8918 83.01C44.3045 83.01 43.0176 81.7231 43.0176 80.1358V72.4711C43.0176 70.8838 44.3045 69.5969 45.8918 69.5969C44.3045 69.5969 43.0176 68.31 43.0176 66.7226V59.0579C43.0176 57.4706 44.3045 56.1837 45.8918 56.1837C44.3045 56.1837 43.0176 54.8968 43.0176 53.3094V45.6448C43.0176 44.0574 44.3045 42.7705 45.8918 42.7705H84.2152C85.8025 42.7705 87.0894 44.0574 87.0894 45.6448V53.3094C87.0894 54.8968 85.8025 56.1837 84.2152 56.1837C85.8025 56.1837 87.0894 57.4706 87.0894 59.0579V66.7226C87.0894 68.31 85.8025 69.5969 84.2152 69.5969C85.8025 69.5969 87.0894 70.8838 87.0894 72.4711V75.4799C78.6748 88.1044 64.3095 96.4232 47.9996 96.4232Z" fill="#FCBC77"/>
        <path d="M87.0894 45.6454V47.5616C87.0894 49.1489 85.8025 50.4358 84.2152 50.4358H84.0236C83.4945 50.4358 83.0655 50.0068 83.0655 49.4777V48.5196C83.0655 47.4192 82.1377 46.5354 81.0217 46.6075C80.0033 46.6734 79.2331 47.5646 79.2331 48.5852V49.4777C79.2331 50.0068 78.8041 50.4358 78.2751 50.4358H75.0814C74.5523 50.4358 74.1233 50.0068 74.1233 49.4777V48.5196C74.1233 47.4192 73.1957 46.5354 72.0795 46.6075C71.0611 46.6734 70.291 47.5646 70.291 48.5852V49.4777C70.291 50.0068 69.8619 50.4358 69.3329 50.4358H66.1392C65.6101 50.4358 65.1811 50.0068 65.1811 49.4777V48.5196C65.1811 47.4192 64.2533 46.5354 63.1373 46.6075C62.1189 46.6734 61.3488 47.5646 61.3488 48.5852V49.4777C61.3488 50.0068 60.9198 50.4358 60.3907 50.4358H57.1972C56.6682 50.4358 56.2391 50.0068 56.2391 49.4777V48.5196C56.2391 47.4192 55.3113 46.5354 54.1954 46.6075C53.1769 46.6734 52.4068 47.5646 52.4068 48.5852V49.4777C52.4068 50.0068 51.9778 50.4358 51.4487 50.4358C49.8614 50.4358 48.5745 49.1489 48.5745 47.5616V45.6454C48.5745 44.058 49.8614 42.7711 51.4487 42.7711H56.4936C48.5754 39.4299 43.0176 31.5939 43.0176 22.4598C43.0176 10.2896 52.8834 0.423828 65.0535 0.423828C77.2237 0.423828 87.0894 10.2896 87.0894 22.4598C87.0894 31.5939 81.5318 39.4299 73.6134 42.7711H84.2152C85.8025 42.7711 87.0894 44.058 87.0894 45.6454ZM48.5745 85.8849V87.8011C48.5745 89.3884 49.8614 90.6753 51.4487 90.6753C51.9778 90.6753 52.4068 90.2463 52.4068 89.7172V88.8249C52.4068 87.8043 53.1769 86.9131 54.1954 86.8472C55.3113 86.775 56.2391 87.6587 56.2391 88.7594V89.7174C56.2391 90.2465 56.6682 90.6755 57.1972 90.6755H60.3909C60.9199 90.6755 61.349 90.2465 61.349 89.7174V88.8251C61.349 87.8045 62.1191 86.9133 63.1375 86.8474C64.2535 86.7752 65.1813 87.6589 65.1813 88.7595V89.7176C65.1813 90.2467 65.6103 90.6757 66.1394 90.6757H69.3331C69.8621 90.6757 70.2912 90.2467 70.2912 89.7176V88.8253C70.2912 87.8047 71.0613 86.9135 72.0797 86.8476C73.1066 86.7811 73.9721 87.5248 74.1039 88.5012C76.5216 86.8807 78.7788 85.0406 80.8504 83.0112H51.4487C49.8614 83.0107 48.5745 84.2976 48.5745 85.8849ZM84.2152 56.1843H51.4487C49.8614 56.1843 48.5745 57.4712 48.5745 59.0586V60.9747C48.5745 62.5621 49.8614 63.849 51.4487 63.849C51.9778 63.849 52.4068 63.4199 52.4068 62.8909V61.9985C52.4068 60.978 53.1769 60.0868 54.1954 60.0209C55.3113 59.9486 56.2391 60.8324 56.2391 61.933V62.8911C56.2391 63.4201 56.6682 63.8492 57.1972 63.8492H60.3909C60.9199 63.8492 61.349 63.4201 61.349 62.8911V61.9987C61.349 60.9782 62.1191 60.087 63.1375 60.0211C64.2535 59.9488 65.1813 60.8326 65.1813 61.9332V62.8913C65.1813 63.4203 65.6103 63.8494 66.1394 63.8494H69.3331C69.8621 63.8494 70.2912 63.4203 70.2912 62.8913V61.9989C70.2912 60.9784 71.0613 60.0872 72.0797 60.0212C73.1957 59.949 74.1235 60.8327 74.1235 61.9334V62.8915C74.1235 63.4205 74.5525 63.8496 75.0816 63.8496H78.2751C78.8041 63.8496 79.2331 63.4205 79.2331 62.8915V61.9991C79.2331 60.9786 80.0033 60.0873 81.0217 60.0214C82.1377 59.9492 83.0655 60.8329 83.0655 61.9336V62.8917C83.0655 63.4207 83.4945 63.8497 84.0236 63.8497H84.2152C85.8025 63.8497 87.0894 62.5628 87.0894 60.9755V59.0593C87.0894 57.4712 85.8025 56.1843 84.2152 56.1843ZM84.2152 69.5975H51.4487C49.8614 69.5975 48.5745 70.8844 48.5745 72.4717V74.3879C48.5745 75.9753 49.8614 77.2622 51.4487 77.2622C51.9778 77.2622 52.4068 76.8331 52.4068 76.3041V75.4117C52.4068 74.3912 53.1769 73.5 54.1954 73.434C55.3113 73.3618 56.2391 74.2455 56.2391 75.3462V76.3043C56.2391 76.8333 56.6682 77.2623 57.1972 77.2623H60.3909C60.9199 77.2623 61.349 76.8333 61.349 76.3043V75.4119C61.349 74.3913 62.1191 73.5001 63.1375 73.4342C64.2535 73.362 65.1813 74.2457 65.1813 75.3464V76.3045C65.1813 76.8335 65.6103 77.2625 66.1394 77.2625H69.3331C69.8621 77.2625 70.2912 76.8335 70.2912 76.3045V75.4121C70.2912 74.3915 71.0613 73.5003 72.0797 73.4344C73.1957 73.3622 74.1235 74.2459 74.1235 75.3466V76.3046C74.1235 76.8337 74.5525 77.2627 75.0816 77.2627H78.2751C78.8041 77.2627 79.2331 76.8337 79.2331 76.3046V75.4123C79.2331 74.3917 80.0033 73.5005 81.0217 73.4346C82.1377 73.3624 83.0655 74.2461 83.0655 75.3468V76.3048C83.0655 76.8339 83.4945 77.2629 84.0236 77.2629H84.2152C85.8025 77.2629 87.0894 75.976 87.0894 74.3887V72.4725C87.0894 70.8844 85.8025 69.5975 84.2152 69.5975Z" fill="#FEE175"/>
        <path d="M79.4251 22.4591C79.4251 30.3961 72.9908 36.8304 65.0539 36.8304C57.1169 36.8304 50.6826 30.3961 50.6826 22.4591C50.6826 14.5222 57.1169 8.08789 65.0539 8.08789C72.9908 8.08789 79.4251 14.5222 79.4251 22.4591Z" fill="#FFEEB8"/>
        <path d="M79.4244 22.4595C79.4244 29.5603 74.2732 35.4542 67.5047 36.6183C60.7362 35.4542 55.585 29.5603 55.585 22.4595C55.585 15.3588 60.7362 9.46485 67.5047 8.30078C74.2732 9.46485 79.4244 15.3588 79.4244 22.4595Z" fill="#FEE175"/>
        <path d="M66.0114 32.9985H64.0953C63.037 32.9985 62.1791 32.1407 62.1791 31.0824V13.8369C62.1791 12.7786 63.037 11.9207 64.0953 11.9207H66.0114C67.0697 11.9207 67.9276 12.7786 67.9276 13.8369V31.0824C67.9276 32.1407 67.0697 32.9985 66.0114 32.9985ZM65.0534 38.747C63.9951 38.747 63.1372 39.6049 63.1372 40.6632C63.1372 41.7215 63.9951 42.5794 65.0534 42.5794C66.1117 42.5794 66.9695 41.7215 66.9695 40.6632C66.9695 39.6049 66.1117 38.747 65.0534 38.747ZM66.9695 4.25601C66.9695 5.31431 66.1117 6.17218 65.0534 6.17218C63.9951 6.17218 63.1372 5.31431 63.1372 4.25601C63.1372 3.19771 63.9951 2.33984 65.0534 2.33984C66.1117 2.33984 66.9695 3.19771 66.9695 4.25601ZM83.2569 20.5434C84.3152 20.5434 85.1731 21.4013 85.1731 22.4596C85.1731 23.5179 84.3152 24.3758 83.2569 24.3758C82.1986 24.3758 81.3408 23.5179 81.3408 22.4596C81.3408 21.4013 82.1986 20.5434 83.2569 20.5434ZM46.8498 20.5434C47.9081 20.5434 48.7659 21.4013 48.7659 22.4596C48.7659 23.5179 47.9081 24.3758 46.8498 24.3758C45.7915 24.3758 44.9336 23.5179 44.9336 22.4596C44.9336 21.4013 45.7915 20.5434 46.8498 20.5434ZM79.2801 33.9765C80.0284 34.7248 80.0284 35.9381 79.2801 36.6864C78.5319 37.4347 77.3186 37.4347 76.5703 36.6864C75.822 35.9381 75.822 34.7248 76.5703 33.9765C77.3186 33.2283 78.5319 33.2283 79.2801 33.9765ZM53.5364 8.23283C54.2847 8.98109 54.2847 10.1944 53.5364 10.9427C52.7882 11.6909 51.5748 11.6909 50.8266 10.9427C50.0783 10.1944 50.0783 8.98109 50.8266 8.23283C51.5748 7.48456 52.7882 7.48456 53.5364 8.23283ZM76.5703 8.23283C77.3186 7.48456 78.5319 7.48456 79.2801 8.23283C80.0284 8.98109 80.0284 10.1944 79.2801 10.9427C78.5319 11.6909 77.3186 11.6909 76.5703 10.9427C75.822 10.1944 75.822 8.98109 76.5703 8.23283ZM50.8266 33.9765C51.5748 33.2283 52.7882 33.2283 53.5364 33.9765C54.2847 34.7248 54.2847 35.9381 53.5364 36.6864C52.7882 37.4347 51.5748 37.4347 50.8266 36.6864C50.0783 35.9381 50.0783 34.7248 50.8266 33.9765ZM73.7899 38.5443C74.1948 39.5219 73.7305 40.6429 72.7529 41.048C71.7753 41.4529 70.6543 40.9886 70.2492 40.0109C69.8443 39.0333 70.3086 37.9123 71.2863 37.5073C72.2641 37.1022 73.3848 37.5665 73.7899 38.5443ZM59.8575 4.90847C60.2626 5.8861 59.7981 7.00705 58.8204 7.41213C57.8428 7.81702 56.7219 7.35273 56.3168 6.3751C55.9117 5.39747 56.3762 4.27651 57.3538 3.87144C58.3314 3.46636 59.4524 3.93065 59.8575 4.90847ZM81.138 13.723C82.1157 13.318 83.2366 13.7824 83.6417 14.7601C84.0466 15.7377 83.5823 16.8586 82.6047 17.2637C81.6271 17.6686 80.5061 17.2043 80.101 16.2267C79.6959 15.2491 80.1602 14.1281 81.138 13.723ZM47.5022 27.6555C48.4798 27.2504 49.6008 27.7149 50.0059 28.6925C50.411 29.6701 49.9465 30.7911 48.9689 31.1962C47.9912 31.6013 46.8703 31.1368 46.4652 30.1592C46.0601 29.1813 46.5244 28.0606 47.5022 27.6555ZM82.6045 27.6555C83.5821 28.0604 84.0464 29.1813 83.6415 30.1592C83.2364 31.1368 82.1157 31.6011 81.1379 31.1962C80.1602 30.7913 79.6959 29.6703 80.1008 28.6925C80.5057 27.7147 81.6269 27.2506 82.6045 27.6555ZM48.9687 13.723C49.9463 14.1281 50.4106 15.2489 50.0057 16.2267C49.6008 17.2043 48.4798 17.6686 47.502 17.2637C46.5244 16.8586 46.0601 15.7379 46.465 14.7601C46.8701 13.7824 47.991 13.3181 48.9687 13.723ZM70.2492 4.90847C70.6541 3.93084 71.7751 3.46655 72.7529 3.87144C73.7307 4.27632 74.1948 5.39728 73.7899 6.3751C73.385 7.35292 72.2641 7.81702 71.2863 7.41213C70.3086 7.00705 69.8443 5.8861 70.2492 4.90847ZM56.3168 38.5443C56.7217 37.5667 57.8426 37.1024 58.8204 37.5073C59.7981 37.9123 60.2624 39.0331 59.8575 40.0109C59.4526 40.9886 58.3316 41.4529 57.3538 41.048C56.3762 40.6429 55.9119 39.5219 56.3168 38.5443Z" fill="#FCBC77"/>
    </g>
    <defs>
        <clipPath id="clip0">
            <rect width="96" height="96" fill="white" transform="translate(0 0.423828)"/>
        </clipPath>
    </defs>
</svg>
