<svg width="24" height="24" viewBox="0 0 24 24" fill="none" xmlns="http://www.w3.org/2000/svg">
<path d="M3.49987 21.9999C2.99987 21.9999 2.49987 21.8999 1.99987 21.5999C0.599865 20.7999 0.099865 18.8999 0.899865 17.4999L9.39986 3.2999C9.69986 2.8999 9.99986 2.4999 10.3999 2.2999C11.0999 1.8999 11.8999 1.7999 12.6999 1.9999C13.4999 2.1999 14.0999 2.6999 14.5999 3.3999L22.9999 17.4999C23.2999 17.9999 23.3999 18.4999 23.3999 18.9999C23.3999 19.7999 23.0999 20.5999 22.4999 21.0999C21.9999 21.6999 21.2999 21.9999 20.4999 21.9999H3.49987ZM11.0999 4.3999L2.69987 18.4999C2.39987 18.9999 2.59986 19.5999 3.09986 19.8999C3.19986 19.9999 3.39987 19.9999 3.49987 19.9999H20.3999C20.6999 19.9999 20.8999 19.8999 21.0999 19.6999C21.2999 19.4999 21.3999 19.2999 21.3999 18.9999C21.3999 18.7999 21.3999 18.6999 21.2999 18.4999L12.8999 4.3999C12.5999 3.8999 11.9999 3.7999 11.4999 3.9999C11.2999 4.0999 11.1999 4.1999 11.0999 4.3999Z" fill="black"/>
<path d="M11.9999 13.9999C11.3999 13.9999 10.9999 13.5999 10.9999 12.9999V8.9999C10.9999 8.3999 11.3999 7.9999 11.9999 7.9999C12.5999 7.9999 12.9999 8.3999 12.9999 8.9999V12.9999C12.9999 13.5999 12.5999 13.9999 11.9999 13.9999Z" fill="black"/>
<path d="M11.9999 17.9999C11.6999 17.9999 11.4999 17.8999 11.2999 17.6999C11.0999 17.4999 10.9999 17.2999 10.9999 16.9999C10.9999 16.8999 10.9999 16.6999 11.0999 16.5999C11.1999 16.4999 11.1999 16.3999 11.2999 16.2999C11.3999 16.1999 11.4999 16.0999 11.5999 16.0999C11.7999 15.9999 11.9999 15.9999 12.1999 15.9999C12.2999 15.9999 12.2999 15.9999 12.3999 16.0999C12.4999 16.0999 12.4999 16.0999 12.5999 16.1999C12.5999 16.1999 12.6999 16.2999 12.7999 16.2999C12.8999 16.3999 12.9999 16.4999 12.9999 16.5999C12.9999 16.6999 13.0999 16.8999 13.0999 16.9999C13.0999 17.2999 12.9999 17.4999 12.7999 17.6999C12.4999 17.8999 12.2999 17.9999 11.9999 17.9999Z" fill="black"/>
</svg>
