<svg width="32" height="39" viewBox="0 0 32 39" fill="none" xmlns="http://www.w3.org/2000/svg">
<path fill-rule="evenodd" clip-rule="evenodd" d="M26.0684 20.6758C26.0247 15.8413 30.0366 13.4893 30.2201 13.3798C27.948 10.0753 24.4263 9.62381 23.1888 9.58781C20.231 9.27731 17.3619 11.3533 15.8552 11.3533C14.3184 11.3533 11.9982 9.61781 9.49754 9.66881C6.27961 9.71831 3.2692 11.5768 1.61813 14.4628C-1.78926 20.3473 0.751996 28.9948 4.01654 33.7513C5.64956 36.0808 7.55776 38.6818 10.0554 38.5903C12.4989 38.4898 13.4117 37.0363 16.3604 37.0363C19.2821 37.0363 20.1392 38.5903 22.6865 38.5318C25.309 38.4898 26.96 36.1918 28.5359 33.8413C30.4231 31.1713 31.1809 28.5418 31.211 28.4068C31.1494 28.3858 26.118 26.4703 26.0684 20.6758V20.6758Z" fill="black"/>
<path fill-rule="evenodd" clip-rule="evenodd" d="M21.2563 6.45918C22.5705 4.81968 23.4698 2.58918 23.2201 0.325684C21.318 0.409684 18.9391 1.63818 17.5692 3.24168C16.3572 4.65468 15.2746 6.97068 15.5543 9.14868C17.691 9.30768 19.8849 8.07318 21.2563 6.45918V6.45918Z" fill="black"/>
</svg>
