<svg width="46" height="60" viewBox="0 0 46 60" fill="none" xmlns="http://www.w3.org/2000/svg">
    <path fill-rule="evenodd" clip-rule="evenodd" d="M27.7008 22.5773C27.1258 23.7273 26.7413 25.3859 26.7413 27.2726C26.7413 29.1593 27.1258 30.8179 27.7008 31.9679C28.3057 33.1777 28.9563 33.5452 29.3776 33.5452C29.7989 33.5452 30.4496 33.1777 31.0545 31.9679C31.6294 30.8179 32.0139 29.1593 32.0139 27.2726C32.0139 25.3859 31.6294 23.7273 31.0545 22.5773C30.4496 21.3675 29.7989 21 29.3776 21C28.9563 21 28.3057 21.3675 27.7008 22.5773ZM15.1362 25.4981L25.7049 22.1285C25.0915 23.5507 24.7413 25.3496 24.7413 27.2726C24.7413 29.1956 25.0915 30.9945 25.7049 32.4167L15.1362 29.0471L15.1176 29.0414C14.7677 28.9372 14.4652 28.7139 14.2626 28.41C14.0601 28.1062 13.9702 27.7411 14.0087 27.378C14.0161 27.3079 14.0161 27.2373 14.0087 27.1672C13.9702 26.8041 14.0601 26.439 14.2626 26.1352C14.4652 25.8313 14.7677 25.608 15.1176 25.5038L15.1362 25.4981ZM14.5371 23.5899L28.3612 19.1824C28.6781 19.0651 29.017 19 29.3776 19C30.9646 19 32.1321 20.2605 32.8433 21.6829C33.5844 23.1651 34.0139 25.1427 34.0139 27.2726C34.0139 29.4024 33.5844 31.3801 32.8433 32.8623C32.1321 34.2847 30.9646 35.5452 29.3776 35.5452C29.017 35.5452 28.6781 35.4801 28.3612 35.3628L22.9439 33.6356L23.8266 36.3031C24.0919 36.9878 24.0795 37.7496 23.7913 38.4259C23.4985 39.1128 22.9452 39.6555 22.2526 39.9348L22.2512 39.9354C21.5583 40.2136 20.7832 40.2054 20.0963 39.9127C19.4094 39.6199 18.8667 39.0666 18.5874 38.374C18.5824 38.3616 18.5776 38.349 18.5731 38.3364L16.1169 31.4589L14.5371 30.9553C13.7438 30.7166 13.0582 30.209 12.5985 29.5194C12.1565 28.8564 11.95 28.0652 12.0103 27.2726C11.95 26.48 12.1565 25.6888 12.5985 25.0258C13.0582 24.3362 13.7438 23.8286 14.5371 23.5899ZM20.5888 32.8847L18.5135 32.2231L20.4485 37.641C20.5312 37.8351 20.6859 37.9899 20.8804 38.0728C21.0796 38.1577 21.3044 38.1601 21.5055 38.0796C21.7061 37.9984 21.8665 37.841 21.9514 37.6418C22.0364 37.4424 22.0388 37.2173 21.958 37.0161C21.9503 36.9969 21.9431 36.9774 21.9366 36.9577L20.5888 32.8847ZM29.9336 25.4634C30.3793 25.9608 30.6263 26.6048 30.6275 27.2726C30.6263 27.9404 30.3793 28.5845 29.9336 29.0818C29.4879 29.5791 28.8747 29.895 28.211 29.9692C28.0005 29.0859 27.8961 28.1806 27.9001 27.2726C27.8961 26.3646 28.0005 25.4593 28.211 24.576C28.8747 24.6502 29.4879 24.9661 29.9336 25.4634Z" fill="black" fill-opacity="0.54"/>
</svg>
