<svg width="20" height="20" viewBox="0 0 20 20" fill="none" xmlns="http://www.w3.org/2000/svg">
<path fill-rule="evenodd" clip-rule="evenodd" d="M10.25 2.27273C5.84427 2.27273 2.27273 5.84427 2.27273 10.25C2.27273 14.6557 5.84427 18.2273 10.25 18.2273C14.6557 18.2273 18.2273 14.6557 18.2273 10.25C18.2273 5.84427 14.6557 2.27273 10.25 2.27273ZM0.5 10.25C0.5 4.86522 4.86522 0.5 10.25 0.5C15.6348 0.5 20 4.86522 20 10.25C20 15.6348 15.6348 20 10.25 20C4.86522 20 0.5 15.6348 0.5 10.25Z" fill="url(#paint0_radial)"/>
<path fill-rule="evenodd" clip-rule="evenodd" d="M10.4788 6.7261C10.0662 6.65532 9.64181 6.73286 9.28088 6.94499C8.91995 7.15711 8.64574 7.49012 8.50682 7.88504C8.34437 8.34683 7.83833 8.58949 7.37655 8.42705C6.91476 8.2646 6.6721 7.75856 6.83454 7.29678C7.11239 6.50693 7.66081 5.8409 8.38267 5.41666C9.10453 4.99242 9.95324 4.83734 10.7785 4.97889C11.6037 5.12044 12.3522 5.54949 12.8915 6.19004C13.4306 6.83045 13.7257 7.64097 13.7245 8.47808C13.7243 9.42664 13.2254 10.1516 12.7098 10.6457C12.1939 11.1399 11.5823 11.4828 11.1504 11.6897C11.1159 11.7062 11.0909 11.7299 11.077 11.7503C11.0705 11.7598 11.0676 11.7668 11.0665 11.7705C11.0654 11.7737 11.0655 11.775 11.0655 11.7752V12.0227C11.0655 12.5123 10.6686 12.9091 10.1791 12.9091C9.68957 12.9091 9.29273 12.5123 9.29273 12.0227V11.7752C9.29273 11.0042 9.77895 10.3811 10.3846 10.091C10.736 9.92263 11.1597 9.67578 11.4833 9.36565C11.8071 9.05548 11.9518 8.76183 11.9518 8.47727L11.9518 8.47595C11.9524 8.05731 11.8049 7.65195 11.5353 7.33167C11.2657 7.0114 10.8914 6.79688 10.4788 6.7261Z" fill="url(#paint1_radial)"/>
<path d="M11.1364 14.6818C11.1364 15.1713 10.7395 15.5682 10.25 15.5682C9.76048 15.5682 9.36364 15.1713 9.36364 14.6818C9.36364 14.1923 9.76048 13.7955 10.25 13.7955C10.7395 13.7955 11.1364 14.1923 11.1364 14.6818Z" fill="url(#paint2_radial)"/>
<defs>
<radialGradient id="paint0_radial" cx="0" cy="0" r="1" gradientUnits="userSpaceOnUse" gradientTransform="translate(1.18638 5.49993) rotate(40.7666) scale(23.5045 450.316)">
<stop stop-color="#5496FF"/>
<stop offset="1" stop-color="#8739E5"/>
</radialGradient>
<radialGradient id="paint1_radial" cx="0" cy="0" r="1" gradientUnits="userSpaceOnUse" gradientTransform="translate(1.18638 5.49993) rotate(40.7666) scale(23.5045 450.316)">
<stop stop-color="#5496FF"/>
<stop offset="1" stop-color="#8739E5"/>
</radialGradient>
<radialGradient id="paint2_radial" cx="0" cy="0" r="1" gradientUnits="userSpaceOnUse" gradientTransform="translate(1.18638 5.49993) rotate(40.7666) scale(23.5045 450.316)">
<stop stop-color="#5496FF"/>
<stop offset="1" stop-color="#8739E5"/>
</radialGradient>
</defs>
</svg>
