<?xml version="1.0" encoding="UTF-8"?>
<svg width="15px" height="14px" viewBox="0 0 15 14" xmlns="http://www.w3.org/2000/svg" xmlns:xlink="http://www.w3.org/1999/xlink" version="1.1">
 <!-- Generated by Pixelmator Pro 1.1.5 -->
 <path id="path" d="M5.098 11.736 L0.205 6.873 C0.068 6.736 0 6.561 0 6.346 0 6.131 0.068 5.955 0.205 5.818 L1.289 4.764 C1.426 4.607 1.592 4.529 1.787 4.529 2.002 4.529 2.188 4.607 2.344 4.764 L5.625 8.045 12.656 1.014 C12.813 0.857 12.988 0.779 13.184 0.779 13.398 0.779 13.574 0.857 13.711 1.014 L14.795 2.068 C14.932 2.205 15 2.381 15 2.596 15 2.811 14.932 2.986 14.795 3.123 L6.152 11.736 C6.016 11.893 5.84 11.971 5.625 11.971 5.41 11.971 5.234 11.893 5.098 11.736 Z M5.098 51.736 L0.205 46.873 C0.068 46.736 0 46.56 0 46.345 0 46.131 0.068 45.955 0.205 45.818 L1.289 44.764 C1.426 44.607 1.592 44.529 1.787 44.529 2.002 44.529 2.188 44.607 2.344 44.764 L5.625 48.045 12.656 41.014 C12.813 40.857 12.988 40.779 13.184 40.779 13.398 40.779 13.574 40.857 13.711 41.014 L14.795 42.068 C14.932 42.205 15 42.381 15 42.595 15 42.81 14.932 42.986 14.795 43.123 L6.152 51.736 C6.016 51.892 5.84 51.97 5.625 51.97 5.41 51.97 5.234 51.892 5.098 51.736 Z M5.098 91.736 L0.205 86.873 C0.068 86.736 0 86.56 0 86.346 0 86.131 0.068 85.955 0.205 85.818 L1.289 84.764 C1.426 84.607 1.592 84.529 1.787 84.529 2.002 84.529 2.188 84.607 2.344 84.764 L5.625 88.045 12.656 81.014 C12.813 80.857 12.988 80.779 13.184 80.779 13.398 80.779 13.574 80.857 13.711 81.014 L14.795 82.068 C14.932 82.205 15 82.381 15 82.596 15 82.81 14.932 82.986 14.795 83.123 L6.152 91.736 C6.016 91.892 5.84 91.971 5.625 91.971 5.41 91.971 5.234 91.892 5.098 91.736 Z M5.098 131.736 L0.205 126.873 C0.068 126.736 0 126.561 0 126.346 0 126.131 0.068 125.955 0.205 125.818 L1.289 124.764 C1.426 124.607 1.592 124.529 1.787 124.529 2.002 124.529 2.188 124.607 2.344 124.764 L5.625 128.045 12.656 121.014 C12.813 120.857 12.988 120.779 13.184 120.779 13.398 120.779 13.574 120.857 13.711 121.014 L14.795 122.068 C14.932 122.205 15 122.381 15 122.596 15 122.811 14.932 122.986 14.795 123.123 L6.152 131.736 C6.016 131.893 5.84 131.971 5.625 131.971 5.41 131.971 5.234 131.893 5.098 131.736 Z M5.098 171.736 L0.205 166.873 C0.068 166.736 0 166.561 0 166.346 0 166.131 0.068 165.955 0.205 165.818 L1.289 164.764 C1.426 164.607 1.592 164.529 1.787 164.529 2.002 164.529 2.188 164.607 2.344 164.764 L5.625 168.045 12.656 161.014 C12.813 160.857 12.988 160.779 13.184 160.779 13.398 160.779 13.574 160.857 13.711 161.014 L14.795 162.068 C14.932 162.205 15 162.381 15 162.596 15 162.811 14.932 162.986 14.795 163.123 L6.152 171.736 C6.016 171.893 5.84 171.971 5.625 171.971 5.41 171.971 5.234 171.893 5.098 171.736 Z" fill="#e4a216" fill-opacity="1" stroke="none"/>
</svg>
