<svg width="18" height="18" viewBox="0 0 18 18" fill="none" xmlns="http://www.w3.org/2000/svg">
<path fill-rule="evenodd" clip-rule="evenodd" d="M9 2.25C5.27208 2.25 2.25 5.27208 2.25 9C2.25 12.7279 5.27208 15.75 9 15.75C12.7279 15.75 15.75 12.7279 15.75 9C15.75 5.27208 12.7279 2.25 9 2.25ZM0.75 9C0.75 4.44365 4.44365 0.75 9 0.75C13.5563 0.75 17.25 4.44365 17.25 9C17.25 13.5563 13.5563 17.25 9 17.25C4.44365 17.25 0.75 13.5563 0.75 9Z" fill="black"/>
<path d="M8.11885 11.5695C7.90628 11.7781 7.8 12.0466 7.8 12.375C7.8 12.7034 7.90628 12.9741 8.11885 13.1871C8.33543 13.3957 8.60414 13.5 8.925 13.5C9.24586 13.5 9.51257 13.3957 9.72513 13.1871C9.94171 12.9741 10.05 12.7034 10.05 12.375C10.05 12.0466 9.94171 11.7781 9.72513 11.5695C9.51257 11.3565 9.24586 11.25 8.925 11.25C8.60414 11.25 8.33543 11.3565 8.11885 11.5695Z" fill="black"/>
<path d="M7.99363 10.6391C7.99363 10.0504 8.06369 9.58669 8.20382 9.24798C8.34395 8.90524 8.57113 8.60887 8.88535 8.35887C9.19958 8.10887 9.43737 7.88105 9.59873 7.6754C9.76433 7.46573 9.84713 7.23589 9.84713 6.98589C9.84713 6.37702 9.57113 6.07258 9.01911 6.07258C8.76433 6.07258 8.55839 6.16129 8.40127 6.33871C8.24416 6.51613 8.16136 6.75605 8.15287 7.05847H6C6.00849 6.25202 6.27601 5.625 6.80255 5.17742C7.32909 4.72581 8.06794 4.5 9.01911 4.5C9.96603 4.5 10.6985 4.70766 11.2166 5.12298C11.7389 5.53831 12 6.12903 12 6.89516C12 7.22984 11.9299 7.53427 11.7898 7.80847C11.6497 8.08266 11.4246 8.3629 11.1146 8.64919L10.3822 9.29637C10.1741 9.48589 10.0297 9.68145 9.94904 9.88306C9.86836 10.0806 9.82378 10.3327 9.81529 10.6391H7.99363Z" fill="black"/>
</svg>
