<svg width="20" height="20" viewBox="0 0 20 20" fill="none" xmlns="http://www.w3.org/2000/svg">
<path fill-rule="evenodd" clip-rule="evenodd" d="M10.6456 2.29223C11.5886 1.38144 12.8516 0.877469 14.1626 0.888861C15.4736 0.900253 16.7276 1.4261 17.6547 2.35314C18.5817 3.28018 19.1076 4.53424 19.119 5.84522C19.1304 7.15621 18.6264 8.41922 17.7156 9.36223L17.7054 9.37256L15.2055 11.8725C14.6987 12.3795 14.0886 12.7716 13.4169 13.0222C12.7451 13.2728 12.0273 13.376 11.3122 13.3248C10.5971 13.2736 9.90129 13.0692 9.27209 12.7254C8.6429 12.3816 8.095 11.9066 7.66554 11.3325C7.38987 10.9639 7.46516 10.4417 7.8337 10.166C8.20224 9.89033 8.72448 9.96561 9.00015 10.3342C9.28645 10.7169 9.65172 11.0336 10.0712 11.2628C10.4906 11.492 10.9545 11.6282 11.4313 11.6624C11.908 11.6965 12.3865 11.6277 12.8344 11.4607C13.2822 11.2936 13.6889 11.0322 14.0268 10.6942L16.5215 8.19945C17.1257 7.57131 17.4599 6.73142 17.4524 5.85971C17.4448 4.98572 17.0942 4.14968 16.4762 3.53165C15.8581 2.91362 15.0221 2.56306 14.1481 2.55546C13.276 2.54789 12.4358 2.88239 11.8075 3.48709L10.3787 4.90761C10.0523 5.2321 9.5247 5.23056 9.20021 4.90417C8.87572 4.57779 8.87726 4.05015 9.20365 3.72567L10.637 2.30067L10.6456 2.29223Z" fill="black"/>
<path fill-rule="evenodd" clip-rule="evenodd" d="M6.58214 6.97771C7.2539 6.72712 7.97169 6.62394 8.68684 6.67516C9.40198 6.72637 10.0977 6.93079 10.7269 7.27455C11.3561 7.61831 11.904 8.09336 12.3335 8.66749C12.6092 9.03603 12.5339 9.55827 12.1653 9.83394C11.7968 10.1096 11.2745 10.0343 10.9989 9.66579C10.7126 9.28303 10.3473 8.96633 9.92784 8.73716C9.50838 8.50799 9.04454 8.37171 8.56778 8.33756C8.09102 8.30342 7.61249 8.37221 7.16465 8.53927C6.71681 8.70632 6.31013 8.96774 5.97221 9.30579L3.47751 11.8005C2.87331 12.4286 2.5391 13.2685 2.54668 14.1402C2.55427 15.0142 2.90483 15.8503 3.52286 16.4683C4.14089 17.0863 4.97693 17.4369 5.85092 17.4445C6.72262 17.4521 7.56251 17.1178 8.19065 16.5137L9.61026 15.094C9.9357 14.7686 10.4633 14.7686 10.7888 15.094C11.1142 15.4195 11.1142 15.9471 10.7888 16.2726L9.36377 17.6976L9.35344 17.7077C8.41043 18.6185 7.14742 19.1225 5.83644 19.1111C4.52545 19.0997 3.27139 18.5738 2.34435 17.6468C1.41731 16.7198 0.891464 15.4657 0.880072 14.1547C0.86868 12.8437 1.37265 11.5807 2.28344 10.6377L2.29359 10.6274L4.79349 8.12749C4.79345 8.12752 4.79352 8.12745 4.79349 8.12749C5.30035 7.62047 5.91043 7.22828 6.58214 6.97771Z" fill="black"/>
</svg>
