<svg width="24" height="24" viewBox="0 0 24 24" fill="none" xmlns="http://www.w3.org/2000/svg">
<path d="M6.83843 13.2128L1.4342 10.8482C0.825163 10.5819 0.86637 9.70428 1.49784 9.49653L22.048 2.72194C22.5857 2.54487 23.1096 3.02483 22.9801 3.5762L18.8735 21.0366C18.7509 21.5582 18.124 21.771 17.7095 21.4315L12.8841 17.4832L6.83843 13.2128Z" fill="#EBF0FA"/>
<path d="M18.0356 6.49285L6.83838 13.2133L8.20844 19.5683C8.33133 20.1384 9.00336 20.3897 9.47017 20.0401L12.8841 17.4836L10.0751 15.1848L18.3894 6.94802C18.6331 6.70649 18.3299 6.31621 18.0356 6.49285Z" fill="#BEC3D2"/>
<path d="M8.66028 20.1279C8.91199 20.2417 9.22046 20.2268 9.47024 20.0397L12.8842 17.4832L11.4797 16.3338L10.0752 15.1844L8.66028 20.1279Z" fill="#AFB4C8"/>
</svg>
