<svg width="24" height="24" viewBox="0 0 24 24" fill="none" xmlns="http://www.w3.org/2000/svg">
<path d="M12.3756 12.9055C15.6632 12.9055 18.3284 10.2404 18.3284 6.95274C18.3284 3.6651 15.6632 1 12.3756 1C9.08795 1 6.42285 3.66514 6.42285 6.95279C6.42689 10.2387 9.08967 12.9015 12.3756 12.9055ZM12.3756 3.74743C14.1458 3.74743 15.5809 5.18249 15.5809 6.95279C15.5809 8.72308 14.1459 10.1581 12.3756 10.1581C10.6053 10.1581 9.17024 8.72308 9.17024 6.95279C9.17024 5.18249 10.6053 3.74743 12.3756 3.74743Z" fill="white"/>
<path d="M18.2065 15.7262C18.8534 15.3001 19.2432 14.5776 19.2441 13.803C19.2531 13.1601 18.8904 12.5697 18.3127 12.2873C17.7193 11.9909 17.0089 12.0576 16.4811 12.4595C14.0349 14.2429 10.7171 14.2429 8.27088 12.4595C7.74226 12.0597 7.03312 11.9931 6.43925 12.2873C5.8619 12.5697 5.49894 13.1594 5.50697 13.802C5.50834 14.5765 5.898 15.2988 6.54459 15.7252C7.37415 16.2769 8.27754 16.7086 9.22793 17.0074C9.38913 17.0574 9.55548 17.1038 9.72707 17.1466L6.9595 19.8528C6.23349 20.5572 6.21593 21.7168 6.92035 22.4428C7.62476 23.1689 8.78431 23.1864 9.51036 22.482C9.52547 22.4673 9.54033 22.4524 9.55492 22.4372L12.3756 19.5176L15.2018 22.4427C15.9057 23.1693 17.0652 23.1877 17.7918 22.4839C18.5184 21.7801 18.5368 20.6205 17.833 19.894C17.8183 19.8788 17.8033 19.8638 17.7881 19.8491L15.0251 17.1457C15.1966 17.1017 15.3636 17.055 15.526 17.0055C16.4754 16.7079 17.3779 16.2771 18.2065 15.7262Z" fill="white"/>
</svg>
