<svg width="24" height="24" viewBox="0 0 24 24" fill="none" xmlns="http://www.w3.org/2000/svg">
<path d="M19.9341 14.1253C20.6639 14.8378 21.4341 15.5081 22.0886 16.2924C22.3777 16.641 22.6515 17.0006 22.8609 17.4051C23.1576 17.9802 22.8889 18.6129 22.3733 18.6472L19.1682 18.6458C18.3416 18.7144 17.6822 18.3816 17.1277 17.8164C16.684 17.3644 16.273 16.8834 15.8463 16.4161C15.6714 16.2252 15.4883 16.0455 15.2696 15.9034C14.8321 15.6195 14.4523 15.7064 14.2023 16.1627C13.9476 16.6269 13.8899 17.1408 13.8648 17.658C13.8305 18.4127 13.6024 18.6112 12.8443 18.6457C11.2242 18.7221 9.68657 18.477 8.25817 17.6597C6.99884 16.9392 6.02234 15.922 5.17233 14.7705C3.51748 12.5283 2.25012 10.0643 1.11111 7.53143C0.854715 6.96076 1.04223 6.65444 1.67189 6.64357C2.71745 6.62324 3.76288 6.62471 4.80968 6.64211C5.23464 6.64834 5.51595 6.89206 5.68005 7.29351C6.24573 8.68445 6.93791 10.0078 7.80674 11.2344C8.03813 11.561 8.27407 11.8876 8.61 12.1174C8.98167 12.3719 9.26467 12.2876 9.43951 11.8735C9.55045 11.611 9.59905 11.3282 9.62405 11.0471C9.7069 10.0797 9.71781 9.11401 9.57254 8.15005C9.48333 7.54845 9.14448 7.15898 8.54417 7.04515C8.23784 6.9871 8.28343 6.87311 8.43176 6.69827C8.68936 6.39671 8.93166 6.20898 9.41467 6.20898H13.0368C13.6071 6.32152 13.7337 6.5777 13.8118 7.15146L13.8149 11.1749C13.8086 11.397 13.9258 12.0562 14.3259 12.2032C14.6461 12.3079 14.8572 12.0517 15.0493 11.8487C15.9166 10.9282 16.5355 9.84044 17.0885 8.71406C17.3339 8.21876 17.5449 7.70442 17.7494 7.19047C17.9009 6.80913 18.1386 6.62148 18.5682 6.62978L22.0543 6.63287C22.1577 6.63287 22.2623 6.63437 22.3624 6.65152C22.9498 6.75164 23.1108 7.00433 22.9294 7.57797C22.6435 8.47794 22.0873 9.22796 21.5434 9.98142C20.9621 10.7858 20.3403 11.5627 19.7638 12.3719C19.234 13.111 19.2761 13.4834 19.9341 14.1253Z" fill="white"/>
</svg>
