<svg width="42" height="42" viewBox="0 0 42 42" fill="none" xmlns="http://www.w3.org/2000/svg">
<path fill-rule="evenodd" clip-rule="evenodd" d="M28.2439 14.25V18.7499H32.2211H36.1086H36.1189C37.3616 18.7499 38.3689 17.7426 38.3689 16.4999C38.3689 15.2572 37.3616 14.25 36.1189 14.25H32.2211H28.2439ZM28.2439 20.9998V27.75H36.1086H36.1189C37.9829 27.75 39.4937 26.239 39.4937 24.3749C39.4937 22.5116 37.9836 21.0009 36.1206 20.9998H36.1189H36.1168L36.1086 21.0002L31.6186 20.9998H28.2439ZM36.1189 12C38.6039 12 40.6188 14.0145 40.6188 16.4999C40.6188 17.7591 40.1016 18.897 39.2682 19.7138C40.7621 20.7249 41.7436 22.4353 41.7436 24.3749C41.7436 27.4816 39.2253 30 36.1189 30L36.1086 29.9997L28.2439 30H25.9939V27.75V17.712L16.7852 27.5871L14.5352 30V26.7008V17.712L3.07646 30H0L16.7852 12V15.2992V24.288L26.1458 14.25H23.0694L25.1674 12H28.2439L36.1189 12Z" fill="url(#paint0_radial)"/>
<defs>
<radialGradient id="paint0_radial" cx="0" cy="0" r="1" gradientUnits="userSpaceOnUse" gradientTransform="translate(35.8926 12.1845) rotate(148.516) scale(39.8841 37.1441)">
<stop stop-color="#E4A216"/>
<stop offset="0.501961" stop-color="#F1B82F"/>
<stop offset="1" stop-color="#EBC965"/>
</radialGradient>
</defs>
</svg>
