<svg width="24" height="24" viewBox="0 0 24 24" fill="none" xmlns="http://www.w3.org/2000/svg">
<path d="M22.6501 5.14692C22.1613 5.36367 21.6539 5.53467 21.1332 5.65846C21.7069 5.11328 22.1383 4.43138 22.3816 3.67025C22.4511 3.45297 22.2151 3.26507 22.0189 3.38141C21.2946 3.81105 20.5143 4.13337 19.6998 4.3395C19.6526 4.35146 19.6038 4.35752 19.5549 4.35752C19.4065 4.35752 19.2623 4.30243 19.1489 4.20245C18.2823 3.4387 17.1677 3.01807 16.0106 3.01807C15.5099 3.01807 15.0043 3.09611 14.508 3.25005C12.9701 3.72706 11.7834 4.99566 11.4111 6.56082C11.2714 7.14789 11.2336 7.7355 11.2986 8.30728C11.3061 8.37299 11.275 8.41885 11.2559 8.44036C11.2223 8.47807 11.1746 8.49968 11.1251 8.49968C11.1195 8.49968 11.1139 8.49941 11.1082 8.49888C7.74178 8.18611 4.70606 6.56425 2.56026 3.93212C2.45084 3.79786 2.24101 3.81433 2.15379 3.96392C1.73359 4.68482 1.51153 5.50935 1.51153 6.34836C1.51153 7.63418 2.02812 8.84592 2.92543 9.72929C2.54809 9.63982 2.18287 9.49891 1.8436 9.31048C1.67947 9.21929 1.47752 9.33649 1.47522 9.52423C1.45172 11.4344 2.57008 13.1341 4.24542 13.8994C4.21168 13.9003 4.17794 13.9006 4.14415 13.9006C3.87859 13.9006 3.6097 13.875 3.34505 13.8244C3.16021 13.7891 3.00493 13.9645 3.06232 14.1437C3.6061 15.8414 5.06785 17.0927 6.81711 17.3769C5.36533 18.3514 3.67471 18.8655 1.9151 18.8655L1.36655 18.8652C1.19753 18.8652 1.05458 18.9753 1.01151 19.139C0.969086 19.3003 1.04724 19.4704 1.19136 19.5542C3.17415 20.7081 5.43581 21.318 7.73282 21.318C9.74345 21.318 11.6242 20.919 13.3229 20.1321C14.8802 19.4107 16.2564 18.3795 17.4131 17.0672C18.4907 15.8446 19.3334 14.4334 19.9176 12.8726C20.4745 11.3848 20.7689 9.79735 20.7689 8.28175V8.20955C20.7689 7.9662 20.8789 7.73722 21.0709 7.58134C21.7996 6.98971 22.4342 6.29327 22.9569 5.51139C23.0949 5.30493 22.8772 5.04618 22.6501 5.14692Z" fill="white"/>
</svg>
