<svg width="77" height="77" viewBox="0 0 77 77" fill="none" xmlns="http://www.w3.org/2000/svg">
    <g filter="url(#filter0_d)">
        <path fill-rule="evenodd" clip-rule="evenodd" d="M68.383 36.1915C68.383 52.8658 54.8658 66.383 38.1915 66.383C21.5172 66.383 8 52.8658 8 36.1915C8 36.1595 8.00005 36.1275 8.00015 36.0956C8.00005 36.0637 8 36.0319 8 36C8 19.4315 21.4315 6 38 6C38.0319 6 38.0637 6.00005 38.0956 6.00015C38.1275 6.00005 38.1595 6 38.1915 6C54.8658 6 68.383 19.5172 68.383 36.1915ZM71.383 36.1915C71.383 54.5226 56.5226 69.383 38.1915 69.383C19.8603 69.383 5 54.5226 5 36.1915C5 17.8603 19.8603 3 38.1915 3C56.5226 3 71.383 17.8603 71.383 36.1915Z" fill="white"/>
    </g>
    <g filter="url(#filter1_d)">
        <path fill-rule="evenodd" clip-rule="evenodd" d="M54.34 38.5617L57.34 36.8296L54.34 35.0976L30.6592 21.4254L27.6592 19.6934V23.1575V50.5018V53.9659L30.6592 52.2338L54.34 38.5617ZM49.7683 37.7371L51.34 36.8296L33.8464 26.7297L33.7496 26.6717L30.7496 24.8755V24.9417L30.6592 24.8895V48.7697L30.7496 48.7175V49.1242L33.7496 47.328L48.0796 38.7481L49.7683 37.7371Z" fill="white"/>
    </g>
    <defs>
        <filter id="filter0_d" x="0" y="0" width="76.383" height="76.383" filterUnits="userSpaceOnUse" color-interpolation-filters="sRGB">
            <feFlood flood-opacity="0" result="BackgroundImageFix"/>
            <feColorMatrix in="SourceAlpha" type="matrix" values="0 0 0 0 0 0 0 0 0 0 0 0 0 0 0 0 0 0 127 0"/>
            <feOffset dy="2"/>
            <feGaussianBlur stdDeviation="2.5"/>
            <feColorMatrix type="matrix" values="0 0 0 0 0 0 0 0 0 0 0 0 0 0 0 0 0 0 0.25 0"/>
            <feBlend mode="normal" in2="BackgroundImageFix" result="effect1_dropShadow"/>
            <feBlend mode="normal" in="SourceGraphic" in2="effect1_dropShadow" result="shape"/>
        </filter>
        <filter id="filter1_d" x="22.6592" y="16.6934" width="39.6809" height="44.2725" filterUnits="userSpaceOnUse" color-interpolation-filters="sRGB">
            <feFlood flood-opacity="0" result="BackgroundImageFix"/>
            <feColorMatrix in="SourceAlpha" type="matrix" values="0 0 0 0 0 0 0 0 0 0 0 0 0 0 0 0 0 0 127 0"/>
            <feOffset dy="2"/>
            <feGaussianBlur stdDeviation="2.5"/>
            <feColorMatrix type="matrix" values="0 0 0 0 0 0 0 0 0 0 0 0 0 0 0 0 0 0 0.25 0"/>
            <feBlend mode="normal" in2="BackgroundImageFix" result="effect1_dropShadow"/>
            <feBlend mode="normal" in="SourceGraphic" in2="effect1_dropShadow" result="shape"/>
        </filter>
    </defs>
</svg>
