<svg width="18" height="18" viewBox="0 0 18 18" fill="none" xmlns="http://www.w3.org/2000/svg">
<path fill-rule="evenodd" clip-rule="evenodd" d="M3.75 1.5C3.75 1.08579 4.08579 0.75 4.5 0.75H13.5C13.9142 0.75 14.25 1.08579 14.25 1.5V6.75C14.25 7.16421 13.9142 7.5 13.5 7.5C13.0858 7.5 12.75 7.16421 12.75 6.75V2.25H5.25V6.75C5.25 7.16421 4.91421 7.5 4.5 7.5C4.08579 7.5 3.75 7.16421 3.75 6.75V1.5Z" fill="black"/>
<path fill-rule="evenodd" clip-rule="evenodd" d="M3 7.5C2.80109 7.5 2.61032 7.57902 2.46967 7.71967C2.32902 7.86032 2.25 8.05109 2.25 8.25V12C2.25 12.1989 2.32902 12.3897 2.46967 12.5303C2.61032 12.671 2.80109 12.75 3 12.75H4.5C4.91421 12.75 5.25 13.0858 5.25 13.5C5.25 13.9142 4.91421 14.25 4.5 14.25H3C2.40326 14.25 1.83097 14.0129 1.40901 13.591C0.987053 13.169 0.75 12.5967 0.75 12V8.25C0.75 7.65326 0.987053 7.08097 1.40901 6.65901C1.83097 6.23705 2.40326 6 3 6H15C15.5967 6 16.169 6.23705 16.591 6.65901C17.0129 7.08097 17.25 7.65326 17.25 8.25V12C17.25 12.5967 17.0129 13.169 16.591 13.591C16.169 14.0129 15.5967 14.25 15 14.25H13.5C13.0858 14.25 12.75 13.9142 12.75 13.5C12.75 13.0858 13.0858 12.75 13.5 12.75H15C15.1989 12.75 15.3897 12.671 15.5303 12.5303C15.671 12.3897 15.75 12.1989 15.75 12V8.25C15.75 8.05109 15.671 7.86032 15.5303 7.71967C15.3897 7.57902 15.1989 7.5 15 7.5H3Z" fill="black"/>
<path fill-rule="evenodd" clip-rule="evenodd" d="M3.75 10.5C3.75 10.0858 4.08579 9.75 4.5 9.75H13.5C13.9142 9.75 14.25 10.0858 14.25 10.5V16.5C14.25 16.9142 13.9142 17.25 13.5 17.25H4.5C4.08579 17.25 3.75 16.9142 3.75 16.5V10.5ZM5.25 11.25V15.75H12.75V11.25H5.25Z" fill="black"/>
</svg>
