<svg width="13" height="12" viewBox="0 0 13 12" fill="none" xmlns="http://www.w3.org/2000/svg">
<path d="M0.764648 5.3125V0.4375H5.63965V5.3125H0.764648ZM2.38965 2.0625V3.6875H4.01465V2.0625H2.38965ZM7.26465 0.4375H12.1396V5.3125H7.26465V0.4375ZM10.5146 3.6875V2.0625H8.88965V3.6875H10.5146ZM0.764648 11.8125V6.9375H5.63965V11.8125H0.764648ZM2.38965 8.5625V10.1875H4.01465V8.5625H2.38965ZM11.3271 6.9375H12.1396V10.1875H9.70215V9.375H8.88965V11.8125H7.26465V6.9375H9.70215V7.75H11.3271V6.9375ZM11.3271 11H12.1396V11.8125H11.3271V11ZM9.70215 11H10.5146V11.8125H9.70215V11Z" fill="black"/>
</svg>
