<svg width="23" height="23" viewBox="0 0 23 23" fill="none" xmlns="http://www.w3.org/2000/svg">
<path fill-rule="evenodd" clip-rule="evenodd" d="M0.852539 2.80197C0.852539 1.66072 1.85629 0.73947 2.99754 0.863219C13.1038 1.86697 21.1338 9.91072 22.1375 20.0032C22.2475 21.1445 21.34 22.1482 20.185 22.1482C19.1813 22.1482 18.3563 21.392 18.26 20.3882C17.435 12.1245 10.8625 5.55197 2.59879 4.72697C1.60879 4.63072 0.852539 3.80572 0.852539 2.80197ZM3.03879 8.71487C1.88379 8.52237 0.852539 9.47113 0.852539 10.6399C0.852539 11.6161 1.58129 12.3999 2.54379 12.5649C6.55879 13.2661 9.72129 16.4424 10.4363 20.4574C10.6013 21.4199 11.385 22.1486 12.3613 22.1486C13.53 22.1486 14.4788 21.1174 14.3 19.9624C13.365 14.1874 8.81379 9.63612 3.03879 8.71487ZM3.85004 16.1533C2.19457 16.1533 0.852539 17.4953 0.852539 19.1508C0.852539 20.8063 2.19457 22.1483 3.85004 22.1483C5.50551 22.1483 6.84754 20.8063 6.84754 19.1508C6.84754 17.4953 5.50551 16.1533 3.85004 16.1533Z" fill="white"/>
</svg>
