
<svg width="0" height="0">
  <symbol viewBox="0 0 24 24"  xmlns="http://www.w3.org/2000/svg" id="alert-triangle">
    <path d="M3.5 22c-.5 0-1-.1-1.5-.4C.6 20.8.1 18.9.9 17.5L9.4 3.3c.3-.4.6-.8 1-1 .7-.4 1.5-.5 2.3-.3.8.2 1.4.7 1.9 1.4L23 17.5c.3.5.4 1 .4 1.5 0 .8-.3 1.6-.9 2.1-.5.6-1.2.9-2 .9h-17zm7.6-17.6L2.7 18.5c-.3.5-.1 1.1.4 1.4.1.1.3.1.4.1h16.9c.3 0 .5-.1.7-.3.2-.2.3-.4.3-.7 0-.2 0-.3-.1-.5L12.9 4.4c-.3-.5-.9-.6-1.4-.4-.2.1-.3.2-.4.4z"
      class="fill-path"></path>
    <path d="M12 14c-.6 0-1-.4-1-1V9c0-.6.4-1 1-1s1 .4 1 1v4c0 .6-.4 1-1 1zm0 4c-.3 0-.5-.1-.7-.3-.2-.2-.3-.4-.3-.7 0-.1 0-.3.1-.4.1-.1.1-.2.2-.3.1-.1.2-.2.3-.2.2-.1.4-.1.6-.1.1 0 .1 0 .2.1.1 0 .1 0 .2.1 0 0 .1.1.2.1.1.1.2.2.2.3 0 .1.1.3.1.4 0 .3-.1.5-.3.7-.3.2-.5.3-.8.3z"
      class="fill-path"></path>
  </symbol>
  <symbol viewBox="0 0 24 24"  xmlns="http://www.w3.org/2000/svg" id="announcement speaker">
    <path   d="M16.7 4.577c-.574 1.15-.959 2.809-.959 4.696 0 1.886.385 3.545.96 4.695.605 1.21 1.255 1.577 1.677 1.577.42 0 1.072-.367 1.677-1.577.574-1.15.959-2.809.959-4.695 0-1.887-.385-3.546-.96-4.696C19.45 3.367 18.8 3 18.379 3c-.422 0-1.072.368-1.677 1.577zM4.137 7.498l10.569-3.37c-.614 1.423-.964 3.222-.964 5.145 0 1.923.35 3.722.964 5.144l-10.569-3.37-.018-.006a1.564 1.564 0 0 1-1.11-1.663 1 1 0 0 0 0-.21 1.564 1.564 0 0 1 1.11-1.664l.018-.006zm-.6-1.908l13.824-4.408A2.909 2.909 0 0 1 18.378 1c1.587 0 2.754 1.26 3.465 2.683.741 1.482 1.17 3.46 1.17 5.59s-.429 4.107-1.17 5.59c-.71 1.422-1.878 2.682-3.465 2.682-.361 0-.7-.065-1.017-.182l-5.417-1.727.883 2.667a2.818 2.818 0 0 1-1.574 3.632h-.002a2.818 2.818 0 0 1-3.678-1.599L5.117 13.46l-1.58-.504A3.564 3.564 0 0 1 1.01 9.273 3.564 3.564 0 0 1 3.537 5.59zm6.052 9.295l-2.076-.662 1.935 5.418a.818.818 0 0 0 1.503 0 .818.818 0 0 0 .007-.625.993.993 0 0 1-.021-.058l-1.348-4.073zm9.345-7.422c.445.498.692 1.142.694 1.81a2.718 2.718 0 0 1-2.417 2.696 11.416 11.416 0 0 1-.31-2.696c-.005-.908.1-1.814.31-2.697a2.72 2.72 0 0 1 1.723.887z"
      class="fill-path"></path>
  </symbol>
  <symbol viewBox="0 0 32 39"  xmlns="http://www.w3.org/2000/svg" id="apple_logo">
    <path   d="M26.068 20.676c-.043-4.835 3.969-7.187 4.152-7.296-2.272-3.305-5.794-3.756-7.031-3.792-2.958-.31-5.827 1.765-7.334 1.765-1.537 0-3.857-1.735-6.357-1.684-3.218.05-6.229 1.908-7.88 4.794-3.407 5.884-.866 14.532 2.399 19.288 1.633 2.33 3.54 4.93 6.038 4.84 2.444-.101 3.357-1.555 6.305-1.555 2.922 0 3.78 1.554 6.326 1.496 2.623-.042 4.274-2.34 5.85-4.69 1.887-2.67 2.645-5.3 2.675-5.435-.062-.021-5.093-1.937-5.143-7.731zM21.256 6.46C22.57 4.82 23.47 2.59 23.22.325c-1.902.084-4.28 1.312-5.65 2.916-1.213 1.413-2.295 3.729-2.016 5.907 2.137.159 4.33-1.076 5.702-2.69z"
      class="fill-path"></path>
  </symbol>
  <symbol viewBox="0 0 24 24"  xmlns="http://www.w3.org/2000/svg" id="arrow-left">
    <path   d="M12.707 5.707a1 1 0 0 0-1.414-1.414l-7 7a1 1 0 0 0 0 1.414l7 7a1 1 0 0 0 1.414-1.414L7.414 13H19a1 1 0 1 0 0-2H7.414l5.293-5.293z" class="fill-path"></path>
  </symbol>
  <symbol viewBox="0 0 24 24"  xmlns="http://www.w3.org/2000/svg" id="arrow-right">
    <path   d="M12.707 4.293a1 1 0 1 0-1.414 1.414L16.586 11H5a1 1 0 1 0 0 2h11.586l-5.293 5.293a1 1 0 0 0 1.414 1.414l7-7a1 1 0 0 0 0-1.414l-7-7z" class="fill-path"></path>
  </symbol>
  <symbol viewBox="0 0 18 18"  xmlns="http://www.w3.org/2000/svg" id="chevron-right">
    <path   d="M6.22 3.97a.75.75 0 0 1 1.06 0l4.5 4.5a.75.75 0 0 1 0 1.06l-4.5 4.5a.75.75 0 0 1-1.06-1.06L10.19 9 6.22 5.03a.75.75 0 0 1 0-1.06z" class="fill-path"></path>
  </symbol>
  <symbol viewBox="0 0 24 24"  xmlns="http://www.w3.org/2000/svg" id="circle-arrow-left">
    <path   d="M12 3a9 9 0 1 0 0 18 9 9 0 0 0 0-18zM1 12C1 5.925 5.925 1 12 1s11 4.925 11 11-4.925 11-11 11S1 18.075 1 12z" class="fill-path"></path>
    <path d="M12.707 8.707a1 1 0 0 0-1.414-1.414l-4 4a1 1 0 0 0 0 1.414l4 4a1 1 0 0 0 1.414-1.414L10.414 13H16a1 1 0 1 0 0-2h-5.586l2.293-2.293z" class="fill-path"></path>
  </symbol>
  <symbol viewBox="0 0 24 24"  xmlns="http://www.w3.org/2000/svg" id="Close">
    <path   d="M18.707 5.293a1 1 0 0 1 0 1.414l-12 12a1 1 0 0 1-1.414-1.414l12-12a1 1 0 0 1 1.414 0z" class="fill-path"></path>
    <path   d="M5.293 5.293a1 1 0 0 1 1.414 0l12 12a1 1 0 0 1-1.414 1.414l-12-12a1 1 0 0 1 0-1.414z" class="fill-path"></path>
  </symbol>
  <symbol viewBox="0 0 8 8"  xmlns="http://www.w3.org/2000/svg" id="Ellipse1">
    <circle cx="4" cy="4" r="4" class="fill-path"></circle>
  </symbol>
  <symbol viewBox="0 0 26 26"  xmlns="http://www.w3.org/2000/svg" id="Ellipse2">
    <circle cx="13" cy="13" r="12" stroke="#FFC700" stroke-width="2"></circle>
    <circle cx="13" cy="13" r="5" class="fill-path"></circle>
  </symbol>
  <symbol viewBox="0 0 24 24"  xmlns="http://www.w3.org/2000/svg" id="expand_more_24px_rounded">
    <path d="M15.875 9l-3.88 3.88L8.115 9a.996.996 0 1 0-1.41 1.41l4.59 4.59c.39.39 1.02.39 1.41 0l4.59-4.59a.996.996 0 0 0 0-1.41c-.39-.38-1.03-.39-1.42 0z" class="fill-path"></path>
  </symbol>
  <symbol viewBox="0 0 24 24"  xmlns="http://www.w3.org/2000/svg" id="expand_more_24px">
    <path d="M8.125 15l3.88-3.88 3.88 3.88a.996.996 0 1 0 1.41-1.41L12.705 9a.996.996 0 0 0-1.41 0l-4.59 4.59a.996.996 0 0 0 0 1.41c.39.38 1.03.39 1.42 0z" class="fill-path"></path>
  </symbol>
  <symbol viewBox="0 0 24 24"  xmlns="http://www.w3.org/2000/svg" id="eye-off">
    <g clip-path="url(#clip0)" class="fill-path">
      <path d="M12 21C4.5 21 .3 12.8.1 12.4c-.1-.3-.1-.6 0-.9C1.4 9.1 3.2 7 5.5 5.3c.4-.4 1-.3 1.4.2.3.4.3 1.1-.2 1.4C4.8 8.3 3.3 10 2.1 12c.9 1.6 4.5 7 9.9 7 1.9 0 3.8-.7 5.3-1.9.4-.3 1.1-.2 1.4.2.3.4.2 1.1-.2 1.4-1.8 1.5-4.1 2.3-6.5 2.3zm8.8-4.8c-.2 0-.5-.1-.6-.2-.4-.4-.5-1-.1-1.4.7-.8 1.3-1.6 1.8-2.5-.9-1.6-4.5-7-9.9-7-.6 0-1.3.1-1.9.2-.5 0-1-.3-1.2-.8-.2-.5.2-1.1.7-1.2.8-.2 1.6-.3 2.4-.3 7.5 0 11.7 8.2 11.9 8.6.1.3.1.6 0 .9-.6 1.2-1.4 2.3-2.3 3.4-.2.2-.5.3-.8.3zm-8.9-.1c-1 0-2-.4-2.7-1.1-.8-.7-1.2-1.7-1.3-2.8 0-1.1.3-2.1 1.1-2.9l.2-.2c.4-.4 1-.4 1.4 0 .4.4.4 1 0 1.4l-.1.1c-.4.4-.6.9-.5 1.4 0 .5.2 1 .6 1.4.8.8 2.1.7 2.8-.1.4-.4 1-.4 1.4 0 .4.4.4 1 0 1.4-.7.9-1.8 1.4-2.9 1.4z"></path>
      <path d="M23 24c-.3 0-.5-.1-.7-.3l-22-22C-.1 1.3-.1.7.3.3c.4-.4 1-.4 1.4 0l22 22c.4.4.4 1 0 1.4-.2.2-.4.3-.7.3z"></path>
    </g>
    <defs>
      <clipPath id="clip0">
        <path class="fill-path"></path>
      </clipPath>
    </defs>
  </symbol>
  <symbol viewBox="0 0 18 18"  xmlns="http://www.w3.org/2000/svg" id="eye">
    <path   d="M1.606 9a14.006 14.006 0 0 0 1.848 2.487C4.796 12.92 6.673 14.25 9 14.25c2.325 0 4.203-1.33 5.547-2.763A14.007 14.007 0 0 0 16.394 9a14.008 14.008 0 0 0-1.848-2.487C13.204 5.08 11.327 3.75 9 3.75c-2.325 0-4.203 1.33-5.547 2.763A14.007 14.007 0 0 0 1.606 9zM17.25 9l.67-.336v-.002l-.003-.005-.009-.017a13.81 13.81 0 0 0-.579-.984 15.46 15.46 0 0 0-1.688-2.169C14.17 3.92 11.925 2.25 9 2.25S3.828 3.92 2.36 5.487A15.506 15.506 0 0 0 .234 8.374a9.255 9.255 0 0 0-.143.266l-.009.017-.002.005-.001.001s0 .002.67.337l-.67-.335a.75.75 0 0 0 0 .67L.75 9l-.67.335v.003l.003.005.009.017a5.444 5.444 0 0 0 .143.266 15.507 15.507 0 0 0 2.124 2.887C3.83 14.08 6.075 15.75 9 15.75s5.172-1.67 6.64-3.237a15.497 15.497 0 0 0 2.125-2.887 9.126 9.126 0 0 0 .143-.266l.009-.017.002-.005.001-.001s0-.002-.67-.337zm0 0l.67.335a.751.751 0 0 0 0-.67L17.25 9z"
      class="fill-path"></path>
    <path   d="M9 7.5a1.5 1.5 0 1 0 0 3 1.5 1.5 0 0 0 0-3zM6 9a3 3 0 1 1 6 0 3 3 0 0 1-6 0z" class="fill-path"></path>
  </symbol>
  <symbol viewBox="0 0 35 40"  xmlns="http://www.w3.org/2000/svg" id="google-play_logo">
    <path   d="M.696 1.097C.26 1.557 0 2.274 0 3.204v33.173c0 .93.259 1.645.696 2.107l.11.108L19.438 20.01v-.439L.806.987l-.11.11z" fill="url(#paint0_linear)"></path>
    <path   d="M19.438 19.571v.44l6.209 6.196.142-.08 7.357-4.171c2.102-1.19 2.102-3.14 0-4.33l-7.357-4.17-.141-.08-6.21 6.195z" fill="url(#paint1_linear)"></path>
    <path   d="M.696 38.484c.692.733 1.836.822 3.125.093l21.968-12.45-6.351-6.335L.696 38.483z" fill="url(#paint2_linear)"></path>
    <path   d="M.696 1.097l18.742 18.694 6.352-6.337L3.82 1.004C3.217.662 2.644.5 2.135.5 1.56.5 1.063.709.696 1.097z" fill="url(#paint3_linear)"></path>
    <defs>
      <linearGradient id="paint0_linear" x1="11.297" y1="-21.715" x2="-18.597" y2="-13.742" gradientUnits="userSpaceOnUse">
        <stop stop-color="#00A1FF"></stop>
        <stop offset=".26" stop-color="#00BEFF"></stop>
        <stop offset=".512" stop-color="#00D2FF"></stop>
        <stop offset=".76" stop-color="#00DFFF"></stop>
        <stop offset="1" stop-color="#00E3FF"></stop>
      </linearGradient>
      <linearGradient id="paint1_linear" x1="35.945" y1="4.438" x2="-.493" y2="4.438" gradientUnits="userSpaceOnUse">
        <stop stop-color="#FFE000"></stop>
        <stop offset=".409" stop-color="#FFBD00"></stop>
        <stop offset=".775" stop-color="orange"></stop>
        <stop offset="1" stop-color="#FF9C00"></stop>
      </linearGradient>
      <linearGradient id="paint2_linear" x1=".067" y1="9.971" x2="-23.916" y2="50.469" gradientUnits="userSpaceOnUse">
        <stop stop-color="#FF3A44"></stop>
        <stop offset="1" stop-color="#C31162"></stop>
      </linearGradient>
      <linearGradient id="paint3_linear" x1="-13.966" y1="-3.944" x2="-3.228" y2="13.989" gradientUnits="userSpaceOnUse">
        <stop stop-color="#32A071"></stop>
        <stop offset=".069" stop-color="#2DA771"></stop>
        <stop offset=".476" stop-color="#15CF74"></stop>
        <stop offset=".801" stop-color="#06E775"></stop>
        <stop offset="1" stop-color="#00F076"></stop>
      </linearGradient>
    </defs>
  </symbol>
  <symbol viewBox="0 0 24 24"  xmlns="http://www.w3.org/2000/svg" id="home">
    <path   d="M11.386 1.21a1 1 0 0 1 1.228 0l9 7A1 1 0 0 1 22 9v11a3 3 0 0 1-3 3H5a3 3 0 0 1-3-3V9a1 1 0 0 1 .386-.79l9-7zM4 9.49V20a1 1 0 0 0 1 1h14a1 1 0 0 0 1-1V9.49l-8-6.223-8 6.222z" class="fill-path"></path>
    <path   d="M8 12a1 1 0 0 1 1-1h6a1 1 0 0 1 1 1v10a1 1 0 1 1-2 0v-9h-4v9a1 1 0 1 1-2 0V12z" class="fill-path"></path>
  </symbol>
  <symbol viewBox="0 0 18 18"  xmlns="http://www.w3.org/2000/svg" id="info">
    <path   d="M9 2.25a6.75 6.75 0 1 0 0 13.5 6.75 6.75 0 0 0 0-13.5zM.75 9a8.25 8.25 0 1 1 16.5 0A8.25 8.25 0 0 1 .75 9z" class="fill-path"></path>
    <path d="M8.119 11.57c-.213.208-.319.477-.319.805 0 .328.106.6.319.812.216.209.485.313.806.313a1.09 1.09 0 0 0 1.125-1.125 1.07 1.07 0 0 0-.325-.806 1.084 1.084 0 0 0-.8-.319c-.32 0-.59.107-.806.32zm-.125-.93c0-.59.07-1.053.21-1.392.14-.343.367-.64.681-.89.315-.25.552-.477.714-.683.165-.21.248-.44.248-.69 0-.608-.276-.912-.828-.912a.786.786 0 0 0-.618.266c-.157.177-.24.417-.248.72H6c.008-.807.276-1.434.803-1.882.526-.451 1.265-.677 2.216-.677.947 0 1.68.208 2.198.623.522.415.783 1.006.783 1.772 0 .335-.07.64-.21.913-.14.275-.365.555-.675.841l-.733.647a1.63 1.63 0 0 0-.433.587 2.18 2.18 0 0 0-.134.756H7.994z"
      class="fill-path"></path>
  </symbol>
  <symbol viewBox="0 0 20 20"  xmlns="http://www.w3.org/2000/svg" id="link">
    <path   d="M10.646 2.292a5 5 0 0 1 7.07 7.07l-.01.01-2.5 2.5a5 5 0 0 1-7.54-.54A.833.833 0 0 1 9 10.335a3.334 3.334 0 0 0 5.027.36L16.522 8.2a3.334 3.334 0 0 0-4.714-4.712l-1.43 1.42a.833.833 0 1 1-1.174-1.181L10.637 2.3l.009-.009z"
      class="fill-path"></path>
    <path   d="M6.582 6.978a5 5 0 0 1 5.752 1.69.833.833 0 1 1-1.335.998 3.333 3.333 0 0 0-5.027-.36L3.478 11.8a3.333 3.333 0 0 0 4.713 4.713l1.42-1.42a.833.833 0 0 1 1.178 1.179l-1.425 1.425-.01.01a5 5 0 0 1-7.07-7.07l.01-.01 2.5-2.5a5 5 0 0 1 1.788-1.15z"
      class="fill-path"></path>
  </symbol>
  <symbol viewBox="0 0 24 24"  xmlns="http://www.w3.org/2000/svg" id="logo-facebook">
    <path d="M13.875 8.563v-2.75c0-.76.616-1.375 1.375-1.375h1.375V1h-2.75A4.125 4.125 0 0 0 9.75 5.125v3.438H7V12h2.75v11h4.125V12h2.75L18 8.562h-4.125z" class="fill-path"></path>
  </symbol>
  <symbol viewBox="0 0 24 24"  xmlns="http://www.w3.org/2000/svg" id="logo-odnoklassniki">
    <path d="M12.376 12.905a5.953 5.953 0 1 0-5.953-5.952 5.96 5.96 0 0 0 5.953 5.952zm0-9.158a3.205 3.205 0 1 1 0 6.411 3.205 3.205 0 0 1 0-6.41z" class="fill-path"></path>
    <path d="M18.206 15.726a2.306 2.306 0 0 0 1.038-1.923 1.661 1.661 0 0 0-.931-1.516 1.74 1.74 0 0 0-1.832.172 6.968 6.968 0 0 1-8.21 0 1.75 1.75 0 0 0-1.832-.172c-.577.283-.94.872-.932 1.515a2.309 2.309 0 0 0 1.038 1.923c.83.552 1.733.984 2.683 1.282.161.05.327.097.5.14L6.96 19.853a1.832 1.832 0 1 0 2.595 2.584l2.82-2.92 2.827 2.926a1.832 1.832 0 1 0 2.586-2.594l-2.763-2.703c.172-.044.339-.091.501-.14a10.52 10.52 0 0 0 2.68-1.28z"
      class="fill-path"></path>
  </symbol>
  <symbol viewBox="0 0 24 24"  xmlns="http://www.w3.org/2000/svg" id="logo-telegram">
    <path d="M6.838 13.213l-5.404-2.365c-.609-.266-.568-1.144.064-1.351l20.55-6.775a.725.725 0 0 1 .932.854l-4.107 17.46a.724.724 0 0 1-1.164.395l-4.825-3.948-6.046-4.27z" class="fill-path"></path>
    <path d="M18.036 6.493l-11.198 6.72 1.37 6.355a.8.8 0 0 0 1.262.472l3.414-2.556-2.809-2.3 8.314-8.236c.244-.242-.06-.632-.353-.455z" class="fill-path"></path>
    <path d="M8.66 20.128c.252.114.56.099.81-.088l3.414-2.557-1.404-1.15-1.405-1.149-1.415 4.944z" class="fill-path"></path>
  </symbol>
  <symbol viewBox="0 0 24 24"  xmlns="http://www.w3.org/2000/svg" id="logo-twitter">
    <path d="M22.65 5.147a8.71 8.71 0 0 1-1.517.511 4.73 4.73 0 0 0 1.249-1.988.248.248 0 0 0-.363-.289 8.753 8.753 0 0 1-2.32.959.614.614 0 0 1-.55-.137 4.743 4.743 0 0 0-3.138-1.185c-.501 0-1.007.078-1.503.232a4.595 4.595 0 0 0-3.097 3.31 5.06 5.06 0 0 0-.112 1.747.176.176 0 0 1-.19.192A12.437 12.437 0 0 1 2.56 3.932a.248.248 0 0 0-.406.032 4.74 4.74 0 0 0-.642 2.384c0 1.286.516 2.498 1.413 3.381a4.25 4.25 0 0 1-1.081-.419.248.248 0 0 0-.369.214 4.749 4.749 0 0 0 2.77 4.375l-.1.002c-.266 0-.535-.026-.8-.077a.248.248 0 0 0-.283.32 4.754 4.754 0 0 0 3.755 3.233 8.753 8.753 0 0 1-4.902 1.489h-.548a.363.363 0 0 0-.355.273.376.376 0 0 0 .18.415 13.018 13.018 0 0 0 6.54 1.764c2.011 0 3.892-.399 5.59-1.186a12.345 12.345 0 0 0 4.091-3.065 13.437 13.437 0 0 0 2.505-4.194c.556-1.488.85-3.076.85-4.591V8.21c0-.244.11-.473.303-.629a9.374 9.374 0 0 0 1.886-2.07c.138-.206-.08-.465-.307-.364z"
      class="fill-path"></path>
  </symbol>
  <symbol viewBox="0 0 24 24"  xmlns="http://www.w3.org/2000/svg" id="logo-vk">
    <path d="M19.934 14.125c.73.713 1.5 1.383 2.155 2.167.289.349.563.709.772 1.113.297.575.028 1.208-.488 1.242l-3.205-.001c-.826.068-1.486-.264-2.04-.83-.444-.452-.855-.933-1.282-1.4a3.04 3.04 0 0 0-.576-.513c-.438-.284-.818-.197-1.068.26-.254.464-.312.978-.337 1.495-.034.755-.263.953-1.02.988-1.62.076-3.158-.169-4.587-.986-1.26-.72-2.236-1.738-3.086-2.89-1.655-2.242-2.922-4.706-4.06-7.239-.257-.57-.07-.877.56-.887a86.99 86.99 0 0 1 3.138-.002c.425.006.706.25.87.652.566 1.39 1.258 2.714 2.127 3.94.231.327.467.654.803.883.372.255.655.17.83-.244.11-.262.16-.545.184-.826.083-.967.094-1.933-.051-2.897-.09-.602-.429-.991-1.029-1.105-.306-.058-.26-.172-.112-.347.257-.301.5-.489.983-.489h3.622c.57.113.697.369.775.942l.003 4.024c-.006.222.11.881.51 1.028.321.105.532-.151.724-.354.868-.92 1.486-2.009 2.04-3.135.245-.495.456-1.01.66-1.524.152-.38.39-.569.82-.56l3.485.003c.104 0 .208.001.308.019.588.1.749.352.567.926-.285.9-.842 1.65-1.386 2.403-.58.805-1.203 1.582-1.78 2.39-.529.74-.487 1.112.171 1.754z"
      class="fill-path"></path>
  </symbol>
  <symbol viewBox="0 0 42 42"  xmlns="http://www.w3.org/2000/svg" id="LogoMB-horizontal">
    <path   d="M28.244 14.25v4.5h7.875a2.25 2.25 0 1 0 0-4.5h-7.875zm0 6.75v6.75h7.875A3.375 3.375 0 0 0 36.12 21h-7.877zm7.875-9a4.5 4.5 0 0 1 3.15 7.714A5.625 5.625 0 0 1 36.118 30H25.994V17.712l-9.209 9.875L14.535 30V17.712L3.076 30H0l16.785-18v12.288l9.36-10.038H23.07L25.167 12H36.12z"
      fill="url(#paint0_radial)"></path>
    <defs>
      <radialGradient id="paint0_radial" cx="0" cy="0" r="1" gradientUnits="userSpaceOnUse" gradientTransform="rotate(148.516 16.229 11.15) scale(39.8841 37.1441)">
        <stop stop-color="#E4A216"></stop>
        <stop offset=".502" stop-color="#F1B82F"></stop>
        <stop offset="1" stop-color="#EBC965"></stop>
      </radialGradient>
    </defs>
  </symbol>
  <symbol viewBox="0 0 24 24"  xmlns="http://www.w3.org/2000/svg" id="LogoMB">
    <path   d="M2 12a1 1 0 0 1 1-1h18a1 1 0 1 1 0 2H3a1 1 0 0 1-1-1zm0-6a1 1 0 0 1 1-1h18a1 1 0 1 1 0 2H3a1 1 0 0 1-1-1zm0 12a1 1 0 0 1 1-1h18a1 1 0 1 1 0 2H3a1 1 0 0 1-1-1z" class="fill-path"></path>
  </symbol>
  <symbol viewBox="0 0 345 47"  xmlns="http://www.w3.org/2000/svg" id="menu">
    <path   d="M73.565 5.843v11.685h20.41a5.837 5.837 0 0 0 5.831-5.843 5.837 5.837 0 0 0-5.83-5.842H73.564zm0 17.527V40.9h20.383v-.002l.027.001c4.831 0 8.746-3.924 8.746-8.764 0-4.839-3.913-8.762-8.741-8.764H73.565zM93.975 0c6.441 0 11.663 5.231 11.663 11.685a11.66 11.66 0 0 1-3.501 8.346 14.597 14.597 0 0 1 6.416 12.104c0 8.067-6.527 14.607-14.578 14.607h-26.24V14.833L43.867 40.476l-5.831 6.266V14.833L8.339 46.742H.366L43.868 0v31.909l24.26-26.066h-7.973L65.592 0h28.383z"
      class="fill-path"></path>
    <path d="M125.789 27.366c-.796 0-5.466.141-6.261.141-.199.122-.199.565 0 .686 1.093.06 1.649.142 1.649 1.817v8.093c0 1.675-.556 1.756-1.649 1.817-.199.12-.199.564 0 .686.795-.021 2.266-.04 3.061-.04.794 0 2.226.019 3.021.04.198-.122.198-.566 0-.686-1.093-.06-1.65-.142-1.65-1.817v-8.114c0-1.372.139-1.796 1.193-1.796 1.152 0 2.485.485 2.485 2.947 0 2.098-.578 2.987-2.206 2.987a8.04 8.04 0 0 1-.994-.06c0 .383.118.665.397.848.278.04.218.06.696.06 1.752 0 2.977-.304 3.776-.968.987-.828 1.331-2.137 1.331-3.21 0-.81-.298-2.026-1.529-2.765-.737-.44-1.829-.666-3.32-.666zm8.845 7.65c.019-.707.126-1.468.397-1.879.314-.48.848-.685 1.073-.685.537 0 1.272.525 1.272 2.14 0 .12 0 .383-.039.424h-2.703zm5.047 2.946c-.815.847-1.887 1.07-2.642 1.07-1.55 0-2.504-.908-2.504-2.886 0-.142.019-.223.019-.323h4.77c.477 0 .577-.343.577-.627 0-1.715-.656-3.593-3.578-3.593-2.086 0-4.472 1.878-4.472 4.966 0 1.18.421 2.41 1.272 3.19.745.685 1.726 1.008 3.14 1.008 1.372 0 2.723-.706 3.717-2.179 0-.263-.1-.626-.299-.626zm9.54.847c0-.242-.039-.624-.258-.624-.795.746-1.47 1.128-2.047 1.128-1.49 0-2.663-1.089-2.663-3.511 0-2.24.496-3.35 1.55-3.35.736 0 1.034.786 1.093 1.433.059.544.597.948 1.233.948.635 0 1.092-.504 1.092-1.13 0-.908-1.072-2.1-3.239-2.1-2.346 0-4.413 1.919-4.413 4.905 0 1.306.462 2.473 1.233 3.21.782.744 1.68 1.05 3.1 1.05 1.194 0 2.564-.848 3.319-1.959zm7.473-6.094c.815.06 1.134.1 1.134 1.667v3.627c0 1.672-.319 1.85-1.134 1.911-.118.12-.118.564 0 .686a66.02 66.02 0 0 1 2.425-.04c1.1 0 1.987.019 2.823.04.118-.122.118-.566 0-.686-1.213-.06-1.531-.239-1.531-1.91v-3.628c0-1.688.318-1.87 1.531-1.93.118-.122.118-.565 0-.687-.855.042-2.823.06-2.823.06h-5.863c0-.018-1.967-.04-2.822-.06-.12.122-.12.565 0 .687 1.213.06 1.531.242 1.531 1.917v3.633c0 1.675-.318 1.857-1.531 1.918-.12.12-.12.564 0 .686.834-.021 1.722-.04 2.822-.04.944 0 1.968.019 2.426.04.118-.122.118-.566 0-.686-.816-.06-1.134-.243-1.134-1.918v-3.633c0-1.534.318-1.594 1.134-1.654h1.012zm10.593 11.24c.316-.565.617-1.29.855-1.895 1.591-3.896 2.564-6.076 3.617-8.337.279-.586.875-1.21 1.61-1.271.12-.122.12-.565 0-.687-.497.02-.855.042-1.411.042-.696 0-1.371-.021-2.107-.042-.118.122-.118.565 0 .687.637.06 1.273.162.954.889l-2.047 4.661c-.007.016-.01.031-.013.04a.257.257 0 0 0-.026-.08l-1.848-4.218c-.361-.828-.557-1.191.656-1.292.118-.122.118-.565 0-.687-.736.02-1.929.042-2.644.042-.675 0-1.809-.021-2.206-.042-.12.122-.12.565 0 .687.875.08 1.027.225 1.57 1.494l2.564 5.974c.337.484.716.847.557 1.21l-.471 1.11c-.261.624-.504.99-1.06.99-.358 0-.418-.081-.696-.081-.755 0-1.192.525-1.192.928 0 .266.05.579.238.807.186.223.51.364.776.364.261 0 .857-.071 1.132-.202.418-.202.97-.69 1.192-1.09zm9.699-8.658c0-1.452.935-2.683 1.67-2.683 1.153 0 2.047.968 2.047 3.45 0 2.625-.915 3.795-1.629 3.795-.995 0-2.088-.605-2.088-4.562zm2.127-3.694c-1.868 0-3.141 1.252-3.557 2.1.199-1.029.377-1.896.656-2.483.576-1.27.855-1.674 2.961-1.674 1.789 0 2.703-.948 3.16-3.069h-.577c-.337 1.07-1.469 1.272-3.1 1.272-1.987 0-2.746 1.696-3.28 2.988-.397.958-.973 2.684-.973 4.44 0 4.38 2.424 5.63 4.431 5.63 3.102 0 4.652-2.34 4.652-5.186 0-1.978-1.173-4.018-4.373-4.018zm13.495.223h-4.153a78.19 78.19 0 0 1-2.047-.061.95.95 0 0 0 0 .687c1.213.06 1.271.255 1.271 2.482 0 2.12-.019 3.23-.298 4.058-.259.727-.437.786-.695.786-.163 0-.348-.162-.481-.545-.186-.528-.576-.774-1.064-.774-.583 0-.794.522-.794.992 0 .624.888 1.356 1.802 1.356 1.122 0 1.772-.507 2.186-1.614.358-.958.378-3.028.378-4.4 0-1.558.139-2.078 1.325-2.078 1.06 0 1.279 0 1.279 1.667v3.627c0 1.672-.518 1.85-1.333 1.911-.118.12-.118.564 0 .686.458-.021 1.601-.04 2.624-.04 1.1 0 1.988.019 2.823.04.119-.122.119-.566 0-.686-1.213-.06-1.53-.239-1.53-1.91v-3.628c0-1.688.317-1.87 1.53-1.93.119-.122.119-.565 0-.687-.855.02-2.823.042-2.823.042v.019zm8.129 7.226c-.059 0-.119-.041-.119-.243v-4.44c0-1.675.317-1.856 1.133-1.917.119-.122.119-.565 0-.687-.458.02-1.48.042-2.426.042-1.098 0-1.986-.021-2.821-.042-.119.122-.119.565 0 .687 1.213.06 1.53.242 1.53 1.917v3.633c0 1.675-.317 1.857-1.53 1.918-.119.12-.119.564 0 .686a108.1 108.1 0 0 1 2.821-.04c.637 0 1.194.019 1.631.04.06-.162.096-.263.159-.425l2.663-6.861c.06 0 .12.04.12.242v4.44c0 1.675-.318 1.857-1.133 1.918-.12.12-.12.564 0 .686a66.02 66.02 0 0 1 2.425-.04c1.1 0 1.987.019 2.822.04.119-.122.119-.566 0-.686-1.212-.06-1.531-.243-1.531-1.918v-3.633c0-1.675.319-1.856 1.531-1.917.119-.122.119-.565 0-.687-.854.02-1.722.042-2.822.042-.637 0-1.192-.021-1.631-.042-.06.162-.096.26-.159.424l-2.663 6.863zm12.462-2.927c.477-.04 1.212.282 1.531.969.238.525.635 1.534 1.073 2.301.576 1.07 1.252 1.21 2.165 1.21l1.77-.04c.106-.204.13-.413 0-.645-.775-.092-1.054-.283-1.629-1.353-.598-1.09-.855-1.776-1.154-2.18a2.48 2.48 0 0 0-1.41-.949v-.1c.324-.29.619-.636.854-.97.523-.756.937-.91 1.55-.725.643.192 1.418-.334 1.312-1.13-.093-.68-.477-.91-1.152-.91-.836 0-1.511.769-1.889 1.313-.377.545-1.073 1.453-1.431 1.797-.517.504-1.133.725-1.59.746v-1.09c0-1.675.318-1.856 1.133-1.917.119-.122.119-.565 0-.687-.438.02-1.471.042-2.425.042-1.093 0-1.968-.021-2.822-.042-.119.122-.119.565 0 .687 1.212.06 1.531.242 1.531 1.917v3.633c0 1.675-.319 1.857-1.531 1.918-.119.12-.119.564 0 .686.835-.021 1.729-.04 2.822-.04.954 0 1.968.019 2.425.04.119-.122.119-.566 0-.686-.815-.06-1.133-.243-1.133-1.918v-1.877zm11.607 2.927c-.06 0-.119-.041-.119-.243v-4.44c0-1.675.317-1.856 1.133-1.917.119-.122.119-.565 0-.687-.458.02-1.48.042-2.426.042-1.098 0-1.987-.021-2.821-.042-.119.122-.119.565 0 .687 1.211.06 1.53.242 1.53 1.917v3.633c0 1.675-.319 1.857-1.53 1.918-.119.12-.119.564 0 .686a108.1 108.1 0 0 1 2.821-.04c.637 0 1.194.019 1.631.04.06-.162.096-.263.159-.425l2.663-6.861c.059 0 .119.04.119.242v4.44c0 1.675-.317 1.857-1.133 1.918-.119.12-.119.564 0 .686a66.04 66.04 0 0 1 2.426-.04c1.098 0 1.986.019 2.821.04.119-.122.119-.566 0-.686-1.212-.06-1.53-.243-1.53-1.918v-3.633c0-1.675.318-1.856 1.53-1.917.119-.122.119-.565 0-.687-.854.02-1.723.042-2.821.042-.637 0-1.194-.021-1.631-.042-.06.162-.096.26-.159.424l-2.663 6.863zm23.75-9.446c.465-1.22 1.113-1.353 1.988-1.413.119-.12.119-.564 0-.686-.52.02-1.094.04-1.868.04-.815 0-1.908-.02-2.645-.04-.118.122-.118.565 0 .686.757.06 1.657.182 1.372.949l-2.067 5.55c-.053.138-.145.128-.185.04l-2.578-5.752c-.274-.615.518-.727 1.472-.787.119-.12.119-.564 0-.686-.735.02-2.724.04-3.498.04-.815 0-1.928-.02-2.663-.04-.12.122-.12.565 0 .686.774.081 1.385.161 1.809 1.09l4.074 8.96c-.478 1.253-.935 1.272-1.531 1.272-.298 0-.576-.242-.735-.463-.175-.243-.517-.445-1.014-.445-.635 0-.933.586-.933 1.152 0 .645.933 1.391 2.125 1.391 1.79 0 3.095-1.627 3.936-3.833l2.941-7.71zm5.446 11.161c2.883 0 3.976-1.311 3.976-2.744 0-1.608-1.676-2.107-2.22-2.2l-.007-.061c1.273-.273 1.889-1.15 1.889-1.938 0-1.836-1.73-2.22-3.499-2.22-1.093 0-2.345.203-2.98.484-.18.646-.3 1.413-.3 2.14.2.14.418.161.776.1.497-1.23 1.273-1.876 2.186-1.876.756 0 1.212.494 1.212 1.452 0 .839-.009 1.515-1.41 1.515h-.616a.31.31 0 0 0-.298.322c0 .182.118.565.298.565h1.093c.993 0 1.173.929 1.173 1.858 0 1.422-.786 1.756-1.312 1.756-.716 0-1.043-.374-1.312-1.151-.156-.44-.517-.828-1.074-.828-.556 0-.834.445-.834.99 0 .788 1.182 1.836 3.259 1.836zm8.09-5.47c0-1.452.933-2.683 1.669-2.683 1.153 0 2.047.968 2.047 3.45 0 2.625-.914 3.795-1.63 3.795-.994 0-2.086-.605-2.086-4.562zm2.127-3.694c-1.869 0-3.141 1.252-3.559 2.1.199-1.029.378-1.896.656-2.483.577-1.27.854-1.674 2.961-1.674 1.79 0 2.704-.948 3.162-3.069h-.578c-.337 1.07-1.471 1.272-3.1 1.272-1.988 0-2.746 1.696-3.279 2.988-.398.958-.975 2.684-.975 4.44 0 4.38 2.425 5.63 4.433 5.63 3.1 0 4.651-2.34 4.651-5.186 0-1.978-1.173-4.018-4.372-4.018zm8.644 3.413c.02-.707.127-1.468.399-1.879.314-.48.847-.685 1.072-.685.538 0 1.273.525 1.273 2.14 0 .12 0 .383-.04.424h-2.704zm5.049 2.946c-.815.847-1.888 1.07-2.643 1.07-1.551 0-2.505-.908-2.505-2.886 0-.142.02-.223.02-.323h4.77c.478 0 .577-.343.577-.627 0-1.715-.656-3.593-3.578-3.593-2.087 0-4.472 1.878-4.472 4.966 0 1.18.421 2.41 1.273 3.19.745.685 1.725 1.008 3.139 1.008 1.372 0 2.724-.706 3.717-2.179 0-.263-.099-.626-.298-.626zm5.804-1.837c.477-.04 1.211.282 1.53.969.238.525.635 1.534 1.074 2.301.575 1.07 1.252 1.21 2.166 1.21l1.768-.04c.107-.204.13-.413 0-.645-.774-.092-1.053-.283-1.629-1.353-.596-1.09-.855-1.776-1.153-2.18a2.483 2.483 0 0 0-1.411-.949v-.1c.324-.29.619-.636.855-.97.523-.756.936-.91 1.55-.725.643.192 1.417-.334 1.312-1.13-.094-.68-.478-.91-1.153-.91-.836 0-1.511.769-1.889 1.313-.377.545-1.072 1.453-1.43 1.797-.517.504-1.134.725-1.59.746v-1.09c0-1.675.317-1.856 1.132-1.917.12-.122.12-.565 0-.687-.436.02-1.471.042-2.425.042-1.092 0-1.968-.021-2.822-.042-.119.122-.119.565 0 .687 1.212.06 1.531.242 1.531 1.917v3.633c0 1.675-.319 1.857-1.531 1.918-.119.12-.119.564 0 .686.835-.021 1.73-.04 2.822-.04.954 0 1.968.019 2.425.04.12-.122.12-.566 0-.686-.815-.06-1.132-.243-1.132-1.918v-1.877zm11.606 2.927c-.059 0-.118-.041-.118-.243v-4.44c0-1.675.317-1.856 1.132-1.917.12-.122.12-.565 0-.687-.457.02-1.48.042-2.425.042-1.099 0-1.987-.021-2.821-.042-.12.122-.12.565 0 .687 1.212.06 1.529.242 1.529 1.917v3.633c0 1.675-.317 1.857-1.529 1.918-.12.12-.12.564 0 .686.854-.021 1.722-.04 2.821-.04.637 0 1.193.019 1.63.04.06-.162.096-.263.159-.425l2.664-6.861c.059 0 .119.04.119.242v4.44c0 1.675-.318 1.857-1.133 1.918-.12.12-.12.564 0 .686a66.02 66.02 0 0 1 2.425-.04c1.1 0 1.987.019 2.822.04.119-.122.119-.566 0-.686-1.212-.06-1.531-.243-1.531-1.918v-3.633c0-1.675.319-1.856 1.531-1.917.119-.122.119-.565 0-.687-.854.02-1.722.042-2.822.042-.637 0-1.194-.021-1.631-.042-.059.162-.096.26-.159.424l-2.663 6.863zm16.199-.243c0-.242-.04-.624-.259-.624-.795.746-1.471 1.128-2.047 1.128-1.491 0-2.663-1.089-2.663-3.511 0-2.24.497-3.35 1.55-3.35.735 0 1.033.786 1.093 1.433.06.544.596.948 1.233.948.635 0 1.093-.504 1.093-1.13 0-.908-1.074-2.1-3.241-2.1-2.344 0-4.412 1.919-4.412 4.905 0 1.306.461 2.473 1.233 3.21.782.744 1.679 1.05 3.1 1.05 1.193 0 2.564-.848 3.32-1.959zm4.491-.699c0 1.668-.218 1.75-1.431 1.81-.119.12-.119.564 0 .686a92.354 92.354 0 0 1 5.447 0c.118-.122.118-.566 0-.686-1.213-.06-1.432-.142-1.432-1.81v-5.517h.337c1.461 0 1.869.541 2.206 2.173.259.104.776-.05.776-.081a25.471 25.471 0 0 1-.219-2.98c-.457.04-2.146.12-3.139.12h-2.504c-.995 0-2.306-.06-3.102-.12a21.39 21.39 0 0 1-.238 2.98c-.04.02.47.115.795.081.339-1.632.786-2.173 2.206-2.173h.298v5.517zm12.289 1.477c.133.817.669 1.18 1.544 1.18 1.097 0 1.869-.424 2.604-1.13a.818.818 0 0 0-.358-.565c-.258.201-.458.283-.835.283-.436 0-.556-.363-.556-1.353l.039-2.906c0-2.907-1.769-3.493-3.401-3.493-1.458 0-3.694.841-3.694 2.174 0 .578.242 1.019 1.031 1.019.701 0 1.234-.444 1.234-.932 0-.265-.138-.605-.092-.955.03-.221.173-.457.842-.457.837 0 1.537.363 1.537 2.927l-1.336.423c-2.09.666-3.554 1.252-3.554 2.845 0 1.393.755 2.12 2.485 2.12.576 0 1.728-.645 2.384-1.17l.126-.01zm-.105-3.422v2.665c-.497.403-.994.727-1.352.727-.854 0-1.152-.586-1.152-1.212 0-.746.063-1.368 1.469-1.837l1.035-.343zm12.223-1.796v1.13h-3.279v-1.13c0-1.675.317-1.856 1.132-1.917.12-.122.12-.565 0-.687-.437.02-1.471.042-2.425.042-1.093 0-1.967-.021-2.821-.042-.12.122-.12.565 0 .687 1.212.06 1.529.242 1.529 1.917v3.633c0 1.675-.317 1.857-1.529 1.918-.12.12-.12.564 0 .686.834-.021 1.728-.04 2.821-.04.954 0 1.968.019 2.425.04.12-.122.12-.566 0-.686-.815-.06-1.132-.243-1.132-1.918v-1.715h3.279v1.715c0 1.675-.318 1.857-1.133 1.918-.12.12-.12.564 0 .686a65.99 65.99 0 0 1 2.425-.04c1.093 0 1.987.019 2.822.04.119-.122.119-.566 0-.686-1.212-.06-1.531-.243-1.531-1.918v-3.633c0-1.675.319-1.856 1.531-1.917.119-.122.119-.565 0-.687-.854.02-1.729.042-2.822.042-.954 0-1.988-.021-2.425-.042-.12.122-.12.565 0 .687.815.06 1.133.242 1.133 1.917z"
      class="fill-path"></path>
    <path d="M132.905 18.25c1.901-.024 2.973 1.686 3.339 3.42.366.065.723.028 1.023-.098l-.146-3.858c-.025-.196-.122-.489-.731-.489-.585 0-1.023-.476-1.023-1.953V5.479c0-2.026.682-2.124 2.022-2.197.244-.146.244-.684 0-.83-.975.024-2.778.049-3.753.049-.975 0-2.73-.025-3.705-.05-.243.147-.243.685 0 .83 1.341.074 2.024.172 2.024 2.198v9.793c0 1.697-.683 1.88-2.024 1.953h-2.534c-1.34-.073-2.022-.244-2.022-1.953V5.479c0-2.026.682-2.124 2.022-2.197.244-.146.244-.684 0-.83-.975.024-2.778.049-3.753.049-.975 0-2.73-.025-3.705-.05-.244.147-.244.685 0 .83 1.34.074 2.024.172 2.024 2.198v9.793c0 2.026-.684 2.125-2.024 2.198-.244.146-.244.683 0 .83.975-.025 2.73-.05 3.705-.05 1.551 0 3.506.05 5.044.05 1.507 0 4.217-.05 4.217-.05zm9.675-6.714c.025-.855.154-1.775.488-2.272.386-.582 1.039-.83 1.316-.83.658 0 1.56.636 1.56 2.589 0 .146 0 .463-.049.513h-3.315zm6.191 3.565c-.999 1.025-2.315 1.294-3.241 1.294-1.902 0-3.071-1.099-3.071-3.492 0-.171.024-.269.024-.39h5.849c.584 0 .707-.416.707-.758 0-2.075-.805-4.347-4.387-4.347-2.56 0-5.484 2.272-5.484 6.008 0 1.428.517 2.914 1.56 3.858.914.83 2.116 1.22 3.85 1.22 1.683 0 3.339-.854 4.558-2.636 0-.317-.121-.757-.365-.757zm11.137-4.347v1.368h-4.021v-1.368c0-2.026.39-2.246 1.39-2.32.146-.146.146-.683 0-.83-.537.024-1.804.049-2.974.049-1.34 0-2.413-.025-3.46-.049-.147.147-.147.684 0 .83 1.486.074 1.876.294 1.876 2.32v4.395c0 2.028-.39 2.248-1.876 2.32-.147.147-.147.684 0 .83 1.023-.024 2.12-.049 3.46-.049 1.17 0 2.413.025 2.974.05.146-.147.146-.684 0-.83-1-.073-1.39-.293-1.39-2.32v-2.076h4.021v2.075c0 2.028-.389 2.248-1.388 2.32-.147.147-.147.684 0 .83.56-.024 1.802-.049 2.973-.049 1.34 0 2.437.025 3.46.05.147-.147.147-.684 0-.83-1.487-.073-1.876-.293-1.876-2.32v-4.396c0-2.026.389-2.246 1.876-2.32.147-.146.147-.683 0-.83-1.047.024-2.12.049-3.46.049-1.171 0-2.438-.025-2.973-.049-.147.147-.147.684 0 .83.999.074 1.388.294 1.388 2.32zm10.382 4.525c0 2.02-.267 2.118-1.754 2.19-.147.147-.147.684 0 .83 1.023-.024 2.112-.049 3.461-.049 1.254 0 2.279.025 3.216.05.147-.147.147-.684 0-.83-1.487-.073-1.754-.172-1.754-2.19V8.604h.414c1.791 0 2.291.656 2.706 2.63.317.125.95-.062.95-.098a30.109 30.109 0 0 1-.268-3.606c-.561.049-2.633.146-3.851.146h-3.07c-1.219 0-2.828-.073-3.803-.146a25.583 25.583 0 0 1-.292 3.606c-.049.024.577.139.974.097.415-1.973.963-2.629 2.706-2.629h.365v6.674zm10.188-4.574v10.232c0 2.026-.269 2.076-1.754 2.198-.147.146-.147.683 0 .83 1.023-.024 2.039-.048 3.338-.048 1.3 0 2.291.024 3.339.048.147-.147.147-.684 0-.83-1.487-.098-1.754-.172-1.754-2.198V18.08c.523.269 1.047.415 1.632.415 3.716 0 6.118-2.43 6.118-6.031 0-1.36-.517-2.882-1.463-3.835-.853-.858-2.076-1.22-3.339-1.22-.706 0-2.022.854-2.875 1.636h-.139c-.057-.692-.13-1.22-.13-1.22-.024-.298-.219-.417-.56-.417-.902.245-2.365.586-4.046.807-.049.146 0 .634.049.78 1.328.123 1.584.319 1.584 1.71zm3.169 5.958v-6.26c0-.13-.005-.264-.009-.398.702-.635 1.604-.96 2.177-.96 1 0 2.17 1.221 2.17 4.078 0 2.05-.732 4.347-2.852 4.347-.269 0-.878-.147-1.486-.807zm15.873.404c.162.989.82 1.428 1.893 1.428 1.344 0 2.291-.513 3.192-1.367a.991.991 0 0 0-.438-.685c-.317.245-.561.343-1.024.343-.536 0-.682-.44-.682-1.637l.048-3.516c0-3.516-2.169-4.225-4.171-4.225-1.787 0-4.529 1.018-4.529 2.63 0 .7.296 1.233 1.264 1.233.86 0 1.514-.537 1.514-1.128 0-.321-.17-.732-.113-1.155.036-.269.211-.553 1.032-.553 1.027 0 1.884.439 1.884 3.54l-1.637.513c-2.563.805-4.358 1.514-4.358 3.443 0 1.685.926 2.564 3.046 2.564.707 0 2.121-.78 2.925-1.416l.154-.012zm-.13-4.14v3.224c-.61.488-1.219.878-1.657.878-1.048 0-1.414-.707-1.414-1.464 0-.903.077-1.657 1.804-2.222l1.267-.416zm15.524-5.25h-5.093c-1.186-.024-1.99-.049-2.51-.073-.11.265-.097.622 0 .83 1.487.074 1.56.31 1.56 3.004 0 2.564-.025 3.907-.366 4.908-.316.88-.536.952-.853.952-.2 0-.427-.194-.589-.659-.227-.639-.707-.936-1.303-.936-.715 0-.976.631-.976 1.2 0 .754 1.089 1.64 2.21 1.64 1.377 0 2.173-.614 2.681-1.953.439-1.16.463-3.663.463-5.323 0-1.884.171-2.515 1.625-2.515 1.299 0 1.567 0 1.567 2.019v4.387c0 2.023-.633 2.239-1.632 2.312-.146.146-.146.683 0 .83a93.85 93.85 0 0 1 3.216-.05c1.349 0 2.438.025 3.462.05.146-.147.146-.684 0-.83-1.487-.073-1.877-.29-1.877-2.312V10.77c0-2.043.39-2.263 1.877-2.336.146-.147.146-.684 0-.831a395.08 395.08 0 0 1-3.462.049v.024zm13.21 7.35c0 1.416-.609 2.344-2.048 2.344-1.116 0-1.34-.17-1.34-1.05v-3.784h1.439c1.828 0 1.949 1.514 1.949 2.49zm-4.972 3.223l3.388.05c3.192 0 4.752-.953 4.752-3.493 0-2.698-2.145-3.198-4.899-3.198h-1.657v-.855c0-2.026.39-2.246 1.877-2.32.147-.146.147-.683 0-.83-1.048.024-2.112.049-3.461.049-1.348 0-2.437-.025-3.46-.049-.147.147-.147.684 0 .83 1.487.074 1.876.294 1.876 2.32v4.395c0 2.028-.389 2.248-1.876 2.32-.147.147-.147.684 0 .83 1.047-.024 2.112-.049 3.46-.049zm18.23-7.496v1.368h-4.021v-1.368c0-2.026.39-2.246 1.389-2.32.146-.146.146-.683 0-.83a83.38 83.38 0 0 1-2.973.049c-1.34 0-2.413-.025-3.461-.049-.146.147-.146.684 0 .83 1.486.074 1.877.294 1.877 2.32v4.395c0 2.028-.391 2.248-1.877 2.32-.146.147-.146.684 0 .83a139.62 139.62 0 0 1 3.461-.049c1.17 0 2.413.025 2.973.05.146-.147.146-.684 0-.83-.999-.073-1.389-.293-1.389-2.32v-2.076h4.021v2.075c0 2.028-.389 2.248-1.389 2.32-.146.147-.146.684 0 .83.56-.024 1.803-.049 2.973-.049 1.34 0 2.438.025 3.461.05.147-.147.147-.684 0-.83-1.487-.073-1.877-.293-1.877-2.32v-4.396c0-2.026.39-2.246 1.877-2.32.147-.146.147-.683 0-.83a139.85 139.85 0 0 1-3.461.049 83.38 83.38 0 0 1-2.973-.049c-.146.147-.146.684 0 .83 1 .074 1.389.294 1.389 2.32zm23.737 0c0-2.026.391-2.246 1.878-2.32.146-.146.146-.683 0-.83a137.56 137.56 0 0 1-3.462.049c-1.348 0-2.412-.025-3.46-.049-.146.147-.146.684 0 .83 1.487.074 1.876.294 1.876 2.32v4.395c0 2.028-.389 2.248-1.876 2.32-.146.147-.146.684 0 .83a137.09 137.09 0 0 1 3.46-.049c1.349 0 2.413.025 3.462.05.146-.147.146-.684 0-.83-1.487-.073-1.878-.293-1.878-2.32v-4.396zm-8.943 4.274c0 1.415-.609 2.343-2.048 2.343-1.117 0-1.34-.17-1.34-1.05v-3.784h1.438c1.828 0 1.95 1.514 1.95 2.49zm-4.973 3.222l3.388.05c3.193 0 4.753-.953 4.753-3.493 0-2.698-2.145-3.198-4.899-3.198h-1.657v-.855c0-2.026.39-2.246 1.877-2.32.146-.146.146-.683 0-.83-1.049.024-2.112.049-3.462.049-1.347 0-2.436-.025-3.46-.049-.146.147-.146.684 0 .83 1.487.074 1.876.294 1.876 2.32v4.395c0 2.028-.389 2.248-1.876 2.32-.146.147-.146.684 0 .83a138.95 138.95 0 0 1 3.46-.049zm22.3-1.831c-.073 0-.146-.049-.146-.293v-5.372c0-2.026.39-2.246 1.39-2.32.146-.146.146-.683 0-.83-.561.024-1.816.049-2.974.049-1.348 0-2.437-.025-3.46-.049-.147.147-.147.684 0 .83 1.487.074 1.876.294 1.876 2.32v4.395c0 2.028-.389 2.248-1.876 2.32-.147.147-.147.684 0 .83 1.047-.024 2.112-.049 3.46-.049.78 0 1.463.025 1.998.05.074-.195.119-.318.196-.513l3.266-8.303c.073 0 .146.049.146.293v5.372c0 2.028-.39 2.248-1.389 2.32-.147.147-.147.684 0 .83.56-.024 1.815-.049 2.973-.049 1.348 0 2.437.025 3.46.05.147-.147.147-.684 0-.83-1.485-.073-1.876-.293-1.876-2.32v-4.396c0-2.026.391-2.246 1.876-2.32.147-.146.147-.683 0-.83a139.11 139.11 0 0 1-3.46.049c-.78 0-1.463-.025-1.998-.049-.074.196-.118.313-.196.513l-3.266 8.302zm5.192-12.917c0-.562-.414-.928-1.024-.928-.488 0-.999.415-.999.904 0 .158.049.313.049.463 0 .635-.244 1.124-1.17 1.124-.951 0-1.17-.49-1.17-1.124 0-.089.049-.395.049-.488 0-.464-.415-.88-.975-.88-.585 0-1.048.44-1.048.978 0 1.587 1.463 2.539 3.12 2.539 1.632 0 3.168-.977 3.168-2.588zm16.308 13.723c-1.219 0-1.487-.346-1.487-2.149v-4.908h2.315c2.718 0 2.803 2.345 2.803 3.736 0 1.514-.06 3.321-3.631 3.321zm1.072-13.699c2.559 0 3.461 1.367 3.948 3.126.293.048.804 0 1.048-.123a32.738 32.738 0 0 0-.39-4.078s-2.217.049-2.924.049h-5.923c-.95 0-3.753-.049-3.753-.049-.244.147-.244.684 0 .83 1.341.074 2.023.171 2.023 2.198v9.792c0 2.027-.682 2.125-2.023 2.199-.244.146-.244.683 0 .83 0 0 2.778-.05 3.753-.05.976 0 1.463.05 3.462.05l1.852-.05c2.867-.077 5.142-2.124 5.142-4.712 0-1.856-.17-4.444-6.142-4.444h-2.632V5.455c0-1.465.341-1.929.853-1.929h1.706zm14.534 13.54c.163.989.82 1.429 1.892 1.429 1.345 0 2.292-.513 3.193-1.368-.056-.285-.159-.48-.439-.684-.316.245-.56.342-1.023.342-.536 0-.682-.44-.682-1.636l.049-3.516c0-3.517-2.17-4.225-4.173-4.225-1.787 0-4.528 1.018-4.528 2.63 0 .699.296 1.232 1.263 1.232.861 0 1.515-.536 1.515-1.127 0-.321-.171-.732-.114-1.155.036-.269.212-.554 1.032-.554 1.028 0 1.885.44 1.885 3.541l-1.638.512c-2.563.806-4.358 1.514-4.358 3.444 0 1.685.926 2.564 3.047 2.564.706 0 2.12-.782 2.924-1.417l.155-.011zm-.13-4.139v3.223c-.609.489-1.219.88-1.658.88-1.047 0-1.413-.708-1.413-1.466 0-.902.077-1.656 1.803-2.222l1.268-.415zm14.988-2.173v1.367h-4.021v-1.367c0-2.027.389-2.246 1.39-2.32.145-.146.145-.684 0-.83a82.84 82.84 0 0 1-2.974.049c-1.34 0-2.413-.025-3.461-.049-.147.146-.147.684 0 .83 1.487.074 1.877.293 1.877 2.32v4.395c0 2.028-.39 2.247-1.877 2.32-.147.147-.147.684 0 .83 1.023-.024 2.121-.049 3.461-.049 1.17 0 2.413.025 2.974.05.145-.147.145-.684 0-.83-1.001-.074-1.39-.293-1.39-2.32v-2.077h4.021v2.076c0 2.028-.39 2.247-1.389 2.32-.146.147-.146.684 0 .83.56-.024 1.803-.049 2.973-.049 1.34 0 2.437.025 3.461.05.146-.147.146-.684 0-.83-1.486-.074-1.877-.293-1.877-2.32v-4.396c0-2.027.391-2.246 1.877-2.32.146-.146.146-.684 0-.83-1.048.024-2.121.049-3.461.049a83.38 83.38 0 0 1-2.973-.049c-.146.146-.146.684 0 .83.999.074 1.389.293 1.389 2.32zm11.406 2.125c.585-.05 1.487.341 1.877 1.17.292.637.779 1.858 1.315 2.785.707 1.295 1.536 1.465 2.657 1.465l2.169-.049c.13-.248.159-.5 0-.78-.95-.11-1.292-.343-1.999-1.637-.73-1.319-1.047-2.15-1.412-2.637a3.05 3.05 0 0 0-1.731-1.148v-.122c.398-.35.759-.769 1.047-1.172.642-.915 1.15-1.103 1.902-.88.788.232 1.738-.402 1.608-1.366-.114-.822-.585-1.1-1.414-1.1-1.023 0-1.852.928-2.314 1.587-.464.66-1.317 1.759-1.755 2.174-.634.61-1.389.879-1.95.903v-1.318c0-2.027.39-2.246 1.389-2.32.147-.146.147-.684 0-.83a82.82 82.82 0 0 1-2.973.049c-1.341 0-2.413-.025-3.46-.049-.147.146-.147.684 0 .83 1.485.074 1.876.293 1.876 2.32v4.395c0 2.028-.391 2.247-1.876 2.32-.147.147-.147.684 0 .83 1.023-.024 2.119-.049 3.46-.049 1.169 0 2.412.025 2.973.05.147-.147.147-.684 0-.83-.999-.074-1.389-.293-1.389-2.32v-2.271z"
      class="fill-path"></path>
  </symbol>
  <symbol viewBox="0 0 18 18"  xmlns="http://www.w3.org/2000/svg" id="printer">
    <path   d="M3.75 1.5A.75.75 0 0 1 4.5.75h9a.75.75 0 0 1 .75.75v5.25a.75.75 0 0 1-1.5 0v-4.5h-7.5v4.5a.75.75 0 0 1-1.5 0V1.5z" class="fill-path"></path>
    <path   d="M3 7.5a.75.75 0 0 0-.75.75V12a.75.75 0 0 0 .75.75h1.5a.75.75 0 0 1 0 1.5H3A2.25 2.25 0 0 1 .75 12V8.25A2.25 2.25 0 0 1 3 6h12a2.25 2.25 0 0 1 2.25 2.25V12A2.25 2.25 0 0 1 15 14.25h-1.5a.75.75 0 0 1 0-1.5H15a.75.75 0 0 0 .75-.75V8.25A.75.75 0 0 0 15 7.5H3z"
      class="fill-path"></path>
    <path   d="M3.75 10.5a.75.75 0 0 1 .75-.75h9a.75.75 0 0 1 .75.75v6a.75.75 0 0 1-.75.75h-9a.75.75 0 0 1-.75-.75v-6zm1.5.75v4.5h7.5v-4.5h-7.5z" class="fill-path"></path>
  </symbol>
  <symbol viewBox="0 0 13 12"  xmlns="http://www.w3.org/2000/svg" id="qr-code">
    <path d="M.765 5.313V.438H5.64v4.875H.765zm1.625-3.25v1.624h1.625V2.063H2.39zM7.265.437h4.875v4.875H7.265V.438zm3.25 3.25V2.063H8.89v1.624h1.625zm-9.75 8.126V6.936H5.64v4.875H.765zm1.625-3.25v1.624h1.625V8.563H2.39zm8.937-1.626h.813v3.25H9.702v-.812H8.89v2.438H7.265V6.936h2.437v.813h1.625v-.813zm0 4.063h.813v.813h-.813V11zm-1.625 0h.813v.813h-.813V11z"
      class="fill-path"></path>
  </symbol>
  <symbol viewBox="0 0 20 20"  xmlns="http://www.w3.org/2000/svg" id="refresh-cw">
    <path   d="M9 2a7 7 0 1 0 0 14A7 7 0 0 0 9 2zM0 9a9 9 0 1 1 18 0A9 9 0 0 1 0 9z" class="fill-path"></path>
    <path   d="M13.943 13.943a1 1 0 0 1 1.415 0l4.35 4.35a1 1 0 0 1-1.415 1.415l-4.35-4.35a1 1 0 0 1 0-1.415z" class="fill-path"></path>
  </symbol>
  <symbol viewBox="0 0 23 23"  xmlns="http://www.w3.org/2000/svg" id="RSS">
    <path   d="M.853 2.802C.853 1.661 1.856.739 2.998.863c10.106 1.004 18.136 9.048 19.14 19.14a1.965 1.965 0 0 1-1.953 2.145 1.93 1.93 0 0 1-1.925-1.76c-.825-8.264-7.398-14.836-15.661-15.661A1.928 1.928 0 0 1 .853 2.802zm2.186 5.913C1.884 8.522.853 9.47.853 10.64c0 .976.728 1.76 1.69 1.925 4.016.701 7.178 3.877 7.893 7.892.165.963.949 1.692 1.925 1.692 1.169 0 2.118-1.032 1.939-2.187-.935-5.775-5.486-10.326-11.261-11.247zm.811 7.438a2.997 2.997 0 1 0 0 5.995 2.997 2.997 0 0 0 0-5.995z"
      class="fill-path"></path>
  </symbol>
  <symbol viewBox="0 0 18 18"  xmlns="http://www.w3.org/2000/svg" id="search">
    <g clip-path="url(#clip0)"   class="fill-path">
      <path d="M17.25 2.25A.75.75 0 0 1 18 3v4.5a.75.75 0 0 1-.75.75h-4.5a.75.75 0 0 1 0-1.5h3.75V3a.75.75 0 0 1 .75-.75zM0 10.5a.75.75 0 0 1 .75-.75h4.5a.75.75 0 0 1 0 1.5H1.5V15A.75.75 0 0 1 0 15v-4.5z"></path>
      <path d="M10.663 3.236A6 6 0 0 0 3.34 6.998a.75.75 0 1 1-1.415-.5 7.5 7.5 0 0 1 12.367-2.809l3.472 3.263a.75.75 0 0 1-1.028 1.093l-3.48-3.27a6 6 0 0 0-2.593-1.539zM.203 9.985a.75.75 0 0 1 1.06-.033l3.48 3.27.017.016a6 6 0 0 0 9.9-2.24.75.75 0 1 1 1.415.5 7.5 7.5 0 0 1-12.367 2.809L.236 11.045a.75.75 0 0 1-.033-1.06z"></path>
    </g>
    <defs>
      <clipPath id="clip0">
        <path class="fill-path"></path>
      </clipPath>
    </defs>
  </symbol>
  <symbol viewBox="0 0 24 24"  xmlns="http://www.w3.org/2000/svg" id="send">
    <path   d="M18 3a2 2 0 1 0 0 4 2 2 0 0 0 0-4zm-4 2a4 4 0 1 1 8 0 4 4 0 0 1-8 0zm-8 5a2 2 0 1 0 0 4 2 2 0 0 0 0-4zm-4 2a4 4 0 1 1 8 0 4 4 0 0 1-8 0zm16 5a2 2 0 1 0 0 4 2 2 0 0 0 0-4zm-4 2a4 4 0 1 1 8 0 4 4 0 0 1-8 0z"
      class="fill-path"></path>
    
  </symbol>
  <symbol viewBox="0 0 18 18"  xmlns="http://www.w3.org/2000/svg" id="share-2">
    <path   d="M17.03.97a.75.75 0 0 1 0 1.06l-8.25 8.25a.75.75 0 0 1-1.06-1.06L15.97.97a.75.75 0 0 1 1.06 0z" class="fill-path"></path>
    <path   d="M17.03.97a.75.75 0 0 1 .178.778l-5.25 15a.75.75 0 0 1-1.393.057l-2.883-6.487-6.487-2.883a.75.75 0 0 1 .057-1.393l15-5.25a.75.75 0 0 1 .778.178zM3.533 6.833l5.022 2.232a.75.75 0 0 1 .38.38l2.232 5.022 4.11-11.745L3.534 6.833z"
      class="fill-path"></path>
  </symbol>
  <symbol viewBox="0 0 24 24"  xmlns="http://www.w3.org/2000/svg" id="smartphone">
    <path d="M17 23H7c-1.7 0-3-1.3-3-3V4c0-1.7 1.3-3 3-3h10c1.7 0 3 1.3 3 3v16c0 1.7-1.3 3-3 3zM7 3c-.6 0-1 .4-1 1v16c0 .6.4 1 1 1h10c.6 0 1-.4 1-1V4c0-.6-.4-1-1-1H7z" class="fill-path"></path>
    <path d="M12 19c-.1 0-.3 0-.4-.1-.1 0-.2-.1-.3-.2-.2-.2-.3-.4-.3-.7 0-.1 0-.3.1-.4.1-.1.1-.2.2-.3.4-.4 1-.4 1.4 0 .2.2.3.5.3.7 0 .3-.1.5-.3.7-.2.2-.4.3-.7.3z" class="fill-path"></path>
  </symbol>
  <symbol viewBox="0 0 24 24"  xmlns="http://www.w3.org/2000/svg" id="tag">
    <path   d="M10.086 1.594A1 1 0 0 1 11 1a4 4 0 0 1 4 4v3h4.655a3 3 0 0 1 2.994 3.45l-1.38 9A3.002 3.002 0 0 1 18.275 23H4a3 3 0 0 1-3-3v-7a3 3 0 0 1 3-3h2.35l3.736-8.406zM8 11.212l3.608-8.117A2 2 0 0 1 13 5v4a1 1 0 0 0 1 1h5.671a1 1 0 0 1 1 1.15l-1.38 9a1 1 0 0 1-1 .85H8v-9.788zM6 21v-9H4a1 1 0 0 0-1 1v7a1 1 0 0 0 1 1h2z"
      class="fill-path"></path>
  </symbol>
  <symbol viewBox="0 0 25 24"  xmlns="http://www.w3.org/2000/svg" id="thumbs-down">
    <path   d="M20.844 3.316A1.31 1.31 0 0 0 19.968 3H18.28v9h1.688a1.31 1.31 0 0 0 1.312-1.076V4.077a1.31 1.31 0 0 0-.436-.761zm-4.564 9.472l-3.608 8.118A2 2 0 0 1 11.28 19v-4a1 1 0 0 0-1-1H4.61a.998.998 0 0 1-1-1.149l1.38-9a1 1 0 0 1 1-.85h10.29v9.787zM19.942 1a3.31 3.31 0 0 1 3.33 2.866c.005.045.008.09.008.134v7c0 .045-.003.09-.009.134A3.31 3.31 0 0 1 19.942 14H17.93l-3.736 8.407a1 1 0 0 1-.914.593 4 4 0 0 1-4-4v-3H4.625a3 3 0 0 1-2.993-3.45l1.38-9A3.002 3.002 0 0 1 6.005 1h13.937z"
      class="fill-path"></path>
  </symbol>
  <symbol viewBox="0 0 18 18"  xmlns="http://www.w3.org/2000/svg" id="thumbs-up">
    <path   d="M.75 1.5A.75.75 0 0 1 1.5.75H9a.75.75 0 0 1 .53.22l6.444 6.444a2.25 2.25 0 0 1 0 3.172l-.531-.529.53.53-5.377 5.378a2.252 2.252 0 0 1-3.184 0L.97 9.531A.75.75 0 0 1 .75 9V1.5zm14.16 8.029h.001a.75.75 0 0 0 0-1.057L8.689 2.25H2.25v6.44l6.223 6.214v.001a.751.751 0 0 0 1.061 0l5.377-5.376z"
      class="fill-path"></path>
  </symbol>
  <symbol  viewBox="0 0 10 18"  xmlns="http://www.w3.org/2000/svg" id="Vector">
    <path d="M9.752 8.777L.501.451A.3.3 0 0 0 0 .674v16.652a.3.3 0 0 0 .5.223l9.252-8.326a.3.3 0 0 0 0-.446z" class="fill-path"></path>
  </symbol>
  <symbol width="24" height="24" viewBox="0 0 24 24"  xmlns="http://www.w3.org/2000/svg" id="zap">
    <path   d="M20.097 1.624a1.5 1.5 0 0 1 .891 1.562L19.7 13.5h11.8a1.5 1.5 0 0 1 1.152 2.46l-15 18a1.5 1.5 0 0 1-2.64-1.146L16.3 22.5H4.5a1.5 1.5 0 0 1-1.152-2.46l15-18a1.5 1.5 0 0 1 1.75-.416zM7.703 19.5H18a1.5 1.5 0 0 1 1.488 1.686l-.865 6.923L28.297 16.5H18a1.5 1.5 0 0 1-1.488-1.686l.865-6.923L7.703 19.5z"
 class="fill-path" ></path>
  </symbol>
</svg>