<svg width="18" height="18" viewBox="0 0 18 18" fill="none" xmlns="http://www.w3.org/2000/svg">
<path fill-rule="evenodd" clip-rule="evenodd" d="M0.75 1.5C0.75 1.08579 1.08579 0.75 1.5 0.75H9C9.19891 0.75 9.38968 0.829018 9.53033 0.96967L15.9744 7.41375C16.3935 7.83532 16.6287 8.40558 16.6287 9C16.6287 9.59442 16.3935 10.1647 15.9744 10.5862L15.4425 10.0575L15.9728 10.5878L10.5956 15.965C10.5955 15.9651 10.5957 15.9649 10.5956 15.965C10.3867 16.1741 10.1384 16.3402 9.86537 16.4534C9.59222 16.5667 9.29943 16.6249 9.00375 16.6249C8.70807 16.6249 8.41528 16.5667 8.14213 16.4534C7.86906 16.3402 7.62096 16.1743 7.41203 15.9652C7.41198 15.9651 7.41209 15.9652 7.41203 15.9652L0.969979 9.53064C0.829138 9.38996 0.75 9.19906 0.75 9V1.5ZM14.9106 9.52875C14.9108 9.52852 14.9111 9.52829 14.9113 9.52806C15.0505 9.3876 15.1287 9.19781 15.1287 9C15.1287 8.80219 15.0505 8.6124 14.9113 8.47194C14.9111 8.47171 14.9108 8.47148 14.9106 8.47125L8.68934 2.25H2.25V8.68908L8.47252 14.9044L8.47313 14.905C8.54278 14.9747 8.6255 15.03 8.71654 15.0678C8.80759 15.1055 8.90519 15.1249 9.00375 15.1249C9.10231 15.1249 9.19991 15.1055 9.29096 15.0678C9.382 15.03 9.46472 14.9747 9.53437 14.905L14.9106 9.52875Z" fill="black"/>
</svg>
