<svg width="25" height="24" viewBox="0 0 25 24" fill="none" xmlns="http://www.w3.org/2000/svg">
<path fill-rule="evenodd" clip-rule="evenodd" d="M20.8444 3.31598C20.6008 3.1069 20.2889 2.99453 19.968 3.00021L19.9503 3.00036H18.2803V12.0004H19.9503L19.968 12.0005C20.2889 12.0062 20.6008 11.8938 20.8444 11.6847C21.0733 11.4883 21.2269 11.2192 21.2803 10.9235V4.07723C21.2269 3.78151 21.0733 3.51246 20.8444 3.31598ZM16.2803 12.7881L12.6725 20.9058C12.3711 20.8096 12.0939 20.6424 11.8661 20.4146C11.491 20.0395 11.2803 19.5308 11.2803 19.0004V15.0004C11.2803 14.4481 10.8326 14.0004 10.2803 14.0004H4.6203L4.60898 14.0004C4.46403 14.0021 4.32045 13.9722 4.18819 13.9128C4.05594 13.8535 3.93817 13.7661 3.84305 13.6567C3.74793 13.5473 3.67773 13.4185 3.63731 13.2793C3.59695 13.1403 3.58725 12.9941 3.60889 12.851C3.60886 12.8512 3.60892 12.8508 3.60889 12.851L4.989 3.8503C5.02516 3.61184 5.14628 3.39449 5.33005 3.23829C5.51381 3.0821 5.74784 2.99757 5.989 3.0003L16.2803 3.00036V12.7881ZM19.9423 1.00036C20.7498 0.988428 21.534 1.27219 22.147 1.79838C22.7625 2.32667 23.1626 3.06255 23.2713 3.86632C23.2773 3.91075 23.2803 3.95553 23.2803 4.00036V11.0004C23.2803 11.0452 23.2773 11.09 23.2713 11.1344C23.1626 11.9382 22.7625 12.6741 22.147 13.2023C21.534 13.7285 20.7498 14.0123 19.9423 14.0004H17.9302L14.1941 22.4065C14.0336 22.7676 13.6755 23.0004 13.2803 23.0004C12.2194 23.0004 11.202 22.5789 10.4519 21.8288C9.70173 21.0786 9.2803 20.0612 9.2803 19.0004V16.0004H4.62542C4.19267 16.0044 3.76414 15.9147 3.36927 15.7375C2.97251 15.5594 2.61921 15.2972 2.33384 14.969C2.04847 14.6409 1.83787 14.2546 1.71662 13.8369C1.59537 13.4193 1.56637 12.9803 1.63163 12.5503L3.01161 3.55043C3.01165 3.55012 3.01156 3.55073 3.01161 3.55043C3.12026 2.83542 3.48369 2.18282 4.03475 1.71442C4.58446 1.24716 5.28409 0.993702 6.00539 1.00036H19.9423Z" fill="black"/>
</svg>
