<svg width="36" height="36" viewBox="0 0 36 36" fill="none" xmlns="http://www.w3.org/2000/svg">
<path fill-rule="evenodd" clip-rule="evenodd" d="M20.0973 1.62413C20.7081 1.88928 21.071 2.52539 20.9884 3.18614L19.6992 13.5001H31.5C32.082 13.5001 32.6115 13.8368 32.8584 14.3639C33.1053 14.8909 33.025 15.5132 32.6523 15.9604L17.6523 33.9604C17.2261 34.4719 16.5136 34.6412 15.9027 34.376C15.2919 34.1109 14.929 33.4748 15.0116 32.814L16.3008 22.5001H4.50002C3.91799 22.5001 3.3885 22.1634 3.14163 21.6363C2.89476 21.1092 2.97508 20.4869 3.34769 20.0398L18.3477 2.03981C18.774 1.52826 19.4865 1.35898 20.0973 1.62413ZM7.70258 19.5001H18C18.4303 19.5001 18.8398 19.6848 19.1245 20.0074C19.4093 20.3299 19.5418 20.7592 19.4884 21.1861L18.623 28.1094L28.2975 16.5001H18C17.5698 16.5001 17.1602 16.3153 16.8755 15.9928C16.5908 15.6702 16.4582 15.241 16.5116 14.814L17.377 7.89077L7.70258 19.5001Z" fill="#FFC700"/>
</svg>
