<svg width="96" height="96" viewBox="0 0 96 96" fill="none" xmlns="http://www.w3.org/2000/svg">
    <path d="M96 48C96 74.5097 74.5097 96 48 96C37.5302 96 27.8439 92.6479 19.9543 86.9584C19.5056 86.6351 19.0609 86.3021 18.624 85.9631C7.29413 77.184 0 63.4423 0 48C0 21.4903 21.4903 0 48 0C74.5097 0 96 21.4903 96 48Z" fill="#FCC72E"/>
    <path d="M47.5071 74.3226H13.1487C10.1202 74.3226 7.66504 71.8674 7.66504 68.8389V34.4807C7.66504 31.4522 10.1202 28.9971 13.1487 28.9971H47.5071C50.5356 28.9971 52.9907 31.4522 52.9907 34.4807V68.8391C52.9907 71.8676 50.5356 74.3226 47.5071 74.3226Z" fill="#FF4F6F"/>
    <path d="M36.5535 68.5122L31.3245 74.3232L19.9534 86.9579C19.5047 86.6347 19.0599 86.3016 18.623 85.9626V70.5048L36.5535 68.5122Z" fill="#FF4F6F"/>
    <path d="M52.3303 49.7524H86.6888C89.7173 49.7524 92.1724 47.2973 92.1724 44.2688V9.91038C92.1724 6.88188 89.7173 4.42676 86.6888 4.42676H52.3303C49.3018 4.42676 46.8467 6.88188 46.8467 9.91038V44.2688C46.8469 47.2975 49.3018 49.7524 52.3303 49.7524Z" fill="#5CC693"/>
    <path d="M63.2832 43.9409L81.2142 63.8641V45.9333" fill="#5CC693"/>
    <path d="M80.9345 28.028C80.9345 30.5692 80.4951 32.8017 79.6164 34.7255C78.7376 36.6373 77.4789 38.1098 75.8401 39.143C74.2132 40.1642 72.337 40.6748 70.2114 40.6748C68.1095 40.6748 66.2332 40.1642 64.5826 39.143C62.9439 38.1098 61.6732 36.6433 60.7707 34.7433C59.8801 32.8433 59.4289 30.6523 59.417 28.1705V26.7098C59.417 24.1805 59.8623 21.948 60.7529 20.0123C61.6554 18.0767 62.9201 16.5983 64.547 15.577C66.1857 14.5439 68.062 14.0273 70.1757 14.0273C72.2895 14.0273 74.1598 14.538 75.7867 15.5592C77.4254 16.5686 78.6901 18.0292 79.5807 19.9411C80.4714 21.8411 80.9226 24.0558 80.9345 26.5852V28.028ZM76.4279 26.6742C76.4279 23.8005 75.8817 21.5977 74.7892 20.0658C73.7086 18.5339 72.1707 17.768 70.1757 17.768C68.2282 17.768 66.7023 18.5339 65.5979 20.0658C64.5054 21.5858 63.9473 23.7411 63.9236 26.5317V28.028C63.9236 30.878 64.4757 33.0808 65.5801 34.6364C66.6964 36.192 68.2401 36.9698 70.2114 36.9698C72.2064 36.9698 73.7382 36.2098 74.807 34.6898C75.8876 33.1698 76.4279 30.9492 76.4279 28.028V26.6742Z" fill="white"/>
    <path d="M21.8359 65.2787V39.3438H30.7244C33.6575 39.3438 35.89 39.9316 37.4219 41.1072C38.9538 42.2828 39.7197 44.0344 39.7197 46.3619C39.7197 47.5494 39.3991 48.6181 38.7578 49.5681C38.1166 50.5181 37.1784 51.2544 35.9434 51.7769C37.3447 52.1569 38.4253 52.8753 39.1853 53.9322C39.9572 54.9772 40.3431 56.2359 40.3431 57.7084C40.3431 60.1428 39.5594 62.0131 37.9919 63.3194C36.4363 64.6256 34.2038 65.2787 31.2944 65.2787H21.8359ZM26.3425 53.5759V61.6806H31.3478C32.7609 61.6806 33.8653 61.3303 34.6609 60.6297C35.4566 59.9291 35.8544 58.9553 35.8544 57.7084C35.8544 55.0128 34.4769 53.6353 31.7219 53.5759H26.3425ZM26.3425 50.2628H30.76C32.1613 50.2628 33.2538 49.9481 34.0375 49.3187C34.8331 48.6775 35.2309 47.775 35.2309 46.6112C35.2309 45.3287 34.8628 44.4025 34.1266 43.8325C33.4022 43.2625 32.2681 42.9775 30.7244 42.9775H26.3425V50.2628Z" fill="white"/>
</svg>
