<svg width="96" height="96" viewBox="0 0 96 96" fill="none" xmlns="http://www.w3.org/2000/svg">
    <g clip-path="url(#clip0)">
        <path d="M96 48C96 74.51 74.51 96 48 96C21.49 96 0 74.51 0 48C0 21.49 21.49 0 48 0C74.51 0 96 21.49 96 48Z" fill="#66BAED"/>
        <path d="M28.937 0H89.9873C93.3081 0 96.0005 2.69238 96.0005 6.01318V63.5911C96.0005 66.9119 93.3081 69.6035 89.9873 69.6035H28.937C25.6155 69.6035 22.9238 66.9119 22.9238 63.5911V6.01318C22.9238 2.69238 25.6155 0 28.937 0V0Z" fill="#3D4159"/>
        <path d="M28.9365 65.6851C27.7808 65.6851 26.8418 64.7461 26.8418 63.5911V6.01318C26.8418 4.85815 27.7815 3.91846 28.9365 3.91846H89.9868C91.1418 3.91846 92.0815 4.85815 92.0815 6.01318V63.5911C92.0815 64.7461 91.1418 65.6851 89.9868 65.6851H28.9365Z" fill="#F2F0EC"/>
        <path d="M34.4102 52.7285H88.4321V58.2407H34.4102V52.7285Z" fill="#713775"/>
        <path d="M37.5332 8.62939H43.7808V47.9509H37.5332V8.62939Z" fill="#713775"/>
        <path d="M51.376 15.4526H57.6235V47.9509H51.376V15.4526Z" fill="#F74F4F"/>
        <path d="M65.2188 8.62939H71.4663V47.9509H65.2188V8.62939Z" fill="#66BAED"/>
        <path d="M79.0605 23.3291H85.3081V47.9509H79.0605V23.3291Z" fill="#3FB777"/>
        <path d="M70.4485 79.9502V90.4355C68.5662 91.4346 66.6106 92.3105 64.5891 93.0532C63.2407 93.5505 61.8638 93.9893 60.459 94.3635V79.9502H70.4485Z" fill="#DDE8ED"/>
        <path d="M64.5891 79.9502V93.0532C63.2407 93.5505 61.8638 93.9893 60.459 94.3635V79.9502H64.5891Z" fill="#BFD5DE"/>
        <path d="M79.7393 77.0627C79.7393 78.6572 78.4458 79.9507 76.8513 79.9507H60.459V77.0627C60.459 75.4675 61.7517 74.1748 63.3469 74.1748H76.8513C77.6489 74.1748 78.3718 74.4978 78.8926 75.0208C79.1672 75.2954 79.3862 75.6265 79.5334 75.9927C79.6667 76.3237 79.7393 76.6848 79.7393 77.0627Z" fill="#EAB599"/>
        <path d="M79.5334 75.9927C79.1079 77.0583 78.0679 77.8113 76.8513 77.8113H60.459V77.0627C60.459 75.4675 61.7517 74.1748 63.3469 74.1748H76.8513C77.6489 74.1748 78.3718 74.4978 78.8926 75.0208C79.1672 75.2954 79.3862 75.6265 79.5334 75.9927Z" fill="#F6CAAE"/>
        <path d="M57.5422 84.2957V89.7793C52.5068 92.6357 46.9016 94.6089 40.9419 95.4841C32.9329 94.3027 25.5662 91.1445 19.3574 86.5208C16.3186 84.2583 13.5566 81.6428 11.1309 78.7351C13.3215 72.0503 19.3574 67.1057 26.626 66.5176C27.1079 66.4788 27.5942 66.459 28.0857 66.459H39.7019C41.0752 66.459 42.4111 66.6121 43.6943 66.9058C51.625 68.72 57.5422 75.8179 57.5422 84.2957Z" fill="#BFD5DE"/>
        <path d="M57.5422 84.2957V95.0513C54.458 95.6724 51.269 95.9998 48.001 95.9998C37.2644 95.9998 27.3533 92.4753 19.3574 86.5208V84.2957C19.3574 74.4446 27.3452 66.459 37.1978 66.459H39.7019C49.5566 66.459 57.5422 74.4446 57.5422 84.2957Z" fill="#DDE8ED"/>
        <path d="M38.6819 72.895L33.8933 80.5752L29.1055 72.895" fill="#F74F4F"/>
        <path d="M38.1052 94.9768C35.4092 94.4128 32.7959 93.6211 30.2881 92.6243L33.8945 78.5771L38.1052 94.9768Z" fill="#F74F4F"/>
        <path d="M33.8926 73.7612L25.8616 78.2239L23.4189 66.8611L28.4082 63.9219" fill="#BFD5DE"/>
        <path d="M33.8926 73.7612L41.9229 78.2239L44.3655 66.8611L39.3755 63.9219" fill="#BFD5DE"/>
        <path d="M41.1436 83.71H50.7434V86.6484H41.1436V83.71Z" fill="#BFD5DE"/>
        <path d="M40.262 59.5879V67.3984C40.262 70.2578 38.3767 72.6748 35.7795 73.4775C35.1855 73.6614 34.552 73.7617 33.8965 73.7617C30.3823 73.7617 27.5332 70.9126 27.5332 67.3984V59.5879H40.262Z" fill="#EAB599"/>
        <path d="M40.2617 66.9033V67.3984C40.2617 70.2578 38.3765 72.6748 35.7793 73.4775C33.4363 72.7568 31.6748 70.72 31.3496 68.2268C31.7744 68.2532 32.2021 68.2664 32.6313 68.2664C33.8354 68.2664 35.0161 68.1704 36.166 67.9814C37.5825 67.7544 38.9514 67.3896 40.2617 66.9033Z" fill="#F6CAAE"/>
        <path d="M16.4399 46.7878C16.4399 49.7336 14.2874 52.177 11.469 52.6304C11.1614 52.6802 10.8442 52.7058 10.5212 52.7058C7.25171 52.7058 4.60254 50.0574 4.60254 46.7878C4.60254 43.5183 7.25171 40.8691 10.5212 40.8691C10.8442 40.8691 11.1614 40.8955 11.469 40.9453C14.2874 41.3987 16.4399 43.8413 16.4399 46.7878Z" fill="#F6CAAE"/>
        <path d="M16.4397 46.7878C16.4397 49.7336 14.2871 52.177 11.4688 52.6304C10.9568 50.7686 10.6836 48.8093 10.6836 46.7878C10.6836 44.7656 10.9568 42.8064 11.4688 40.9453C14.2871 41.3987 16.4397 43.8413 16.4397 46.7878Z" fill="#EAB599"/>
        <path d="M12.6367 46.7881C12.6367 47.9563 11.6897 48.9033 10.5215 48.9033C9.35327 48.9033 8.40625 47.9563 8.40625 46.7881C8.40625 45.6199 9.35327 44.6729 10.5215 44.6729C11.6897 44.6729 12.6367 45.6199 12.6367 46.7881Z" fill="#EAB599"/>
        <path d="M51.3555 46.7878C51.3555 49.7336 53.5081 52.177 56.3257 52.6304C56.634 52.6802 56.9504 52.7058 57.2742 52.7058C60.5437 52.7058 63.1929 50.0574 63.1929 46.7878C63.1929 43.5183 60.5437 40.8691 57.2742 40.8691C56.9504 40.8691 56.634 40.8955 56.3257 40.9453C53.5081 41.3987 51.3555 43.8413 51.3555 46.7878Z" fill="#F6CAAE"/>
        <path d="M51.3555 46.7878C51.3555 49.7336 53.5081 52.177 56.3257 52.6304C56.8376 50.7686 57.1116 48.8093 57.1116 46.7878C57.1116 44.7656 56.8384 42.8064 56.3257 40.9453C53.5081 41.3987 51.3555 43.8413 51.3555 46.7878Z" fill="#EAB599"/>
        <path d="M55.9185 35.2573V43.6428C55.9185 54.6006 47.9131 63.6907 37.4314 65.3774C37.3962 65.3833 37.3589 65.3892 37.3237 65.3958C36.209 65.5737 35.0649 65.6616 33.8967 65.6616C21.7363 65.6616 11.8779 55.8032 11.8779 43.6428V35.2573C11.8779 32.6968 12.3145 30.2358 13.1216 27.9492C16.1333 19.3799 24.2991 13.2363 33.8967 13.2363H33.8989C35.0649 13.2363 36.2112 13.3264 37.3274 13.5022C47.8604 15.1479 55.9185 24.2622 55.9185 35.2573Z" fill="#EAB599"/>
        <path d="M59.3887 46.7881C59.3887 47.9563 58.4417 48.9033 57.2734 48.9033C56.1052 48.9033 55.1582 47.9563 55.1582 46.7881C55.1582 45.6199 56.1052 44.6729 57.2734 44.6729C58.4417 44.6729 59.3887 45.6199 59.3887 46.7881Z" fill="#EAB599"/>
        <path d="M55.918 35.2571V43.6426C55.918 54.6003 47.9126 63.6904 37.4309 65.3772C37.3958 65.3831 37.3584 65.3889 37.3232 65.3955C26.7903 63.7498 18.7344 54.6355 18.7344 43.6426V35.2571C18.7344 24.262 26.7925 15.1477 37.3269 13.502C47.8599 15.1477 55.918 24.262 55.918 35.2571Z" fill="#F6CAAE"/>
        <path d="M29.2087 42.3606C29.2087 43.7405 28.0903 44.8582 26.7104 44.8582C25.3313 44.8582 24.2129 43.7405 24.2129 42.3606C24.2129 40.9807 25.3313 39.8623 26.7104 39.8623C28.0903 39.8623 29.2087 40.9807 29.2087 42.3606Z" fill="#3D4159"/>
        <path d="M43.5837 42.3606C43.5837 43.7405 42.4653 44.8582 41.0854 44.8582C39.7063 44.8582 38.5879 43.7405 38.5879 42.3606C38.5879 40.9807 39.7063 39.8623 41.0854 39.8623C42.4653 39.8623 43.5837 40.9807 43.5837 42.3606Z" fill="#3D4159"/>
        <path d="M28.6987 41.9197C28.6987 42.5107 28.2197 42.9897 27.6287 42.9897C27.0376 42.9897 26.5586 42.5107 26.5586 41.9197C26.5586 41.3286 27.0376 40.8496 27.6287 40.8496C28.2197 40.8496 28.6987 41.3286 28.6987 41.9197Z" fill="white"/>
        <path d="M43.1965 41.9197C43.1965 42.5107 42.7175 42.9897 42.1265 42.9897C41.5347 42.9897 41.0557 42.5107 41.0557 41.9197C41.0557 41.3286 41.5347 40.8496 42.1265 40.8496C42.7175 40.8496 43.1965 41.3286 43.1965 41.9197Z" fill="white"/>
        <path d="M36.3955 47.6702H31.3997C30.8049 47.6702 30.3223 47.1875 30.3223 46.592C30.3223 45.9973 30.8049 45.5146 31.3997 45.5146H36.3955C36.991 45.5146 37.4736 45.9973 37.4736 46.592C37.4736 47.1875 36.991 47.6702 36.3955 47.6702Z" fill="#EAB599"/>
        <path d="M33.8972 54.4879C32.0529 54.4879 30.2094 54.0258 28.5285 53.1014C28.0547 52.8414 27.8811 52.2452 28.1418 51.7714C28.4026 51.2975 28.998 51.1246 29.4719 51.3846C32.2426 52.9081 35.551 52.9081 38.3217 51.3846C38.7956 51.1239 39.3911 51.2967 39.6518 51.7714C39.9126 52.2452 39.7397 52.8414 39.2651 53.1014C37.5849 54.0258 35.7407 54.4879 33.8972 54.4879Z" fill="#EAB599"/>
        <path d="M55.9185 27.6475V36.2366H51.8198V29.5107L22.2358 24.0132L15.9766 22.8494V36.2366H11.8779V27.6475C11.8779 17.855 19.8145 9.91846 29.6047 9.91846H38.1917C38.4246 9.91846 38.6582 9.92212 38.8911 9.93457C48.3562 10.2986 55.9185 18.0886 55.9185 27.6475Z" fill="#E8C934"/>
        <path d="M55.918 27.6475V36.2366H51.8193V29.5107L22.2354 24.0132C23.8657 16.1843 30.6582 10.2517 38.8906 9.93457C48.3557 10.2986 55.918 18.0886 55.918 27.6475Z" fill="#FFE152"/>
    </g>
    <defs>
        <clipPath id="clip0">
            <rect width="96" height="96" fill="white"/>
        </clipPath>
    </defs>
</svg>
