<svg width="96" height="96" viewBox="0 0 96 96" fill="none" xmlns="http://www.w3.org/2000/svg">
    <path d="M96 48C96 74.51 74.51 96 48 96C21.49 96 0 74.51 0 48C0 21.49 21.49 0 48 0C74.51 0 96 21.49 96 48Z" fill="#27AE60"/>
    <path d="M77.8181 34.9731H74.5537V14.1094H77.8181C79.0991 14.1094 80.137 15.1472 80.137 16.4275V32.6543C80.137 33.9353 79.0991 34.9731 77.8181 34.9731Z" fill="#151A1C"/>
    <path d="M17.9038 22.5835H22.009V14.1094H17.9038C17.0872 14.1094 16.4258 14.7708 16.4258 15.5867V21.1055C16.4258 21.9214 17.0872 22.5835 17.9038 22.5835Z" fill="#151A1C"/>
    <path d="M17.9038 32.2896H22.009V23.8154H17.9038C17.0872 23.8154 16.4258 24.4768 16.4258 25.2927V30.8115C16.4258 31.6282 17.0872 32.2896 17.9038 32.2896Z" fill="#151A1C"/>
    <path d="M77.9783 10.8372V85.4885C69.7634 92.0671 59.3425 95.9995 48.001 95.9995C36.6572 95.9995 26.2363 92.0649 18.0215 85.4863V10.8372C18.0215 10.7258 18.0237 10.616 18.0273 10.5061C18.2017 5.70654 22.1472 1.87012 26.9885 1.87012H69.0112C73.8525 1.87012 77.7981 5.70654 77.9724 10.5046C77.9761 10.6145 77.9783 10.7258 77.9783 10.8372Z" fill="#2C363B"/>
    <path d="M75.5349 19.9795V79.7598C75.5349 81.9973 73.7229 83.8115 71.4854 83.8115H24.5159C22.2791 83.8115 20.4648 81.9973 20.4648 79.7598V19.9795C20.4648 17.7419 22.2791 15.9277 24.5159 15.9277H71.4854C73.7229 15.9277 75.5349 17.7419 75.5349 19.9795Z" fill="#2F80ED"/>
    <path d="M55.8364 10.249H40.1626C39.3511 10.249 38.6934 9.59131 38.6934 8.77979C38.6934 7.96826 39.3511 7.31055 40.1626 7.31055H55.8364C56.6479 7.31055 57.3057 7.96826 57.3057 8.77979C57.3057 9.59131 56.6479 10.249 55.8364 10.249Z" fill="#151A1C"/>
    <path d="M50.9385 90.4961C50.9385 92.1191 49.623 93.4346 48 93.4346C46.377 93.4346 45.0615 92.1191 45.0615 90.4961C45.0615 88.873 46.377 87.5576 48 87.5576C49.623 87.5576 50.9385 88.873 50.9385 90.4961Z" fill="#151A1C"/>
    <path d="M55.5156 64.4021V40.1699H40.4841V64.4021H29.043L47.9995 81.677L66.9568 64.4021H55.5156Z" fill="white"/>
    <path d="M70.8833 22.3557H64.3552L70.6606 20.666C71.5278 20.4338 72.0427 19.5425 71.8105 18.6753L71.5374 17.6558C71.3044 16.7886 70.4131 16.2744 69.5459 16.5066L63.2405 18.1963L68.894 14.9319C69.6719 14.4829 69.9377 13.489 69.4895 12.7119L68.9614 11.7979C68.5125 11.02 67.5186 10.7534 66.7407 11.2024L61.0879 14.4668L65.7036 9.85034C66.3386 9.21606 66.3386 8.18628 65.7036 7.552L64.9573 6.80566C64.3223 6.17065 63.2932 6.17065 62.6582 6.80566L58.0425 11.4214L61.3062 5.76782C61.7551 4.99072 61.4885 3.99609 60.7114 3.54785L59.7974 3.01978C59.0203 2.5708 58.0256 2.8374 57.5767 3.61523L54.313 9.26807L56.0027 2.96265C56.2349 2.09546 55.72 1.2041 54.8528 0.971924L53.834 0.69873C52.9668 0.466553 52.0754 0.981445 51.8425 1.84863L50.1528 8.15405V1.62524C50.1528 0.728027 49.4255 0 48.5276 0H47.4722C46.5742 0 45.8469 0.728027 45.8469 1.62524V8.15332L44.1572 1.8479C43.925 0.980713 43.033 0.46582 42.1665 0.69873L41.147 0.971924C40.2798 1.2041 39.7649 2.09546 39.9971 2.96265L41.6868 9.26807L38.4231 3.6145C37.9741 2.8374 36.9795 2.5708 36.2024 3.01978L35.2883 3.54712C34.5112 3.99609 34.2446 4.98999 34.6936 5.76782L37.9573 11.4214L33.3416 6.80493C32.7065 6.16992 31.6775 6.16992 31.0425 6.80493L30.2961 7.55127C29.6619 8.18628 29.6619 9.21533 30.2961 9.85034L34.9119 14.4661L29.259 11.2017C28.4812 10.7534 27.4873 11.0193 27.0383 11.7971L26.5103 12.7112C26.062 13.4883 26.3279 14.4829 27.1057 14.9319L32.7593 18.1956L26.4539 16.5059C25.5867 16.2737 24.6953 16.7886 24.4624 17.655L24.1892 18.6746C23.957 19.5417 24.4719 20.4331 25.3391 20.666L31.6445 22.355H25.1165C24.2185 22.355 23.4912 23.083 23.4912 23.981V25.0364C23.4912 25.9336 24.2185 26.6616 25.1165 26.6616H31.6445L25.3391 28.3513C24.4719 28.5835 23.957 29.4749 24.1892 30.342L24.4624 31.3616C24.6953 32.2288 25.5867 32.7437 26.4539 32.5107L32.7593 30.8218L27.1057 34.0854C26.3279 34.5344 26.062 35.5283 26.5103 36.3062L27.0383 37.2202C27.4873 37.9973 28.4812 38.2639 29.259 37.8149L34.9119 34.5513L30.2961 39.167C29.6619 39.8013 29.6619 40.8311 30.2961 41.4661L31.0425 42.2117C31.6775 42.8467 32.7065 42.8467 33.3416 42.2117L37.9573 37.5959L34.6936 43.2495C34.2446 44.0266 34.5112 45.0212 35.2883 45.4702L36.2024 45.9976C36.9802 46.4465 37.9741 46.1799 38.4231 45.4028L41.6868 39.7493L39.9971 46.0547C39.7649 46.9219 40.2798 47.8132 41.147 48.0454L42.1665 48.3186C43.033 48.5508 43.925 48.0359 44.1572 47.1694L45.8469 40.864V47.3914C45.8469 48.2893 46.5742 49.0173 47.4722 49.0173H48.5276C49.4255 49.0173 50.1528 48.2893 50.1528 47.3914V40.864L51.8425 47.1694C52.0754 48.0359 52.9668 48.5508 53.834 48.3186L54.8528 48.0454C55.72 47.8132 56.2349 46.9219 56.0027 46.0547L54.313 39.7493L57.5767 45.4028C58.0256 46.1799 59.0203 46.4465 59.7974 45.9976L60.7114 45.4702C61.4885 45.0212 61.7551 44.0266 61.3062 43.2495L58.0425 37.5959L62.6582 42.2117C63.2932 42.8467 64.3223 42.8467 64.9573 42.2117L65.7036 41.4661C66.3386 40.8311 66.3386 39.8013 65.7036 39.167L61.0879 34.5513L66.7407 37.8149C67.5186 38.2639 68.5125 37.9973 68.9614 37.2202L69.4895 36.3062C69.9377 35.5283 69.6719 34.5344 68.894 34.0854L63.2405 30.8218L69.5459 32.5107C70.4131 32.7437 71.3044 32.2288 71.5374 31.3616L71.8105 30.342C72.0427 29.4749 71.5278 28.5835 70.6606 28.3513L64.3552 26.6616H70.8833C71.7812 26.6616 72.5085 25.9336 72.5085 25.0364V23.981C72.5093 23.0837 71.7812 22.3557 70.8833 22.3557Z" fill="#FCBC77"/>
    <path d="M71.5007 24.509C71.5007 37.4883 60.9795 48.0103 47.9995 48.0103C35.0203 48.0103 24.499 37.4883 24.499 24.509C24.499 11.5298 35.0203 1.00781 47.9995 1.00781C60.9795 1.00781 71.5007 11.5298 71.5007 24.509Z" fill="#FCBC77"/>
    <path d="M69.7698 24.509C69.7698 36.5325 60.0227 46.2795 47.9993 46.2795C35.9766 46.2795 26.2295 36.5325 26.2295 24.509C26.2295 12.4856 35.9766 2.73926 47.9993 2.73926C60.0227 2.73926 69.7698 12.4856 69.7698 24.509Z" fill="#FEE175"/>
    <path d="M66.1692 24.509C66.1692 34.5439 58.0342 42.6782 47.9993 42.6782C37.9651 42.6782 29.8301 34.5439 29.8301 24.509C29.8301 14.4749 37.9651 6.33984 47.9993 6.33984C58.0342 6.33984 66.1692 14.4749 66.1692 24.509Z" fill="#FCBC77"/>
    <path d="M63.6604 24.5098C63.6604 25.2876 63.604 26.053 63.4934 26.8015C62.4937 33.6152 57.1052 39.0037 50.2922 40.0027C49.5437 40.114 48.7798 40.1697 47.9998 40.1697C45.6128 40.1697 43.3503 39.635 41.3245 38.677C39.9658 38.0398 38.7141 37.2078 37.606 36.2219C36.7717 35.4829 36.0195 34.6553 35.3611 33.7551C33.4619 31.1638 32.3398 27.9683 32.3398 24.5098C32.3398 24.4827 32.3398 24.457 32.342 24.4299C32.3823 15.8416 39.3359 8.89014 47.9221 8.84985C47.9478 8.84766 47.9749 8.84766 47.9998 8.84766C51.4604 8.84766 54.656 9.96899 57.2473 11.8704C58.1475 12.5273 58.9751 13.2817 59.7119 14.116C60.6992 15.2256 61.5298 16.4758 62.167 17.8345C63.1257 19.8596 63.6604 22.1228 63.6604 24.5098Z" fill="#FEE175"/>
    <path d="M57.2473 11.8704L35.3604 33.7551C33.4612 31.1638 32.3398 27.9683 32.3398 24.5098C32.3398 24.4827 32.3398 24.457 32.342 24.4299L47.9221 8.84985C47.9478 8.84766 47.9749 8.84766 47.9998 8.84766C51.4604 8.84766 54.656 9.96899 57.2473 11.8704Z" fill="#FFEEB8"/>
    <path d="M62.1665 17.8345L41.324 38.677C39.9653 38.0398 38.7136 37.2078 37.6055 36.2219L59.7114 14.1152C60.6987 15.2256 61.5293 16.4758 62.1665 17.8345Z" fill="#FFEEB8"/>
    <path d="M63.4922 26.8018C62.4932 33.6155 57.1047 39.0039 50.291 40.0029L63.4922 26.8018Z" fill="#FFEEB8"/>
</svg>
