<svg width="960" height="342" viewBox="0 0 960 342" fill="none" xmlns="http://www.w3.org/2000/svg">
    <g opacity="0.2">
        <mask id="mask0" mask-type="alpha" maskUnits="userSpaceOnUse" x="0" y="0" width="960" height="342">
            <rect x="0.5" y="0.5" width="959" height="341" rx="2.5" fill="white" stroke="#FFE27D"/>
        </mask>
        <g mask="url(#mask0)">
            <path fill-rule="evenodd" clip-rule="evenodd" d="M235.547 118.125V152.374H265.759H295.289H295.368C304.807 152.374 312.459 144.708 312.459 135.249C312.459 125.791 304.807 118.125 295.368 118.125H265.759H235.547ZM235.547 169.499V220.875H295.289V220.873L295.368 220.875C309.527 220.875 321.003 209.374 321.003 195.187C321.003 181.005 309.533 169.507 295.381 169.499H295.368H295.352L295.289 169.501V169.499H261.183H235.547ZM295.368 101C314.245 101 329.55 116.333 329.55 135.249C329.55 144.833 325.621 153.494 319.291 159.711C330.639 167.406 338.095 180.424 338.095 195.187C338.095 218.832 318.964 238 295.368 238L295.289 237.997V238H235.547H218.456V220.875V144.475L148.504 219.635L131.413 238V212.89V144.475L44.3696 238H21L148.504 101V126.11V194.525L219.61 118.125H196.24L212.178 101H235.547H295.368V101Z" fill="url(#paint0_radial)"/>
        </g>
    </g>
    <defs>
        <radialGradient id="paint0_radial" cx="0" cy="0" r="1" gradientUnits="userSpaceOnUse" gradientTransform="translate(293.649 102.405) rotate(148.466) scale(303.131 282.557)">
            <stop stop-color="#E4A216"/>
            <stop offset="0.501961" stop-color="#F1B82F"/>
            <stop offset="1" stop-color="#EBC965"/>
        </radialGradient>
    </defs>
</svg>
