<svg width="175" height="49" viewBox="0 0 175 49" fill="none" xmlns="http://www.w3.org/2000/svg">
<path fill-rule="evenodd" clip-rule="evenodd" d="M146.567 42.25H149.373V23.4985H146.567V42.25ZM171.84 30.2529L168.622 38.3829H168.526L165.189 30.2529H162.165L167.171 41.6154L164.319 47.9364H167.245L174.959 30.2529H171.84ZM155.926 40.1199C155.007 40.1199 153.725 39.6624 153.725 38.5269C153.725 37.0809 155.322 36.5259 156.701 36.5259C157.934 36.5259 158.514 36.7914 159.263 37.1529C159.047 38.8899 157.546 40.1199 155.926 40.1199ZM156.265 29.8433C154.233 29.8433 152.129 30.7358 151.259 32.7143L153.749 33.7508C154.281 32.7143 155.274 32.3753 156.313 32.3753C157.764 32.3753 159.239 33.2438 159.263 34.7888V34.9808C158.755 34.6913 157.668 34.2578 156.337 34.2578C153.652 34.2578 150.92 35.7293 150.92 38.4788C150.92 40.9883 153.12 42.6053 155.588 42.6053C157.474 42.6053 158.514 41.7608 159.167 40.7708H159.263V42.2183H161.973V35.0288C161.973 31.7003 159.481 29.8433 156.265 29.8433ZM138.923 32.5359H134.934V26.1084H138.923C141.021 26.1084 142.213 27.8409 142.213 29.3214C142.213 30.7749 141.021 32.5359 138.923 32.5359ZM138.851 23.4985H132.128V42.25H134.934V35.146H138.851C141.961 35.146 145.018 32.899 145.018 29.3215C145.018 25.744 141.961 23.4985 138.851 23.4985ZM102.188 40.1231C100.25 40.1231 98.627 38.5046 98.627 36.2816C98.627 34.0346 100.25 32.3906 102.188 32.3906C104.102 32.3906 105.604 34.0346 105.604 36.2816C105.604 38.5046 104.102 40.1231 102.188 40.1231ZM105.41 31.3029H105.313C104.683 30.5544 103.472 29.8779 101.946 29.8779C98.7473 29.8779 95.8165 32.6799 95.8165 36.2814C95.8165 39.8574 98.7473 42.6369 101.946 42.6369C103.472 42.6369 104.683 41.9604 105.313 41.1864H105.41V42.1059C105.41 44.5464 104.102 45.8514 101.994 45.8514C100.274 45.8514 99.2074 44.6184 98.7729 43.5789L96.3247 44.5944C97.027 46.2864 98.8932 48.3639 101.994 48.3639C105.289 48.3639 108.075 46.4304 108.075 41.7189V30.2634H105.41V31.3029ZM110.013 42.2501H112.824V23.4971H110.013V42.2501ZM116.967 36.0638C116.893 33.5993 118.88 32.3423 120.31 32.3423C121.424 32.3423 122.368 32.8973 122.684 33.6953L116.967 36.0638ZM125.687 33.9369C125.155 32.5119 123.531 29.8779 120.212 29.8779C116.917 29.8779 114.18 32.4624 114.18 36.2574C114.18 39.8334 116.893 42.6369 120.528 42.6369C123.459 42.6369 125.155 40.8489 125.857 39.8094L123.677 38.3589C122.95 39.4224 121.956 40.1229 120.528 40.1229C119.098 40.1229 118.08 39.4704 117.427 38.1909L125.979 34.6614L125.687 33.9369ZM57.5548 31.8353V34.5413H64.048C63.854 36.0638 63.3442 37.1753 62.5698 37.9478C61.6239 38.8913 60.1472 39.9308 57.5548 39.9308C53.5578 39.9308 50.433 36.7163 50.433 32.7293C50.433 28.7408 53.5578 25.5278 57.5548 25.5278C59.7111 25.5278 61.2856 26.3738 62.448 27.4613L64.3623 25.5518C62.7397 24.0053 60.5833 22.8203 57.5548 22.8203C52.0796 22.8203 47.4766 27.2678 47.4766 32.7293C47.4766 38.1908 52.0796 42.6368 57.5548 42.6368C60.5096 42.6368 62.7397 41.6693 64.4841 39.8573C66.2766 38.0693 66.833 35.5568 66.833 33.5258C66.833 32.8973 66.7848 32.3183 66.6886 31.8353H57.5548ZM74.215 40.1231C72.2766 40.1231 70.6044 38.5286 70.6044 36.2576C70.6044 33.9611 72.2766 32.3906 74.215 32.3906C76.1533 32.3906 77.824 33.9611 77.824 36.2576C77.824 38.5286 76.1533 40.1231 74.215 40.1231ZM74.2149 29.8779C70.6781 29.8779 67.7939 32.5599 67.7939 36.2574C67.7939 39.9309 70.6781 42.6369 74.2149 42.6369C77.7518 42.6369 80.6345 39.9309 80.6345 36.2574C80.6345 32.5599 77.7518 29.8779 74.2149 29.8779ZM88.2194 40.1231C86.2811 40.1231 84.6104 38.5286 84.6104 36.2576C84.6104 33.9611 86.2811 32.3906 88.2194 32.3906C90.1578 32.3906 91.8285 33.9611 91.8285 36.2576C91.8285 38.5286 90.1578 40.1231 88.2194 40.1231ZM88.2195 29.8779C84.6826 29.8779 81.7999 32.5599 81.7999 36.2574C81.7999 39.9309 84.6826 42.6369 88.2195 42.6369C91.7563 42.6369 94.639 39.9309 94.639 36.2574C94.639 32.5599 91.7563 29.8779 88.2195 29.8779Z" fill="black" fill-opacity="0.6"/>
<path d="M56.4398 15.806H55.6418L55.4318 14H48.5578L48.3478 15.806H47.5358V12.964H48.5298C48.6045 12.8613 48.7165 12.6233 48.8658 12.25C49.0245 11.8673 49.1785 11.326 49.3278 10.626C49.4865 9.91667 49.6265 9.03467 49.7478 7.98C49.8692 6.916 49.9298 5.656 49.9298 4.2H55.1658V12.964H56.4398V15.806ZM54.0038 12.964V5.236H51.0218C50.9938 6.26267 50.9378 7.18667 50.8538 8.008C50.7792 8.82933 50.6858 9.55733 50.5738 10.192C50.4618 10.8173 50.3358 11.3587 50.1958 11.816C50.0558 12.2733 49.9112 12.656 49.7618 12.964H54.0038ZM57.1889 10.5C57.1889 9.31467 57.4503 8.40933 57.9729 7.784C58.5049 7.14933 59.2656 6.832 60.2549 6.832C60.7776 6.832 61.2303 6.92067 61.6129 7.098C62.0049 7.266 62.3269 7.51333 62.5789 7.84C62.8309 8.15733 63.0176 8.54467 63.1389 9.002C63.2603 9.45 63.3209 9.94933 63.3209 10.5C63.3209 11.6853 63.0549 12.5953 62.5229 13.23C62.0003 13.8553 61.2443 14.168 60.2549 14.168C59.7323 14.168 59.2749 14.084 58.8829 13.916C58.5003 13.7387 58.1829 13.4913 57.9309 13.174C57.6789 12.8473 57.4923 12.46 57.3709 12.012C57.2496 11.5547 57.1889 11.0507 57.1889 10.5ZM58.3509 10.5C58.3509 10.8547 58.3836 11.1953 58.4489 11.522C58.5236 11.8487 58.6356 12.1333 58.7849 12.376C58.9343 12.6187 59.1303 12.8147 59.3729 12.964C59.6156 13.1133 59.9096 13.188 60.2549 13.188C61.5243 13.1973 62.1589 12.3013 62.1589 10.5C62.1589 10.136 62.1216 9.79067 62.0469 9.464C61.9816 9.13733 61.8743 8.85267 61.7249 8.61C61.5756 8.36733 61.3796 8.176 61.1369 8.036C60.8943 7.88667 60.6003 7.812 60.2549 7.812C58.9856 7.80267 58.3509 8.69867 58.3509 10.5ZM69.8608 13.538C69.5808 13.7433 69.2495 13.8973 68.8668 14C68.4841 14.112 68.0828 14.168 67.6628 14.168C67.1215 14.168 66.6641 14.084 66.2908 13.916C65.9175 13.7387 65.6095 13.4913 65.3668 13.174C65.1335 12.8473 64.9608 12.46 64.8488 12.012C64.7461 11.5547 64.6948 11.0507 64.6948 10.5C64.6948 9.31467 64.9561 8.40933 65.4788 7.784C66.0015 7.14933 66.7528 6.832 67.7328 6.832C68.1808 6.832 68.5588 6.86933 68.8668 6.944C69.1841 7.00933 69.4688 7.10733 69.7208 7.238L69.3988 8.204C69.1841 8.08267 68.9461 7.98933 68.6848 7.924C68.4235 7.84933 68.1435 7.812 67.8448 7.812C66.5195 7.812 65.8568 8.708 65.8568 10.5C65.8568 10.8547 65.8895 11.1953 65.9548 11.522C66.0295 11.8393 66.1461 12.124 66.3048 12.376C66.4728 12.6187 66.6875 12.8147 66.9488 12.964C67.2195 13.1133 67.5508 13.188 67.9428 13.188C68.2788 13.188 68.5775 13.1367 68.8388 13.034C69.1095 12.9313 69.3288 12.8147 69.4968 12.684L69.8608 13.538ZM75.6504 7.98H73.4524V14H72.3324V7.98H70.1344V7H75.6504V7.98ZM78.8206 11.536L79.2126 12.88H79.2826L79.5906 11.522L80.9486 7H82.0826L80.0106 13.286C79.8519 13.7433 79.6932 14.1867 79.5346 14.616C79.3852 15.0453 79.2172 15.428 79.0306 15.764C78.8439 16.1 78.6339 16.366 78.4006 16.562C78.1672 16.7673 77.8966 16.87 77.5886 16.87C77.2526 16.87 76.9772 16.8233 76.7626 16.73L76.9586 15.764C77.0799 15.8107 77.1966 15.834 77.3086 15.834C77.5699 15.834 77.8219 15.694 78.0646 15.414C78.3072 15.1433 78.5079 14.672 78.6666 14L75.8526 7H77.1406L78.8206 11.536ZM87.4981 7.98H84.4041V14H83.2841V7H88.6181V14H87.4981V7.98ZM95.0602 10.906H91.8962V14H90.7762V7H91.8962V9.926H95.0602V7H96.1802V14H95.0602V10.906ZM97.9448 10.5C97.9448 9.31467 98.2061 8.40933 98.7288 7.784C99.2608 7.14933 100.021 6.832 101.011 6.832C101.533 6.832 101.986 6.92067 102.369 7.098C102.761 7.266 103.083 7.51333 103.335 7.84C103.587 8.15733 103.773 8.54467 103.895 9.002C104.016 9.45 104.077 9.94933 104.077 10.5C104.077 11.6853 103.811 12.5953 103.279 13.23C102.756 13.8553 102 14.168 101.011 14.168C100.488 14.168 100.031 14.084 99.6388 13.916C99.2561 13.7387 98.9388 13.4913 98.6868 13.174C98.4348 12.8473 98.2481 12.46 98.1268 12.012C98.0055 11.5547 97.9448 11.0507 97.9448 10.5ZM99.1068 10.5C99.1068 10.8547 99.1395 11.1953 99.2048 11.522C99.2795 11.8487 99.3915 12.1333 99.5408 12.376C99.6901 12.6187 99.8861 12.8147 100.129 12.964C100.371 13.1133 100.665 13.188 101.011 13.188C102.28 13.1973 102.915 12.3013 102.915 10.5C102.915 10.136 102.877 9.79067 102.803 9.464C102.737 9.13733 102.63 8.85267 102.481 8.61C102.331 8.36733 102.135 8.176 101.893 8.036C101.65 7.88667 101.356 7.812 101.011 7.812C99.7415 7.80267 99.1068 8.69867 99.1068 10.5ZM109.575 7.014C109.902 6.99533 110.242 6.972 110.597 6.944C110.961 6.916 111.409 6.902 111.941 6.902C112.865 6.902 113.528 7.04667 113.929 7.336C114.33 7.616 114.531 8.04533 114.531 8.624C114.531 8.95067 114.433 9.27267 114.237 9.59C114.05 9.898 113.738 10.1267 113.299 10.276V10.332C113.85 10.4347 114.237 10.626 114.461 10.906C114.685 11.186 114.797 11.5593 114.797 12.026C114.797 12.754 114.536 13.2813 114.013 13.608C113.49 13.9347 112.706 14.098 111.661 14.098C111.269 14.098 110.905 14.084 110.569 14.056C110.233 14.0373 109.902 14.014 109.575 13.986V7.014ZM110.695 13.062C110.872 13.0807 111.045 13.0947 111.213 13.104C111.39 13.1133 111.596 13.118 111.829 13.118C112.454 13.118 112.916 13.0293 113.215 12.852C113.523 12.6747 113.677 12.3713 113.677 11.942C113.677 11.606 113.546 11.3353 113.285 11.13C113.033 10.9153 112.58 10.808 111.927 10.808H110.695V13.062ZM112.067 9.954C112.235 9.954 112.398 9.926 112.557 9.87C112.716 9.814 112.856 9.73933 112.977 9.646C113.108 9.54333 113.21 9.42667 113.285 9.296C113.369 9.16533 113.411 9.02533 113.411 8.876C113.411 8.50267 113.299 8.246 113.075 8.106C112.851 7.95667 112.459 7.882 111.899 7.882C111.6 7.882 111.362 7.88667 111.185 7.896C111.017 7.90533 110.854 7.91467 110.695 7.924V9.954H112.067Z" fill="black" fill-opacity="0.6"/>
<path fill-rule="evenodd" clip-rule="evenodd" d="M0.696241 9.0968C0.258647 9.5573 0 10.2743 0 11.2043V44.3768C0 45.3068 0.258647 46.0223 0.696241 46.4843L0.806015 46.5923L19.4376 28.0103V27.7913V27.5708L0.806015 8.9873L0.696241 9.0968Z" fill="url(#paint0_linear)"/>
<path fill-rule="evenodd" clip-rule="evenodd" d="M19.4375 27.571V27.7915V28.0105L25.6465 34.207L25.7894 34.1275L33.1458 29.956C35.248 28.7665 35.248 26.8165 33.1458 25.6255L25.7894 21.4555L25.648 21.376L19.4375 27.571Z" fill="url(#paint1_linear)"/>
<path fill-rule="evenodd" clip-rule="evenodd" d="M0.696289 46.4845C1.38802 47.2165 2.53238 47.3065 3.8211 46.5775L25.7895 34.1275L19.4376 27.7915L0.696289 46.4845Z" fill="url(#paint2_linear)"/>
<path fill-rule="evenodd" clip-rule="evenodd" d="M0.696289 9.097L19.4376 27.7915L25.7895 21.454L3.8211 9.004C3.21659 8.662 2.64366 8.5 2.13539 8.5C1.55945 8.5 1.06321 8.7085 0.696289 9.097Z" fill="url(#paint3_linear)"/>
<path d="M159.466 8.3125V3.4375H164.341V8.3125H159.466ZM161.091 5.0625V6.6875H162.716V5.0625H161.091ZM165.966 3.4375H170.841V8.3125H165.966V3.4375ZM169.216 6.6875V5.0625H167.591V6.6875H169.216ZM159.466 14.8125V9.9375H164.341V14.8125H159.466ZM161.091 11.5625V13.1875H162.716V11.5625H161.091ZM170.028 9.9375H170.841V13.1875H168.403V12.375H167.591V14.8125H165.966V9.9375H168.403V10.75H170.028V9.9375ZM170.028 14H170.841V14.8125H170.028V14ZM168.403 14H169.216V14.8125H168.403V14Z" fill="black" fill-opacity="0.6"/>
<defs>
<linearGradient id="paint0_linear" x1="11.2968" y1="-13.7153" x2="-18.5972" y2="-5.74215" gradientUnits="userSpaceOnUse">
<stop stop-color="#00A1FF"/>
<stop offset="0.2601" stop-color="#00BEFF"/>
<stop offset="0.5122" stop-color="#00D2FF"/>
<stop offset="0.7604" stop-color="#00DFFF"/>
<stop offset="1" stop-color="#00E3FF"/>
</linearGradient>
<linearGradient id="paint1_linear" x1="35.945" y1="12.4376" x2="-0.493338" y2="12.4376" gradientUnits="userSpaceOnUse">
<stop stop-color="#FFE000"/>
<stop offset="0.4087" stop-color="#FFBD00"/>
<stop offset="0.7754" stop-color="#FFA500"/>
<stop offset="1" stop-color="#FF9C00"/>
</linearGradient>
<linearGradient id="paint2_linear" x1="0.0672123" y1="17.9709" x2="-23.916" y2="58.4686" gradientUnits="userSpaceOnUse">
<stop stop-color="#FF3A44"/>
<stop offset="1" stop-color="#C31162"/>
</linearGradient>
<linearGradient id="paint3_linear" x1="-13.9658" y1="4.05631" x2="-3.22805" y2="21.9892" gradientUnits="userSpaceOnUse">
<stop stop-color="#32A071"/>
<stop offset="0.0685" stop-color="#2DA771"/>
<stop offset="0.4762" stop-color="#15CF74"/>
<stop offset="0.8009" stop-color="#06E775"/>
<stop offset="1" stop-color="#00F076"/>
</linearGradient>
</defs>
</svg>
