<svg width="36" height="36" viewBox="0 0 36 36" fill="none" xmlns="http://www.w3.org/2000/svg">
<circle cx="18" cy="18" r="18" fill="#FF9800"/>
<path d="M17.3756 18.9055C20.6632 18.9055 23.3284 16.2404 23.3284 12.9527C23.3284 9.6651 20.6632 7 17.3756 7C14.0879 7 11.4229 9.66514 11.4229 12.9528C11.4269 16.2387 14.0897 18.9015 17.3756 18.9055ZM17.3756 9.74743C19.1458 9.74743 20.5809 11.1825 20.5809 12.9528C20.5809 14.7231 19.1459 16.1581 17.3756 16.1581C15.6053 16.1581 14.1702 14.7231 14.1702 12.9528C14.1702 11.1825 15.6053 9.74743 17.3756 9.74743Z" fill="white"/>
<path d="M23.2065 21.7261C23.8534 21.2999 24.2432 20.5775 24.2441 19.8029C24.2531 19.16 23.8904 18.5696 23.3127 18.2872C22.7193 17.9907 22.0089 18.0575 21.4811 18.4594C19.0349 20.2427 15.7171 20.2427 13.2709 18.4594C12.7423 18.0596 12.0331 17.9929 11.4392 18.2872C10.8619 18.5696 10.4989 19.1593 10.507 19.8019C10.5083 20.5764 10.898 21.2987 11.5446 21.7251C12.3741 22.2768 13.2775 22.7084 14.2279 23.0073C14.3891 23.0573 14.5555 23.1037 14.7271 23.1465L11.9595 25.8527C11.2335 26.5571 11.2159 27.7167 11.9203 28.4427C12.6248 29.1687 13.7843 29.1863 14.5104 28.4819C14.5255 28.4672 14.5403 28.4523 14.5549 28.4371L17.3756 25.5175L20.2018 28.4426C20.9057 29.1692 22.0652 29.1876 22.7918 28.4838C23.5184 27.78 23.5368 26.6204 22.833 25.8938C22.8183 25.8786 22.8033 25.8637 22.7881 25.849L20.0251 23.1455C20.1966 23.1016 20.3636 23.0549 20.526 23.0054C21.4754 22.7078 22.3779 22.277 23.2065 21.7261Z" fill="white"/>
</svg>
