<svg width="50" height="50" viewBox="0 0 50 50" fill="none" xmlns="http://www.w3.org/2000/svg">
<circle cx="25" cy="25" r="25" fill="#436EAB"/>
<path d="M37.0215 28.6609C38.1272 29.7404 39.2942 30.756 40.2859 31.9445C40.724 32.4726 41.1387 33.0175 41.456 33.6304C41.9057 34.5016 41.4984 35.4603 40.7172 35.5124L35.8611 35.5101C34.6087 35.614 33.6095 35.1099 32.7694 34.2535C32.0971 33.5687 31.4744 32.8398 30.828 32.1319C30.5629 31.8426 30.2855 31.5703 29.9541 31.3551C29.2912 30.9248 28.7158 31.0565 28.3369 31.7479C27.9511 32.4512 27.8636 33.2298 27.8257 34.0135C27.7737 35.157 27.428 35.4577 26.2794 35.51C23.8247 35.6258 21.495 35.2544 19.3307 34.0161C17.4227 32.9244 15.9431 31.3832 14.6552 29.6385C12.1479 26.2412 10.2276 22.508 8.50184 18.6702C8.11337 17.8056 8.39748 17.3414 9.35151 17.325C10.9357 17.2942 12.5197 17.2964 14.1057 17.3228C14.7496 17.3322 15.1758 17.7015 15.4245 18.3097C16.2816 20.4172 17.3303 22.4223 18.6467 24.2808C18.9973 24.7756 19.3548 25.2705 19.8638 25.6187C20.4269 26.0043 20.8557 25.8765 21.1206 25.2492C21.2887 24.8514 21.3624 24.4229 21.4002 23.997C21.5258 22.5313 21.5423 21.0681 21.3222 19.6075C21.187 18.696 20.6736 18.1059 19.7641 17.9334C19.2999 17.8455 19.369 17.6728 19.5937 17.4078C19.984 16.9509 20.3512 16.6665 21.083 16.6665H26.5711C27.4351 16.837 27.627 17.2252 27.7453 18.0945L27.75 24.1906C27.7405 24.5272 27.9181 25.5259 28.5242 25.7486C29.0094 25.9072 29.3292 25.5191 29.6203 25.2115C30.9343 23.8169 31.8722 22.1687 32.71 20.4621C33.0818 19.7116 33.4015 18.9323 33.7113 18.1536C33.9409 17.5758 34.3011 17.2915 34.952 17.3041L40.234 17.3088C40.3906 17.3088 40.5491 17.311 40.7008 17.337C41.5908 17.4887 41.8348 17.8716 41.5598 18.7407C41.1267 20.1043 40.2839 21.2407 39.4599 22.3823C38.579 23.6011 37.6369 24.7783 36.7634 26.0043C35.9608 27.1241 36.0246 27.6884 37.0215 28.6609Z" fill="white"/>
</svg>
