 <svg width="22" height="19" viewBox="0 0 22 19" fill="none" xmlns="http://www.w3.org/2000/svg">
                                                          <path d="M21.6501 2.14692C21.1613 2.36367 20.6539 2.53467 20.1332 2.65846C20.7069 2.11328 21.1383 1.43138 21.3816 0.670254C21.4511 0.452966 21.2151 0.265071 21.0189 0.381412C20.2946 0.811055 19.5143 1.13337 18.6998 1.3395C18.6526 1.35146 18.6038 1.35752 18.5549 1.35752C18.4065 1.35752 18.2623 1.30243 18.1489 1.20245C17.2823 0.438698 16.1677 0.0180664 15.0106 0.0180664C14.5099 0.0180664 14.0043 0.0961101 13.508 0.250052C11.9701 0.727057 10.7834 1.99566 10.4111 3.56082C10.2714 4.14789 10.2336 4.7355 10.2986 5.30728C10.3061 5.37299 10.275 5.41885 10.2559 5.44036C10.2223 5.47807 10.1746 5.49968 10.1251 5.49968C10.1195 5.49968 10.1139 5.49941 10.1082 5.49888C6.74178 5.18611 3.70606 3.56425 1.56026 0.932116C1.45084 0.79786 1.24101 0.814326 1.15379 0.963924C0.733592 1.68482 0.511529 2.50935 0.511529 3.34836C0.511529 4.63418 1.02812 5.84592 1.92543 6.72929C1.54809 6.63982 1.18287 6.49891 0.843604 6.31048C0.679471 6.21929 0.477523 6.33649 0.475216 6.52423C0.451723 8.43439 1.57008 10.1341 3.24542 10.8994C3.21168 10.9003 3.17794 10.9006 3.14415 10.9006C2.87859 10.9006 2.6097 10.875 2.34505 10.8244C2.16021 10.7891 2.00493 10.9645 2.06232 11.1437C2.6061 12.8414 4.06785 14.0927 5.81711 14.3769C4.36533 15.3514 2.67471 15.8655 0.915104 15.8655L0.366545 15.8652C0.197531 15.8652 0.054585 15.9753 0.0115135 16.139C-0.0309144 16.3003 0.0472365 16.4704 0.191363 16.5542C2.17415 17.7081 4.43581 18.318 6.73282 18.318C8.74345 18.318 10.6242 17.919 12.3229 17.1321C13.8802 16.4107 15.2564 15.3795 16.4131 14.0672C17.4907 12.8446 18.3334 11.4334 18.9176 9.8726C19.4745 8.38483 19.7689 6.79735 19.7689 5.28175V5.20955C19.7689 4.9662 19.8789 4.73722 20.0709 4.58134C20.7996 3.98971 21.4342 3.29327 21.9569 2.51139C22.0949 2.30493 21.8772 2.04618 21.6501 2.14692Z" fill="white"></path>
                                                        </svg>