<svg width="100" height="18" viewBox="0 0 100 18" fill="none" xmlns="http://www.w3.org/2000/svg">
    <g opacity="0.5">
        <rect y="6.96387" width="25" height="2" fill="black"/>
        <rect x="75" y="6.96387" width="25" height="2" fill="black"/>
        <path fill-rule="evenodd" clip-rule="evenodd" d="M56.2439 2.24996V6.74987H60.2211H64.1086H64.1189C65.3616 6.74987 66.3689 5.7426 66.3689 4.49991C66.3689 3.25723 65.3616 2.24996 64.1189 2.24996H60.2211H56.2439ZM56.2439 8.99983V15.75H64.1086H64.1189C65.9829 15.75 67.4937 14.239 67.4937 12.3749C67.4937 10.5116 65.9836 9.00086 64.1206 8.99983H64.1189H64.1168L64.1086 9.00017L59.6186 8.99983H56.2439ZM64.1189 0C66.6039 0 68.6188 2.01455 68.6188 4.49991C68.6188 5.75909 68.1016 6.89696 67.2682 7.71384C68.7621 8.7249 69.7436 10.4353 69.7436 12.3749C69.7436 15.4816 67.2253 18 64.1189 18L64.1086 17.9997L56.2439 18H53.9939V15.75V5.71201L44.7852 15.5871L42.5352 18V14.7008V5.71201L31.0765 18H28L44.7852 0V3.29916V12.288L54.1458 2.24996H51.0694L53.1674 0H56.2439L64.1189 0Z" fill="black"/>
    </g>
</svg>
