<svg width="175" height="51" viewBox="0 0 175 51" fill="none" xmlns="http://www.w3.org/2000/svg">
<path fill-rule="evenodd" clip-rule="evenodd" d="M26.0684 25.6758C26.0247 20.8413 30.0366 18.4893 30.2201 18.3798C27.948 15.0753 24.4263 14.6238 23.1888 14.5878C20.231 14.2773 17.3619 16.3533 15.8552 16.3533C14.3184 16.3533 11.9982 14.6178 9.49754 14.6688C6.27961 14.7183 3.2692 16.5768 1.61813 19.4628C-1.78926 25.3473 0.751996 33.9948 4.01654 38.7513C5.64956 41.0808 7.55776 43.6818 10.0554 43.5903C12.4989 43.4898 13.4117 42.0363 16.3604 42.0363C19.2821 42.0363 20.1392 43.5903 22.6865 43.5318C25.309 43.4898 26.96 41.1918 28.5359 38.8413C30.4231 36.1713 31.1809 33.5418 31.211 33.4068C31.1494 33.3858 26.118 31.4703 26.0684 25.6758Z" fill="black" fill-opacity="0.6"/>
<path fill-rule="evenodd" clip-rule="evenodd" d="M21.2563 11.4592C22.5705 9.81968 23.4698 7.58918 23.2201 5.32568C21.318 5.40968 18.9391 6.63818 17.5692 8.24168C16.3572 9.65468 15.2746 11.9707 15.5543 14.1487C17.691 14.3077 19.8849 13.0732 21.2563 11.4592Z" fill="black" fill-opacity="0.6"/>
<path fill-rule="evenodd" clip-rule="evenodd" d="M174.765 35.4423C174.765 36.0646 174.725 36.5891 174.638 37.0175H164.193C164.234 38.5618 164.739 39.7429 165.709 40.5574C166.589 41.2856 167.727 41.6505 169.125 41.6505C170.671 41.6505 172.082 41.4045 173.351 40.9109L173.897 43.3218C172.414 43.9669 170.663 44.2878 168.643 44.2878C166.213 44.2878 164.306 43.5743 162.918 42.1489C161.533 40.7235 160.839 38.8095 160.839 36.4083C160.839 34.0511 161.484 32.0882 162.776 30.5227C164.128 28.8513 165.955 28.0156 168.254 28.0156C170.513 28.0156 172.223 28.8513 173.384 30.5227C174.303 31.8503 174.765 33.4924 174.765 35.4423ZM171.445 34.5415C171.468 33.5119 171.241 32.6225 170.769 31.8715C170.167 30.9055 169.241 30.4233 167.995 30.4233C166.857 30.4233 165.931 30.8941 165.224 31.839C164.644 32.5899 164.299 33.4908 164.193 34.5399H171.445V34.5415Z" fill="black" fill-opacity="0.6"/>
<path fill-rule="evenodd" clip-rule="evenodd" d="M159.195 31.4202C158.85 31.3567 158.483 31.3241 158.097 31.3241C156.872 31.3241 155.925 31.7851 155.259 32.7088C154.679 33.5233 154.389 34.5528 154.389 35.7958V43.9978H150.909L150.941 33.2887C150.941 31.487 150.897 29.8466 150.811 28.3675H153.843L153.97 31.3583H154.067C154.434 30.3304 155.014 29.5029 155.808 28.8822C156.583 28.3235 157.421 28.0449 158.324 28.0449C158.646 28.0449 158.937 28.0677 159.195 28.1085V31.4202Z" fill="black" fill-opacity="0.6"/>
<path fill-rule="evenodd" clip-rule="evenodd" d="M147.877 36.053C147.877 38.4558 147.188 40.4285 145.813 41.9712C144.371 43.5595 142.457 44.3512 140.071 44.3512C137.772 44.3512 135.941 43.5904 134.576 42.0689C133.211 40.5474 132.528 38.6268 132.528 36.312C132.528 33.8897 133.231 31.9055 134.64 30.3628C136.046 28.8185 137.943 28.0464 140.329 28.0464C142.629 28.0464 144.479 28.8071 145.875 30.3303C147.211 31.8078 147.877 33.7153 147.877 36.053ZM144.265 36.1658C144.265 34.7241 143.956 33.4877 143.331 32.4565C142.601 31.2087 141.557 30.5864 140.205 30.5864C138.806 30.5864 137.743 31.2103 137.013 32.4565C136.387 33.4893 136.079 34.7453 136.079 36.231C136.079 37.6726 136.387 38.909 137.013 39.9386C137.765 41.1864 138.817 41.8087 140.174 41.8087C141.503 41.8087 142.547 41.1734 143.3 39.906C143.942 38.8553 144.265 37.6058 144.265 36.1658Z" fill="black" fill-opacity="0.6"/>
<path fill-rule="evenodd" clip-rule="evenodd" d="M130.562 30.9726H126.724V38.5621C126.724 40.4925 127.4 41.4569 128.756 41.4569C129.378 41.4569 129.894 41.4031 130.302 41.2956L130.399 43.933C129.713 44.1887 128.81 44.3174 127.691 44.3174C126.316 44.3174 125.242 43.8988 124.466 43.0631C123.693 42.2258 123.305 40.8216 123.305 38.8488V30.9693H121.019V28.3629H123.305V25.5007L126.724 24.4712V28.3629H130.562V30.9726Z" fill="black" fill-opacity="0.6"/>
<path fill-rule="evenodd" clip-rule="evenodd" d="M119.051 37.9185C119.051 39.7626 118.409 41.2629 117.12 42.4211C115.705 43.6869 113.734 44.3189 111.201 44.3189C108.862 44.3189 106.987 43.8693 105.568 42.9685L106.375 40.0737C107.904 40.9957 109.581 41.4584 111.408 41.4584C112.719 41.4584 113.74 41.1619 114.473 40.5722C115.203 39.9825 115.567 39.1908 115.567 38.2036C115.567 37.3239 115.267 36.5827 114.664 35.9816C114.065 35.3805 113.064 34.8218 111.666 34.3054C107.861 32.8898 105.96 30.816 105.96 28.0891C105.96 26.3069 106.627 24.8457 107.961 23.7087C109.29 22.57 111.064 22.0015 113.281 22.0015C115.259 22.0015 116.902 22.3452 118.213 23.031L117.343 25.8622C116.118 25.1976 114.733 24.8653 113.183 24.8653C111.958 24.8653 111.001 25.1666 110.316 25.7661C109.736 26.3021 109.445 26.9553 109.445 27.7291C109.445 28.5859 109.777 29.2945 110.443 29.8517C111.023 30.3664 112.076 30.9236 113.605 31.5247C115.474 32.2756 116.848 33.1537 117.731 34.1604C118.611 35.1639 119.051 36.4198 119.051 37.9185Z" fill="black" fill-opacity="0.6"/>
<path fill-rule="evenodd" clip-rule="evenodd" d="M98.8988 35.9896C98.8988 38.6482 98.1786 40.7496 96.7367 42.2923C95.4482 43.6655 93.8462 44.3513 91.9339 44.3513C89.8698 44.3513 88.387 43.6118 87.4855 42.1326H87.4202V50.3673H83.9386V33.5119C83.9386 31.8405 83.8945 30.1252 83.8096 28.3658H86.8715L87.0658 30.8436H87.1312C88.2906 28.9767 90.0527 28.0449 92.4189 28.0449C94.2659 28.0449 95.8091 28.7731 97.0469 30.2311C98.2799 31.6906 98.8988 33.6096 98.8988 35.9896ZM95.3519 36.1169C95.3519 34.5954 95.0074 33.3411 94.3182 32.3539C93.5654 31.3243 92.5578 30.8096 91.2889 30.8096C90.4283 30.8096 89.6494 31.0963 88.9504 31.6615C88.2515 32.2317 87.7959 32.9762 87.582 33.8982C87.4758 34.3282 87.4203 34.6801 87.4203 34.957V37.5635C87.4203 38.7005 87.7698 39.66 88.4654 40.4435C89.1644 41.2255 90.0723 41.6181 91.1926 41.6181C92.5039 41.6181 93.5246 41.1131 94.2545 40.1063C94.9861 39.098 95.3519 37.7687 95.3519 36.1169Z" fill="black" fill-opacity="0.6"/>
<path fill-rule="evenodd" clip-rule="evenodd" d="M80.875 35.9896C80.875 38.6482 80.1549 40.7496 78.7145 42.2923C77.4244 43.6655 75.8224 44.3513 73.9102 44.3513C71.846 44.3513 70.3632 43.6118 69.4601 42.1326H69.3948V50.3673H65.9132V33.5119C65.9132 31.8405 65.8691 30.1252 65.7842 28.3658H68.8461L69.0404 30.8436H69.1058C70.2669 28.9767 72.0289 28.0449 74.3935 28.0449C76.2421 28.0449 77.7853 28.7731 79.0199 30.2311C80.2578 31.6906 80.875 33.6096 80.875 35.9896ZM77.328 36.1169C77.328 34.5954 76.9851 33.3411 76.2959 32.3539C75.5431 31.3243 74.5323 30.8096 73.265 30.8096C72.406 30.8096 71.6255 31.0963 70.9281 31.6615C70.2292 32.2317 69.772 32.9762 69.558 33.8982C69.4503 34.3282 69.3964 34.6801 69.3964 34.957V37.5635C69.3964 38.7005 69.7458 39.66 70.4448 40.4435C71.1437 41.2271 72.0517 41.6181 73.1687 41.6181C74.48 41.6181 75.5006 41.1131 76.2306 40.1063C76.9622 39.098 77.328 37.7687 77.328 36.1169Z" fill="black" fill-opacity="0.6"/>
<path fill-rule="evenodd" clip-rule="evenodd" d="M62.8842 43.9982H59.1756L57.1441 37.6304H50.0829L48.1477 43.9982H44.5371L51.533 22.3193H55.854L62.8842 43.9982ZM56.5318 34.9586L54.6946 29.2978C54.5003 28.7195 54.1361 27.3576 53.5989 25.2139H53.5335C53.3196 26.1359 52.975 27.4977 52.5015 29.2978L50.697 34.9586H56.5318Z" fill="black" fill-opacity="0.6"/>
<path d="M47.7106 9.366V8.386H47.9346C48.0186 8.386 48.1213 8.386 48.2426 8.386C48.364 8.386 48.4853 8.38133 48.6066 8.372C48.7373 8.36267 48.8586 8.358 48.9706 8.358C49.092 8.34867 49.19 8.33467 49.2646 8.316C49.5073 8.27867 49.736 8.218 49.9506 8.134C50.1653 8.04067 50.352 7.924 50.5106 7.784C50.6693 7.644 50.7953 7.48067 50.8886 7.294C50.982 7.10733 51.0286 6.902 51.0286 6.678C51.0286 6.37 50.9773 6.11333 50.8746 5.908C50.772 5.70267 50.6273 5.53933 50.4406 5.418C50.2633 5.28733 50.0533 5.19867 49.8106 5.152C49.5773 5.096 49.3253 5.068 49.0546 5.068C48.5506 5.068 48.1213 5.10533 47.7666 5.18C47.412 5.24533 47.1273 5.32933 46.9126 5.432L46.6046 4.508C46.7913 4.40533 47.1273 4.30267 47.6126 4.2C48.098 4.088 48.644 4.032 49.2506 4.032C49.624 4.032 49.988 4.074 50.3426 4.158C50.7066 4.23267 51.0286 4.36333 51.3086 4.55C51.598 4.72733 51.8266 4.97467 51.9946 5.292C52.172 5.6 52.2606 5.98267 52.2606 6.44C52.2606 6.90667 52.1066 7.35467 51.7986 7.784C51.4906 8.204 51.0286 8.50733 50.4126 8.694V8.75C51.0753 8.84333 51.598 9.09067 51.9806 9.492C52.3633 9.89333 52.5546 10.43 52.5546 11.102C52.5546 11.634 52.4473 12.096 52.2326 12.488C52.0273 12.8707 51.752 13.188 51.4066 13.44C51.0706 13.692 50.6786 13.8787 50.2306 14C49.792 14.112 49.344 14.168 48.8866 14.168C48.2706 14.168 47.762 14.1307 47.3606 14.056C46.9686 13.9907 46.642 13.9067 46.3806 13.804L46.6746 12.754C46.8893 12.8567 47.188 12.9453 47.5706 13.02C47.9626 13.0947 48.434 13.132 48.9846 13.132C49.274 13.132 49.5586 13.0947 49.8386 13.02C50.1186 12.936 50.366 12.8147 50.5806 12.656C50.8046 12.488 50.982 12.2827 51.1126 12.04C51.2526 11.7973 51.3226 11.508 51.3226 11.172C51.3226 10.584 51.1173 10.1547 50.7066 9.884C50.296 9.604 49.7593 9.44067 49.0966 9.394C48.9846 9.38467 48.8773 9.38 48.7746 9.38C48.6813 9.37067 48.5833 9.366 48.4806 9.366H47.7106ZM54.3049 7.518C54.6595 7.30333 55.0702 7.14467 55.5369 7.042C56.0129 6.93933 56.5075 6.888 57.0209 6.888C57.5062 6.888 57.8935 6.95333 58.1829 7.084C58.4815 7.21467 58.7055 7.38733 58.8549 7.602C59.0135 7.80733 59.1162 8.036 59.1629 8.288C59.2189 8.54 59.2469 8.792 59.2469 9.044C59.2469 9.604 59.2329 10.15 59.2049 10.682C59.1769 11.214 59.1629 11.718 59.1629 12.194C59.1629 12.5393 59.1769 12.866 59.2049 13.174C59.2329 13.482 59.2842 13.7667 59.3589 14.028H58.5329L58.2389 13.048H58.1689C58.0849 13.1787 57.9775 13.3093 57.8469 13.44C57.7255 13.5613 57.5762 13.6733 57.3989 13.776C57.2215 13.8693 57.0162 13.9487 56.7829 14.014C56.5495 14.0793 56.2835 14.112 55.9849 14.112C55.6862 14.112 55.4062 14.0653 55.1449 13.972C54.8929 13.8787 54.6735 13.748 54.4869 13.58C54.3002 13.4027 54.1509 13.1927 54.0389 12.95C53.9362 12.7073 53.8849 12.432 53.8849 12.124C53.8849 11.7133 53.9689 11.3727 54.1369 11.102C54.3049 10.822 54.5382 10.6027 54.8369 10.444C55.1449 10.276 55.5089 10.1593 55.9289 10.094C56.3582 10.0193 56.8295 9.982 57.3429 9.982C57.4735 9.982 57.5995 9.982 57.7209 9.982C57.8515 9.982 57.9822 9.99133 58.1129 10.01C58.1409 9.73 58.1549 9.478 58.1549 9.254C58.1549 8.74067 58.0522 8.38133 57.8469 8.176C57.6415 7.97067 57.2682 7.868 56.7269 7.868C56.5682 7.868 56.3955 7.882 56.2089 7.91C56.0315 7.92867 55.8449 7.96133 55.6489 8.008C55.4622 8.04533 55.2802 8.09667 55.1029 8.162C54.9349 8.218 54.7855 8.28333 54.6549 8.358L54.3049 7.518ZM56.2929 13.132C56.5542 13.132 56.7875 13.0993 56.9929 13.034C57.1982 12.9593 57.3755 12.8707 57.5249 12.768C57.6742 12.656 57.7955 12.5347 57.8889 12.404C57.9915 12.2733 58.0662 12.1473 58.1129 12.026V10.864C57.9822 10.8547 57.8469 10.85 57.7069 10.85C57.5762 10.8407 57.4455 10.836 57.3149 10.836C57.0255 10.836 56.7409 10.8547 56.4609 10.892C56.1902 10.92 55.9475 10.9807 55.7329 11.074C55.5275 11.158 55.3595 11.2793 55.2289 11.438C55.1075 11.5873 55.0469 11.7787 55.0469 12.012C55.0469 12.3387 55.1635 12.6093 55.3969 12.824C55.6302 13.0293 55.9289 13.132 56.2929 13.132ZM65.4502 7.98H62.4822V14H61.3622V7H65.4502V7.98ZM66.5301 7H67.3001L67.5101 7.84H67.5661C67.7808 7.51333 68.0561 7.266 68.3921 7.098C68.7375 6.92067 69.1295 6.832 69.5681 6.832C70.5015 6.832 71.1968 7.10733 71.6541 7.658C72.1115 8.20867 72.3401 9.10933 72.3401 10.36C72.3401 10.948 72.2608 11.48 72.1021 11.956C71.9528 12.4227 71.7381 12.8193 71.4581 13.146C71.1781 13.4727 70.8375 13.7247 70.4361 13.902C70.0441 14.0793 69.6055 14.168 69.1201 14.168C68.7748 14.168 68.4995 14.1447 68.2941 14.098C68.0981 14.0607 67.8835 13.9907 67.6501 13.888V16.8H66.5301V7ZM69.3581 7.812C68.8821 7.812 68.5041 7.938 68.2241 8.19C67.9535 8.43267 67.7621 8.806 67.6501 9.31V12.782C67.8181 12.9127 68.0095 13.0153 68.2241 13.09C68.4388 13.1553 68.7235 13.188 69.0781 13.188C69.7221 13.188 70.2308 12.95 70.6041 12.474C70.9868 11.9887 71.1781 11.2793 71.1781 10.346C71.1781 9.96333 71.1455 9.618 71.0801 9.31C71.0148 8.99267 70.9075 8.72667 70.7581 8.512C70.6181 8.288 70.4315 8.11533 70.1981 7.994C69.9741 7.87267 69.6941 7.812 69.3581 7.812ZM75.9983 11.536L76.3903 12.88H76.4603L76.7683 11.522L78.1263 7H79.2603L77.1883 13.286C77.0296 13.7433 76.871 14.1867 76.7123 14.616C76.563 15.0453 76.395 15.428 76.2083 15.764C76.0216 16.1 75.8116 16.366 75.5783 16.562C75.345 16.7673 75.0743 16.87 74.7663 16.87C74.4303 16.87 74.155 16.8233 73.9403 16.73L74.1363 15.764C74.2576 15.8107 74.3743 15.834 74.4863 15.834C74.7476 15.834 74.9996 15.694 75.2423 15.414C75.485 15.1433 75.6856 14.672 75.8443 14L73.0303 7H74.3183L75.9983 11.536ZM81.1338 10.878V9.968H82.1138C82.2818 9.968 82.4451 9.94 82.6038 9.884C82.7718 9.828 82.9211 9.75333 83.0518 9.66C83.1825 9.55733 83.2851 9.44067 83.3598 9.31C83.4438 9.17 83.4858 9.02533 83.4858 8.876C83.4858 8.512 83.3598 8.25533 83.1078 8.106C82.8558 7.95667 82.4778 7.882 81.9738 7.882C81.6098 7.882 81.2738 7.938 80.9658 8.05C80.6671 8.162 80.4338 8.26933 80.2658 8.372L79.9438 7.504C80.2238 7.34533 80.5505 7.20533 80.9238 7.084C81.3065 6.96267 81.7591 6.902 82.2818 6.902C83.8311 6.902 84.6058 7.476 84.6058 8.624C84.6058 8.95067 84.4985 9.27267 84.2838 9.59C84.0785 9.898 83.7798 10.1173 83.3878 10.248V10.304C83.9385 10.4067 84.3211 10.6027 84.5358 10.892C84.7598 11.1813 84.8718 11.564 84.8718 12.04C84.8718 12.3387 84.8111 12.614 84.6898 12.866C84.5685 13.118 84.3865 13.3373 84.1438 13.524C83.9011 13.7107 83.5931 13.86 83.2198 13.972C82.8558 14.0747 82.4311 14.126 81.9458 14.126C81.4698 14.126 81.0731 14.084 80.7558 14C80.4478 13.916 80.1678 13.8133 79.9158 13.692L80.2378 12.768C80.4525 12.8893 80.7091 12.9827 81.0078 13.048C81.3158 13.1133 81.6471 13.146 82.0018 13.146C82.5711 13.146 83.0051 13.048 83.3038 12.852C83.6025 12.656 83.7518 12.3573 83.7518 11.956C83.7518 11.62 83.6118 11.3587 83.3318 11.172C83.0518 10.976 82.5898 10.878 81.9458 10.878H81.1338ZM91.0095 9.856L91.0515 8.988H91.0095L90.4355 9.884L87.2855 14H86.6415V7H87.7615V11.27L87.7195 12.096H87.7755L88.3215 11.228L91.4715 7H92.1295V14H91.0095V9.856ZM98.7501 7.98H96.5521V14H95.4321V7.98H93.2341V7H98.7501V7.98ZM104.753 13.44C104.473 13.664 104.119 13.8413 103.689 13.972C103.269 14.1027 102.821 14.168 102.345 14.168C101.813 14.168 101.351 14.084 100.959 13.916C100.567 13.7387 100.245 13.4913 99.9934 13.174C99.7414 12.8473 99.5548 12.46 99.4334 12.012C99.3121 11.564 99.2514 11.06 99.2514 10.5C99.2514 9.30533 99.5174 8.39533 100.049 7.77C100.581 7.14467 101.342 6.832 102.331 6.832C102.649 6.832 102.966 6.86933 103.283 6.944C103.601 7.00933 103.885 7.14 104.137 7.336C104.389 7.532 104.595 7.812 104.753 8.176C104.912 8.53067 104.991 9.002 104.991 9.59C104.991 9.898 104.963 10.2387 104.907 10.612H100.413C100.413 11.0227 100.455 11.3867 100.539 11.704C100.623 12.0213 100.754 12.292 100.931 12.516C101.109 12.7307 101.337 12.8987 101.617 13.02C101.907 13.132 102.257 13.188 102.667 13.188C102.985 13.188 103.302 13.132 103.619 13.02C103.937 12.908 104.175 12.7773 104.333 12.628L104.753 13.44ZM102.345 7.812C101.795 7.812 101.351 7.95667 101.015 8.246C100.689 8.53533 100.493 9.03 100.427 9.73H103.899C103.899 9.02067 103.764 8.526 103.493 8.246C103.223 7.95667 102.84 7.812 102.345 7.812ZM110.485 7.014C110.812 6.99533 111.153 6.972 111.507 6.944C111.871 6.916 112.319 6.902 112.851 6.902C113.775 6.902 114.438 7.04667 114.839 7.336C115.241 7.616 115.441 8.04533 115.441 8.624C115.441 8.95067 115.343 9.27267 115.147 9.59C114.961 9.898 114.648 10.1267 114.209 10.276V10.332C114.76 10.4347 115.147 10.626 115.371 10.906C115.595 11.186 115.707 11.5593 115.707 12.026C115.707 12.754 115.446 13.2813 114.923 13.608C114.401 13.9347 113.617 14.098 112.571 14.098C112.179 14.098 111.815 14.084 111.479 14.056C111.143 14.0373 110.812 14.014 110.485 13.986V7.014ZM111.605 13.062C111.783 13.0807 111.955 13.0947 112.123 13.104C112.301 13.1133 112.506 13.118 112.739 13.118C113.365 13.118 113.827 13.0293 114.125 12.852C114.433 12.6747 114.587 12.3713 114.587 11.942C114.587 11.606 114.457 11.3353 114.195 11.13C113.943 10.9153 113.491 10.808 112.837 10.808H111.605V13.062ZM112.977 9.954C113.145 9.954 113.309 9.926 113.467 9.87C113.626 9.814 113.766 9.73933 113.887 9.646C114.018 9.54333 114.121 9.42667 114.195 9.296C114.279 9.16533 114.321 9.02533 114.321 8.876C114.321 8.50267 114.209 8.246 113.985 8.106C113.761 7.95667 113.369 7.882 112.809 7.882C112.511 7.882 112.273 7.88667 112.095 7.896C111.927 7.90533 111.764 7.91467 111.605 7.924V9.954H112.977Z" fill="black" fill-opacity="0.6"/>
<path d="M159.765 8.3125V3.4375H164.64V8.3125H159.765ZM161.39 5.0625V6.6875H163.015V5.0625H161.39ZM166.265 3.4375H171.14V8.3125H166.265V3.4375ZM169.515 6.6875V5.0625H167.89V6.6875H169.515ZM159.765 14.8125V9.9375H164.64V14.8125H159.765ZM161.39 11.5625V13.1875H163.015V11.5625H161.39ZM170.327 9.9375H171.14V13.1875H168.702V12.375H167.89V14.8125H166.265V9.9375H168.702V10.75H170.327V9.9375ZM170.327 14H171.14V14.8125H170.327V14ZM168.702 14H169.515V14.8125H168.702V14Z" fill="black" fill-opacity="0.6"/>
</svg>
