<svg width="93" height="93" viewBox="0 0 93 93" fill="none" xmlns="http://www.w3.org/2000/svg">
<rect x="1" y="1" width="91" height="91" rx="14" stroke="black" stroke-opacity="0.54" stroke-width="2"/>
<mask id="mask0" mask-type="alpha" maskUnits="userSpaceOnUse" x="0" y="0" width="93" height="93">
<rect width="93" height="93" rx="15" fill="white"/>
</mask>
<g mask="url(#mask0)">
<circle cx="47" cy="47" r="39" fill="white"/>
<path fill-rule="evenodd" clip-rule="evenodd" d="M54.9953 35.8848C50.0033 39.9408 49.6653 45.8948 50.1203 48.3648C52.2653 49.2748 57.8813 49.9248 63.1853 45.2448C68.4893 40.5648 68.2553 34.8448 67.4753 32.5698C65.3953 31.9848 59.9873 31.8288 54.9953 35.8848ZM45.6354 58.5049V77.6149L48.1704 78.0049V53.8249C47.9754 50.8998 45.6354 45.0498 40.9554 40.7599C35.8853 36.1124 26.9804 35.8849 24.3804 36.8599C24.0554 39.9799 25.1603 47.739 31.0102 53.0448C34.8801 56.5548 41.7353 58.5049 45.6354 58.5049ZM56.7502 38.03C52.8502 40.838 52.4602 45.245 52.6552 46.415C53.8252 46.61 57.2572 46.298 60.8452 43.49C64.4332 40.682 65.0702 36.73 64.9402 35.105C63.3802 35.105 60.6502 35.222 56.7502 38.03ZM45.7681 55.8976C46.0701 54.0895 45.4662 47.2793 39.4267 42.94C33.3873 38.6007 29.1597 38.42 26.7439 38.4199C26.5426 40.9311 27.529 47.0382 33.0853 51.3775C38.6416 55.7168 43.9563 56.1989 45.7681 55.8976Z" fill="black" fill-opacity="0.54"/>
<path fill-rule="evenodd" clip-rule="evenodd" d="M47 86C68.5391 86 86 68.5391 86 47C86 25.4609 68.5391 8 47 8C25.4609 8 8 25.4609 8 47C8 68.5391 25.4609 86 47 86ZM46.9999 83.27C67.0313 83.27 83.2699 67.0313 83.2699 47C83.2699 26.9686 67.0313 10.73 46.9999 10.73C26.9685 10.73 10.7299 26.9686 10.7299 47C10.7299 67.0313 26.9685 83.27 46.9999 83.27Z" fill="black" fill-opacity="0.54"/>
<path fill-rule="evenodd" clip-rule="evenodd" d="M47.1149 79.3697C47.0782 79.3698 47.0414 79.3699 47.0047 79.3699C47.0032 79.3698 47.0015 79.3698 47 79.3697L47.0044 79.3699C47.0029 79.3699 47.0014 79.3699 46.9999 79.3699C29.1224 79.3699 14.6299 64.8773 14.6299 46.9999C14.6299 29.1224 29.1224 14.6299 46.9999 14.6299C64.8773 14.6299 79.3699 29.1224 79.3699 46.9999C79.3699 61.6467 69.642 74.0214 56.2947 78.0156C56.0007 78.0443 55.4048 77.869 55.19 77.2247C54.9578 76.528 55.645 76.1197 55.97 76.0547L55.808 76.079C68.2666 72.3468 77.3458 60.7942 77.3458 47.121C77.3458 30.4282 63.8136 16.896 47.1208 16.896C30.428 16.896 16.8958 30.4282 16.8958 47.121C16.8958 63.8138 30.428 77.346 47.1208 77.346C47.4724 77.346 47.8225 77.34 48.1711 77.3281C48.1711 77.3309 48.1712 77.3338 48.1712 77.3367C48.1795 77.9006 48.2002 79.3218 47.1149 79.3697Z" fill="black" fill-opacity="0.54"/>
</g>
</svg>
