<svg width="159" height="39" viewBox="0 0 159 39" fill="none" xmlns="http://www.w3.org/2000/svg">
<path d="M66.8057 30.688C66.6539 30.8548 66.4821 31.0398 66.291 31.2432C66.0994 31.4466 65.8997 31.655 65.6914 31.8684C65.4831 32.0816 65.2762 32.2911 65.0701 32.4969C64.8641 32.7031 64.6702 32.8942 64.4891 33.0707C64.6996 33.2178 64.9228 33.3992 65.1582 33.6149C65.3937 33.8305 65.6241 34.061 65.8496 34.3062C66.0755 34.5514 66.2869 34.8015 66.4858 35.0563C66.6841 35.3112 66.85 35.5537 66.9823 35.7844H66.1437C65.9969 35.5537 65.8274 35.3225 65.6363 35.0893C65.4452 34.8565 65.2427 34.6334 65.0295 34.4202C64.8162 34.2067 64.6007 34.0095 64.3824 33.8282C64.1642 33.6468 63.9523 33.4922 63.7467 33.365V35.7844H63.0332V30.688H63.7467V32.9382C63.9179 32.7765 64.1068 32.594 64.3124 32.3905C64.5184 32.187 64.7218 31.9824 64.9228 31.7765C65.1239 31.5707 65.3137 31.3731 65.4926 31.1845C65.672 30.9958 65.8229 30.8301 65.9454 30.688H66.8057ZM68.9086 35.2916C69.0708 35.2916 69.214 35.2879 69.3392 35.2805C69.4643 35.2734 69.5683 35.2598 69.6514 35.24V34.1002C69.6026 34.0757 69.5231 34.0549 69.4124 34.0376C69.3021 34.0206 69.1688 34.012 69.0116 34.012C68.9086 34.012 68.7997 34.0194 68.6844 34.034C68.5692 34.0489 68.4639 34.0796 68.3682 34.126C68.2724 34.1726 68.1928 34.2363 68.1296 34.3173C68.0654 34.3982 68.0338 34.5048 68.0338 34.637C68.0338 34.8821 68.112 35.0526 68.2692 35.1483C68.426 35.2439 68.6393 35.2916 68.9086 35.2916ZM68.8503 31.8645C69.1245 31.8645 69.3559 31.9003 69.5448 31.9713C69.7336 32.0424 69.8855 32.1431 70.0007 32.2728C70.1159 32.4027 70.1981 32.5571 70.2469 32.7361C70.2962 32.9152 70.3206 33.1124 70.3206 33.328V35.7182C70.2623 35.7279 70.1801 35.7413 70.0743 35.7586C69.969 35.7757 69.8502 35.7918 69.7178 35.8064C69.5854 35.8211 69.4422 35.8345 69.2877 35.8468C69.1331 35.8588 68.98 35.8654 68.8281 35.8654C68.6122 35.8654 68.4138 35.8433 68.2321 35.7988C68.051 35.7547 67.8942 35.6852 67.7618 35.5895C67.6294 35.4937 67.5259 35.3675 67.4527 35.2109C67.3791 35.0538 67.3425 34.8652 67.3425 34.6445C67.3425 34.4338 67.3854 34.2522 67.4708 34.1002C67.5566 33.9484 67.6732 33.8258 67.8205 33.7328C67.9674 33.6394 68.1391 33.5707 68.3352 33.5266C68.5313 33.4825 68.7373 33.4604 68.9528 33.4604C69.0215 33.4604 69.0929 33.4641 69.1661 33.4715C69.2398 33.4788 69.3094 33.4887 69.3758 33.501C69.4422 33.5132 69.4996 33.5241 69.5488 33.534C69.5976 33.5438 69.632 33.5512 69.6514 33.5561V33.365C69.6514 33.252 69.6392 33.1404 69.6148 33.0303C69.5899 32.9202 69.5461 32.822 69.4824 32.7361C69.4187 32.6505 69.3319 32.5815 69.2212 32.5303C69.111 32.4787 68.9678 32.453 68.7911 32.453C68.5656 32.453 68.3682 32.4688 68.1992 32.5008C68.0297 32.5324 67.9037 32.5659 67.8205 32.6L67.7396 32.034C67.8277 31.9944 67.9746 31.9565 68.1806 31.9198C68.3867 31.8829 68.6099 31.8645 68.8503 31.8645ZM71.8871 31.9604V33.0854C71.8871 33.3746 71.9608 33.5767 72.1081 33.6922C72.2554 33.8074 72.456 33.8648 72.7109 33.8648C72.897 33.8648 73.0529 33.8551 73.1776 33.8355C73.3028 33.8159 73.4144 33.7938 73.5124 33.7693V31.9604H74.1965V35.7844H73.5124V34.2988C73.4736 34.3087 73.4221 34.3209 73.3579 34.3357C73.2946 34.3503 73.2219 34.3637 73.141 34.3761C73.0601 34.3883 72.9756 34.3994 72.8875 34.4093C72.799 34.4188 72.7136 34.4237 72.63 34.4237C72.419 34.4237 72.2269 34.4017 72.053 34.3577C71.879 34.3136 71.729 34.2402 71.6043 34.1369C71.4791 34.034 71.3811 33.8979 71.3101 33.7289C71.2387 33.5596 71.203 33.3475 71.203 33.0928V31.9604H71.8871ZM75.1603 33.8794C75.1603 33.5413 75.2096 33.246 75.3072 32.9934C75.4052 32.741 75.5354 32.5313 75.6971 32.3647C75.8589 32.1981 76.045 32.073 76.256 31.9895C76.4671 31.9064 76.6826 31.8645 76.9031 31.8645C77.4182 31.8645 77.8127 32.0251 78.0874 32.3464C78.3616 32.6674 78.499 33.1565 78.499 33.8134C78.499 33.8429 78.499 33.8808 78.499 33.9274C78.499 33.974 78.4968 34.0171 78.4913 34.0561H75.8733C75.9031 34.4532 76.0184 34.7547 76.2194 34.9607C76.4201 35.1664 76.7341 35.2695 77.1606 35.2695C77.4006 35.2695 77.603 35.2489 77.7675 35.207C77.9315 35.1654 78.0553 35.125 78.1389 35.0858L78.2342 35.6592C78.1511 35.7034 78.0051 35.7499 77.7968 35.7988C77.5885 35.8479 77.3518 35.8724 77.087 35.8724C76.7535 35.8724 76.4657 35.8223 76.2226 35.7217C75.9804 35.6213 75.7803 35.4826 75.6235 35.3064C75.4667 35.1297 75.3501 34.9202 75.2742 34.6776C75.1983 34.4349 75.1603 34.1691 75.1603 33.8794ZM77.7855 33.5045C77.7905 33.1958 77.7137 32.9422 77.5537 32.7435C77.3947 32.5449 77.1755 32.4458 76.8959 32.4458C76.7391 32.4458 76.6004 32.4763 76.4806 32.5375C76.3604 32.5989 76.2583 32.6785 76.1752 32.7765C76.092 32.8746 76.0265 32.9872 75.9804 33.1148C75.9339 33.2425 75.9032 33.3722 75.8887 33.5045H77.7855ZM81.1468 35.8724C80.8378 35.8724 80.5671 35.8234 80.334 35.7254C80.1013 35.6273 79.9052 35.4901 79.7461 35.3135C79.5862 35.1373 79.4673 34.9276 79.3892 34.685C79.3105 34.4423 79.2717 34.1737 79.2717 33.8794C79.2717 33.5855 79.3141 33.3159 79.4 33.0707C79.4858 32.8256 79.6074 32.6136 79.7637 32.4348C79.921 32.2557 80.1135 32.1161 80.3412 32.0156C80.5694 31.915 80.8233 31.8645 81.1026 31.8645C81.2743 31.8645 81.4455 31.8794 81.6172 31.9088C81.7889 31.9379 81.9529 31.9849 82.1102 32.0486L81.9556 32.6295C81.8526 32.5804 81.7338 32.5412 81.5987 32.5118C81.464 32.4824 81.3208 32.4678 81.1685 32.4678C80.7863 32.4678 80.4935 32.5878 80.2901 32.828C80.0863 33.0684 79.9847 33.4186 79.9847 33.8794C79.9847 34.0856 80.0082 34.2743 80.0547 34.4458C80.1013 34.6174 80.1745 34.7646 80.2752 34.8872C80.376 35.0097 80.5048 35.1041 80.6611 35.1703C80.8183 35.2365 81.0095 35.2695 81.2349 35.2695C81.4161 35.2695 81.5802 35.2524 81.7275 35.218C81.8748 35.1837 81.99 35.1469 82.0731 35.1077L82.1689 35.6813C82.1296 35.7058 82.0731 35.7291 81.9999 35.7512C81.9263 35.7732 81.8431 35.7928 81.7496 35.81C81.6565 35.8273 81.5576 35.8419 81.4518 35.8543C81.3466 35.8663 81.2444 35.8724 81.1468 35.8724ZM85.6034 31.9604V32.5338H84.3604V35.7844H83.6763V32.5338H82.4337V31.9604H85.6034ZM86.9784 35.2695C87.0082 35.2745 87.0498 35.2794 87.1035 35.2843C87.1573 35.2891 87.2188 35.293 87.287 35.2953C87.3561 35.2978 87.4284 35.3001 87.5043 35.3025C87.5802 35.305 87.6525 35.3064 87.7212 35.3064C87.8635 35.3064 87.9995 35.2965 88.1297 35.2769C88.2594 35.2573 88.3723 35.2229 88.4677 35.174C88.563 35.125 88.6394 35.0598 88.6958 34.9792C88.7523 34.8982 88.7803 34.794 88.7803 34.6664C88.7803 34.5439 88.7546 34.4423 88.7031 34.3613C88.6516 34.2803 88.5815 34.2155 88.4934 34.1664C88.4053 34.1175 88.3009 34.0831 88.1807 34.0635C88.061 34.0439 87.9322 34.034 87.7949 34.034H86.9784V35.2695ZM87.7067 33.5266C87.8391 33.5266 87.9602 33.5181 88.0705 33.501C88.1807 33.4837 88.2765 33.453 88.3574 33.4091C88.4387 33.365 88.502 33.306 88.5485 33.2324C88.5951 33.159 88.6186 33.0658 88.6186 32.9532C88.6186 32.8355 88.5892 32.7421 88.53 32.6736C88.4717 32.6049 88.394 32.5523 88.2982 32.5155C88.2029 32.4787 88.0953 32.4544 87.9751 32.4419C87.8549 32.4297 87.7334 32.4235 87.611 32.4235C87.4984 32.4235 87.3841 32.426 87.2689 32.4309C87.1537 32.4359 87.057 32.4408 86.9784 32.4458V33.5266H87.7067ZM87.6918 35.8504C87.4027 35.8504 87.1356 35.837 86.8903 35.81C86.6454 35.7831 86.4515 35.7524 86.3092 35.7182V31.9969C86.4515 31.9627 86.6454 31.932 86.8903 31.905C87.1356 31.8779 87.4027 31.8645 87.6918 31.8645C87.8929 31.8645 88.089 31.882 88.2806 31.9161C88.4717 31.9505 88.6407 32.008 88.788 32.089C88.9349 32.1697 89.0532 32.2802 89.1441 32.4198C89.2349 32.5594 89.2805 32.7325 89.2805 32.9382C89.2805 33.1247 89.2335 33.2841 89.1405 33.4165C89.0474 33.5487 88.9227 33.6517 88.7659 33.7252C88.9764 33.7988 89.1441 33.9078 89.2692 34.0526C89.3944 34.1971 89.4567 34.3994 89.4567 34.659C89.4567 34.8897 89.4116 35.0808 89.3207 35.2328C89.2299 35.3846 89.1052 35.5073 88.9462 35.6006C88.7862 35.6936 88.5987 35.7586 88.3832 35.7953C88.1676 35.8322 87.9372 35.8504 87.6918 35.8504ZM93.715 33.8724C93.715 34.1763 93.6711 34.4508 93.5826 34.6959C93.4944 34.9411 93.3702 35.1518 93.2111 35.3285C93.0521 35.505 92.8619 35.6409 92.6414 35.7364C92.4204 35.8322 92.1805 35.8799 91.9207 35.8799C91.6604 35.8799 91.4205 35.8322 91.1995 35.7364C90.979 35.6409 90.7892 35.505 90.6297 35.3285C90.4707 35.1518 90.3469 34.9411 90.2583 34.6959C90.1702 34.4508 90.1264 34.1763 90.1264 33.8724C90.1264 33.5732 90.1702 33.2998 90.2583 33.0524C90.3469 32.8046 90.4707 32.5928 90.6297 32.4162C90.7892 32.2396 90.979 32.1037 91.1995 32.008C91.4205 31.9124 91.6604 31.8645 91.9207 31.8645C92.1805 31.8645 92.4204 31.9124 92.6414 32.008C92.8619 32.1037 93.0521 32.2396 93.2111 32.4162C93.3702 32.5928 93.4944 32.8046 93.5826 33.0524C93.6711 33.2998 93.715 33.5732 93.715 33.8724ZM93.0015 33.8724C93.0015 33.4408 92.9048 33.0988 92.7109 32.8466C92.5176 32.594 92.2541 32.4678 91.9207 32.4678C91.5867 32.4678 91.3238 32.594 91.1299 32.8466C90.9365 33.0988 90.8394 33.4408 90.8394 33.8724C90.8394 34.3037 90.9365 34.6456 91.1299 34.8982C91.3238 35.1507 91.5867 35.2769 91.9207 35.2769C92.2541 35.2769 92.5176 35.1507 92.7109 34.8982C92.9048 34.6456 93.0015 34.3037 93.0015 33.8724ZM97.0464 35.2695C97.0758 35.2745 97.1174 35.2794 97.1711 35.2843C97.2253 35.2891 97.2864 35.293 97.355 35.2953C97.4237 35.2978 97.496 35.3001 97.5724 35.3025C97.6483 35.305 97.7206 35.3064 97.7893 35.3064C97.9316 35.3064 98.0676 35.2965 98.1973 35.2769C98.3274 35.2573 98.4399 35.2229 98.5357 35.174C98.631 35.125 98.707 35.0598 98.7634 34.9792C98.8199 34.8982 98.8479 34.794 98.8479 34.6664C98.8479 34.5439 98.8226 34.4423 98.7707 34.3613C98.7196 34.2803 98.6496 34.2155 98.5615 34.1664C98.4729 34.1175 98.3685 34.0831 98.2488 34.0635C98.1286 34.0439 97.9998 34.034 97.8629 34.034H97.0464V35.2695ZM97.7743 33.5266C97.9067 33.5266 98.0283 33.5181 98.1385 33.501C98.2488 33.4837 98.3441 33.453 98.425 33.4091C98.5063 33.365 98.5696 33.306 98.6166 33.2324C98.6631 33.159 98.6862 33.0658 98.6862 32.9532C98.6862 32.8355 98.6568 32.7421 98.5981 32.6736C98.5393 32.6049 98.4616 32.5523 98.3663 32.5155C98.2709 32.4787 98.1629 32.4544 98.0427 32.4419C97.923 32.4297 97.8015 32.4235 97.679 32.4235C97.566 32.4235 97.4522 32.426 97.3369 32.4309C97.2213 32.4359 97.1246 32.4408 97.0464 32.4458V33.5266H97.7743ZM97.7594 35.8504C97.4707 35.8504 97.2032 35.837 96.9583 35.81C96.713 35.7831 96.5196 35.7524 96.3772 35.7182V31.9969C96.5196 31.9627 96.713 31.932 96.9583 31.905C97.2032 31.8779 97.4707 31.8645 97.7594 31.8645C97.961 31.8645 98.1566 31.882 98.3482 31.9161C98.5393 31.9505 98.7083 32.008 98.8556 32.089C99.0025 32.1697 99.1213 32.2802 99.2121 32.4198C99.3029 32.5594 99.3481 32.7325 99.3481 32.9382C99.3481 33.1247 99.3016 33.2841 99.2085 33.4165C99.1154 33.5487 98.9903 33.6517 98.8335 33.7252C99.044 33.7988 99.2121 33.9078 99.3368 34.0526C99.462 34.1971 99.5248 34.3994 99.5248 34.659C99.5248 34.8897 99.4791 35.0808 99.3888 35.2328C99.298 35.3846 99.1728 35.5073 99.0138 35.6006C98.8543 35.6936 98.6663 35.7586 98.4508 35.7953C98.2352 35.8322 98.0048 35.8504 97.7594 35.8504ZM103.503 33.7033C103.656 33.811 103.82 33.947 103.996 34.1112C104.173 34.2757 104.346 34.4532 104.515 34.6445C104.684 34.8355 104.842 35.0305 104.989 35.2291C105.136 35.4275 105.261 35.6128 105.364 35.7844H104.555C104.447 35.6176 104.321 35.4471 104.177 35.2734C104.032 35.0992 103.881 34.9312 103.724 34.7695C103.567 34.6077 103.408 34.4582 103.246 34.3209C103.084 34.1837 102.932 34.0685 102.79 33.9754V35.7844H102.106V31.9604H102.79V33.6002C102.908 33.4876 103.042 33.3565 103.195 33.2068C103.347 33.0573 103.5 32.9052 103.654 32.7507C103.809 32.5963 103.952 32.4493 104.084 32.3097C104.217 32.1697 104.325 32.0534 104.408 31.9604H105.202C105.095 32.0781 104.968 32.2115 104.824 32.3612C104.679 32.5105 104.529 32.6639 104.375 32.8206C104.22 32.9777 104.067 33.1332 103.915 33.2877C103.764 33.4421 103.626 33.5806 103.503 33.7033ZM107.349 35.2916C107.512 35.2916 107.655 35.2879 107.78 35.2805C107.905 35.2734 108.009 35.2598 108.092 35.24V34.1002C108.043 34.0757 107.964 34.0549 107.853 34.0376C107.743 34.0206 107.61 34.012 107.452 34.012C107.349 34.012 107.241 34.0194 107.125 34.034C107.01 34.0489 106.904 34.0796 106.809 34.126C106.714 34.1726 106.634 34.2363 106.57 34.3173C106.506 34.3982 106.475 34.5048 106.475 34.637C106.475 34.8821 106.553 35.0526 106.71 35.1483C106.867 35.2439 107.08 35.2916 107.349 35.2916ZM107.291 31.8645C107.565 31.8645 107.797 31.9003 107.986 31.9713C108.174 32.0424 108.327 32.1431 108.442 32.2728C108.557 32.4027 108.639 32.5571 108.688 32.7361C108.737 32.9152 108.761 33.1124 108.761 33.328V35.7182C108.703 35.7279 108.621 35.7413 108.515 35.7586C108.41 35.7757 108.291 35.7918 108.159 35.8064C108.026 35.8211 107.883 35.8345 107.729 35.8468C107.574 35.8588 107.421 35.8654 107.269 35.8654C107.053 35.8654 106.855 35.8433 106.673 35.7988C106.492 35.7547 106.335 35.6852 106.203 35.5895C106.07 35.4937 105.967 35.3675 105.894 35.2109C105.82 35.0538 105.783 34.8652 105.783 34.6445C105.783 34.4338 105.826 34.2522 105.912 34.1002C105.998 33.9484 106.114 33.8258 106.261 33.7328C106.408 33.6394 106.58 33.5707 106.776 33.5266C106.972 33.4825 107.178 33.4604 107.394 33.4604C107.462 33.4604 107.533 33.4641 107.607 33.4715C107.681 33.4788 107.75 33.4887 107.817 33.501C107.883 33.5132 107.94 33.5241 107.99 33.534C108.038 33.5438 108.073 33.5512 108.092 33.5561V33.365C108.092 33.252 108.08 33.1404 108.056 33.0303C108.031 32.9202 107.987 32.822 107.923 32.7361C107.859 32.6505 107.773 32.5815 107.662 32.5303C107.552 32.4787 107.409 32.453 107.232 32.453C107.006 32.453 106.809 32.4688 106.64 32.5008C106.471 32.5324 106.345 32.5659 106.261 32.6L106.18 32.034C106.269 31.9944 106.415 31.9565 106.621 31.9198C106.828 31.8829 107.051 31.8645 107.291 31.8645ZM114.608 31.9604C114.51 32.083 114.4 32.2166 114.277 32.3612C114.155 32.5058 114.027 32.6552 113.895 32.8097C113.762 32.9643 113.629 33.1173 113.494 33.2694C113.359 33.4213 113.23 33.5658 113.108 33.7033C113.255 33.8454 113.407 33.9998 113.564 34.1664C113.721 34.3332 113.874 34.5058 114.024 34.685C114.173 34.8638 114.316 35.0478 114.454 35.2365C114.591 35.4252 114.711 35.6077 114.814 35.7844H114.049C113.946 35.6227 113.828 35.4522 113.693 35.2734C113.558 35.0943 113.418 34.9216 113.273 34.7547C113.129 34.5881 112.984 34.4324 112.84 34.2878C112.695 34.1431 112.561 34.0245 112.439 33.9311V35.7844H111.784V33.9311C111.662 34.0245 111.528 34.1431 111.384 34.2878C111.239 34.4324 111.094 34.5881 110.95 34.7547C110.805 34.9216 110.665 35.0943 110.53 35.2734C110.396 35.4522 110.276 35.6227 110.173 35.7844H109.416C109.519 35.6077 109.638 35.4266 109.773 35.24C109.908 35.0538 110.05 34.8712 110.2 34.6922C110.349 34.5132 110.502 34.3404 110.659 34.1737C110.816 34.007 110.968 33.8528 111.115 33.7103C110.993 33.5732 110.864 33.4287 110.729 33.2765C110.594 33.1247 110.46 32.9714 110.328 32.8171C110.196 32.6627 110.068 32.513 109.946 32.3684C109.823 32.2237 109.71 32.0876 109.608 31.9604H110.365C110.541 32.1808 110.745 32.426 110.975 32.6957C111.206 32.9652 111.476 33.2765 111.784 33.6297V31.9604H112.439V33.6297C112.748 33.2765 113.017 32.9652 113.248 32.6957C113.478 32.426 113.682 32.1808 113.858 31.9604H114.608ZM115.035 35.2254H115.447C115.609 34.9901 115.737 34.7474 115.833 34.4973C115.929 34.2473 116 33.9885 116.05 33.7215C116.099 33.4544 116.131 33.1748 116.145 32.8831C116.16 32.5915 116.17 32.2837 116.175 31.9604H118.683V35.2254H119.197V36.8506H118.55V35.7844H115.682V36.8506H115.035V35.2254ZM117.999 35.2254V32.5338H116.8C116.795 32.7642 116.783 32.9959 116.763 33.2289C116.743 33.4617 116.712 33.6922 116.667 33.92C116.623 34.1481 116.561 34.3712 116.48 34.5895C116.399 34.8075 116.297 35.0196 116.175 35.2254H117.999ZM123.315 33.8724C123.315 34.1763 123.272 34.4508 123.183 34.6959C123.095 34.9411 122.971 35.1518 122.812 35.3285C122.653 35.505 122.462 35.6409 122.242 35.7364C122.021 35.8322 121.781 35.8799 121.521 35.8799C121.261 35.8799 121.021 35.8322 120.8 35.7364C120.579 35.6409 120.39 35.505 120.23 35.3285C120.071 35.1518 119.947 34.9411 119.859 34.6959C119.771 34.4508 119.727 34.1763 119.727 33.8724C119.727 33.5732 119.771 33.2998 119.859 33.0524C119.947 32.8046 120.071 32.5928 120.23 32.4162C120.39 32.2396 120.579 32.1037 120.8 32.008C121.021 31.9124 121.261 31.8645 121.521 31.8645C121.781 31.8645 122.021 31.9124 122.242 32.008C122.462 32.1037 122.653 32.2396 122.812 32.4162C122.971 32.5928 123.095 32.8046 123.183 33.0524C123.272 33.2998 123.315 33.5732 123.315 33.8724ZM122.602 33.8724C122.602 33.4408 122.505 33.0988 122.312 32.8466C122.118 32.594 121.855 32.4678 121.521 32.4678C121.188 32.4678 120.924 32.594 120.73 32.8466C120.537 33.0988 120.44 33.4408 120.44 33.8724C120.44 34.3037 120.537 34.6456 120.73 34.8982C120.924 35.1507 121.188 35.2769 121.521 35.2769C121.855 35.2769 122.118 35.1507 122.312 34.8982C122.505 34.6456 122.602 34.3037 122.602 33.8724ZM125.007 32.9678C124.958 33.453 124.921 33.9373 124.897 34.4202C124.872 34.9031 124.853 35.3579 124.838 35.7844H124.183C124.193 35.4852 124.208 35.1728 124.227 34.8466C124.247 34.5208 124.269 34.192 124.293 33.8613C124.318 33.5302 124.345 33.2043 124.375 32.8831C124.404 32.5621 124.436 32.2542 124.47 31.9604H125.095C125.252 32.2152 125.436 32.5645 125.647 33.0082C125.858 33.4521 126.101 33.9629 126.375 34.5415C126.65 33.9629 126.892 33.4521 127.103 33.0082C127.314 32.5645 127.498 32.2152 127.655 31.9604H128.287C128.321 32.2542 128.354 32.5621 128.383 32.8831C128.412 33.2043 128.439 33.5302 128.463 33.8613C128.488 34.192 128.51 34.5208 128.53 34.8466C128.55 35.1728 128.564 35.4852 128.574 35.7844H127.898C127.882 35.3579 127.863 34.9031 127.838 34.4202C127.814 33.9373 127.777 33.453 127.728 32.9678C127.65 33.1198 127.559 33.3025 127.456 33.5156C127.353 33.7289 127.251 33.946 127.151 34.1664C127.05 34.3872 126.956 34.5978 126.868 34.799C126.78 34.9998 126.711 35.1594 126.662 35.2769H126.088C126.034 35.1544 125.962 34.9926 125.872 34.7916C125.78 34.5904 125.685 34.3784 125.585 34.1555C125.484 33.9324 125.382 33.7142 125.28 33.501C125.176 33.2877 125.086 33.1099 125.007 32.9678ZM134.428 35.7844H133.744V32.5338H132.038V35.7844H131.354V31.9604H134.428V35.7844ZM138.818 31.9604V35.7844H138.157V32.8721C138.009 33.0583 137.848 33.2765 137.671 33.5266C137.495 33.7767 137.318 34.0355 137.141 34.3027C136.965 34.5699 136.796 34.8332 136.634 35.0928C136.472 35.353 136.333 35.5832 136.215 35.7844H135.605V31.9604H136.267V34.7106C136.394 34.4998 136.539 34.2683 136.7 34.0157C136.862 33.7633 137.03 33.5132 137.204 33.2654C137.378 33.018 137.552 32.7802 137.726 32.5523C137.901 32.3243 138.063 32.1272 138.215 31.9604H138.818ZM141.392 33.7033C141.544 33.811 141.708 33.947 141.885 34.1112C142.062 34.2757 142.234 34.4532 142.404 34.6445C142.573 34.8355 142.731 35.0305 142.878 35.2291C143.025 35.4275 143.15 35.6128 143.253 35.7844H142.444C142.336 35.6176 142.21 35.4471 142.065 35.2734C141.921 35.0992 141.77 34.9312 141.613 34.7695C141.456 34.6077 141.297 34.4582 141.135 34.3209C140.973 34.1837 140.821 34.0685 140.679 33.9754V35.7844H139.995V31.9604H140.679V33.6002C140.796 33.4876 140.932 33.3565 141.083 33.2068C141.236 33.0573 141.388 32.9052 141.543 32.7507C141.697 32.5963 141.841 32.4493 141.973 32.3097C142.106 32.1697 142.213 32.0534 142.297 31.9604H143.091C142.983 32.0781 142.857 32.2115 142.712 32.3612C142.568 32.5105 142.418 32.6639 142.264 32.8206C142.109 32.9777 141.956 33.1332 141.804 33.2877C141.652 33.4421 141.515 33.5806 141.392 33.7033ZM145.606 35.8724C145.297 35.8724 145.027 35.8234 144.794 35.7254C144.561 35.6273 144.365 35.4901 144.205 35.3135C144.046 35.1373 143.927 34.9276 143.849 34.685C143.77 34.4423 143.731 34.1737 143.731 33.8794C143.731 33.5855 143.774 33.3159 143.86 33.0707C143.945 32.8256 144.066 32.6136 144.224 32.4348C144.381 32.2557 144.573 32.1161 144.801 32.0156C145.029 31.915 145.282 31.8645 145.562 31.8645C145.733 31.8645 145.905 31.8794 146.077 31.9088C146.248 31.9379 146.413 31.9849 146.57 32.0486L146.415 32.6295C146.312 32.5804 146.193 32.5412 146.059 32.5118C145.924 32.4824 145.78 32.4678 145.628 32.4678C145.246 32.4678 144.953 32.5878 144.749 32.828C144.546 33.0684 144.444 33.4186 144.444 33.8794C144.444 34.0856 144.468 34.2743 144.514 34.4458C144.561 34.6174 144.634 34.7646 144.735 34.8872C144.836 35.0097 144.964 35.1041 145.121 35.1703C145.278 35.2365 145.469 35.2695 145.694 35.2695C145.876 35.2695 146.04 35.2524 146.187 35.218C146.334 35.1837 146.45 35.1469 146.533 35.1077L146.628 35.6813C146.589 35.7058 146.533 35.7291 146.459 35.7512C146.386 35.7732 146.302 35.7928 146.209 35.81C146.116 35.8273 146.017 35.8419 145.911 35.8543C145.806 35.8663 145.704 35.8724 145.606 35.8724ZM147.15 33.8794C147.15 33.5413 147.2 33.246 147.298 32.9934C147.396 32.741 147.525 32.5313 147.687 32.3647C147.849 32.1981 148.036 32.073 148.246 31.9895C148.457 31.9064 148.673 31.8645 148.894 31.8645C149.409 31.8645 149.803 32.0251 150.078 32.3464C150.353 32.6674 150.489 33.1565 150.489 33.8134C150.489 33.8429 150.489 33.8808 150.489 33.9274C150.489 33.974 150.487 34.0171 150.482 34.0561H147.864C147.894 34.4532 148.008 34.7547 148.209 34.9607C148.411 35.1664 148.725 35.2695 149.151 35.2695C149.391 35.2695 149.593 35.2489 149.758 35.207C149.922 35.1654 150.046 35.125 150.129 35.0858L150.225 35.6592C150.142 35.7034 149.996 35.7499 149.787 35.7988C149.579 35.8479 149.342 35.8724 149.077 35.8724C148.744 35.8724 148.456 35.8223 148.213 35.7217C147.97 35.6213 147.771 35.4826 147.613 35.3064C147.457 35.1297 147.341 34.9202 147.265 34.6776C147.188 34.4349 147.15 34.1691 147.15 33.8794ZM149.776 33.5045C149.781 33.1958 149.704 32.9422 149.544 32.7435C149.385 32.5449 149.166 32.4458 148.886 32.4458C148.73 32.4458 148.591 32.4763 148.471 32.5375C148.35 32.5989 148.249 32.6785 148.166 32.7765C148.082 32.8746 148.017 32.9872 147.97 33.1148C147.924 33.2425 147.894 33.3722 147.879 33.5045H149.776ZM152.806 32.5338C152.806 32.6957 152.802 32.8684 152.795 33.0524C152.788 33.2359 152.774 33.42 152.755 33.6039C152.735 33.7878 152.708 33.9689 152.674 34.1481C152.639 34.327 152.596 34.4949 152.541 34.652C152.488 34.8087 152.42 34.9557 152.339 35.0928C152.258 35.2303 152.159 35.3516 152.041 35.457C151.924 35.5625 151.786 35.6506 151.629 35.7217C151.473 35.7928 151.289 35.8384 151.078 35.858L150.982 35.2843C151.223 35.2353 151.413 35.1444 151.552 35.0122C151.692 34.8798 151.803 34.718 151.887 34.5268C151.961 34.3602 152.014 34.1712 152.049 33.9606C152.083 33.7497 152.108 33.5302 152.122 33.3025C152.137 33.0744 152.146 32.8452 152.148 32.615C152.15 32.3843 152.152 32.1662 152.152 31.9604H154.696V35.7844H154.012V32.5338H152.806ZM155.66 33.8794C155.66 33.5413 155.709 33.246 155.807 32.9934C155.905 32.741 156.035 32.5313 156.196 32.3647C156.359 32.1981 156.545 32.073 156.755 31.9895C156.966 31.9064 157.182 31.8645 157.403 31.8645C157.917 31.8645 158.312 32.0251 158.587 32.3464C158.861 32.6674 158.999 33.1565 158.999 33.8134C158.999 33.8429 158.999 33.8808 158.999 33.9274C158.999 33.974 158.996 34.0171 158.991 34.0561H156.373C156.402 34.4532 156.518 34.7547 156.719 34.9607C156.92 35.1664 157.234 35.2695 157.66 35.2695C157.9 35.2695 158.103 35.2489 158.267 35.207C158.431 35.1654 158.554 35.125 158.638 35.0858L158.734 35.6592C158.65 35.7034 158.505 35.7499 158.296 35.7988C158.088 35.8479 157.851 35.8724 157.587 35.8724C157.253 35.8724 156.965 35.8223 156.722 35.7217C156.48 35.6213 156.28 35.4826 156.123 35.3064C155.966 35.1297 155.85 34.9202 155.773 34.6776C155.697 34.4349 155.66 34.1691 155.66 33.8794ZM158.285 33.5045C158.29 33.1958 158.213 32.9422 158.053 32.7435C157.894 32.5449 157.675 32.4458 157.395 32.4458C157.239 32.4458 157.1 32.4763 156.98 32.5375C156.86 32.5989 156.758 32.6785 156.675 32.7765C156.591 32.8746 156.526 32.9872 156.48 33.1148C156.433 33.2425 156.402 33.3722 156.388 33.5045H158.285Z" fill="#8C8D90"/>
<path fill-rule="evenodd" clip-rule="evenodd" d="M31.8446 4.77767V-1.40066e-05H10.4184V4.77767H3.27619H0.912462H0.912109V28.5689V30.933H3.27619H8.0543V35.7107V38.0747H10.4184H31.8446H34.2086V35.7107V30.933H38.9867H41.3504H41.3508V7.14184V4.77767H38.9867H31.8446Z" fill="white"/>
<path d="M98.4346 26.1221V7.01644L101.492 6.51074V26.1221H98.4346Z" fill="#A5276D"/>
<path d="M84.2295 19.5773C84.2295 18.4153 84.4021 17.3956 84.7478 16.5197C85.093 15.6434 85.5521 14.9148 86.125 14.3338C86.6979 13.7526 87.3549 13.3142 88.096 13.0194C88.8379 12.7245 89.5957 12.5771 90.3706 12.5771C92.1902 12.5771 93.6099 13.1418 94.6293 14.2704C95.6486 15.3993 96.1583 17.0838 96.1583 19.3251C96.1583 19.4933 96.1543 19.6828 96.1457 19.8936C96.1371 20.1041 96.1244 20.2935 96.1077 20.4623H87.3884C87.4729 21.5235 87.8479 22.3448 88.513 22.9261C89.1791 23.5075 90.1433 23.7978 91.4067 23.7978C92.1482 23.7978 92.8264 23.7306 93.4414 23.5956C94.0563 23.4613 94.5407 23.3178 94.8945 23.166L95.2989 25.668C95.1304 25.7522 94.899 25.841 94.604 25.9333C94.3089 26.0259 93.9718 26.1103 93.5932 26.1864C93.2136 26.2621 92.8052 26.3251 92.3673 26.3756C91.929 26.4262 91.4826 26.4517 91.0276 26.4517C89.8654 26.4517 88.8542 26.2789 87.9952 25.9333C87.1358 25.5879 86.4282 25.1078 85.872 24.4929C85.3162 23.878 84.9032 23.1537 84.6339 22.3197C84.3646 21.4856 84.2295 20.5713 84.2295 19.5773ZM93.1002 18.2126C93.1002 17.7915 93.0415 17.3918 92.9231 17.0128C92.8052 16.6334 92.6325 16.3047 92.4053 16.0269C92.178 15.7489 91.8996 15.5297 91.5711 15.3696C91.2427 15.2097 90.8509 15.1296 90.3959 15.1296C89.9242 15.1296 89.5116 15.218 89.1574 15.3951C88.804 15.5723 88.5049 15.8038 88.26 16.0899C88.0164 16.3765 87.8267 16.7048 87.692 17.0755C87.5574 17.4463 87.4643 17.8252 87.4137 18.2126H93.1002Z" fill="#A5276D"/>
<path d="M76.9723 17.226L79.7773 12.9043H82.9868L78.6401 19.1465C79.5501 20.3261 80.4217 21.518 81.2558 22.7226C82.0899 23.9273 82.7763 25.0606 83.3153 26.1221H80.0046C79.8533 25.8021 79.6554 25.4355 79.4109 25.0226C79.1665 24.6098 78.9053 24.1802 78.6274 23.7336C78.3495 23.2873 78.0585 22.8453 77.7553 22.4069C77.4521 21.9688 77.1575 21.556 76.8711 21.1685C76.281 21.9264 75.704 22.765 75.1396 23.6834C74.5757 24.6015 74.1076 25.4141 73.7371 26.1221H70.6035C70.8561 25.6168 71.1593 25.0774 71.5135 24.5043C71.8669 23.9317 72.246 23.3462 72.6504 22.7482C73.0548 22.1501 73.4718 21.5515 73.9015 20.9537C74.3308 20.3555 74.7564 19.787 75.1776 19.2478L70.8055 12.9043H74.1668L76.9723 17.226Z" fill="#A5276D"/>
<path d="M68.6578 9.03815C68.6578 9.61119 68.473 10.0659 68.1021 10.4031C67.7315 10.7403 67.2937 10.9087 66.7881 10.9087C66.2657 10.9087 65.8193 10.7403 65.4488 10.4031C65.0778 10.0659 64.8926 9.61119 64.8926 9.03815C64.8926 8.44853 65.0778 7.98514 65.4488 7.64796C65.8193 7.31114 66.2657 7.14258 66.7881 7.14258C67.2937 7.14258 67.7315 7.31114 68.1021 7.64796C68.473 7.98514 68.6578 8.44853 68.6578 9.03815Z" fill="#A5276D"/>
<path d="M68.3295 26.1221H65.2715V12.9043H68.3295V26.1221Z" fill="#A5276D"/>
<path d="M62.7941 19.5258C62.7941 20.5368 62.6635 21.4633 62.4023 22.3057C62.1412 23.1484 61.7661 23.8729 61.2777 24.4794C60.7892 25.0861 60.1779 25.5575 59.4454 25.8946C58.7125 26.2317 57.8829 26.4 56.9562 26.4C56.3327 26.4 55.7597 26.3242 55.2374 26.1724C54.7151 26.021 54.2853 25.8524 53.9487 25.6671V30.7974H50.8906V13.3339C51.5142 13.1653 52.2805 13.0056 53.1905 12.8538C54.1005 12.7022 55.0603 12.6265 56.071 12.6265C57.1162 12.6265 58.051 12.7864 58.8766 13.1064C59.7021 13.4267 60.4056 13.8856 60.9871 14.4838C61.5682 15.082 62.0146 15.8064 62.3264 16.6573C62.6382 17.5082 62.7941 18.4645 62.7941 19.5258ZM59.6605 19.5761C59.6605 18.2114 59.3528 17.1501 58.7378 16.392C58.1229 15.6337 57.1329 15.2546 55.7683 15.2546C55.4818 15.2546 55.1827 15.2677 54.8709 15.2924C54.5596 15.318 54.2515 15.3727 53.9487 15.4569V23.0135C54.218 23.1989 54.5763 23.3715 55.0228 23.5316C55.4692 23.6918 55.945 23.7716 56.4506 23.7716C57.5626 23.7716 58.3755 23.3925 58.8892 22.6342C59.4034 21.8762 59.6605 20.8568 59.6605 19.5761Z" fill="#A5276D"/>
<path d="M145.664 6.51074C146.372 6.51074 146.949 6.56582 147.396 6.67526C147.842 6.78487 148.133 6.88156 148.267 6.9656L147.939 8.38111C147.753 8.29707 147.48 8.20832 147.117 8.11584C146.755 8.02298 146.296 7.97676 145.74 7.97676C144.577 7.97676 143.748 8.27167 143.25 8.861C142.753 9.45087 142.505 10.3944 142.505 11.6916V13.0563H147.762V14.4464H142.505V26.1221H140.862V11.6412C140.862 9.93957 141.254 8.65907 142.038 7.79955C142.821 6.94071 144.03 6.51074 145.664 6.51074Z" fill="#515254"/>
<path d="M133.104 12.753C133.963 12.753 134.692 12.8753 135.29 13.1196C135.888 13.3639 136.372 13.701 136.743 14.1308C137.114 14.5602 137.383 15.0698 137.552 15.6595C137.72 16.249 137.805 16.8894 137.805 17.5805V25.8193C137.636 25.8697 137.392 25.9246 137.072 25.9833C136.751 26.0426 136.381 26.1058 135.959 26.1729C135.538 26.2403 135.071 26.2954 134.557 26.3374C134.043 26.3796 133.517 26.4004 132.977 26.4004C132.287 26.4004 131.651 26.3247 131.069 26.1729C130.488 26.0214 129.983 25.7812 129.553 25.4527C129.123 25.1243 128.786 24.7031 128.542 24.1891C128.298 23.6752 128.176 23.0479 128.176 22.3062C128.176 21.5988 128.31 20.9921 128.58 20.4865C128.849 19.9811 129.229 19.5643 129.717 19.2356C130.206 18.9071 130.787 18.6669 131.461 18.5153C132.135 18.3637 132.868 18.288 133.66 18.288C133.896 18.288 134.144 18.3007 134.405 18.3259C134.666 18.3513 134.919 18.3847 135.163 18.4271C135.408 18.4689 135.618 18.5112 135.795 18.5533C135.972 18.5953 136.094 18.633 136.162 18.6669V17.8584C136.162 17.4034 136.128 16.961 136.061 16.5316C135.993 16.102 135.846 15.7142 135.618 15.3688C135.391 15.0236 135.071 14.7457 134.658 14.535C134.245 14.3246 133.702 14.2191 133.028 14.2191C132.068 14.2191 131.352 14.2866 130.88 14.4212C130.408 14.5562 130.063 14.6656 129.844 14.7498L129.616 13.3092C129.903 13.1743 130.345 13.0481 130.943 12.9302C131.541 12.8123 132.261 12.753 133.104 12.753ZM133.255 24.9347C133.896 24.9347 134.456 24.9137 134.936 24.8713C135.416 24.8295 135.825 24.7746 136.162 24.7072V20.1075C135.976 20.0233 135.682 19.9349 135.277 19.8421C134.873 19.7496 134.317 19.7033 133.609 19.7033C133.205 19.7033 132.784 19.7326 132.345 19.7918C131.908 19.8506 131.503 19.9771 131.133 20.1709C130.762 20.3645 130.459 20.63 130.223 20.9669C129.987 21.3037 129.869 21.7504 129.869 22.3062C129.869 22.795 129.949 23.2076 130.109 23.5448C130.269 23.8815 130.496 24.1512 130.792 24.3535C131.086 24.5556 131.44 24.7031 131.853 24.7956C132.265 24.8881 132.733 24.9347 133.255 24.9347Z" fill="#515254"/>
<path d="M124.131 12.8042C124.67 12.8042 125.179 12.8465 125.66 12.9308C126.14 13.0149 126.473 13.0989 126.657 13.1831L126.329 14.5984C126.194 14.5311 125.92 14.4595 125.508 14.3836C125.095 14.3079 124.552 14.2699 123.878 14.2699C123.17 14.2699 122.601 14.3206 122.172 14.4216C121.743 14.5227 121.46 14.6068 121.326 14.6744V26.1221H119.683V13.6633C120.104 13.478 120.685 13.2886 121.426 13.0948C122.168 12.9011 123.069 12.8042 124.131 12.8042Z" fill="#515254"/>
<path d="M113.467 26.4004C112.455 26.4004 111.562 26.2403 110.788 25.9205C110.012 25.6001 109.368 25.141 108.854 24.5427C108.34 23.9449 107.948 23.2288 107.679 22.3948C107.409 21.5607 107.274 20.6383 107.274 19.6276C107.274 18.5997 107.414 17.6647 107.691 16.8223C107.969 15.9797 108.37 15.2551 108.892 14.6487C109.414 14.0422 110.046 13.5746 110.788 13.246C111.529 12.9173 112.363 12.753 113.289 12.753C113.997 12.753 114.658 12.8123 115.273 12.9302C115.888 13.0481 116.365 13.1997 116.701 13.3851L116.271 14.8001C115.935 14.6319 115.555 14.4968 115.134 14.3961C114.713 14.2948 114.149 14.2444 113.441 14.2444C111.992 14.2444 110.892 14.712 110.143 15.6471C109.394 16.5821 109.019 17.9087 109.019 19.6276C109.019 20.4025 109.103 21.1143 109.271 21.7628C109.44 22.4116 109.713 22.9676 110.093 23.4307C110.471 23.8942 110.96 24.2564 111.558 24.5178C112.157 24.7788 112.885 24.9093 113.744 24.9093C114.452 24.9093 115.046 24.8295 115.526 24.6694C116.006 24.5091 116.356 24.3704 116.575 24.2525L116.929 25.6675C116.625 25.8358 116.15 26.0002 115.501 26.1603C114.852 26.3204 114.174 26.4004 113.467 26.4004Z" fill="#515254"/>
<path d="M152.462 13.0561H156.278V14.4463H152.462V21.3961C152.462 22.1378 152.526 22.7402 152.652 23.2033C152.778 23.6667 152.96 24.0248 153.195 24.2772C153.431 24.5303 153.717 24.6985 154.054 24.7832C154.391 24.8674 154.762 24.9093 155.166 24.9093C155.857 24.9093 156.413 24.8295 156.834 24.6694C157.256 24.5091 157.584 24.3619 157.82 24.2269L158.224 25.5918C157.989 25.7434 157.576 25.916 156.986 26.1098C156.396 26.3036 155.756 26.4004 155.066 26.4004C154.256 26.4004 153.579 26.2954 153.031 26.0846C152.484 25.8737 152.045 25.5538 151.716 25.1243C151.388 24.6945 151.157 24.1596 151.022 23.5193C150.887 22.8789 150.82 22.1206 150.82 21.2446V14.4463H149.43V13.0567H150.82V9.21486L152.462 8.91162V13.0561Z" fill="#515254"/>
<path d="M10.4189 35.7114H17.561V28.5684H10.4189V35.7114Z" fill="url(#paint0_linear)"/>
<path d="M17.5615 35.7109H24.704V28.5679H17.5615V35.7109Z" fill="url(#paint1_linear)"/>
<path d="M24.7031 35.7114H31.845V28.5684H24.7031V35.7114Z" fill="url(#paint2_linear)"/>
<path d="M3.27637 28.5688H10.4185V21.4258H3.27637V28.5688Z" fill="url(#paint3_linear)"/>
<path d="M17.5615 28.5688H24.704V21.4258H17.5615V28.5688Z" fill="url(#paint4_linear)"/>
<path d="M24.7031 28.5693H31.845V21.4263H24.7031V28.5693Z" fill="url(#paint5_linear)"/>
<path d="M31.8438 28.5688H38.986V21.4258H31.8438V28.5688Z" fill="url(#paint6_linear)"/>
<path d="M31.8438 21.4292H38.986V14.2861H31.8438V21.4292Z" fill="url(#paint7_linear)"/>
<path d="M31.8438 14.2842H38.9858V7.14258H31.8438V14.2842Z" fill="url(#paint8_linear)"/>
<path d="M3.27734 21.4292H10.4194V14.2861H3.27734V21.4292Z" fill="url(#paint9_linear)"/>
<path d="M3.27734 14.2842H10.4196V7.14258H3.27734V14.2842Z" fill="url(#paint10_linear)"/>
<path d="M17.5615 14.2842H24.7039V7.14258H17.5615V14.2842Z" fill="url(#paint11_linear)"/>
<defs>
<linearGradient id="paint0_linear" x1="10.419" y1="28.5683" x2="17.5623" y2="35.7106" gradientUnits="userSpaceOnUse">
<stop stop-color="#A11A6C"/>
<stop offset="1" stop-color="#79337A"/>
</linearGradient>
<linearGradient id="paint1_linear" x1="17.5616" y1="28.5678" x2="24.7049" y2="35.7102" gradientUnits="userSpaceOnUse">
<stop stop-color="#7A3375"/>
<stop offset="1" stop-color="#553274"/>
</linearGradient>
<linearGradient id="paint2_linear" x1="24.7027" y1="28.5683" x2="31.846" y2="35.7105" gradientUnits="userSpaceOnUse">
<stop stop-color="#A11A6C"/>
<stop offset="1" stop-color="#79337A"/>
</linearGradient>
<linearGradient id="paint3_linear" x1="3.27642" y1="21.4258" x2="10.4199" y2="28.568" gradientUnits="userSpaceOnUse">
<stop stop-color="#DB2A52"/>
<stop offset="1" stop-color="#C71E68"/>
</linearGradient>
<linearGradient id="paint4_linear" x1="17.5616" y1="21.4258" x2="24.705" y2="28.5681" gradientUnits="userSpaceOnUse">
<stop stop-color="#F36627"/>
<stop offset="1" stop-color="#F14E37"/>
</linearGradient>
<linearGradient id="paint5_linear" x1="24.7027" y1="21.4263" x2="31.8462" y2="28.5685" gradientUnits="userSpaceOnUse">
<stop stop-color="#DB2A52"/>
<stop offset="1" stop-color="#C71E68"/>
</linearGradient>
<linearGradient id="paint6_linear" x1="31.8437" y1="21.4258" x2="38.9871" y2="28.568" gradientUnits="userSpaceOnUse">
<stop stop-color="#DC3B2E"/>
<stop offset="1" stop-color="#D23136"/>
</linearGradient>
<linearGradient id="paint7_linear" x1="31.8436" y1="14.2861" x2="38.9866" y2="21.4286" gradientUnits="userSpaceOnUse">
<stop stop-color="#DB2A52"/>
<stop offset="1" stop-color="#C71E68"/>
</linearGradient>
<linearGradient id="paint8_linear" x1="31.8437" y1="7.14238" x2="38.9857" y2="14.2845" gradientUnits="userSpaceOnUse">
<stop stop-color="#F7912C"/>
<stop offset="1" stop-color="#F68631"/>
</linearGradient>
<linearGradient id="paint9_linear" x1="3.27727" y1="14.286" x2="10.4203" y2="21.4285" gradientUnits="userSpaceOnUse">
<stop stop-color="#F36627"/>
<stop offset="1" stop-color="#F14E37"/>
</linearGradient>
<linearGradient id="paint10_linear" x1="3.2774" y1="7.14235" x2="10.4195" y2="14.2846" gradientUnits="userSpaceOnUse">
<stop stop-color="#F7912C"/>
<stop offset="1" stop-color="#F68631"/>
</linearGradient>
<linearGradient id="paint11_linear" x1="17.5616" y1="7.14235" x2="24.7036" y2="14.2846" gradientUnits="userSpaceOnUse">
<stop stop-color="#DB2A52"/>
<stop offset="1" stop-color="#C71E68"/>
</linearGradient>
</defs>
</svg>
