<svg width="124" height="124" viewBox="0 0 124 124" fill="none" xmlns="http://www.w3.org/2000/svg">
<path d="M15.1227 46.8998C15.3359 46.0556 16.2105 45.7799 17.0108 45.8205C17.0835 45.6648 17.1089 45.5024 17.0903 45.3552L15.3849 44.9695C15.297 44.9576 15.1565 44.9661 15.0855 45.2368C15.0161 45.4956 14.7556 45.6344 14.1093 45.4618L9.8274 44.3198C8.9409 44.0847 8.97812 43.77 9.105 43.1677C9.06948 43.0425 8.83432 42.9799 8.74127 43.0713C8.63638 43.5061 8.43505 44.308 8.32001 44.7394C8.20328 45.1708 7.98673 45.9457 7.85984 46.3754C7.89537 46.5006 8.13053 46.5632 8.22358 46.4718C8.41475 45.8864 8.53656 45.5955 9.42306 45.8323L13.7067 46.9743C14.4494 47.1722 14.4477 47.4953 14.3225 48.0976L14.023 49.2193C13.8319 49.8046 13.6779 50.0872 12.9301 49.8875L8.64653 48.7473C7.76003 48.5104 7.79894 48.1957 7.92413 47.5935C7.8886 47.47 7.65344 47.4074 7.5604 47.497C7.4572 47.9318 7.25418 48.7337 7.13914 49.1651C7.0241 49.5982 6.80586 50.3714 6.68066 50.8011C6.71619 50.9263 6.95135 50.9889 7.0444 50.8975C7.23388 50.3122 7.35738 50.0212 8.24388 50.258L12.5275 51.4C13.414 51.6368 13.3751 51.9498 13.2499 52.5521C13.2837 52.6773 13.5189 52.7399 13.6119 52.6485C13.7168 52.2137 13.9131 51.4338 14.0281 51.0024C14.2108 50.3156 14.4629 49.4544 14.6456 48.7726C14.8233 48.1061 15.1227 46.8998 15.1227 46.8998ZM14.0417 38.9941L13.639 39.8061L11.7679 38.879C11.5293 38.7606 11.3669 38.4679 11.4854 38.2277L11.9066 37.3767C12.2788 36.6256 12.7593 36.6019 13.551 36.7203C13.6306 36.6036 13.7134 36.387 13.7151 36.2652C13.2837 36.1146 12.3093 35.6934 12.2196 35.6731C12.1993 35.6646 12.1858 35.6697 12.1705 35.6985C12.1147 35.8846 12.0859 35.9691 11.9658 36.2094L10.5041 39.1633C10.5041 39.1633 9.97797 40.1986 9.72082 40.6943C9.74958 40.784 9.96782 40.8923 10.0575 40.8618C10.4348 40.1749 10.5684 40.0294 11.3906 40.4372L15.3528 42.3997C16.175 42.8057 16.1293 42.9969 15.813 43.7125C15.8417 43.8022 16.06 43.9087 16.1496 43.8783C16.3713 43.3775 16.8873 42.3117 16.8873 42.3117L18.0529 39.9601C18.3016 39.4847 18.7668 38.5931 18.7668 38.5931C18.3405 38.2074 17.7128 37.8335 17.2476 37.5036C17.1359 37.578 17.0074 37.7811 16.9735 37.9282C17.5792 38.4781 17.9091 39.2022 17.5335 39.9635L17.0327 40.9752C16.9228 41.1951 16.6216 41.2831 16.3543 41.1511L14.0941 40.0311L14.4968 39.2208C14.8385 38.5288 15.1193 38.4324 15.5778 38.6219C15.6675 38.5914 15.8214 38.2801 15.791 38.1905C15.4425 38.0298 15.2513 37.9485 14.9129 37.7811C14.5813 37.617 14.3631 37.4968 14.0721 37.3395C13.9824 37.37 13.8285 37.6796 13.8589 37.7692C14.3885 38.0687 14.3732 38.3241 14.0417 38.9941ZM18.1341 28.9279L19.5518 29.9108L17.5775 32.7564L16.1615 31.7735C15.4069 31.2524 15.549 30.9699 15.8722 30.4454C15.8806 30.3152 15.681 30.1764 15.5626 30.2306C15.3173 30.6045 14.8673 31.2727 14.6135 31.6398C14.358 32.007 13.8792 32.6803 13.6153 33.0407C13.6052 33.1709 13.8048 33.3096 13.9232 33.2555C14.3005 32.7683 14.5154 32.5365 15.2699 33.0593L18.9123 35.5851C19.6669 36.1079 19.5248 36.3904 19.2016 36.9132C19.1932 37.0434 19.3928 37.1822 19.5112 37.128C19.7565 36.7541 20.2184 36.069 20.4722 35.7018C20.7276 35.3347 21.1946 34.6783 21.4585 34.318C21.4669 34.1877 21.2673 34.0507 21.1489 34.1048C20.7716 34.5903 20.5584 34.8221 19.8039 34.2993L18.014 33.0593L19.9866 30.212L21.7765 31.4537C22.5311 31.9765 22.389 32.2574 22.0658 32.7818C22.0574 32.9121 22.257 33.0508 22.3754 32.9967C22.6207 32.6228 23.0826 31.9359 23.3364 31.5688C23.5918 31.2017 24.0588 30.5469 24.3227 30.1866C24.3311 30.0563 24.1315 29.9176 24.0131 29.9717C23.6358 30.459 23.4227 30.6908 22.6681 30.168L19.0257 27.6421C18.2711 27.1194 18.4133 26.8368 18.7364 26.3141C18.7448 26.1838 18.5452 26.0451 18.4268 26.0992C18.1815 26.4731 17.7315 27.1397 17.4777 27.5068C17.2222 27.8756 16.7435 28.5489 16.4795 28.9093C16.4694 29.0396 16.669 29.1766 16.7874 29.1225C17.1647 28.6369 17.3796 28.4051 18.1341 28.9279ZM27.285 25.4327L24.3514 22.4246C23.8574 21.9188 23.6527 21.5483 23.9403 21.2675L24.1163 21.0966C24.7169 20.5112 25.2447 20.381 25.9756 20.858C26.0635 20.7718 26.2073 20.6161 26.2496 20.5146C25.8385 20.205 25.397 19.8328 25.0417 19.4843C25.0332 19.4759 25.0028 19.4759 24.9943 19.4826C24.7456 19.7719 23.8964 20.677 23.2636 21.2945L22.1369 22.3942C21.5211 22.9948 20.5381 23.8745 20.2116 24.1486C20.1947 24.1638 20.1947 24.1943 20.2015 24.2027C20.5178 24.5901 20.8461 25.0875 21.1286 25.5528C21.2402 25.5071 21.384 25.3819 21.4788 25.2889C21.022 24.4988 21.1573 23.9811 21.6852 23.4668L22.076 23.0844C22.3721 22.7968 22.7392 23.0117 23.2095 23.4939L26.1651 26.5239C26.8046 27.182 26.7081 27.3545 26.0906 28.0008C26.0889 28.0955 26.2598 28.2698 26.3528 28.2698C26.7369 27.8807 27.1429 27.4696 27.6572 26.9671C28.1851 26.4545 28.6182 26.0468 29.0259 25.6661C29.0276 25.5714 28.8567 25.3971 28.762 25.3971C28.0988 25.996 27.9245 26.0891 27.285 25.4327ZM29.5419 16.0432C29.1815 16.3071 27.104 17.916 26.7436 18.1782C26.6929 18.2984 26.835 18.4946 26.9653 18.4828C27.4813 18.1478 27.7604 17.9989 28.3001 18.7399L30.9105 22.3214C31.4519 23.0641 31.2252 23.2841 30.7481 23.6715C30.6957 23.7916 30.8395 23.9879 30.9697 23.976C31.3233 23.7036 31.9848 23.2079 32.3469 22.944C32.7072 22.6818 33.3636 22.2166 33.7324 21.9628C33.7832 21.8427 33.6394 21.6464 33.5108 21.6583C32.9948 21.9932 32.7157 22.1421 32.1743 21.4011L29.5571 17.8094C29.1155 17.2021 29.0411 16.9686 29.5199 16.6201C30.0443 16.2378 30.8039 16.0111 31.5991 17.1023C32.2758 18.0311 32.3012 18.6147 31.5602 19.1544C31.4248 19.2525 31.2286 19.3828 31.0899 19.4555C31.2134 19.6264 31.3589 19.711 31.5433 19.6992C31.6837 19.6264 31.6617 19.6535 31.8782 19.4962C32.6751 18.9159 33.1335 18.3762 33.2824 17.8179C33.4634 17.1243 33.1978 16.4306 32.851 15.9552C32.5905 15.5966 32.0626 15.1584 31.2641 15.2396C30.7887 15.287 30.2186 15.5492 29.5419 16.0432ZM38.1023 15.6186C37.879 15.7235 37.7944 15.7268 37.786 15.6067L37.6303 12.9472L37.6997 12.9151L39.6402 14.8979L38.1023 15.6186ZM37.967 18.1732L37.8503 16.5304C37.8401 16.3765 37.8824 16.3088 38.1243 16.1938L40.0479 15.2937L41.3777 16.659C41.7126 17.0041 41.2829 17.1513 40.8177 17.4119C40.7838 17.4998 40.887 17.7198 40.9767 17.7519C41.3455 17.5658 42.3031 17.1056 42.6973 16.9212C43.1117 16.7267 43.6836 16.4712 44.0625 16.3054C44.0947 16.2175 43.9915 15.9975 43.9018 15.9654C43.4941 16.1143 43.1608 16.2767 42.7396 15.852L37.9721 11.1032C37.8621 11.2639 37.4206 11.8983 37.0636 12.0658L37.2717 18.2172C37.2987 18.9615 37.0145 19.1561 36.5882 19.393C36.556 19.4809 36.6592 19.7009 36.7472 19.733C37.1177 19.5469 37.2954 19.4522 37.6895 19.2678C38.104 19.0732 38.6657 18.8228 39.0447 18.657C39.0768 18.569 38.9736 18.3474 38.884 18.317C38.4915 18.4692 37.9958 18.6587 37.967 18.1732ZM46.2805 8.64499L47.1145 8.39291C47.4461 8.2931 47.7506 8.25926 47.974 9.00027L49.2513 13.245C49.5152 14.123 49.2293 14.2567 48.6507 14.4648C48.5627 14.5595 48.6321 14.793 48.759 14.8251C49.1836 14.6847 49.972 14.436 50.4 14.3074C50.828 14.1788 51.6012 13.9572 52.0326 13.8405C52.1206 13.7441 52.0495 13.5106 51.9243 13.4801C51.3254 13.6256 51.0141 13.673 50.7485 12.795L49.4729 8.55025C49.2073 7.67052 49.4949 7.53856 50.0735 7.33047C50.1615 7.23403 50.0921 7.00057 49.9652 6.97011C49.5406 7.10884 48.7742 7.35246 48.3462 7.48103L46.7829 7.94966C45.3178 8.39122 44.4297 8.65852 43.9492 8.76849L43.9458 8.79217C43.9424 8.86323 43.9475 8.91906 43.9644 8.9715C43.983 9.03579 44.0202 9.08147 44.0608 9.13899C44.7376 8.98166 44.9067 8.96474 45.2925 10.2454C45.5919 11.2402 45.7932 11.988 45.9573 12.6089C46.3092 13.9335 46.404 14.5984 45.9438 14.7371C45.8254 14.7727 45.7002 14.7405 45.5581 14.6559C45.4261 14.568 45.2045 14.5307 45.0015 14.5933C44.6479 14.6982 44.4872 15.0129 44.5887 15.3513C44.7409 15.8605 45.2959 15.9586 45.6376 15.8554C46.2906 15.6592 46.9081 14.9199 46.9927 14.2702C47.0858 13.6087 46.9927 13.1858 46.7237 12.1352C46.541 11.4517 46.3566 10.7563 46.0724 9.81571C45.8474 9.06286 45.8203 8.78202 46.2805 8.64499ZM55.269 9.67529L56.059 9.60085C57.2044 9.49258 57.7018 10.1219 57.7914 11.0693C57.854 11.7291 57.7779 12.7019 56.3094 12.8406C55.6429 12.9032 55.56 12.7459 55.5295 12.4261L55.269 9.67529ZM55.0727 7.59438C54.9865 6.68251 55.2944 6.60807 55.9017 6.51671C56.0066 6.44058 55.9846 6.19866 55.8662 6.14283C55.4229 6.19696 54.6227 6.28324 54.1778 6.32554C53.7328 6.36783 52.9089 6.43381 52.464 6.46427C52.3591 6.54209 52.3811 6.78402 52.4995 6.83985C53.1136 6.81447 53.43 6.82969 53.5163 7.74157L53.9325 12.1555C54.0187 13.069 53.7125 13.1418 53.1035 13.2331C52.9986 13.3093 53.0206 13.5512 53.139 13.607C53.139 13.607 54.4045 13.4649 54.8494 13.4226C55.2944 13.3803 56.0083 13.3363 56.6766 13.272C58.7304 13.0775 59.534 12.0472 59.4274 10.9255C59.336 9.95613 58.8877 9.18636 57.6392 9.09501C57.0301 9.05102 56.4262 9.09839 55.8493 9.15422L55.225 9.21343L55.0727 7.59438ZM67.0845 7.33892L66.988 9.05948L63.53 8.86661L63.6264 7.14606C63.6772 6.22911 63.9919 6.20204 64.6077 6.20373C64.7227 6.14452 64.7363 5.9009 64.628 5.82815C64.1814 5.81462 63.3777 5.78078 62.9311 5.75541C62.4845 5.73172 61.6606 5.6742 61.2139 5.63867C61.0989 5.69788 61.0854 5.9415 61.1936 6.01256C61.8061 6.08023 62.1157 6.14283 62.0632 7.05809L61.8162 11.4838C61.7655 12.3991 61.4508 12.4261 60.835 12.4261C60.7199 12.4854 60.7064 12.7273 60.8147 12.8C61.2613 12.8153 62.0869 12.8491 62.5335 12.8745C62.9802 12.8998 63.7821 12.9557 64.2287 12.9912C64.3438 12.9303 64.3573 12.6884 64.249 12.6156C63.6383 12.548 63.327 12.4871 63.3794 11.5718L63.4996 9.39615L66.9576 9.58901L66.8375 11.7647C66.785 12.6799 66.4703 12.707 65.8562 12.7053C65.7395 12.7662 65.726 13.0081 65.8342 13.0809C66.2809 13.0944 67.1065 13.1299 67.5531 13.1553C67.9997 13.179 68.8016 13.2348 69.2483 13.272C69.3633 13.2111 69.3768 12.9692 69.2686 12.8965C68.6578 12.8288 68.3465 12.7679 68.399 11.8509L68.646 7.42521C68.6967 6.50995 69.0114 6.48288 69.6272 6.48457C69.7423 6.42366 69.7558 6.18174 69.6475 6.10899C69.2009 6.09546 68.3973 6.06162 67.9507 6.03624C67.504 6.01087 66.6801 5.95335 66.2335 5.91782C66.1185 5.97872 66.1049 6.22065 66.2132 6.2934C66.8256 6.36107 67.1352 6.42197 67.0845 7.33892ZM79.218 9.67022L78.0997 13.9589C77.868 14.8454 77.5533 14.8099 76.951 14.6864C76.8258 14.7236 76.7649 14.9588 76.8563 15.0501C77.2911 15.1533 78.0947 15.3513 78.5261 15.4629C78.9592 15.5763 79.734 15.7894 80.1637 15.9129C80.2889 15.8774 80.3498 15.6422 80.2585 15.5509C79.6731 15.3631 79.3804 15.2413 79.6122 14.3531L80.7322 10.0644C80.9639 9.17621 81.2769 9.21343 81.8809 9.33524C82.0061 9.29971 82.067 9.06455 81.9756 8.9732C81.5408 8.87 80.7592 8.67713 80.3261 8.56547C79.8947 8.45212 79.0962 8.23219 78.6665 8.10869C78.543 8.14591 78.4804 8.38107 78.5717 8.47243C79.1588 8.66022 79.4498 8.78202 79.218 9.67022ZM73.7146 10.4045L74.4827 10.6041C75.5959 10.8951 75.848 11.6581 75.6077 12.5767C75.4402 13.2196 75.0359 14.1078 73.608 13.7339C72.9601 13.5647 72.9364 13.3888 73.0176 13.0775L73.7146 10.4045ZM74.2424 8.38276C74.4742 7.49457 74.7889 7.53179 75.3912 7.6536C75.5164 7.61807 75.5773 7.38291 75.4859 7.28986C75.0511 7.18835 74.2695 6.99549 73.8381 6.88214C73.405 6.77048 72.6082 6.55055 72.1785 6.42705C72.0533 6.46258 71.9924 6.69773 72.0837 6.79078C72.6691 6.97857 72.9618 7.10038 72.73 7.98688L71.61 12.2773C71.3782 13.1638 71.0653 13.1282 70.4613 13.0047C70.3378 13.0403 70.2752 13.2754 70.3665 13.3685C70.3665 13.3685 71.6049 13.6679 72.038 13.7813C72.4694 13.8946 73.1563 14.0959 73.8043 14.2651C75.8006 14.7862 76.9087 14.0926 77.1946 13.003C77.4399 12.0607 77.2809 11.1844 76.1389 10.6718C75.584 10.4214 75.0004 10.259 74.4387 10.1135L73.833 9.95444L74.2424 8.38276ZM84.6301 11.7359L82.6963 15.7235C82.2971 16.549 81.9959 16.4526 81.4275 16.2141C81.2989 16.2259 81.1923 16.4442 81.2634 16.5524C81.6711 16.7368 82.4206 17.0887 82.8215 17.2833C83.2242 17.4778 83.9432 17.8399 84.3408 18.0446C84.4693 18.0328 84.5759 17.8145 84.5049 17.7062C84.0565 17.4592 83.7994 17.2951 83.955 16.7724L88.8934 14.3633L87.1796 17.8974C86.7803 18.723 86.4792 18.6266 85.9124 18.388C85.7822 18.3999 85.6756 18.6181 85.7483 18.7264C86.1544 18.9108 86.9038 19.2627 87.3065 19.4572C87.7074 19.6518 88.4264 20.0121 88.824 20.2185C88.9543 20.2067 89.0592 19.9885 88.9881 19.8802C88.4501 19.5824 88.1879 19.4048 88.5872 18.5792L90.5209 14.5916C90.9218 13.766 91.223 13.8625 91.7897 14.101C91.92 14.0892 92.0249 13.8709 91.9538 13.7627C91.5461 13.5783 90.8186 13.2365 90.416 13.042C90.0133 12.8474 89.274 12.4769 88.8782 12.2705C88.7479 12.2823 88.6413 12.5006 88.7141 12.6089C89.1776 12.8643 89.4364 13.0318 89.2453 13.6003L84.2934 16.0144L86.0376 12.4177C86.4386 11.5921 86.738 11.6885 87.3065 11.9271C87.4351 11.9169 87.5416 11.697 87.4706 11.5887C87.0629 11.4043 86.3337 11.0626 85.9327 10.868C85.5301 10.6734 84.7908 10.3029 84.3932 10.0965C84.2646 10.1084 84.1581 10.3266 84.2291 10.4349C84.7688 10.7344 85.031 10.9103 84.6301 11.7359ZM90.0675 11.2267C90.1775 10.9983 90.0252 10.8003 89.7731 10.6785C89.5735 10.5821 89.3045 10.599 89.208 10.7969C89.1759 10.8612 89.1658 10.934 89.1353 10.9966C89.0406 11.1928 88.9103 11.2064 88.528 11.0203C88.1355 10.8308 88.0678 10.7394 88.171 10.528C88.1879 10.4924 88.2691 10.3774 88.2877 10.3385C88.3791 10.1507 88.2657 9.94767 88.0339 9.83601C87.7937 9.71928 87.5095 9.74127 87.4029 9.95951C87.0899 10.6058 87.6313 11.1015 88.3148 11.4331C88.9881 11.7596 89.7494 11.8831 90.0675 11.2267ZM96.926 26.1957C96.5132 25.8184 96.5267 25.6204 97.0783 25.0165L98.5755 23.3754L99.3588 24.0911C100.279 24.9302 99.5923 25.7406 99.1676 26.2058C98.7058 26.7133 98.1339 27.2987 96.926 26.1957ZM101.468 21.9459C102.335 22.7359 102.223 23.4719 101.851 24.2112C101.935 24.3178 102.123 24.4582 102.243 24.4937C102.621 24.0555 103.04 23.4956 103.355 23.01C103.355 23.01 102.59 22.3401 102.35 22.1218L100.345 20.2913C100.022 19.9986 99.0881 19.1155 99.0881 19.1155C98.9612 19.0901 98.7971 19.2695 98.8361 19.3946C99.2675 19.8328 99.4688 20.0764 98.8496 20.7532L95.8619 24.0285C95.2444 24.7069 94.9838 24.5275 94.5068 24.1384C94.3799 24.1114 94.2158 24.2924 94.253 24.4159C94.253 24.4159 95.2088 25.2584 95.5387 25.5595C95.8703 25.8607 96.0192 26.0265 96.6959 26.644L97.3388 27.2006C98.3336 28.06 99.7276 28.0786 100.518 27.2141C101.084 26.5932 101.815 25.6746 99.7936 23.8305L98.902 23.0168L100.014 21.8004C100.46 21.3098 100.717 21.2607 100.89 21.418L101.468 21.9459ZM104.13 30.1832C103.984 29.987 103.964 29.9041 104.079 29.8702L106.652 29.1851L106.7 29.2477L105.145 31.5451L104.13 30.1832ZM101.6 30.5622L103.187 30.1206C103.336 30.0783 103.411 30.1054 103.571 30.3219L104.839 32.0239L103.768 33.6023C103.497 33.9982 103.267 33.6074 102.918 33.2031C102.825 33.1878 102.631 33.3333 102.617 33.4264C102.874 33.7529 103.516 34.5971 103.776 34.9456C104.05 35.3144 104.416 35.822 104.652 36.1603C104.745 36.1739 104.942 36.0284 104.954 35.9353C104.727 35.5648 104.5 35.2704 104.833 34.773L108.528 29.1512C108.349 29.0751 107.638 28.7689 107.403 28.4542L101.418 29.8905C100.695 30.0682 100.447 29.8262 100.13 29.4574C100.037 29.4422 99.841 29.5877 99.8291 29.6824C100.085 30.0073 100.213 30.1612 100.474 30.5114C100.748 30.8785 101.105 31.3776 101.343 31.716C101.436 31.7295 101.631 31.584 101.644 31.491C101.416 31.1374 101.13 30.6891 101.6 30.5622ZM113.023 39.8856L111.469 40.63L109.973 37.507L111.53 36.7626C112.357 36.3667 112.531 36.6289 112.827 37.1686C112.934 37.2414 113.154 37.1365 113.166 37.0062C112.963 36.6086 112.606 35.8879 112.413 35.4853C112.22 35.081 111.873 34.3315 111.69 33.9238C111.582 33.851 111.362 33.9559 111.35 34.0862C111.585 34.6546 111.682 34.9558 110.853 35.3516L106.855 37.2651C106.028 37.6609 105.854 37.3987 105.558 36.8573C105.449 36.7863 105.231 36.8912 105.219 37.0198C105.422 37.419 105.789 38.16 105.982 38.5627C106.175 38.9653 106.512 39.6962 106.694 40.1039C106.803 40.1766 107.023 40.0717 107.034 39.9415C106.798 39.373 106.703 39.0719 107.53 38.676L109.494 37.7354L110.99 40.8601L109.026 41.7991C108.198 42.1966 108.024 41.9327 107.728 41.393C107.62 41.3203 107.402 41.4252 107.39 41.5554C107.593 41.953 107.96 42.694 108.153 43.0967C108.346 43.501 108.682 44.2302 108.865 44.6396C108.973 44.7106 109.193 44.6058 109.205 44.4772C108.968 43.9087 108.873 43.6076 109.701 43.21L113.7 41.2966C114.527 40.9007 114.702 41.1646 114.998 41.7043C115.104 41.7754 115.324 41.6705 115.336 41.5419C115.133 41.1427 114.776 40.4219 114.583 40.0193C114.39 39.6167 114.044 38.8655 113.861 38.4578C113.753 38.385 113.533 38.4916 113.521 38.6202C113.756 39.1886 113.852 39.4898 113.023 39.8856ZM111.186 53.1121C111.267 53.1611 111.503 53.1019 111.55 53.0207C111.482 52.5944 111.653 52.1359 112.003 51.6961C112.513 51.0498 113.299 50.4069 113.729 49.7776C113.962 49.4324 114.123 49.1347 114.096 48.8945L114.15 48.8809C114.402 49.1482 114.791 49.1905 115.213 49.2497C115.608 49.3039 116.116 49.3817 116.399 49.5204C116.693 49.6659 116.747 49.8588 116.786 50.011C116.81 50.1091 116.815 50.2834 116.745 50.39C116.662 50.5152 116.676 50.6607 116.71 50.791C116.762 50.9973 117.26 51.1581 117.656 51.0582C117.903 50.9957 118.092 50.5321 117.96 50.0127C117.801 49.3851 117.151 49.023 116.542 48.8505C116.168 48.7439 115.507 48.688 115.077 48.595C114.208 48.4055 113.969 48.1907 113.727 47.2585L115.559 46.7949C116.449 46.5699 116.569 46.8626 116.752 47.4497C116.843 47.541 117.08 47.4818 117.116 47.3566C116.996 46.9269 116.788 46.1504 116.678 45.7156C116.568 45.2825 116.375 44.4789 116.277 44.0424C116.185 43.951 115.949 44.0102 115.913 44.1354C116.031 44.7394 116.065 45.0541 115.175 45.2791L110.88 46.3669C109.99 46.5936 109.87 46.3009 109.687 45.7122C109.596 45.6208 109.359 45.68 109.322 45.8052C109.444 46.2349 109.657 47.0352 109.767 47.4683C109.877 47.9014 110.063 48.683 110.163 49.1195C110.254 49.2108 110.489 49.1516 110.526 49.0264C110.408 48.4224 110.374 48.1095 111.264 47.8844L113.277 47.3735C113.384 47.9606 112.636 48.7151 112.052 49.2396C111.066 50.1227 110.69 50.5761 110.736 51.29C110.75 51.5117 110.822 51.9025 110.877 52.119C110.932 52.3356 111.096 52.8938 111.186 53.1121Z" fill="#2B2A29"/>
<path fill-rule="evenodd" clip-rule="evenodd" d="M88.8039 6.89909C119.236 21.7023 131.904 58.3719 117.103 88.8039C102.299 119.236 65.628 131.904 35.1977 117.103C4.76574 102.299 -7.9041 65.628 6.89909 35.1977C21.7023 4.76574 58.3719 -7.9041 88.8039 6.89909V6.89909Z" stroke="#A1A1A0" stroke-miterlimit="22.9256"/>
<path fill-rule="evenodd" clip-rule="evenodd" d="M81.6353 21.6347C103.928 32.479 113.209 59.343 102.365 81.6358C91.5205 103.929 64.6582 113.21 42.3654 102.365C20.0709 91.5209 10.7898 64.6586 21.6342 42.3659C32.4786 20.0714 59.3426 10.7903 81.6353 21.6347V21.6347Z" stroke="#ABACAC" stroke-miterlimit="22.9256"/>
<path fill-rule="evenodd" clip-rule="evenodd" d="M76.3617 50.1361V58.2059H83.4944H90.4651H90.4841C92.7124 58.2059 94.5182 56.4001 94.5182 54.1718C94.5182 51.9435 92.7124 50.1361 90.4841 50.1361H83.4944H76.3617ZM76.3617 62.24V74.3454H90.4651V74.3438L90.4841 74.3454C93.8258 74.3454 96.5353 71.6359 96.5353 68.2927C96.5353 64.9511 93.8273 62.2416 90.4873 62.24H90.4841H90.4794H90.4651H82.4128H76.3617ZM90.4841 46.1021C94.9407 46.1021 98.5523 49.7153 98.5523 54.1718C98.5523 56.4287 97.6248 58.4695 96.1303 59.9339C98.8096 61.7476 100.571 64.8145 100.571 68.2927C100.571 73.8642 96.054 78.3795 90.4841 78.3795H90.4651H76.3617H72.3276V74.3454V56.3445L55.8132 74.0532L51.7792 78.3795V72.4634V56.3445L31.2307 78.3795H25.7148L55.8132 46.1021V52.0182V68.137L72.5992 50.1361H67.0833L70.8458 46.1021H76.3617H90.4841Z" fill="url(#paint0_radial)"/>
<path fill-rule="evenodd" clip-rule="evenodd" d="M71.2408 47.0137L69.1809 49.2245H74.6968L54.9012 70.4526V48.4177L27.8125 77.4678H30.8349L52.6904 54.0288V76.0638L73.2388 54.0288V77.4678H90.4901C95.5644 77.5059 99.6573 73.3464 99.6573 68.2927C99.6573 65.2369 98.1485 62.402 95.6184 60.6898L94.6957 60.0641L95.4914 59.2827C96.87 57.9311 97.6402 56.1015 97.6402 54.1718C97.6402 50.2187 94.4368 47.0137 90.4821 47.0137H71.2408ZM90.4885 61.3283C94.332 61.3315 97.4481 64.4492 97.4481 68.2927C97.4481 72.1362 94.3304 75.2713 90.479 75.257H75.4496V61.3283H90.452H90.4805H90.4885ZM75.4496 49.2245H90.4821C93.2155 49.2245 95.4294 51.44 95.4294 54.1718C95.4294 56.9035 93.2155 59.1175 90.4821 59.1175H75.4496V49.2245Z" fill="url(#paint1_radial)"/>
<path d="M13.3112 73.3965C13.2317 73.0564 12.7106 71.077 12.6328 70.737C12.5617 70.6643 12.3756 70.7082 12.3435 70.8047C12.4264 71.2767 12.4484 71.522 11.7429 71.6861L8.34068 72.4745C7.6369 72.6369 7.54893 72.4085 7.41527 71.9466C7.34422 71.8739 7.15812 71.9179 7.12598 72.0143C7.21395 72.351 7.3679 72.9769 7.44573 73.317C7.52524 73.6553 7.6572 74.2678 7.72826 74.6095C7.79762 74.6823 7.98541 74.64 8.01586 74.5435C7.93296 74.0698 7.91266 73.8245 8.61645 73.6621L12.0271 72.872C12.604 72.7384 12.7969 72.7553 12.9001 73.2053C13.0134 73.6976 12.9424 74.3134 11.907 74.5537C11.0256 74.7584 10.5942 74.5977 10.4334 73.9023C10.403 73.7755 10.3708 73.5944 10.3607 73.4726C10.2 73.5098 10.0917 73.5877 10.0426 73.7247C10.0545 73.8465 10.0392 73.8245 10.0866 74.0275C10.2609 74.7753 10.5079 75.2693 10.8682 75.5451C11.3132 75.8851 11.8968 75.9054 12.3485 75.8005C12.6886 75.7227 13.1708 75.4757 13.3585 74.8785C13.4719 74.5215 13.4584 74.0326 13.3112 73.3965ZM12.6818 80.1163L12.4551 79.448L14.0133 78.9185C14.2112 78.8508 14.465 78.9219 14.531 79.1198L14.7695 79.8202C14.981 80.4377 14.7255 80.7186 14.218 81.0925C14.24 81.2007 14.3144 81.3648 14.3804 81.4325C14.7035 81.2769 15.4817 80.9673 15.5427 80.9284C15.5579 80.9233 15.5646 80.9114 15.5562 80.8861C15.4834 80.7541 15.453 80.6915 15.3853 80.4936L14.558 78.0608C14.558 78.0608 14.2755 77.2013 14.1435 76.7852C14.0776 76.753 13.8965 76.8156 13.8627 76.8816C14.0353 77.467 14.042 77.6209 13.3569 77.8544L10.0579 78.9743C9.37437 79.2061 9.29316 79.0775 9.07323 78.5091C9.00556 78.477 8.82454 78.5379 8.79239 78.6038C8.94635 79.0031 9.25087 79.8744 9.25087 79.8744L9.90898 81.8115C10.0359 82.2107 10.271 82.9585 10.271 82.9585C10.7227 82.9331 11.281 82.7893 11.7243 82.7132C11.7446 82.61 11.7023 82.4273 11.6397 82.3275C10.9968 82.363 10.4097 82.1481 10.1966 81.5205L9.91405 80.6881C9.85315 80.5071 9.97157 80.2922 10.1932 80.2161L12.0745 79.5766L12.3029 80.2449C12.4957 80.8133 12.3942 81.0231 12.0322 81.1737C12 81.2396 12.0863 81.4951 12.1523 81.5273C12.4365 81.4224 12.5888 81.3615 12.8696 81.265C13.1454 81.172 13.3349 81.1178 13.5852 81.0417C13.6174 80.9757 13.5311 80.7186 13.4634 80.6864C13.0016 80.8167 12.8696 80.6678 12.6818 80.1163ZM12.6666 88.0559C13.0523 88.807 13.7629 89.3129 14.7238 89.4854C14.7729 89.411 14.7983 89.2317 14.7543 89.1454C13.8678 88.9069 13.3433 88.3824 13.0659 87.841C12.604 86.9427 13.2909 85.6874 14.4988 85.0665C15.7034 84.4473 17.0094 84.5589 17.4831 85.481C18.033 86.5502 17.6066 87.2083 17.045 87.7531C17.0619 87.8613 17.1634 88.0017 17.2547 88.066C17.6371 87.8207 17.9771 87.567 18.3679 87.2777C18.2038 86.8632 18.3341 86.3556 17.8435 85.4032C17.0636 83.8856 15.4547 83.0955 13.7493 83.9736C13.0219 84.3475 12.3299 85.1037 12.203 85.953C12.1015 86.6331 12.2809 87.3047 12.6666 88.0559ZM19.1005 89.9287L16.2583 91.9588C15.6695 92.3784 15.5004 92.2008 15.2009 91.8252C15.1079 91.7846 14.9522 91.8962 14.959 91.9978C15.1688 92.2752 15.5511 92.7963 15.7524 93.0788C15.9554 93.363 16.3124 93.8773 16.5087 94.1666C16.6017 94.2072 16.7574 94.0956 16.7489 93.9941C16.4917 93.5897 16.3784 93.3698 16.9671 92.9502L19.8094 90.9218C20.3017 90.5699 20.4962 90.7306 20.7957 91.1045L21.3218 91.8421C21.579 92.2465 21.672 92.4799 21.1763 92.8352L18.3341 94.8637C17.7454 95.2849 17.5745 95.1056 17.275 94.7317C17.182 94.6911 17.0264 94.8027 17.0348 94.9043C17.2446 95.1817 17.6252 95.7011 17.8283 95.9853C18.0313 96.2678 18.3882 96.7838 18.5828 97.0714C18.6759 97.1121 18.8315 97.0021 18.8247 96.9006C18.5676 96.4945 18.4542 96.2763 19.0413 95.8567L21.8835 93.8266C22.4722 93.407 22.6431 93.5847 22.9426 93.9602C23.0356 94.0008 23.1912 93.8892 23.1828 93.7877C22.973 93.5085 22.6025 93.0044 22.3995 92.7202C22.078 92.2701 21.6856 91.6915 21.3658 91.2432C21.0528 90.805 20.64 90.2552 20.3254 89.8153C20.1223 89.5311 19.7552 89.0016 19.559 88.7123C19.4659 88.6734 19.3103 88.7834 19.3187 88.8849C19.5759 89.2909 19.6892 89.5091 19.1005 89.9287ZM26.5545 98.682C27.0756 98.4638 27.3125 98.6313 27.5967 98.8901C27.6711 98.8918 27.8098 98.7582 27.8098 98.6854C27.6474 98.5264 27.4664 98.3504 27.2313 98.1051C26.9843 97.848 26.6594 97.4961 26.4429 97.2575C26.3701 97.2559 26.2314 97.3878 26.2297 97.4623C26.4395 97.7194 26.6747 98.0392 26.3498 98.1779L23.9932 99.1811C23.9339 99.2048 23.9086 99.1726 23.9238 99.1337L24.9355 96.6011C25.0455 96.3304 25.3195 96.5487 25.6274 96.8329C25.7019 96.8346 25.8389 96.7009 25.8406 96.6282C25.6122 96.4015 25.0032 95.7772 24.768 95.5319C24.521 95.2748 24.1911 94.9161 23.9746 94.6776C23.9001 94.6759 23.7614 94.8078 23.7597 94.8823C23.9695 95.1513 24.1302 95.3695 23.9695 95.7806L22.4096 99.7428C21.875 99.9661 21.7312 99.8274 21.5502 99.6379C21.4605 99.5448 21.4504 99.3841 21.4724 99.2674C21.4944 99.1388 21.4538 98.9713 21.3032 98.814C21.1103 98.6127 20.838 98.6922 20.662 98.8614C20.4607 99.0542 20.5114 99.5736 20.8718 99.9509C21.4149 100.516 22.3166 100.443 23.2589 100.052L26.5545 98.682ZM27.3717 105.184C27.0282 104.916 27.0299 104.759 27.4258 104.253L28.5052 102.874L29.1565 103.385C29.9212 103.982 29.4289 104.661 29.1244 105.052C28.7911 105.476 28.3766 105.97 27.3717 105.184ZM30.6842 101.573C31.4049 102.137 31.3575 102.719 31.1088 103.321C31.1799 103.399 31.3355 103.497 31.4303 103.517C31.6993 103.152 31.997 102.687 32.217 102.286C32.217 102.286 31.5825 101.81 31.3829 101.655L29.7165 100.35C29.4492 100.142 28.671 99.511 28.671 99.511C28.5712 99.4975 28.4527 99.648 28.4883 99.7428C28.8503 100.059 29.0212 100.237 28.5745 100.807L26.4226 103.556C25.9776 104.126 25.7628 104.003 25.3703 103.729C25.2688 103.715 25.152 103.867 25.1876 103.962C25.1876 103.962 25.981 104.559 26.2551 104.774C26.5292 104.989 26.656 105.111 27.2177 105.551L27.7506 105.945C28.5745 106.554 29.6641 106.479 30.2325 105.754C30.6402 105.233 31.1613 104.468 29.4813 103.152L28.7403 102.573L29.5406 101.551C29.862 101.14 30.0599 101.084 30.2037 101.198L30.6842 101.573ZM35.8205 105.243L36.4092 105.579C36.6444 105.715 36.8271 105.869 36.5243 106.398L34.7885 109.428C34.4298 110.056 34.1998 109.965 33.7717 109.75C33.6702 109.751 33.5755 109.917 33.6245 110.007C33.9308 110.173 34.4941 110.484 34.797 110.658C35.0998 110.831 35.6395 111.151 35.9372 111.332C36.0387 111.328 36.1335 111.162 36.0844 111.074C35.6818 110.814 35.4872 110.662 35.8459 110.034L37.5816 107.004C37.9403 106.376 38.1704 106.468 38.5984 106.683C38.6999 106.681 38.7947 106.515 38.7456 106.425C38.4394 106.261 37.8912 105.957 37.5884 105.782L36.4854 105.151C35.45 104.559 34.8223 104.199 34.5026 103.986L34.4874 103.998C34.4451 104.033 34.4163 104.067 34.3943 104.104C34.3689 104.15 34.3622 104.197 34.352 104.251C34.802 104.549 34.9035 104.637 34.3791 105.551C33.9731 106.261 33.655 106.782 33.3877 107.212C32.8209 108.132 32.4944 108.547 32.1696 108.361C32.085 108.312 32.0359 108.224 32.0072 108.097C31.9869 107.975 31.8905 107.83 31.7466 107.747C31.498 107.605 31.2323 107.682 31.0936 107.924C30.8855 108.288 31.1258 108.657 31.3677 108.794C31.8295 109.059 32.5807 109.007 32.9952 108.703C33.4232 108.396 33.6144 108.114 34.0695 107.391C34.3605 106.916 34.6565 106.434 35.0423 105.76C35.3502 105.224 35.4957 105.057 35.8205 105.243ZM40.1261 108.442L38.8488 111.692C38.5849 112.365 38.3446 112.308 37.8896 112.157C37.7897 112.174 37.7204 112.353 37.7813 112.433C38.1095 112.553 38.7118 112.78 39.0366 112.907C39.3597 113.035 39.9417 113.272 40.2614 113.407C40.363 113.39 40.4323 113.213 40.3697 113.132C40.0077 112.966 39.7979 112.854 39.8893 112.435L43.596 110.232L42.4642 113.111C42.2002 113.785 41.96 113.729 41.5049 113.577C41.4051 113.593 41.3357 113.773 41.3966 113.852C41.7248 113.972 42.3271 114.199 42.652 114.328C42.9768 114.455 43.5571 114.691 43.8768 114.827C43.9783 114.81 44.0477 114.632 43.9851 114.551C43.5503 114.351 43.3354 114.231 43.5994 113.558L44.8767 110.306C45.1406 109.635 45.3791 109.691 45.8359 109.841C45.9357 109.824 46.0051 109.647 45.9442 109.565C45.616 109.447 45.0289 109.225 44.7041 109.098C44.381 108.972 43.7838 108.728 43.4623 108.593C43.3625 108.609 43.2931 108.787 43.354 108.868C43.7313 109.039 43.9428 109.153 43.8261 109.611L40.1092 111.819L41.2613 108.887C41.5252 108.215 41.7638 108.271 42.2205 108.422C42.3204 108.405 42.3897 108.227 42.3288 108.146C42.0006 108.027 41.4136 107.806 41.0887 107.679C40.7656 107.552 40.1684 107.308 39.847 107.173C39.7471 107.188 39.6778 107.368 39.7387 107.447C40.1752 107.647 40.39 107.769 40.1261 108.442ZM51.6151 116.894C51.6777 116.855 51.72 116.669 51.6811 116.605C51.3613 116.502 51.1042 116.217 50.9248 115.813C50.6592 115.226 50.4951 114.443 50.2126 113.917C50.0569 113.629 49.9081 113.411 49.7321 113.343L49.7423 113.301C50.0163 113.22 50.1855 112.962 50.3767 112.687C50.5577 112.43 50.7929 112.1 50.9891 111.952C51.1955 111.799 51.3495 111.829 51.4679 111.856C51.544 111.875 51.6675 111.934 51.7166 112.02C51.7724 112.123 51.879 112.166 51.9805 112.189C52.1429 112.227 52.4322 111.936 52.505 111.621C52.5489 111.426 52.2969 111.127 51.8891 111.032C51.3968 110.92 50.9147 111.247 50.5763 111.611C50.3682 111.836 50.0942 112.279 49.8742 112.548C49.4327 113.089 49.1992 113.181 48.4666 113.017L48.7999 111.565C48.9623 110.861 49.2077 110.882 49.6797 110.963C49.7761 110.932 49.8201 110.745 49.7473 110.675C49.4056 110.604 48.7915 110.472 48.4531 110.394C48.1131 110.316 47.4871 110.164 47.1487 110.078C47.0523 110.108 47.01 110.296 47.0828 110.366C47.5446 110.499 47.7747 110.587 47.6123 111.291L46.829 114.695C46.6683 115.4 46.423 115.378 45.9493 115.297C45.8528 115.329 45.8105 115.515 45.8833 115.586C46.225 115.656 46.8544 115.791 47.1944 115.869C47.5345 115.947 48.1435 116.096 48.4802 116.184C48.5766 116.151 48.6206 115.965 48.5462 115.894C48.086 115.761 47.8559 115.673 48.0183 114.969L48.3854 113.374C48.8304 113.509 49.0858 114.304 49.2398 114.901C49.5003 115.908 49.6797 116.333 50.1906 116.558C50.3479 116.627 50.6457 116.717 50.8149 116.755C50.9857 116.794 51.4307 116.879 51.6151 116.894ZM54.5233 112.886L54.2593 116.368C54.2052 117.089 53.9599 117.106 53.4794 117.096C53.3898 117.141 53.3745 117.332 53.4574 117.39C53.806 117.408 54.4488 117.449 54.7973 117.474C55.1442 117.502 55.7684 117.557 56.1152 117.591C56.2066 117.547 56.2201 117.356 56.1372 117.297C55.7431 117.244 55.5096 117.2 55.4724 116.772L58.367 113.577L58.1336 116.662C58.0794 117.383 57.8324 117.398 57.3536 117.388C57.2623 117.434 57.2487 117.625 57.3316 117.684C57.6785 117.701 58.323 117.742 58.6699 117.767C59.0167 117.794 59.6409 117.85 59.9878 117.886C60.0791 117.84 60.0927 117.649 60.0114 117.59C59.5344 117.529 59.2941 117.474 59.3483 116.754L59.6122 113.272C59.668 112.551 59.9133 112.534 60.3921 112.545C60.4835 112.499 60.4987 112.308 60.4158 112.249C60.0673 112.232 59.4413 112.193 59.0945 112.167C58.746 112.14 58.1048 112.083 57.758 112.049C57.6666 112.093 57.6531 112.284 57.736 112.343C58.1454 112.396 58.3806 112.443 58.4042 112.915L55.5011 116.119L55.7397 112.978C55.7938 112.257 56.0408 112.242 56.5196 112.252C56.6109 112.206 56.6245 112.015 56.5416 111.956C56.1948 111.939 55.5688 111.9 55.2203 111.873C54.8735 111.848 54.2306 111.79 53.8855 111.755C53.7941 111.8 53.7789 111.991 53.8618 112.051C54.3372 112.111 54.5791 112.166 54.5233 112.886ZM70.3872 112.572C70.5226 112.022 70.7966 111.93 71.1739 111.856C71.2196 111.798 71.1959 111.609 71.1367 111.563C70.9117 111.601 70.6647 111.641 70.3263 111.683C69.9727 111.727 69.4973 111.78 69.1759 111.81C69.1302 111.87 69.1539 112.059 69.2131 112.105C69.5447 112.089 69.9423 112.091 69.8611 112.436L69.2622 114.925C69.2469 114.988 69.2063 114.988 69.1844 114.952L67.7514 112.633C67.5991 112.384 67.9375 112.292 68.3486 112.215C68.3943 112.155 68.3706 111.966 68.3114 111.92C67.9933 111.969 67.1305 112.088 66.7938 112.13C66.4386 112.174 65.9547 112.228 65.6333 112.259C65.5876 112.318 65.6113 112.507 65.6705 112.553C66.0122 112.545 66.2812 112.546 66.5164 112.92L68.7716 116.532C68.6328 117.094 68.4349 117.128 68.176 117.161C68.0458 117.177 67.9121 117.089 67.8309 117.002C67.7413 116.908 67.5822 116.84 67.3657 116.869C67.0899 116.903 66.9918 117.17 67.0222 117.412C67.0578 117.689 67.5044 117.957 68.0221 117.891C68.8003 117.793 69.2791 117.024 69.5261 116.033L70.3872 112.572ZM74.6268 110.689C73.8385 110.87 73.3648 111.147 72.9148 111.323C72.9672 111.829 73.0146 112.184 73.1178 112.634C73.2277 112.69 73.4409 112.641 73.5509 112.58C73.5762 111.985 73.7843 111.257 74.505 111.091C74.9889 110.98 75.3611 111.279 75.493 111.848C75.5996 112.314 75.6724 112.905 74.6895 113.176L74.2953 113.284C74.2005 113.306 74.1802 113.409 74.2022 113.502C74.2242 113.604 74.2851 113.671 74.3782 113.649L75.087 113.504C76.0852 113.301 76.3593 114.142 76.4591 114.575C76.6655 115.473 76.2053 115.92 75.6098 116.057C75.1564 116.16 74.7994 116.099 74.4543 115.536C74.3071 115.284 74.0449 115.228 73.8063 115.282C73.6118 115.328 73.5086 115.539 73.5593 115.759C73.6118 115.989 73.7996 116.187 74.0703 116.312C74.3799 116.454 74.9787 116.576 75.6673 116.419C76.838 116.15 77.9766 115.351 77.7008 114.145C77.4961 113.255 76.6384 113.103 76.0057 113.071L75.9972 113.035C76.4269 112.768 76.8245 112.238 76.6536 111.499C76.4675 110.685 75.6368 110.455 74.6268 110.689ZM82.4091 113.856C82.0031 114.015 81.8694 113.935 81.6343 113.336L80.9948 111.707L81.7645 111.404C82.6679 111.049 83.0029 111.817 83.1839 112.279C83.3802 112.781 83.5967 113.389 82.4091 113.856ZM80.9795 109.168C81.8305 108.834 82.3093 109.169 82.7001 109.691C82.8033 109.669 82.9674 109.586 83.0334 109.513C82.854 109.095 82.6054 108.603 82.3719 108.21C82.3719 108.21 81.641 108.515 81.4059 108.608L79.4349 109.381C79.1186 109.506 78.1813 109.855 78.1813 109.855C78.1187 109.936 78.1881 110.113 78.2896 110.13C78.7447 109.98 78.9832 109.924 79.2488 110.596L80.5244 113.847C80.7884 114.521 80.5752 114.641 80.1387 114.84C80.0761 114.922 80.1472 115.099 80.247 115.116C80.247 115.116 81.1639 114.737 81.4888 114.61C81.8136 114.483 81.9811 114.434 82.646 114.174L83.255 113.917C84.199 113.516 84.6896 112.54 84.3513 111.68C84.1094 111.064 83.7152 110.227 81.729 111.007L80.8543 111.35L80.3806 110.142C80.1895 109.657 80.2419 109.457 80.4128 109.391L80.9795 109.168ZM87.8296 108.285L87.2003 108.604L86.4525 107.138C86.3577 106.952 86.3916 106.691 86.5777 106.596L87.2358 106.26C87.8178 105.964 88.1307 106.175 88.5757 106.623C88.6789 106.586 88.8311 106.49 88.8887 106.414C88.6873 106.116 88.2695 105.39 88.2221 105.336C88.2136 105.321 88.2018 105.317 88.1798 105.329C88.0597 105.419 88.0005 105.459 87.8144 105.554L85.5271 106.721C85.5271 106.721 84.715 107.126 84.3242 107.315C84.3005 107.386 84.3885 107.555 84.4579 107.579C85.0128 107.325 85.165 107.297 85.4932 107.941L87.0768 111.044C87.405 111.689 87.2882 111.787 86.757 112.086C86.735 112.157 86.8213 112.328 86.8924 112.35C87.2645 112.14 88.0817 111.714 88.0817 111.714L89.9054 110.783C90.2827 110.601 90.9882 110.261 90.9882 110.261C90.8985 109.817 90.6769 109.286 90.5365 108.858C90.4316 108.853 90.2573 108.921 90.1677 108.997C90.2945 109.63 90.166 110.24 89.5772 110.542L88.7922 110.941C88.6231 111.027 88.393 110.941 88.2864 110.731L87.383 108.961L88.0106 108.642C88.5469 108.368 88.7686 108.439 88.9699 108.775C89.0392 108.797 89.2795 108.675 89.3032 108.604C89.1577 108.339 89.0748 108.197 88.9394 107.933C88.8075 107.672 88.7263 107.495 88.6146 107.258C88.5452 107.234 88.305 107.358 88.2813 107.427C88.4759 107.867 88.349 108.019 87.8296 108.285ZM97.8315 105.527C97.845 105.453 97.7334 105.297 97.6606 105.285C97.3696 105.454 96.9873 105.456 96.566 105.321C95.9502 105.128 95.2583 104.728 94.6763 104.59C94.3582 104.514 94.096 104.478 93.9285 104.566L93.9031 104.531C94.0266 104.272 93.9471 103.974 93.8693 103.647C93.7966 103.341 93.7069 102.947 93.7289 102.702C93.7509 102.446 93.8761 102.352 93.9759 102.28C94.0402 102.236 94.1654 102.184 94.2635 102.206C94.3785 102.231 94.4801 102.181 94.5646 102.12C94.7 102.023 94.6763 101.614 94.4902 101.35C94.3752 101.188 93.9827 101.176 93.6426 101.418C93.2298 101.71 93.152 102.287 93.1994 102.783C93.2281 103.087 93.377 103.588 93.4311 103.93C93.5411 104.62 93.4531 104.855 92.8424 105.292L91.9813 104.077C91.5634 103.487 91.7427 103.318 92.1183 103.02C92.1606 102.927 92.0489 102.771 91.9474 102.778C91.6683 102.986 91.1624 103.356 90.8782 103.558C90.594 103.759 90.0628 104.125 89.7735 104.319C89.7329 104.41 89.8428 104.568 89.9444 104.559C90.3504 104.304 90.5686 104.192 90.9865 104.781L93.0048 107.632C93.4227 108.222 93.245 108.391 92.8678 108.689C92.8272 108.782 92.9388 108.938 93.0403 108.931C93.3195 108.723 93.8406 108.342 94.1248 108.141C94.409 107.94 94.925 107.584 95.2143 107.39C95.2549 107.298 95.1449 107.141 95.0434 107.149C94.6374 107.405 94.4174 107.517 93.9996 106.928L93.0539 105.591C93.4531 105.349 94.2144 105.688 94.7643 105.97C95.688 106.447 96.1245 106.596 96.632 106.364C96.7893 106.292 97.0533 106.131 97.1954 106.029C97.3375 105.93 97.6978 105.654 97.8315 105.527ZM96.6354 100.463L99.0394 102.996C99.5368 103.521 99.3846 103.713 99.0547 104.062C99.0276 104.16 99.1596 104.299 99.2594 104.277C99.5064 104.031 99.9665 103.581 100.22 103.341C100.472 103.101 100.933 102.676 101.191 102.443C101.218 102.345 101.087 102.206 100.988 102.228C100.684 102.485 100.494 102.629 100.153 102.368L99.7263 98.0781L101.856 100.321C102.354 100.846 102.201 101.039 101.871 101.389C101.844 101.485 101.976 101.626 102.076 101.604C102.323 101.357 102.783 100.907 103.037 100.667C103.289 100.426 103.749 100.002 104.008 99.7682C104.035 99.67 103.903 99.5313 103.805 99.5533C103.44 99.8646 103.238 100.007 102.741 99.4823L100.335 96.9496C99.838 96.4252 99.9919 96.2323 100.32 95.8838C100.347 95.7857 100.215 95.647 100.117 95.6689C99.8701 95.9159 99.4218 96.3541 99.168 96.5927C98.9159 96.8329 98.4422 97.2711 98.1834 97.5045C98.1563 97.6027 98.2883 97.7414 98.3881 97.7194C98.7028 97.4504 98.8956 97.3066 99.2611 97.6061L99.6874 101.908L97.5185 99.6244C97.0211 99.0999 97.1751 98.907 97.5033 98.5585C97.5304 98.4604 97.3984 98.3217 97.3003 98.3437C97.0533 98.5907 96.6049 99.0272 96.3512 99.2674C96.0991 99.5076 95.6254 99.9458 95.3666 100.179C95.3395 100.276 95.4714 100.416 95.5713 100.392C95.9367 100.083 96.138 99.939 96.6354 100.463ZM107.378 95.6368C107.903 94.9736 108.069 94.1159 107.827 93.1719C107.737 93.1566 107.564 93.2091 107.505 93.2835C107.654 94.1903 107.395 94.884 107.018 95.3627C106.392 96.1562 104.966 96.0513 103.9 95.2088C102.836 94.3713 102.396 93.1363 103.039 92.3226C103.783 91.3786 104.558 91.4919 105.287 91.7778C105.379 91.7169 105.465 91.5664 105.485 91.4564C105.103 91.2111 104.731 91.0064 104.306 90.7712C103.996 91.0926 103.48 91.1857 102.817 92.0265C101.76 93.3664 101.709 95.1563 103.215 96.344C103.858 96.8515 104.832 97.1679 105.659 96.931C106.319 96.7415 106.856 96.3 107.378 95.6368ZM110.637 88.5059L107.771 86.8513C107.289 86.5739 107.053 86.337 107.209 86.0646L107.306 85.8988C107.632 85.3338 108.003 85.1257 108.659 85.3321C108.706 85.2492 108.781 85.102 108.791 85.0174C108.412 84.8702 107.999 84.6808 107.656 84.493C107.647 84.4879 107.624 84.4947 107.62 84.5014C107.493 84.7721 107.048 85.6299 106.705 86.2254L106.091 87.2895C105.754 87.8698 105.204 88.7377 105.015 89.0117C105.006 89.027 105.013 89.0507 105.02 89.0557C105.343 89.2807 105.698 89.587 106.013 89.8796C106.086 89.8221 106.169 89.6969 106.221 89.6073C105.703 89.1082 105.695 88.6903 105.981 88.1912L106.196 87.8224C106.356 87.5433 106.678 87.6295 107.138 87.8952L110.028 89.5633C110.654 89.9236 110.616 90.0742 110.292 90.69C110.31 90.7611 110.476 90.8575 110.547 90.8389C110.753 90.465 110.972 90.0708 111.251 89.5853C111.538 89.0896 111.777 88.692 112.002 88.3198C111.983 88.2487 111.818 88.1523 111.746 88.1709C111.374 88.7614 111.263 88.8679 110.637 88.5059ZM111.79 83.0414C111.719 83.219 111.672 83.2664 111.603 83.2038L110.073 81.7709L110.095 81.7134L112.278 81.8115L111.79 83.0414ZM113.095 84.5708L112.141 83.6961C112.051 83.6132 112.037 83.5523 112.115 83.3578L112.724 81.8182L114.223 81.8876C114.601 81.9062 114.435 82.2192 114.31 82.6151C114.338 82.6827 114.518 82.7538 114.585 82.725C114.695 82.4222 114.991 81.6491 115.117 81.3327C115.249 81.0011 115.436 80.5511 115.563 80.255C115.533 80.1874 115.355 80.1163 115.287 80.1451C115.135 80.4496 115.032 80.7186 114.562 80.7017L109.27 80.5359C109.295 80.6864 109.385 81.2836 109.273 81.5695L112.723 84.9667C113.142 85.3761 113.085 85.6383 112.97 86.0004C112.998 86.068 113.178 86.1391 113.245 86.1086C113.355 85.8058 113.404 85.6569 113.53 85.3422C113.662 85.009 113.846 84.5674 113.973 84.2713C113.944 84.2037 113.765 84.1326 113.697 84.1614C113.557 84.4591 113.376 84.8313 113.095 84.5708ZM112.844 72.8636L114.167 73.1715L113.558 75.8005L112.235 75.4943C111.532 75.3319 111.552 75.0866 111.635 74.6129C111.604 74.5165 111.417 74.4725 111.346 74.5469C111.276 74.8887 111.143 75.5011 111.065 75.8394C110.985 76.1795 110.831 76.8055 110.745 77.1421C110.775 77.2386 110.963 77.2825 111.033 77.2098C111.166 76.7479 111.256 76.5195 111.96 76.682L115.362 77.4703C116.066 77.6344 116.045 77.8797 115.962 78.3518C115.993 78.4482 116.181 78.4922 116.252 78.4177C116.321 78.0777 116.458 77.4467 116.538 77.1083C116.615 76.7682 116.766 76.1592 116.852 75.8225C116.822 75.7261 116.634 75.6821 116.565 75.7549C116.431 76.2167 116.341 76.4451 115.638 76.2827L113.966 75.8953L114.575 73.2645L116.247 73.652C116.95 73.8161 116.93 74.0614 116.847 74.5334C116.878 74.6298 117.065 74.6738 117.135 74.6011C117.206 74.2593 117.343 73.63 117.421 73.2899C117.5 72.9516 117.651 72.3425 117.737 72.0042C117.707 71.9077 117.519 71.8654 117.45 71.9382C117.316 72.3983 117.226 72.6284 116.522 72.4643L113.12 71.6759C112.416 71.5135 112.437 71.2682 112.52 70.7962C112.488 70.6981 112.301 70.6558 112.23 70.7285C112.161 71.0703 112.027 71.6827 111.95 72.0228C111.87 72.3611 111.716 72.9871 111.63 73.3254C111.66 73.4219 111.848 73.4642 111.917 73.3914C112.051 72.9313 112.141 72.7012 112.844 72.8636Z" fill="#2B2A29"/>
<path fill-rule="evenodd" clip-rule="evenodd" d="M112.051 58.9317H113.847L115.118 57.6611L116.388 58.9317H118.185V60.73L119.456 62.0006L118.185 63.2711V65.0678H116.388L115.118 66.3383L113.847 65.0678H112.051V63.2711L110.778 62.0006L112.051 60.73V58.9317Z" stroke="#1F1B20" stroke-miterlimit="22.9256"/>
<path fill-rule="evenodd" clip-rule="evenodd" d="M6.44925 58.9317H8.24593L9.51647 57.6611L10.787 58.9317H12.5854V60.73L13.8559 62.0006L12.5854 63.2711V65.0678H10.787L9.51647 66.3383L8.24593 65.0678H6.44925V63.2711L5.17871 62.0006L6.44925 60.73V58.9317Z" stroke="#1F1B20" stroke-miterlimit="22.9256"/>
<defs>
<radialGradient id="paint0_radial" cx="0" cy="0" r="1" gradientUnits="userSpaceOnUse" gradientTransform="translate(102.07 53.9274) rotate(179.354) scale(174.877 116.949)">
<stop stop-color="#BC752B"/>
<stop offset="0.321569" stop-color="#F5CB4B"/>
<stop offset="0.431373" stop-color="#D18B24"/>
<stop offset="0.568627" stop-color="#E1A241"/>
<stop offset="0.729412" stop-color="#EBC965"/>
<stop offset="0.909804" stop-color="#F5D77E"/>
<stop offset="1" stop-color="#E8B40B"/>
</radialGradient>
<radialGradient id="paint1_radial" cx="0" cy="0" r="1" gradientUnits="userSpaceOnUse" gradientTransform="translate(89.5996 47.2774) rotate(148.952) scale(86.7975 80.1979)">
<stop stop-color="#E4A216"/>
<stop offset="0.501961" stop-color="#F1B82F"/>
<stop offset="1" stop-color="#EBC965"/>
</radialGradient>
</defs>
</svg>
