<svg width="50" height="50" viewBox="0 0 50 50" fill="none" xmlns="http://www.w3.org/2000/svg">
<circle cx="25" cy="25" r="25" fill="url(#paint0_linear)"/>
<path d="M20.4163 36.4582C19.6064 36.4582 19.744 36.1524 19.4647 35.3812L17.083 27.5427L35.4163 16.6665" fill="#C8DAEA"/>
<path d="M20.417 36.4585C21.042 36.4585 21.3181 36.1727 21.667 35.8335L25.0003 32.5923L20.8424 30.085" fill="#A9C9DD"/>
<path d="M20.8417 30.0855L30.9167 37.529C32.0663 38.1634 32.8961 37.8349 33.1825 36.4616L37.2835 17.136C37.7034 15.4526 36.6418 14.6891 35.542 15.1884L11.4607 24.4741C9.81698 25.1334 9.82656 26.0504 11.1611 26.4591L17.3409 28.3879L31.6478 19.3618C32.3232 18.9523 32.9431 19.1725 32.4343 19.624" fill="url(#paint1_linear)"/>
<defs>
<linearGradient id="paint0_linear" x1="37.5" y1="17.3611" x2="22.2222" y2="38.8889" gradientUnits="userSpaceOnUse">
<stop stop-color="#37AEE2"/>
<stop offset="1" stop-color="#1E96C8"/>
</linearGradient>
<linearGradient id="paint1_linear" x1="28.126" y1="24.9998" x2="32.0383" y2="33.9025" gradientUnits="userSpaceOnUse">
<stop stop-color="#EFF7FC"/>
<stop offset="1" stop-color="white"/>
</linearGradient>
</defs>
</svg>
