<svg width="96" height="96" viewBox="0 0 96 96" fill="none" xmlns="http://www.w3.org/2000/svg">
    <g clip-path="url(#clip0)">
        <path d="M95.5203 47.573C95.5203 58.1807 92.0486 67.9783 86.179 75.8892C83.9033 78.9551 81.2681 81.7397 78.334 84.1765C75.1165 86.8521 71.54 89.1108 67.6875 90.8679C66.8525 91.2502 66.0059 91.6077 65.146 91.9395C59.8118 94.0115 54.0139 95.1453 47.948 95.1453C41.8813 95.1453 36.082 94.0093 30.7478 91.9395C26.9553 90.4695 23.4001 88.5278 20.1533 86.1841C16.1653 83.3108 12.6409 79.8325 9.71484 75.887C3.84668 67.9768 0.375 58.1785 0.375 47.573C0.375 36.9668 3.84668 27.1692 9.71484 19.2583C14.0413 13.4275 19.6699 8.61914 26.1709 5.26611C32.6953 1.89917 40.0994 0 47.948 0C55.7959 0 63.2 1.89917 69.7244 5.26611C76.2253 8.61768 81.8525 13.4253 86.179 19.2561C92.0486 27.167 95.5203 36.9653 95.5203 47.573Z" fill="#F26065"/>
        <path d="M86.179 13.553V75.8887C84.4951 78.157 82.6157 80.2693 80.5635 82.2014C75.3655 87.1021 69.0645 90.8418 62.0698 93.0127C57.6079 94.3992 52.8662 95.1448 47.948 95.1448C43.0291 95.1448 38.2859 94.3992 33.8232 93.0127C32.7825 92.6904 31.7578 92.3315 30.7478 91.939C25.9204 90.0676 21.4761 87.4302 17.5613 84.1738C16.7981 83.541 16.0547 82.8826 15.3325 82.2029C13.2795 80.2715 11.3979 78.157 9.71484 75.8865V13.553C9.71484 8.97607 13.4253 5.26562 18 5.26562H77.8931C82.47 5.26562 86.179 8.97607 86.179 13.553Z" fill="#349CDD"/>
        <path d="M13.5981 29.5308V16.2446C13.5981 12.3262 16.7739 9.15039 20.6917 9.15039H75.2021C79.1199 9.15039 82.2957 12.3262 82.2957 16.2446V29.5308C82.2957 33.4485 79.1199 36.625 75.2014 36.625H20.6924C16.7739 36.625 13.5981 33.4485 13.5981 29.5308Z" fill="#0078AA"/>
        <path d="M78.4116 16.4551V29.3208C78.4116 31.2104 76.8816 32.7419 74.9927 32.7419H20.9033C19.0137 32.7419 17.4814 31.2104 17.4814 29.3208V16.4551C17.4814 14.5654 19.0137 13.0332 20.9033 13.0332H74.9927C76.8816 13.0332 78.4116 14.5654 78.4116 16.4551Z" fill="#94BBCC"/>
        <path d="M75.6936 16.4551V29.3208C75.6936 31.2104 74.1628 32.7419 72.2739 32.7419H20.9033C19.0137 32.7419 17.4814 31.2104 17.4814 29.3208V16.4551C17.4814 14.5654 19.0137 13.0332 20.9033 13.0332H72.2739C74.1628 13.0332 75.6936 14.5654 75.6936 16.4551Z" fill="#AFE4FF"/>
        <path d="M21.3113 57.4568C17.0581 57.4568 13.5981 53.9976 13.5981 49.7458V48.5234C13.5981 44.2717 17.0581 40.8125 21.3113 40.8125H27.7317C31.9841 40.8125 35.4434 44.2717 35.4434 48.5234V49.7458C35.4434 53.9976 31.9834 57.4568 27.7317 57.4568H21.3113Z" fill="#0078AA"/>
        <path d="M16.5742 49.7456V48.5239C16.5742 45.9092 18.6946 43.7881 21.3108 43.7881H27.7319C30.3467 43.7881 32.467 45.9092 32.467 48.5239V49.7456C32.467 52.3604 30.3467 54.4807 27.7319 54.4807H21.3108C18.6953 54.4807 16.5742 52.3604 16.5742 49.7456Z" fill="#FFB525"/>
        <path d="M20.0698 49.7456V48.5239C20.0698 45.9092 22.1895 43.7881 24.8057 43.7881H27.7317C30.3464 43.7881 32.4675 45.9092 32.4675 48.5239V49.7456C32.4675 52.3604 30.3464 54.4807 27.7317 54.4807H24.8057C22.1895 54.4807 20.0698 52.3604 20.0698 49.7456Z" fill="#FFE662"/>
        <path d="M44.7378 57.4568C40.4846 57.4568 37.0239 53.9976 37.0239 49.7458V48.5234C37.0239 44.2717 40.4839 40.8125 44.7378 40.8125H51.1582C55.4099 40.8125 58.8691 44.2717 58.8691 48.5234V49.7458C58.8691 53.9976 55.4099 57.4568 51.1582 57.4568H44.7378Z" fill="#0078AA"/>
        <path d="M40.0005 49.7456V48.5239C40.0005 45.9092 42.1208 43.7881 44.7378 43.7881H51.1582C53.7729 43.7881 55.8933 45.9092 55.8933 48.5239V49.7456C55.8933 52.3604 53.7729 54.4807 51.1582 54.4807H44.7378C42.1208 54.4807 40.0005 52.3604 40.0005 49.7456Z" fill="#FFB525"/>
        <path d="M43.4961 49.7456V48.5239C43.4961 45.9092 45.615 43.7881 48.2312 43.7881H51.158C53.7727 43.7881 55.8931 45.9092 55.8931 48.5239V49.7456C55.8931 52.3604 53.7727 54.4807 51.158 54.4807H48.2312C45.615 54.4807 43.4961 52.3604 43.4961 49.7456Z" fill="#FFE662"/>
        <path d="M68.1641 57.4568C63.9109 57.4568 60.4502 53.9976 60.4502 49.7458V48.5234C60.4502 44.2717 63.9109 40.8125 68.1641 40.8125H74.5845C78.8362 40.8125 82.2954 44.2717 82.2954 48.5234V49.7458C82.2954 53.9976 78.8362 57.4568 74.5845 57.4568H68.1641Z" fill="#0078AA"/>
        <path d="M63.4268 49.7456V48.5239C63.4268 45.9092 65.5471 43.7881 68.1633 43.7881H74.5845C77.1992 43.7881 79.3196 45.9092 79.3196 48.5239V49.7456C79.3196 52.3604 77.1992 54.4807 74.5845 54.4807H68.1633C65.5471 54.4807 63.4268 52.3604 63.4268 49.7456Z" fill="#FFB525"/>
        <path d="M66.9229 49.7456V48.5239C66.9229 45.9092 69.0417 43.7881 71.6587 43.7881H74.5847C77.1995 43.7881 79.3198 45.9092 79.3198 48.5239V49.7456C79.3198 52.3604 77.1995 54.4807 74.5847 54.4807H71.6587C69.0417 54.4807 66.9229 52.3604 66.9229 49.7456Z" fill="#FFE662"/>
        <path d="M21.3113 76.729C17.0581 76.729 13.5981 73.2698 13.5981 69.0173V67.7957C13.5981 63.5432 17.0581 60.084 21.3113 60.084H27.7317C31.9841 60.084 35.4434 63.5432 35.4434 67.7957V69.0173C35.4434 73.2698 31.9834 76.729 27.7317 76.729H21.3113Z" fill="#0078AA"/>
        <path d="M16.5742 69.0171V67.7954C16.5742 65.1807 18.6946 63.0596 21.3108 63.0596H27.7319C30.3467 63.0596 32.467 65.1807 32.467 67.7954V69.0171C32.467 71.6318 30.3467 73.7529 27.7319 73.7529H21.3108C18.6953 73.7529 16.5742 71.6318 16.5742 69.0171Z" fill="#FFB525"/>
        <path d="M20.0698 69.0171V67.7954C20.0698 65.1807 22.1895 63.0596 24.8057 63.0596H27.7317C30.3464 63.0596 32.4675 65.1807 32.4675 67.7954V69.0171C32.4675 71.6318 30.3464 73.7529 27.7317 73.7529H24.8057C22.1895 73.7529 20.0698 71.6318 20.0698 69.0171Z" fill="#FFE662"/>
        <path d="M44.7378 76.729C40.4846 76.729 37.0239 73.2698 37.0239 69.0173V67.7957C37.0239 63.5432 40.4839 60.084 44.7378 60.084H51.1582C55.4099 60.084 58.8691 63.5432 58.8691 67.7957V69.0173C58.8691 73.2698 55.4099 76.729 51.1582 76.729H44.7378Z" fill="#0078AA"/>
        <path d="M40.0005 69.0171V67.7954C40.0005 65.1807 42.1208 63.0596 44.7378 63.0596H51.1582C53.7729 63.0596 55.8933 65.1807 55.8933 67.7954V69.0171C55.8933 71.6318 53.7729 73.7529 51.1582 73.7529H44.7378C42.1208 73.7529 40.0005 71.6318 40.0005 69.0171Z" fill="#FFB525"/>
        <path d="M43.4961 69.0171V67.7954C43.4961 65.1807 45.615 63.0596 48.2312 63.0596H51.158C53.7727 63.0596 55.8931 65.1807 55.8931 67.7954V69.0171C55.8931 71.6318 53.7727 73.7529 51.158 73.7529H48.2312C45.615 73.7529 43.4961 71.6318 43.4961 69.0171Z" fill="#FFE662"/>
        <path d="M68.1641 76.729C63.9109 76.729 60.4502 73.2698 60.4502 69.0173V67.7957C60.4502 63.5432 63.9109 60.084 68.1641 60.084H74.5845C78.8362 60.084 82.2954 63.5432 82.2954 67.7957V69.0173C82.2954 73.2698 78.8362 76.729 74.5845 76.729H68.1641Z" fill="#0078AA"/>
        <path d="M63.4268 69.0171V67.7954C63.4268 65.1807 65.5471 63.0596 68.1633 63.0596H74.5845C77.1992 63.0596 79.3196 65.1807 79.3196 67.7954V69.0171C79.3196 71.6318 77.1992 73.7529 74.5845 73.7529H68.1633C65.5471 73.7529 63.4268 71.6318 63.4268 69.0171Z" fill="#FFB525"/>
        <path d="M66.9229 69.0171V67.7954C66.9229 65.1807 69.0417 63.0596 71.6587 63.0596H74.5847C77.1995 63.0596 79.3198 65.1807 79.3198 67.7954V69.0171C79.3198 71.6318 77.1995 73.7529 74.5847 73.7529H71.6587C69.0417 73.7529 66.9229 71.6318 66.9229 69.0171Z" fill="#FFE662"/>
        <path d="M35.4426 87.0686V88.2896C35.4426 90.0686 34.8391 91.707 33.8232 93.0137C26.8315 90.8428 20.5305 87.103 15.3325 82.2039C16.7461 80.4666 18.9009 79.3555 21.3105 79.3555H27.7324C31.9849 79.3555 35.4426 82.8162 35.4426 87.0686Z" fill="#0078AA"/>
        <path d="M32.4685 87.0686V88.2896C32.4685 89.7573 31.7983 91.0706 30.748 91.9399C25.9207 90.0686 21.4763 87.4312 17.5615 84.1748C18.428 83.0549 19.7852 82.332 21.3108 82.332H27.7327C30.3459 82.332 32.4685 84.4524 32.4685 87.0686Z" fill="#FFB525"/>
        <path d="M32.4683 87.0686V88.2896C32.4683 89.7573 31.7981 91.0706 30.7478 91.9399C26.9553 90.47 23.4001 88.5283 20.1533 86.1846C20.5671 83.991 22.4912 82.332 24.8057 82.332H27.7324C30.3457 82.332 32.4683 84.4524 32.4683 87.0686Z" fill="#FFE662"/>
        <path d="M44.7378 95.9998C40.4846 95.9998 37.0239 92.5405 37.0239 88.2888V87.0664C37.0239 82.8147 40.4839 79.3555 44.7378 79.3555H51.1582C55.4099 79.3555 58.8691 82.8147 58.8691 87.0664V88.2888C58.8691 92.5405 55.4099 95.9998 51.1582 95.9998H44.7378Z" fill="#0078AA"/>
        <path d="M40.0005 88.2896V87.0671C40.0005 84.4524 42.1208 82.332 44.7378 82.332H51.1582C53.7729 82.332 55.8933 84.4524 55.8933 87.0671V88.2896C55.8933 90.9043 53.7729 93.0247 51.1582 93.0247H44.7378C42.1208 93.0247 40.0005 90.9043 40.0005 88.2896Z" fill="#FFB525"/>
        <path d="M43.4961 88.2896V87.0671C43.4961 84.4524 45.615 82.332 48.2312 82.332H51.158C53.7727 82.332 55.8931 84.4524 55.8931 87.0671V88.2896C55.8931 90.9043 53.7727 93.0247 51.158 93.0247H48.2312C45.615 93.0247 43.4961 90.9043 43.4961 88.2896Z" fill="#FFE662"/>
        <path d="M80.5632 82.2024C75.3652 87.103 69.0642 90.8428 62.0696 93.0137C61.0544 91.707 60.4502 90.0686 60.4502 88.2896V87.0686C60.4502 82.8162 63.9109 79.3555 68.1633 79.3555H74.5845C76.9941 79.3555 79.1475 80.4666 80.5632 82.2024Z" fill="#0078AA"/>
        <path d="M78.3337 84.177C75.1162 86.8525 71.5398 89.1113 67.6873 90.8684C66.8523 91.2507 66.0056 91.6082 65.1458 91.9399C64.0969 91.0706 63.4268 89.7573 63.4268 88.2896V87.0686C63.4268 84.4524 65.5471 82.332 68.1633 82.332H74.5845C76.1108 82.332 77.4695 83.0549 78.3337 84.177Z" fill="#FFB525"/>
        <path d="M78.3337 84.177C75.1162 86.8525 71.5398 89.1113 67.6873 90.8684C67.2017 90.1265 66.9219 89.241 66.9219 88.2896V87.0686C66.9219 84.4524 69.0422 82.332 71.6584 82.332H74.5845C76.1108 82.332 77.4695 83.0549 78.3337 84.177Z" fill="#FFE662"/>
        <path d="M58.8242 21.1699V18.4893C58.8242 16.6201 60.051 15.9404 61.6558 15.9404C63.2407 15.9404 64.4866 16.6201 64.4866 18.4893V21.1692C64.4866 23.0383 63.2407 23.718 61.6558 23.718C60.051 23.718 58.8242 23.0383 58.8242 21.1699ZM62.5991 18.4893C62.5991 17.866 62.241 17.5833 61.6558 17.5833C61.0706 17.5833 60.7307 17.866 60.7307 18.4893V21.1692C60.7307 21.7925 61.0706 22.0752 61.6558 22.0752C62.241 22.0752 62.5991 21.7925 62.5991 21.1692V18.4893ZM70.3386 16.1675C70.3386 16.2803 70.3196 16.4128 70.2632 16.5256L63.6187 30.1355C63.4861 30.4189 63.1279 30.6079 62.769 30.6079C62.1274 30.6079 61.7122 30.0791 61.7122 29.6074C61.7122 29.4939 61.7495 29.3621 61.8066 29.2485L68.4321 15.6387C68.583 15.3179 68.8848 15.167 69.2246 15.167C69.7534 15.167 70.3386 15.5632 70.3386 16.1675ZM67.488 27.2476V24.5676C67.488 22.6985 68.7148 22.0188 70.3196 22.0188C71.9053 22.0188 73.1511 22.6985 73.1511 24.5676V27.2476C73.1511 29.1167 71.9053 29.7964 70.3196 29.7964C68.7156 29.7964 67.488 29.1167 67.488 27.2476ZM71.2637 24.5676C71.2637 23.9443 70.9048 23.6616 70.3196 23.6616C69.7351 23.6616 69.3945 23.9443 69.3945 24.5676V27.2476C69.3945 27.8708 69.7344 28.1536 70.3196 28.1536C70.9048 28.1536 71.2637 27.8708 71.2637 27.2476V24.5676Z" fill="#2A4787"/>
        <path d="M40.7827 21.1699V18.4893C40.7827 16.6201 42.0103 15.9404 43.6143 15.9404C45.2 15.9404 46.4458 16.6201 46.4458 18.4893V21.1692C46.4458 23.0383 45.2 23.718 43.6143 23.718C42.0103 23.718 40.7827 23.0383 40.7827 21.1699ZM44.5583 18.4893C44.5583 17.866 44.1995 17.5833 43.615 17.5833C43.0298 17.5833 42.6899 17.866 42.6899 18.4893V21.1692C42.6899 21.7925 43.0298 22.0752 43.615 22.0752C44.2002 22.0752 44.5583 21.7925 44.5583 21.1692V18.4893ZM52.2979 16.1675C52.2979 16.2803 52.2788 16.4128 52.2224 16.5256L45.5779 30.1355C45.4453 30.4189 45.0872 30.6079 44.7283 30.6079C44.0867 30.6079 43.6714 30.0791 43.6714 29.6074C43.6714 29.4939 43.7087 29.3621 43.7659 29.2485L50.3914 15.6387C50.5422 15.3179 50.844 15.167 51.1838 15.167C51.7126 15.167 52.2979 15.5632 52.2979 16.1675ZM49.4473 27.2476V24.5676C49.4473 22.6985 50.6741 22.0188 52.2788 22.0188C53.8645 22.0188 55.1104 22.6985 55.1104 24.5676V27.2476C55.1104 29.1167 53.8645 29.7964 52.2788 29.7964C50.6748 29.7964 49.4473 29.1167 49.4473 27.2476ZM53.2229 24.5676C53.2229 23.9443 52.864 23.6616 52.2788 23.6616C51.6936 23.6616 51.3538 23.9443 51.3538 24.5676V27.2476C51.3538 27.8708 51.6936 28.1536 52.2788 28.1536C52.864 28.1536 53.2229 27.8708 53.2229 27.2476V24.5676Z" fill="#2A4787"/>
        <path d="M22.7417 21.1699V18.4893C22.7417 16.6201 23.9692 15.9404 25.5732 15.9404C27.1589 15.9404 28.4048 16.6201 28.4048 18.4893V21.1692C28.4048 23.0383 27.1589 23.718 25.5732 23.718C23.9692 23.718 22.7417 23.0383 22.7417 21.1699ZM26.5173 18.4893C26.5173 17.866 26.1584 17.5833 25.5732 17.5833C24.988 17.5833 24.6482 17.866 24.6482 18.4893V21.1692C24.6482 21.7925 24.988 22.0752 25.5732 22.0752C26.1584 22.0752 26.5173 21.7925 26.5173 21.1692V18.4893ZM34.2568 16.1675C34.2568 16.2803 34.2378 16.4128 34.1814 16.5256L27.5361 30.1355C27.4043 30.4189 27.0461 30.6079 26.6873 30.6079C26.0449 30.6079 25.6304 30.0791 25.6304 29.6074C25.6304 29.4939 25.6677 29.3621 25.7241 29.2485L32.3496 15.6387C32.5012 15.3179 32.803 15.167 33.1428 15.167C33.6716 15.167 34.2568 15.5632 34.2568 16.1675ZM31.4062 27.2476V24.5676C31.4062 22.6985 32.6331 22.0188 34.2378 22.0188C35.8235 22.0188 37.0693 22.6985 37.0693 24.5676V27.2476C37.0693 29.1167 35.8235 29.7964 34.2378 29.7964C32.6331 29.7964 31.4062 29.1167 31.4062 27.2476ZM35.1819 24.5676C35.1819 23.9443 34.823 23.6616 34.2378 23.6616C33.6526 23.6616 33.3127 23.9443 33.3127 24.5676V27.2476C33.3127 27.8708 33.6526 28.1536 34.2378 28.1536C34.823 28.1536 35.1819 27.8708 35.1819 27.2476V24.5676Z" fill="#2A4787"/>
    </g>
    <defs>
        <clipPath id="clip0">
            <rect width="96" height="96" fill="white"/>
        </clipPath>
    </defs>
</svg>
