<svg width="96" height="96" viewBox="0 0 96 96" fill="none" xmlns="http://www.w3.org/2000/svg">
    <g clip-path="url(#clip0)">
        <path d="M96 48C96 51.4167 95.6433 54.7493 94.9636 57.9624C94.9124 58.2092 94.8596 58.4561 94.8032 58.7014C94.0291 62.1006 92.8945 65.3621 91.4407 68.4441C91.0979 69.1729 90.7375 69.8899 90.3596 70.5974C90.0439 71.187 89.7166 71.7686 89.3782 72.3428C89.2039 72.6423 89.0237 72.9404 88.8391 73.2341C88.8215 73.2656 88.8018 73.2971 88.7827 73.3286C88.6157 73.5967 88.4473 73.8611 88.2751 74.1255C87.3933 75.4797 86.447 76.7886 85.4377 78.0425C84.6467 79.0276 83.8176 79.9797 82.9519 80.8967C81.8394 82.0803 80.6653 83.2068 79.437 84.2703C78.7412 84.8738 78.0264 85.4597 77.2954 86.0222C76.5117 86.6294 75.7068 87.2109 74.8843 87.7676C74.4353 88.073 73.9805 88.3689 73.5205 88.6589C73.0364 88.9644 72.5449 89.2625 72.0469 89.5503C71.2222 90.0286 70.3821 90.4827 69.5273 90.9119C69.1121 91.1199 68.6946 91.3235 68.2734 91.519C67.1257 92.0559 65.9517 92.5481 64.7571 92.9927C63.9397 93.2981 63.1113 93.5801 62.2727 93.8408C61.0269 94.229 59.759 94.5681 58.47 94.8538C57.6921 95.0266 56.9084 95.1812 56.1167 95.3145C55.2957 95.4551 54.4673 95.5752 53.6309 95.6711C53.4917 95.6865 53.3525 95.7041 53.2112 95.718C52.3689 95.8103 51.5186 95.8806 50.6624 95.9253C50.4844 95.937 50.3057 95.9451 50.1255 95.9531C49.552 95.9788 48.9734 95.9941 48.394 95.9978C48.2622 96 48.1311 96 48 96C44.2661 96 40.6318 95.573 37.1418 94.7659C36.3955 94.593 35.6572 94.4033 34.9263 94.1975C33.7354 93.8606 32.5613 93.4783 31.4114 93.0557C30.5713 92.7458 29.7422 92.4126 28.9255 92.0581C27.7266 91.541 26.5547 90.9727 25.4084 90.3596C24.564 89.9092 23.7356 89.4346 22.9226 88.9351C21.7156 88.1924 20.5422 87.3992 19.4077 86.5583C18.5552 85.9255 17.7268 85.2656 16.9211 84.5801C16.3572 84.1018 15.8064 83.6104 15.2659 83.105C15.1816 83.0281 15.0974 82.9497 15.0154 82.8699C14.7056 82.5776 14.4001 82.2795 14.0984 81.9778C13.8025 81.6841 13.5125 81.3867 13.2268 81.0864C11.7883 79.5762 10.448 77.9736 9.21387 76.2847C3.42041 68.3518 0 58.5754 0 48C0 21.49 21.49 0 48 0C74.51 0 96 21.49 96 48Z" fill="#274B7B"/>
        <path d="M94.8032 58.7012C94.0291 62.1003 92.8945 65.3618 91.4407 68.4438C91.0979 69.1726 90.7375 69.8896 90.3596 70.5972C90.0439 71.1868 89.7166 71.7683 89.3782 72.3425H56.1914C54.3186 72.3425 52.8003 70.8264 52.8003 68.9529V62.0901C52.8003 60.2195 54.3186 58.7012 56.1914 58.7012H94.8032Z" fill="#FCBC77"/>
        <path d="M94.9634 57.9626C94.9121 58.2095 94.8594 58.4563 94.803 58.7017C94.0288 62.1008 92.8943 65.3623 91.4404 68.4443C91.0977 69.1731 90.7373 69.8901 90.3594 70.5977C90.0437 71.1873 89.7163 71.7688 89.3779 72.343C89.2036 72.6426 89.0234 72.9407 88.8389 73.2344H58.8337C58.1152 73.2344 57.4546 72.8997 56.9456 72.343C56.2966 71.6414 55.8857 70.5859 55.8857 69.4023V61.6423C55.8857 60.4609 56.2966 59.4026 56.9456 58.7017C57.4546 58.145 58.1152 57.8096 58.8337 57.8096H94.1387C94.4243 57.8096 94.7026 57.863 94.9634 57.9626Z" fill="#FCBC77"/>
        <path d="M94.8032 58.7012C94.0291 62.1003 92.8945 65.3618 91.4407 68.4438C91.0979 69.1726 90.7375 69.8896 90.3596 70.5972C90.0439 71.1868 89.7166 71.7683 89.3782 72.3425H64.5337C62.6624 72.3425 61.144 70.8264 61.144 68.9529V62.0901C61.144 60.2195 62.6624 58.7012 64.5337 58.7012H94.8032Z" fill="#FEE175"/>
        <path d="M64.9468 60.0625H67.4333V70.5984H64.9468V60.0625Z" fill="#FCBC77"/>
        <path d="M70.9492 60.0625H73.4351V70.5984H70.9492V60.0625Z" fill="#FCBC77"/>
        <path d="M76.9507 60.0625H79.4373V70.5984H76.9507V60.0625Z" fill="#FCBC77"/>
        <path d="M82.9526 60.0625H85.4385V70.5984H82.9526V60.0625Z" fill="#FCBC77"/>
        <path d="M91.4404 60.0635V68.4446C91.0977 69.1733 90.7373 69.8904 90.3594 70.5979H88.9546V60.0635H91.4404Z" fill="#FFEEB8"/>
        <path d="M56.3057 60.0625H58.7915V70.5984H56.3057V60.0625Z" fill="#FEE175"/>
        <path d="M95.96 46.6646V53.5288C95.96 55.4009 94.4424 56.9185 92.5703 56.9185H51.978C50.106 56.9185 48.5884 55.4009 48.5884 53.5288V46.6646C48.5884 44.7939 50.106 43.2764 51.978 43.2764H92.5703C94.4424 43.2764 95.96 44.7939 95.96 46.6646Z" fill="#FCBC77"/>
        <path d="M92.874 46.2163V53.9778C92.874 56.0945 91.5542 57.8105 89.926 57.8105H54.6218C52.9937 57.8105 51.6738 56.0945 51.6738 53.9778V46.2163C51.6738 44.1011 52.9937 42.3857 54.6218 42.3857H89.926C91.5542 42.3857 92.874 44.1011 92.874 46.2163Z" fill="#FCBC77"/>
        <path d="M95.96 46.6646V53.5288C95.96 55.4009 94.4424 56.9185 92.5703 56.9185H60.3203C58.4497 56.9185 56.9321 55.4009 56.9321 53.5288V46.6646C56.9321 44.7939 58.4497 43.2764 60.3203 43.2764H92.5703C94.4424 43.2764 95.96 44.7939 95.96 46.6646Z" fill="#FEE175"/>
        <path d="M60.7344 44.6377H63.2202V55.1729H60.7344V44.6377Z" fill="#FCBC77"/>
        <path d="M66.7358 44.6377H69.2217V55.1729H66.7358V44.6377Z" fill="#FCBC77"/>
        <path d="M72.7373 44.6377H75.2239V55.1729H72.7373V44.6377Z" fill="#FCBC77"/>
        <path d="M78.7397 44.6377H81.2256V55.1729H78.7397V44.6377Z" fill="#FCBC77"/>
        <path d="M84.7412 44.6377H87.2271V55.1729H84.7412V44.6377Z" fill="#FFEEB8"/>
        <path d="M52.0928 44.6377H54.5786V55.1729H52.0928V44.6377Z" fill="#FEE175"/>
        <path d="M90.7437 44.6377H93.2295V55.1729H90.7437V44.6377Z" fill="#FCBC77"/>
        <path d="M88.2752 74.126C87.3933 75.4802 86.447 76.7891 85.4377 78.043C84.6467 79.0281 83.8176 79.9802 82.9519 80.8972C80.5283 83.4717 77.8228 85.7773 74.8843 87.7681H50.1885C48.3171 87.7681 46.7988 86.252 46.7988 84.3784V77.5156C46.7988 75.6443 48.3171 74.126 50.1885 74.126H88.2752Z" fill="#FCBC77"/>
        <path d="M88.7825 73.3289C88.6155 73.5969 88.447 73.8613 88.2749 74.1257C87.3931 75.48 86.4468 76.7888 85.4375 78.0427C84.6465 79.0278 83.8174 79.98 82.9517 80.897C80.5281 83.4714 77.8225 85.7771 74.884 87.7678C74.4351 88.0732 73.9802 88.3691 73.5203 88.6592H52.833C52.1138 88.6592 51.4561 88.3245 50.9441 87.7678C50.2959 87.0662 49.8843 86.01 49.8843 84.8271V77.0664C49.8843 75.885 50.2959 74.8274 50.9441 74.1257C51.4561 73.5698 52.1138 73.2344 52.833 73.2344H88.1372C88.3591 73.2344 88.5745 73.2659 88.7825 73.3289Z" fill="#FCBC77"/>
        <path d="M88.2749 74.126C84.7659 79.5181 80.2065 84.1631 74.884 87.7681H58.5305C56.6592 87.7681 55.1431 86.252 55.1431 84.3784V77.5156C55.1431 75.6443 56.6592 74.126 58.5305 74.126H88.2749Z" fill="#FEE175"/>
        <path d="M58.9453 75.4873H61.4312V86.0232H58.9453V75.4873Z" fill="#FCBC77"/>
        <path d="M64.9468 75.4873H67.4333V86.0232H64.9468V75.4873Z" fill="#FCBC77"/>
        <path d="M70.9492 75.4873H73.4351V86.0232H70.9492V75.4873Z" fill="#FCBC77"/>
        <path d="M79.437 75.4873V84.2705C78.7412 84.874 78.0264 85.46 77.2954 86.0225H76.9512V75.4873H79.437Z" fill="#FCBC77"/>
        <path d="M85.4375 75.4873V78.0427C84.6465 79.0278 83.8174 79.98 82.9517 80.897V75.4873H85.4375Z" fill="#FFEEB8"/>
        <path d="M50.3032 75.4873H52.7898V86.0232H50.3032V75.4873Z" fill="#FEE175"/>
        <path d="M72.0469 89.5498C65.5525 93.3174 58.092 95.6055 50.1255 95.9526V92.9395C50.1255 91.0681 51.6423 89.5498 53.5151 89.5498H72.0469Z" fill="#FCBC77"/>
        <path d="M73.5203 88.6592C73.0361 88.9646 72.5447 89.2627 72.0466 89.5505C71.2219 90.0288 70.3818 90.4829 69.5271 90.9121C69.1118 91.1201 68.6943 91.3237 68.2732 91.5193C67.1255 92.0562 65.9514 92.5483 64.7568 92.9929C63.9395 93.2983 63.1111 93.5803 62.2725 93.8411C61.0266 94.2292 59.7588 94.5684 58.4697 94.854C57.6919 95.0269 56.9082 95.1814 56.1165 95.3147C55.2954 95.4553 54.467 95.5754 53.6306 95.6714C53.4915 95.6868 53.3523 95.7043 53.2109 95.7183V92.4912C53.2109 90.3752 54.5315 88.6592 56.1597 88.6592H73.5203Z" fill="#FCBC77"/>
        <path d="M72.0471 89.5498C71.2224 90.0281 70.3823 90.4822 69.5276 90.9114C69.1123 91.1194 68.6948 91.323 68.2737 91.5186C67.126 92.0554 65.9519 92.5476 64.7573 92.9922C63.9399 93.2976 63.1116 93.5796 62.2729 93.8403C61.0271 94.2285 59.7593 94.5676 58.4702 94.8533V92.9395C58.4702 91.0681 59.9863 89.5498 61.8577 89.5498H72.0471Z" fill="#FEE175"/>
        <path d="M64.7568 90.9121V92.9929C63.9395 93.2983 63.1111 93.5803 62.2725 93.8411V90.9121H64.7568Z" fill="#FCBC77"/>
        <path d="M69.5273 90.9121C69.1121 91.1201 68.6946 91.3237 68.2734 91.5193V90.9121H69.5273Z" fill="#FCBC77"/>
        <path d="M56.1167 90.9121V95.3147C55.2957 95.4553 54.4673 95.5754 53.6309 95.6714V90.9121H56.1167Z" fill="#FEE175"/>
        <path d="M55.6743 24.5584V31.4233C55.6743 33.2947 54.1567 34.8123 52.2847 34.8123H11.6924C9.82031 34.8123 8.30273 33.2954 8.30273 31.4233V24.5584C8.30273 22.6877 9.82031 21.1709 11.6924 21.1709H52.2847C54.1567 21.1709 55.6743 22.6877 55.6743 24.5584Z" fill="#FCBC77"/>
        <path d="M52.5884 24.1096V31.8711C52.5884 33.9878 51.2686 35.7039 49.6404 35.7039H14.3362C12.708 35.7039 11.3882 33.9878 11.3882 31.8711V24.1096C11.3882 21.9944 12.708 20.2783 14.3362 20.2783H49.6404C51.2686 20.2783 52.5884 21.9944 52.5884 24.1096Z" fill="#FCBC77"/>
        <path d="M55.6743 24.5584V31.4233C55.6743 33.2947 54.1567 34.8123 52.2847 34.8123H20.0347C18.1641 34.8123 16.6465 33.2954 16.6465 31.4233V24.5584C16.6465 22.6877 18.1641 21.1709 20.0347 21.1709H52.2847C54.1567 21.1709 55.6743 22.6877 55.6743 24.5584Z" fill="#FEE175"/>
        <path d="M20.4492 22.5312H22.9351V33.0664H20.4492V22.5312Z" fill="#FCBC77"/>
        <path d="M26.4507 22.5312H28.9365V33.0664H26.4507V22.5312Z" fill="#FCBC77"/>
        <path d="M32.4521 22.5312H34.9387V33.0664H32.4521V22.5312Z" fill="#FCBC77"/>
        <path d="M38.4546 22.5312H40.9404V33.0664H38.4546V22.5312Z" fill="#FCBC77"/>
        <path d="M44.4556 22.5312H46.9421V33.0664H44.4556V22.5312Z" fill="#FFEEB8"/>
        <path d="M11.8071 22.5312H14.293V33.0664H11.8071V22.5312Z" fill="#FEE175"/>
        <path d="M50.458 22.5312H52.9438V33.0664H50.458V22.5312Z" fill="#FCBC77"/>
        <path d="M51.7559 9.13354V15.9978C51.7559 17.8699 50.2383 19.3875 48.3662 19.3875H7.77393C5.90112 19.3875 4.38428 17.8706 4.38428 15.9978V9.13354C4.38428 7.26294 5.90112 5.74609 7.77393 5.74609H48.3662C50.2383 5.74609 51.7559 7.26294 51.7559 9.13354Z" fill="#FCBC77"/>
        <path d="M48.6704 8.68481V16.4463C48.6704 18.563 47.3506 20.2783 45.7224 20.2783H10.4182C8.79004 20.2783 7.47021 18.563 7.47021 16.4463V8.68481C7.47021 6.56958 8.79004 4.85352 10.4182 4.85352H45.7224C47.3506 4.85352 48.6704 6.56958 48.6704 8.68481Z" fill="#FCBC77"/>
        <path d="M51.7559 9.13354V15.9978C51.7559 17.8699 50.2383 19.3875 48.3662 19.3875H16.1162C14.2449 19.3875 12.728 17.8706 12.728 15.9978V9.13354C12.728 7.26294 14.2449 5.74609 16.1162 5.74609H48.3662C50.2383 5.74609 51.7559 7.26294 51.7559 9.13354Z" fill="#FEE175"/>
        <path d="M16.5308 7.10645H19.0166V17.6423H16.5308V7.10645Z" fill="#FCBC77"/>
        <path d="M22.5322 7.10645H25.0181V17.6423H22.5322V7.10645Z" fill="#FCBC77"/>
        <path d="M28.5337 7.10645H31.0203V17.6423H28.5337V7.10645Z" fill="#FCBC77"/>
        <path d="M34.5361 7.10645H37.022V17.6423H34.5361V7.10645Z" fill="#FCBC77"/>
        <path d="M40.5376 7.10645H43.0234V17.6423H40.5376V7.10645Z" fill="#FFEEB8"/>
        <path d="M7.88916 7.10645H10.375V17.6423H7.88916V7.10645Z" fill="#FEE175"/>
        <path d="M46.5391 7.10645H49.0256V17.6423H46.5391V7.10645Z" fill="#FCBC77"/>
        <path d="M49.6731 39.9832V46.8481C49.6731 48.7202 48.1555 50.2378 46.2834 50.2378H5.69043C3.81836 50.2378 2.30078 48.7202 2.30078 46.8481V39.9832C2.30078 38.1125 3.81836 36.5957 5.69043 36.5957H46.2834C48.1555 36.5957 49.6731 38.1133 49.6731 39.9832Z" fill="#FCBC77"/>
        <path d="M46.5869 39.5347V47.2961C46.5869 49.4128 45.2671 51.1289 43.6389 51.1289H8.33472C6.70654 51.1289 5.38672 49.4128 5.38672 47.2961V39.5347C5.38672 37.4194 6.70654 35.7041 8.33472 35.7041H43.6389C45.2664 35.7041 46.5869 37.4194 46.5869 39.5347Z" fill="#FCBC77"/>
        <path d="M49.6729 39.9832V46.8481C49.6729 48.7202 48.1553 50.2378 46.2832 50.2378H14.0332C12.1619 50.2378 10.645 48.7202 10.645 46.8481V39.9832C10.645 38.1125 12.1619 36.5957 14.0332 36.5957H46.2832C48.1553 36.5957 49.6729 38.1133 49.6729 39.9832Z" fill="#FEE175"/>
        <path d="M14.4468 37.9561H16.9326V48.4912H14.4468V37.9561Z" fill="#FCBC77"/>
        <path d="M20.4492 37.9561H22.9351V48.4912H20.4492V37.9561Z" fill="#FCBC77"/>
        <path d="M26.4507 37.9561H28.9365V48.4912H26.4507V37.9561Z" fill="#FCBC77"/>
        <path d="M32.4521 37.9561H34.9387V48.4912H32.4521V37.9561Z" fill="#FCBC77"/>
        <path d="M38.4546 37.9561H40.9404V48.4912H38.4546V37.9561Z" fill="#FFEEB8"/>
        <path d="M5.80615 37.9561H8.29199V48.4912H5.80615V37.9561Z" fill="#FEE175"/>
        <path d="M44.4556 37.9561H46.9421V48.4912H44.4556V37.9561Z" fill="#FCBC77"/>
        <path d="M52.999 55.4087V62.273C52.999 64.145 51.4822 65.6626 49.6094 65.6626H9.01709C7.14502 65.6626 5.62744 64.145 5.62744 62.273V55.4087C5.62744 53.5381 7.14502 52.0205 9.01709 52.0205H49.6094C51.4814 52.0205 52.999 53.5381 52.999 55.4087Z" fill="#FCBC77"/>
        <path d="M49.9131 54.9595V62.7209C49.9131 64.8376 48.5933 66.5537 46.9651 66.5537H11.6609C10.0327 66.5537 8.71289 64.8376 8.71289 62.7209V54.9595C8.71289 52.8442 10.0327 51.1289 11.6609 51.1289H46.9651C48.5933 51.1289 49.9131 52.8442 49.9131 54.9595Z" fill="#FCBC77"/>
        <path d="M52.999 55.4087V62.273C52.999 64.145 51.4822 65.6626 49.6094 65.6626H17.3594C15.4888 65.6626 13.9712 64.145 13.9712 62.273V55.4087C13.9712 53.5381 15.4888 52.0205 17.3594 52.0205H49.6094C51.4814 52.0205 52.999 53.5381 52.999 55.4087Z" fill="#FEE175"/>
        <path d="M17.7734 53.3809H20.2593V63.916H17.7734V53.3809Z" fill="#FCBC77"/>
        <path d="M23.7749 53.3809H26.2607V63.916H23.7749V53.3809Z" fill="#FCBC77"/>
        <path d="M29.7773 53.3809H32.2632V63.916H29.7773V53.3809Z" fill="#FCBC77"/>
        <path d="M35.7788 53.3809H38.2646V63.916H35.7788V53.3809Z" fill="#FCBC77"/>
        <path d="M41.7803 53.3809H44.2668V63.916H41.7803V53.3809Z" fill="#FFEEB8"/>
        <path d="M9.13184 53.3809H11.6177V63.916H9.13184V53.3809Z" fill="#FEE175"/>
        <path d="M47.7827 53.3809H50.2686V63.916H47.7827V53.3809Z" fill="#FCBC77"/>
        <path d="M56.5854 70.8328V77.6978C56.5854 79.5706 55.0686 81.0867 53.1958 81.0867H13.2268C11.7883 79.5764 10.448 77.9739 9.21387 76.2849V70.8328C9.21387 68.9636 10.7322 67.4453 12.6035 67.4453H53.1958C55.0686 67.4453 56.5854 68.9636 56.5854 70.8328Z" fill="#FCBC77"/>
        <path d="M53.4998 70.3843V78.1458C53.4998 80.2625 52.1807 81.9785 50.5518 81.9785H15.2483C13.6194 81.9785 12.3003 80.2625 12.3003 78.1458V70.3843C12.3003 68.269 13.6194 66.5537 15.2483 66.5537H50.5518C52.1807 66.5537 53.4998 68.269 53.4998 70.3843Z" fill="#FCBC77"/>
        <path d="M56.5864 70.8335V77.6978C56.5864 79.5698 55.0688 81.0874 53.1968 81.0874H20.946C19.0754 81.0874 17.5586 79.5698 17.5586 77.6978V70.8335C17.5586 68.9629 19.0754 67.4453 20.946 67.4453H53.1968C55.0688 67.4453 56.5864 68.9629 56.5864 70.8335Z" fill="#FEE175"/>
        <path d="M21.3604 68.8057H23.8462V79.3416H21.3604V68.8057Z" fill="#FCBC77"/>
        <path d="M27.3618 68.8057H29.8484V79.3416H27.3618V68.8057Z" fill="#FCBC77"/>
        <path d="M33.3643 68.8057H35.8501V79.3416H33.3643V68.8057Z" fill="#FCBC77"/>
        <path d="M39.3657 68.8057H41.8523V79.3416H39.3657V68.8057Z" fill="#FCBC77"/>
        <path d="M45.3677 68.8057H47.8535V79.3416H45.3677V68.8057Z" fill="#FFEEB8"/>
        <path d="M12.7188 68.8057H15.2053V79.3416H12.7188V68.8057Z" fill="#FEE175"/>
        <path d="M51.3691 68.8057H53.855V79.3416H51.3691V68.8057Z" fill="#FCBC77"/>
        <path d="M52.1479 86.259V93.1226C52.1479 94.2878 51.5583 95.3162 50.6626 95.9255C50.4846 95.9373 50.3059 95.9453 50.1257 95.9534C49.4204 95.9849 48.7136 96.0002 48.0002 96.0002C44.2664 96.0002 40.6321 95.5732 37.1421 94.7661C36.3958 94.5933 35.6575 94.4036 34.9265 94.1978C33.7356 93.8608 32.5615 93.4785 31.4116 93.0559C30.5715 92.7461 29.7424 92.4128 28.9258 92.0583C27.7268 91.5413 26.5549 90.9729 25.4087 90.3599C24.5642 89.9094 23.7358 89.4348 22.9229 88.9353C21.7158 88.1926 20.5425 87.3994 19.408 86.5586C18.5554 85.9258 17.7271 85.2659 16.9214 84.5803C16.3574 84.1021 15.8066 83.6106 15.2661 83.1052C15.1819 83.0283 15.0977 82.95 15.0156 82.8701H48.7568C50.6296 82.8701 52.1479 84.3884 52.1479 86.259Z" fill="#FCBC77"/>
        <path d="M49.0601 85.8103V93.5703C49.0601 94.4932 48.811 95.3376 48.3943 95.9976C48.2625 95.9998 48.1314 95.9998 48.0002 95.9998C44.2664 95.9998 40.6321 95.5728 37.1421 94.7656C36.3958 94.5928 35.6575 94.4031 34.9265 94.1973C33.7356 93.8604 32.5615 93.478 31.4116 93.0554C30.5715 92.7456 29.7424 92.4124 28.9258 92.0579C27.7268 91.5408 26.5549 90.9724 25.4087 90.3594C24.5642 89.9089 23.7358 89.4343 22.9229 88.9348C21.7158 88.1921 20.5425 87.3989 19.408 86.5581C18.5554 85.9253 17.7271 85.2654 16.9214 84.5798C16.3574 84.1016 15.8066 83.6101 15.2661 83.1047C15.1819 83.0278 15.0977 82.9495 15.0156 82.8696C14.7058 82.5774 14.4004 82.2793 14.0986 81.9775H46.1135C47.7417 81.9775 49.0601 83.6943 49.0601 85.8103Z" fill="#FCBC77"/>
        <path d="M52.1475 86.259V93.1226C52.1475 94.2878 51.5579 95.3162 50.6621 95.9255C50.4841 95.9373 50.3054 95.9453 50.1252 95.9534C49.4199 95.9849 48.7131 96.0002 47.9998 96.0002C44.2659 96.0002 40.6316 95.5732 37.1416 94.7661C36.3953 94.5933 35.657 94.4036 34.926 94.1978C33.7351 93.8608 32.561 93.4785 31.4111 93.0559C30.571 92.7461 29.7419 92.4128 28.9253 92.0583C27.7263 91.5413 26.5544 90.9729 25.4082 90.3599C24.5637 89.9094 23.7354 89.4348 22.9224 88.9353C21.7153 88.1926 20.542 87.3994 19.4075 86.5586C18.5549 85.9258 17.7266 85.2659 16.9209 84.5803C16.3569 84.1021 15.8062 83.6106 15.2656 83.1052C15.6494 82.9543 16.0691 82.8701 16.5056 82.8701H48.7563C50.6292 82.8701 52.1475 84.3884 52.1475 86.259Z" fill="#FEE175"/>
        <path d="M19.4075 84.2314V86.5583C18.5549 85.9255 17.7266 85.2656 16.9209 84.5801V84.2314H19.4075Z" fill="#FCBC77"/>
        <path d="M25.4087 84.2314V90.3596C24.5642 89.9092 23.7358 89.4346 22.9229 88.9351V84.2314H25.4087Z" fill="#FCBC77"/>
        <path d="M31.4116 84.2314V93.0557C30.5715 92.7458 29.7424 92.4126 28.9258 92.0581V84.2314H31.4116Z" fill="#FCBC77"/>
        <path d="M37.4128 84.2314V94.7659H37.1418C36.3955 94.593 35.6572 94.4033 34.9263 94.1975V84.2314H37.4128Z" fill="#FCBC77"/>
        <path d="M40.9282 84.2305H43.4141V94.7664H40.9282V84.2305Z" fill="#FFEEB8"/>
        <path d="M46.9297 84.2305H49.4155V94.7664H46.9297V84.2305Z" fill="#FCBC77"/>
        <path d="M78.1933 73.3732L84.4496 71.7905C86.9802 71.1496 86.9802 67.5541 84.4496 66.9133L78.1933 65.3298C77.2983 65.1035 76.5988 64.4047 76.3725 63.509L74.789 57.2534C74.1481 54.7228 70.5534 54.7228 69.9125 57.2534L68.329 63.509C68.102 64.4047 67.4033 65.1035 66.5082 65.3298L60.2519 66.9133C57.7214 67.5541 57.7214 71.1496 60.2519 71.7905L66.5082 73.3732C67.4033 73.6003 68.1027 74.299 68.329 75.1948L69.9125 81.4504C70.5527 83.9809 74.1481 83.9809 74.789 81.4504L76.3725 75.1948C76.5988 74.299 77.2983 73.6003 78.1933 73.3732Z" fill="#F1F4FE"/>
        <path d="M27.6938 25.3064L33.9494 23.7229C36.4806 23.0828 36.4806 19.4873 33.9494 18.8464L27.6938 17.2629C26.7988 17.0366 26.0993 16.3372 25.873 15.4421L24.2895 9.18652C23.6486 6.65527 20.0532 6.65527 19.413 9.18652L17.8295 15.4421C17.6025 16.3372 16.9037 17.0366 16.008 17.2629L9.75238 18.8464C7.22186 19.4873 7.22186 23.0828 9.75238 23.7229L16.008 25.3064C16.9037 25.5334 17.6032 26.2322 17.8295 27.1279L19.413 33.3835C20.0532 35.9141 23.6486 35.9141 24.2895 33.3835L25.873 27.1279C26.0993 26.2322 26.7988 25.5327 27.6938 25.3064Z" fill="#F1F4FE"/>
    </g>
    <defs>
        <clipPath id="clip0">
            <rect width="96" height="96" fill="white"/>
        </clipPath>
    </defs>
</svg>
