<?xml version="1.0" standalone="no"?>
<!DOCTYPE svg PUBLIC "-//W3C//DTD SVG 1.1//EN" "http://www.w3.org/Graphics/SVG/1.1/DTD/svg11.dtd" >
<svg xmlns="http://www.w3.org/2000/svg">
<metadata>Generated by IcoMoon</metadata>
<defs>
<font id="icomoon" horiz-adv-x="1024">
<font-face units-per-em="1024" ascent="960" descent="-64" />
<missing-glyph horiz-adv-x="1024" />
<glyph unicode="&#x20;" horiz-adv-x="512" d="" />
<glyph unicode="&#xe900;" glyph-name="alert-triangle" d="M149.328 21.338c-21.333 0-42.667 4.267-64 17.067-59.734 34.133-81.067 115.2-46.934 174.933l362.666 605.867c12.8 17.067 25.6 34.133 42.668 42.667 29.867 17.067 64 21.333 98.133 12.8s59.733-29.867 81.067-59.733l358.4-601.6c12.8-21.333 17.067-42.667 17.067-64 0-34.133-12.8-68.267-38.4-89.6-21.333-25.6-51.2-38.4-85.333-38.4h-725.335zM473.596 772.271l-358.401-601.6c-12.8-21.333-4.267-46.933 17.066-59.733 4.267-4.267 12.8-4.267 17.067-4.267h721.068c12.8 0 21.333 4.267 29.867 12.8s12.8 17.067 12.8 29.867c0 8.533 0 12.8-4.267 21.333l-358.4 601.6c-12.8 21.333-38.4 25.6-59.733 17.067-8.533-4.267-12.8-8.533-17.067-17.067zM511.996 362.671c-25.6 0-42.667 17.067-42.667 42.667v170.667c0 25.6 17.067 42.667 42.667 42.667s42.667-17.067 42.667-42.667v-170.667c0-25.6-17.067-42.667-42.667-42.667zM511.996 192.004c-12.8 0-21.333 4.267-29.867 12.8s-12.8 17.067-12.8 29.867c0 4.267 0 12.8 4.267 17.067s4.267 8.533 8.533 12.8c4.267 4.267 8.533 8.533 12.8 8.533 8.533 4.267 17.067 4.267 25.6 4.267 4.267 0 4.267 0 8.533-4.267 4.267 0 4.267 0 8.533-4.267 0 0 4.267-4.267 8.533-4.267 4.267-4.267 8.533-8.533 8.533-12.8s4.267-12.8 4.267-17.067c0-12.8-4.267-21.333-12.8-29.867-12.8-8.533-21.333-12.8-34.133-12.8z" />
<glyph unicode="&#xe901;" glyph-name="announcement-speaker" d="M712.567 764.701c-24.533-49.065-40.939-119.834-40.939-200.332 0-80.5 16.405-151.267 40.939-200.333 25.809-51.618 53.568-67.298 71.543-67.298s45.739 15.68 71.548 67.298c24.529 49.067 40.934 119.834 40.934 200.333s-16.405 151.267-40.934 200.332c-25.809 51.617-53.572 67.299-71.548 67.299s-45.734-15.681-71.543-67.299zM176.477 640.080l-0.791-0.244c-14.932-4.443-27.839-13.973-36.481-26.936s-12.474-28.542-10.833-44.035c0.317-2.989 0.317-6.002 0-8.991-1.641-15.493 2.191-31.072 10.833-44.034 8.642-12.966 21.549-22.494 36.481-26.94l451.723-144.013c-26.172 60.681-41.114 137.434-41.114 219.482s14.942 158.802 41.114 219.483l-450.932-143.772zM150.918 721.497l589.826 188.056c13.521 5.004 27.981 7.78 43.366 7.78 67.712 0 117.525-53.781 147.87-114.47 31.62-63.241 49.946-147.621 49.946-238.494s-18.325-175.254-49.946-238.494c-30.345-60.689-80.158-114.47-147.87-114.47-15.386 0-29.845 2.778-43.366 7.782l-231.138 73.694 37.662-113.813c11.319-29.214 10.79-61.717-1.506-90.573-12.493-29.308-36.1-52.463-65.651-64.38l-0.060-0.026c-29.564-11.87-62.633-11.52-91.943 0.969-29.309 12.493-52.464 36.1-64.379 65.651-0.214 0.529-0.418 1.067-0.611 1.604l-104.799 293.44-67.401 21.487c-33.851 10.185-63.102 31.842-82.715 61.265-18.86 28.288-27.67 62.046-25.099 95.864-2.571 33.817 6.238 67.574 25.099 95.865 19.613 29.42 48.864 51.081 82.715 61.263zM409.122 324.919l-88.547 28.228 82.559-231.164c3.531-8.282 10.13-14.886 18.428-18.423 8.5-3.622 18.092-3.725 26.672-0.29 8.559 3.465 15.403 10.18 19.025 18.679 3.627 8.508 3.729 18.112 0.282 26.697-0.329 0.819-0.636 1.651-0.913 2.492l-57.506 173.781zM807.834 641.561c19.017-21.22 29.555-48.698 29.606-77.192-0.051-28.494-10.59-55.974-29.606-77.192s-45.18-34.697-73.498-37.862c-8.981 37.687-13.436 76.314-13.265 115.055-0.171 38.742 4.284 77.367 13.265 115.053 28.318-3.164 54.481-16.641 73.498-37.861z" />
<glyph unicode="&#xe902;" glyph-name="apple_logo" d="M776.36 417.128c-1.147 126.937 104.191 188.692 109.009 191.567-59.657 86.764-152.124 98.619-184.617 99.564-77.661 8.153-152.993-46.355-192.554-46.355-40.351 0-101.271 45.568-166.929 44.229-84.491-1.3-163.534-50.097-206.885-125.873-89.466-154.506-22.742-381.558 62.974-506.447 42.877-61.164 92.98-129.457 158.559-127.055 64.158 2.639 88.124 40.802 165.547 40.802 76.713 0 99.218-40.802 166.101-39.266 68.857 1.103 112.207 61.44 153.584 123.156 49.551 70.105 69.448 139.146 70.239 142.69-1.617 0.551-133.724 50.846-135.026 202.988v0zM650.012 790.405c34.506 43.047 58.119 101.612 51.562 161.044-49.942-2.206-112.404-34.461-148.372-76.564-31.823-37.1-60.248-97.91-52.904-155.097 56.102-4.175 113.706 28.239 149.714 70.617v0z" />
<glyph unicode="&#xe903;" glyph-name="arrow-left" d="M542.17 716.497c16.661 16.663 16.661 43.677 0 60.34s-43.678 16.662-60.339 0l-298.667-298.667c-16.662-16.661-16.662-43.678 0-60.339l298.667-298.667c16.661-16.661 43.678-16.661 60.339 0s16.661 43.678 0 60.339l-225.83 225.83h494.327c23.565 0 42.667 19.102 42.667 42.667s-19.102 42.667-42.667 42.667h-494.327l225.83 225.83z" />
<glyph unicode="&#xe904;" glyph-name="arrow-right" d="M542.17 776.837c-16.661 16.662-43.678 16.662-60.339 0s-16.661-43.677 0-60.34l225.83-225.83h-494.327c-23.564 0-42.667-19.102-42.667-42.667s19.103-42.667 42.667-42.667h494.327l-225.83-225.83c-16.661-16.661-16.661-43.678 0-60.339s43.678-16.661 60.339 0l298.667 298.667c16.661 16.661 16.661 43.678 0 60.339l-298.667 298.667z" />
<glyph unicode="&#xe905;" glyph-name="check" d="M384 270.080l-177.92 177.92-60.587-60.16 238.507-238.507 512 512-60.16 60.16z" />
<glyph unicode="&#xe906;" glyph-name="chevron-right" d="M353.83 734.17c16.662 16.662 43.678 16.662 60.34 0l255.998-256c16.663-16.662 16.663-43.678 0-60.34l-255.998-255.998c-16.662-16.663-43.678-16.663-60.34 0s-16.662 43.674 0 60.336l225.828 225.832-225.828 225.83c-16.662 16.662-16.662 43.678 0 60.34z" />
<glyph unicode="&#xe907;" glyph-name="circle-arrow-left" d="M512 832c-212.077 0-384-171.923-384-384 0-212.079 171.923-384 384-384 212.079 0 384 171.921 384 384 0 212.077-171.921 384-384 384zM42.667 448c0 259.206 210.128 469.333 469.333 469.333 259.204 0 469.333-210.128 469.333-469.333 0-259.204-210.129-469.333-469.333-469.333-259.206 0-469.333 210.129-469.333 469.333zM542.17 588.497c16.661 16.663 16.661 43.677 0 60.34s-43.678 16.662-60.339 0l-170.667-170.667c-16.662-16.661-16.662-43.678 0-60.339l170.667-170.667c16.661-16.661 43.678-16.661 60.339 0s16.661 43.678 0 60.339l-97.83 97.83h238.327c23.565 0 42.667 19.102 42.667 42.667s-19.102 42.667-42.667 42.667h-238.327l97.83 97.83z" />
<glyph unicode="&#xe908;" glyph-name="Close" d="M798.17 734.17c16.661-16.663 16.661-43.677 0-60.34l-512-512c-16.663-16.661-43.677-16.661-60.34 0s-16.662 43.678 0 60.339l512 512c16.661 16.662 43.678 16.662 60.339 0zM225.83 734.17c16.663 16.662 43.677 16.662 60.34 0l512-512c16.661-16.661 16.661-43.678 0-60.339s-43.678-16.661-60.339 0l-512 512c-16.662 16.663-16.662 43.677 0 60.34z" />
<glyph unicode="&#xe909;" glyph-name="Ellipse1" d="M1024 448c0-282.77-229.23-512-512-512s-512 229.23-512 512c0 282.77 229.23 512 512 512s512-229.23 512-512z" />
<glyph unicode="&#xe90a;" glyph-name="Ellipse2" d="M708.923 448c0-108.758-88.165-196.923-196.923-196.923s-196.923 88.165-196.923 196.923c0 108.758 88.165 196.923 196.923 196.923s196.923-88.165 196.923-196.923z" />
<glyph unicode="&#xe90b;" glyph-name="expand_more_24px_rounded" d="M677.316 576.020l-165.547-165.546-165.546 165.546c-7.971 7.99-18.794 12.48-30.080 12.48s-22.109-4.49-30.080-12.48c-16.64-16.64-16.64-43.519 0-60.159l195.84-195.84c16.64-16.64 43.52-16.64 60.16 0l195.84 195.84c16.64 16.64 16.64 43.519 0 60.159-16.64 16.213-43.947 16.64-60.587 0v0z" />
<glyph unicode="&#xe90c;" glyph-name="expand_more_24px" d="M346.662 319.979l165.547 165.547 165.547-165.547c7.97-7.987 18.795-12.48 30.080-12.48s22.11 4.493 30.080 12.48c16.64 16.64 16.64 43.52 0 60.16l-195.84 195.841c-16.64 16.64-43.52 16.64-60.16 0l-195.84-195.841c-16.64-16.64-16.64-43.52 0-60.16 16.64-16.213 43.947-16.64 60.587 0v0z" />
<glyph unicode="&#xe90d;" glyph-name="eye-off" d="M512 64c-320 0-499.2 349.867-507.733 366.933-4.267 12.8-4.267 25.6 0 38.4 55.467 102.4 132.267 192 230.4 264.533 17.067 17.067 42.667 12.8 59.733-8.533 12.8-17.067 12.8-46.933-8.533-59.733-81.067-59.733-145.067-132.267-196.267-217.6 38.4-68.267 192-298.667 422.4-298.667 81.067 0 162.133 29.867 226.133 81.067 17.067 12.8 46.933 8.533 59.733-8.533s8.533-46.933-8.533-59.733c-76.8-64-174.933-98.133-277.333-98.133zM887.467 268.8c-8.533 0-21.333 4.267-25.6 8.533-17.067 17.067-21.333 42.667-4.267 59.733 29.867 34.133 55.467 68.267 76.8 106.667-38.4 68.267-192 298.667-422.4 298.667-25.6 0-55.467-4.267-81.067-8.533-21.333 0-42.667 12.8-51.2 34.133s8.533 46.933 29.867 51.2c34.133 8.533 68.267 12.8 102.4 12.8 320 0 499.2-349.867 507.733-366.933 4.267-12.8 4.267-25.6 0-38.4-25.6-51.2-59.733-98.133-98.133-145.067-8.533-8.533-21.333-12.8-34.133-12.8zM507.733 273.067c-42.667 0-85.333 17.067-115.2 46.933-34.133 29.867-51.2 72.533-55.467 119.467 0 46.933 12.8 89.6 46.933 123.733 4.267 4.267 4.267 4.267 8.533 8.533 17.067 17.067 42.667 17.067 59.733 0s17.067-42.667 0-59.733l-4.267-4.267c-17.067-17.067-25.6-38.4-21.333-59.733 0-21.333 8.533-42.667 25.6-59.733 34.133-34.133 89.6-29.867 119.467 4.267 17.067 17.067 42.667 17.067 59.733 0s17.067-42.667 0-59.733c-29.867-38.4-76.8-59.733-123.733-59.733zM981.333-64c-12.8 0-21.333 4.267-29.867 12.8l-938.667 938.667c-17.067 17.067-17.067 42.667 0 59.733s42.667 17.067 59.733 0l938.667-938.667c17.067-17.067 17.067-42.667 0-59.733-8.533-8.533-17.067-12.8-29.867-12.8z" />
<glyph unicode="&#xe90e;" glyph-name="eye" d="M91.339 448c4.663 8.058 10.845 18.327 18.503 30.186 19.67 30.457 48.8 70.96 86.618 111.299 76.415 81.51 183.252 157.182 315.54 157.182s239.127-75.672 315.54-157.182c37.82-40.339 66.947-80.843 86.619-111.299 7.657-11.858 13.841-22.128 18.5-30.186-4.659-8.058-10.843-18.327-18.5-30.186-19.672-30.458-48.799-70.957-86.619-111.297-76.413-81.51-183.25-157.184-315.54-157.184-132.288 0-239.124 75.674-315.54 157.184-37.819 40.34-66.948 80.839-86.618 111.297-7.658 11.858-13.84 22.128-18.503 30.186zM981.333 448c38.161 19.081 38.155 19.095 38.15 19.111l-0.074 0.137-0.142 0.291-0.489 0.948c-0.404 0.791-0.978 1.899-1.724 3.302-1.485 2.805-3.635 6.793-6.451 11.795-5.621 9.999-13.904 24.084-24.764 40.896-21.658 33.543-53.862 78.374-96.046 123.368-83.587 89.157-211.416 184.152-377.793 184.152-166.379 0-294.209-94.995-377.793-184.152-42.181-44.994-74.385-89.824-96.048-123.368-10.858-16.812-19.138-30.897-24.762-40.896-2.814-5.002-4.968-8.99-6.452-11.795-0.742-1.403-1.317-2.511-1.724-3.302l-0.484-0.948-0.147-0.291-0.050-0.1c-0.008-0.015-0.034-0.068 38.128-19.149l-38.162 19.081c-6.006-12.012-6.006-26.15 0-38.162l38.162 19.081c-38.162-19.081-38.17-19.065-38.162-19.081l0.084-0.167 0.147-0.291 0.484-0.948c0.407-0.792 0.982-1.9 1.724-3.302 1.484-2.805 3.638-6.793 6.452-11.795 5.624-9.999 13.904-24.086 24.762-40.897 21.663-33.542 53.867-78.376 96.048-123.369 83.585-89.156 211.414-184.149 377.793-184.149 166.377 0 294.207 94.993 377.793 184.149 42.183 44.993 74.388 89.828 96.046 123.369 10.86 16.811 19.143 30.898 24.764 40.897 2.816 5.002 4.966 8.99 6.451 11.795 0.745 1.402 1.32 2.51 1.724 3.302l0.489 0.948 0.142 0.291 0.051 0.1c0.011 0.015 0.034 0.068-38.127 19.149zM981.333 448l38.161-19.081c6.007 12.012 5.99 26.18-0.011 38.192l-38.15-19.111zM512 533.333c-47.128 0-85.333-38.205-85.333-85.333s38.205-85.333 85.333-85.333c47.128 0 85.333 38.205 85.333 85.333s-38.205 85.333-85.333 85.333zM341.333 448c0 94.256 76.41 170.667 170.667 170.667 94.259 0 170.667-76.41 170.667-170.667 0-94.259-76.407-170.667-170.667-170.667-94.256 0-170.667 76.407-170.667 170.667z" />
<glyph unicode="&#xe90f;" glyph-name="google-play_logo" d="M81.824 931.922c-11.202-11.789-17.824-30.144-17.824-53.952v-849.216c0-23.808 6.621-42.125 17.824-53.952l2.81-2.765 476.969 475.699v11.251l-476.969 475.737-2.81-2.803zM561.6 458.982v-11.251l158.95-158.63 3.658 2.035 188.324 106.79c53.816 30.451 53.816 80.371 0 110.861l-191.944 108.787-158.989-158.592zM81.825-25.203c17.708-18.739 47.004-21.043 79.995-2.381l562.391 318.72-162.609 162.202-479.778-478.541zM81.825 931.917l479.778-478.579 162.609 162.24-562.391 318.72c-15.475 8.755-30.142 12.902-43.154 12.902-14.744 0-27.448-5.338-36.841-15.283z" />
<glyph unicode="&#xe910;" glyph-name="home" d="M485.807 908.346c15.407 11.984 36.979 11.984 52.386 0l384-298.667c10.394-8.083 16.474-20.512 16.474-33.679v-469.333c0-33.95-13.487-66.505-37.491-90.509s-56.559-37.491-90.509-37.491h-597.333c-33.948 0-66.505 13.487-90.51 37.491s-37.49 56.559-37.49 90.509v469.333c0 13.167 6.079 25.596 16.472 33.679l384.002 298.667zM170.667 555.133v-448.466c0-11.315 4.495-22.17 12.497-30.17s18.854-12.497 30.17-12.497h597.333c11.315 0 22.17 4.497 30.17 12.497s12.497 18.854 12.497 30.17v448.466l-341.333 265.481-341.333-265.481zM341.333 448c0 23.565 19.103 42.667 42.667 42.667h256c23.565 0 42.667-19.102 42.667-42.667v-426.667c0-23.565-19.102-42.667-42.667-42.667s-42.667 19.102-42.667 42.667v384h-170.667v-384c0-23.565-19.103-42.667-42.667-42.667s-42.667 19.102-42.667 42.667v426.667z" />
<glyph unicode="&#xe911;" glyph-name="info" d="M512 832c-212.077 0-384-171.923-384-384s171.923-384 384-384c212.076 0 384 171.924 384 384s-171.924 384-384 384zM42.667 448c0 259.206 210.128 469.333 469.333 469.333 259.203 0 469.333-210.128 469.333-469.333 0-259.203-210.13-469.333-469.333-469.333-259.206 0-469.333 210.13-469.333 469.333zM461.872 301.824c-12.093-11.867-18.139-27.142-18.139-45.824s6.046-34.082 18.139-46.199c12.321-11.867 27.608-17.801 45.861-17.801s33.426 5.934 45.519 17.801c12.321 12.117 18.481 27.517 18.481 46.199s-6.16 33.957-18.481 45.824c-12.092 12.117-27.265 18.176-45.519 18.176s-33.54-6.059-45.861-18.176zM454.749 354.753c0 33.49 3.986 59.87 11.957 79.139 7.972 19.498 20.896 36.358 38.771 50.58s31.404 27.183 40.583 38.882c9.421 11.928 14.131 25.003 14.131 39.225 0 34.638-15.701 51.957-47.105 51.957-14.494 0-26.21-5.047-35.148-15.14s-13.648-23.742-14.131-40.946h-122.474c0.483 45.878 15.702 81.549 45.656 107.011 29.954 25.692 71.987 38.538 126.098 38.538 53.869 0 95.539-11.814 125.013-35.441 29.713-23.628 44.567-57.233 44.567-100.817 0-19.040-3.988-36.358-11.958-51.957s-20.776-31.541-38.411-47.828l-41.665-36.817c-11.839-10.782-20.053-21.907-24.642-33.376-4.59-11.238-7.126-25.58-7.609-43.010h-103.632z" />
<glyph unicode="&#xe912;" glyph-name="link" d="M545.055 842.638c48.282 46.632 112.947 72.436 180.070 71.852s131.328-27.507 178.796-74.971c47.462-47.464 74.388-111.672 74.972-178.794s-25.221-131.789-71.854-180.071l-0.522-0.529-127.995-127.997c-25.948-25.958-57.185-46.034-91.576-58.865-34.396-12.831-71.148-18.115-107.761-15.493s-72.239 13.087-104.454 30.689c-32.215 17.603-60.267 41.923-82.255 71.316-14.114 18.872-10.259 45.609 8.61 59.725 18.869 14.114 45.608 10.26 59.722-8.612 14.659-19.594 33.36-35.809 54.838-47.544 21.473-11.735 45.225-18.708 69.637-20.46 24.407-1.746 48.906 1.777 71.839 10.327 22.927 8.556 43.75 21.939 61.051 39.245l127.729 127.731c30.935 32.161 48.046 75.163 47.662 119.795-0.389 44.748-18.34 87.554-49.981 119.197-31.647 31.643-74.45 49.592-119.199 49.981-44.652 0.388-87.67-16.739-119.839-47.699l-73.155-72.731c-16.712-16.614-43.725-16.535-60.339 0.176s-16.535 43.726 0.176 60.339l73.828 73.392zM337.006 602.741c34.394 12.83 71.145 18.113 107.761 15.491s72.236-13.088 104.451-30.689c32.215-17.601 60.268-41.923 82.258-71.319 14.116-18.869 10.26-45.608-8.612-59.722-18.867-14.114-45.609-10.258-59.72 8.609-14.659 19.597-33.362 35.812-54.838 47.546s-45.225 18.711-69.635 20.46c-24.41 1.748-48.911-1.774-71.84-10.328s-43.751-21.938-61.053-39.246l-127.729-127.729c-30.935-32.159-48.047-75.162-47.658-119.793 0.389-44.749 18.337-87.557 49.98-119.199s74.448-49.592 119.197-49.981c44.631-0.389 87.633 16.727 119.794 47.657l72.684 72.689c16.663 16.66 43.676 16.66 60.341 0 16.66-16.666 16.66-43.679 0-60.344l-73.49-73.477c-48.282-46.633-112.948-72.438-180.070-71.854s-131.331 27.51-178.795 74.972c-47.464 47.462-74.388 111.672-74.971 178.796s25.22 131.789 71.852 180.070l0.52 0.527 127.995 127.995c-0.002-0.002 0.002 0.002 0 0 25.951 25.959 57.187 46.040 91.579 58.869z" />
<glyph unicode="&#xe913;" glyph-name="logo-facebook" d="M592 594.667v117.333c0 32.384 26.283 58.667 58.667 58.667h58.667v146.667h-117.333c-97.212 0-176-78.79-176-176v-146.667h-117.333v-146.667h117.333v-469.333h176v469.333h117.333l58.667 146.667h-176z" />
<glyph unicode="&#xe914;" glyph-name="logo-odnoklassniki" d="M528.026 409.365c140.271 0 253.986 113.711 253.986 253.984s-113.715 253.984-253.986 253.984c-140.273 0-253.984-113.713-253.984-253.986 0.172-140.199 113.784-253.812 253.984-253.982zM528.026 800.11c75.529 0 136.759-61.229 136.759-136.762s-61.227-136.76-136.759-136.76c-75.533 0-136.762 61.228-136.762 136.76s61.229 136.762 136.762 136.762zM776.811 289.015c27.601 18.18 44.233 49.007 44.271 82.057 0.384 27.43-15.091 52.621-39.74 64.67-25.318 12.646-55.629 9.801-78.148-7.347-104.371-76.092-245.931-76.092-350.303 0-22.554 17.058-52.811 19.9-78.15 7.347-24.634-12.049-40.12-37.21-39.777-64.627 0.058-33.045 16.684-63.863 44.272-82.057 35.395-23.539 73.939-41.958 114.489-54.707 6.878-2.133 13.975-4.113 21.297-5.939l-118.083-115.465c-30.976-30.054-31.726-79.531-1.67-110.507 30.055-30.98 79.529-31.727 110.507-1.673 0.645 0.627 1.279 1.263 1.901 1.911l120.349 124.57 120.585-124.804c30.033-31.002 79.505-31.787 110.507-1.758s31.787 79.505 1.758 110.502c-0.627 0.649-1.267 1.289-1.916 1.916l-117.888 115.345c7.317 1.877 14.443 3.87 21.372 5.982 40.508 12.698 79.014 31.078 114.368 54.583z" />
<glyph unicode="&#xe915;" d="M291.773 396.254l-230.58 100.89c-25.986 11.362-24.227 48.807 2.715 57.671l876.807 289.049c22.942 7.555 45.295-12.923 39.77-36.448l-175.215-744.977c-5.231-22.255-31.979-31.334-49.664-16.849l-205.884 168.461-257.949 182.204z" />
<glyph unicode="&#xe916;" d="M769.519 682.972l-477.748-286.739 58.456-271.147c5.243-24.324 33.917-35.046 53.834-20.13l145.661 109.077-119.851 98.082 354.743 351.436c10.398 10.305-2.539 26.957-15.095 19.421z" />
<glyph unicode="&#xe917;" d="M369.505 101.21c10.74-4.855 23.901-4.22 34.558 3.763l145.662 109.077-119.851 98.082-60.37-210.923z" />
<glyph unicode="&#xe918;" glyph-name="logo-twitter" d="M966.404 740.398c-20.855-9.248-42.505-16.544-64.721-21.826 24.478 23.261 42.884 52.355 53.265 84.83 2.965 9.271-7.104 17.288-15.475 12.324-30.903-18.331-64.196-32.084-98.948-40.879-2.014-0.51-4.096-0.769-6.182-0.769-6.332 0-12.484 2.351-17.323 6.616-36.975 32.587-84.531 50.534-133.901 50.534-21.363 0-42.935-3.33-64.111-9.898-65.617-20.352-116.25-74.479-132.134-141.26-5.961-25.048-7.573-50.12-4.8-74.516 0.32-2.804-1.007-4.76-1.822-5.678-1.434-1.609-3.469-2.531-5.581-2.531-0.239 0-0.478 0.012-0.721 0.034-143.634 13.345-273.158 82.544-364.712 194.848-4.669 5.728-13.621 5.026-17.343-1.357-17.929-30.758-27.403-65.938-27.403-101.736 0-54.862 22.041-106.563 60.326-144.253-16.1 3.817-31.683 9.83-46.158 17.869-7.003 3.891-15.619-1.11-15.718-9.12-1.003-81.501 46.714-154.021 118.195-186.674-1.44-0.038-2.879-0.051-4.321-0.051-11.331 0-22.803 1.092-34.095 3.251-7.887 1.506-14.512-5.978-12.063-13.623 23.201-72.435 85.569-125.824 160.204-137.95-61.943-41.579-134.076-63.514-209.152-63.514l-23.405 0.013c-7.212 0-13.311-4.698-15.148-11.682-1.81-6.882 1.524-14.14 7.674-17.715 84.599-49.233 181.097-75.255 279.102-75.255 85.787 0 166.032 17.024 238.51 50.598 66.445 30.78 125.163 74.778 174.515 130.769 45.978 52.164 81.933 112.375 106.859 178.97 23.761 63.479 36.322 131.211 36.322 195.876v3.081c0 10.383 4.693 20.153 12.885 26.804 31.091 25.243 58.167 54.958 80.469 88.318 5.888 8.809-3.401 19.849-13.090 15.551z" />
<glyph unicode="&#xe919;" glyph-name="logo-vk" d="M850.522 357.321c31.138-30.4 64-58.999 91.925-92.463 12.335-14.874 24.017-30.217 32.951-47.475 12.659-24.538 1.195-51.533-20.804-52.996l-136.751 0.060c-35.268-2.927-63.403 11.273-87.061 35.388-18.931 19.285-36.467 39.808-54.673 59.746-7.462 8.145-15.275 15.812-24.606 21.875-18.667 12.113-34.871 8.405-45.538-11.063-10.867-19.806-13.329-41.732-14.4-63.799-1.463-32.201-11.196-40.67-43.541-42.142-69.124-3.26-134.73 7.198-195.675 42.069-53.731 30.741-95.395 74.142-131.663 123.273-70.607 95.667-124.681 200.798-173.279 308.867-10.94 24.349-2.939 37.418 23.927 37.882 44.611 0.867 89.216 0.805 133.879 0.062 18.132-0.266 30.134-10.665 37.136-27.793 24.136-59.347 53.669-115.81 90.739-168.145 9.873-13.935 19.939-27.87 34.272-37.675 15.858-10.859 27.933-7.262 35.392 10.406 4.733 11.2 6.807 23.266 7.874 35.26 3.535 41.276 4 82.479-2.198 123.607-3.806 25.668-18.264 42.286-43.877 47.142-13.070 2.477-11.125 7.34-4.796 14.8 10.991 12.867 21.329 20.876 41.937 20.876h154.544c24.333-4.802 29.734-15.732 33.067-40.212l0.132-171.667c-0.269-9.476 4.732-37.602 21.803-43.874 13.662-4.467 22.669 6.464 30.865 15.125 37.005 39.275 63.411 85.686 87.006 133.745 10.47 21.133 19.473 43.078 28.198 65.007 6.464 16.271 16.606 24.277 34.935 23.923l148.74-0.132c4.412 0 8.875-0.064 13.146-0.796 25.062-4.272 31.932-15.053 24.192-39.529-12.198-38.399-35.93-70.4-59.136-102.547-24.802-34.32-51.332-67.468-75.93-101.994-22.605-31.535-20.809-47.424 7.266-74.812z" />
<glyph unicode="&#xe91a;" d="M218.351 500.409v-34.683h60.578c9.559 0 17.308 7.764 17.308 17.342s-7.748 17.342-17.308 17.342h-60.578zM218.351 448.384v-52.028h60.578c14.339 0 25.959 11.647 25.959 26.014 0 14.362-11.615 26.006-25.945 26.014h-0.029l-0.063-0.003v0.003h-60.499zM278.929 517.751c19.117 0 34.617-15.527 34.617-34.683 0-9.705-3.98-18.475-10.391-24.771 11.493-7.793 19.043-20.976 19.043-35.925 0-23.945-19.373-43.355-43.269-43.355l-0.079 0.002v-0.002h-77.807v94.71l-88.146-94.71v94.71l-88.146-94.71h-23.666l129.119 138.735v-94.71l72.007 77.368h-23.666l16.139 17.342h84.244z" />
<glyph unicode="&#xe91b;" d="M373.356 436.525c-2.363 0-16.224-0.418-18.583-0.418-0.591-0.361-0.591-1.678 0-2.035 3.244-0.18 4.894-0.423 4.894-5.394v-24.021c0-4.971-1.65-5.213-4.894-5.394-0.591-0.356-0.591-1.673 0-2.034 2.36 0.062 6.726 0.119 9.085 0.119 2.357 0 6.607-0.057 8.967-0.119 0.588 0.361 0.588 1.678 0 2.034-3.244 0.181-4.897 0.423-4.897 5.394v24.082c0 4.073 0.413 5.333 3.541 5.333 3.419 0 7.376-1.44 7.376-8.749 0-6.227-1.716-8.864-6.548-8.864-0.884 0-2.125 0.062-2.95 0.18 0-1.14 0.35-1.977 1.178-2.519 0.825-0.119 0.647-0.18 2.066-0.18 5.2 0 8.836 0.903 11.208 2.876 2.93 2.457 3.951 6.341 3.951 9.529 0 2.404-0.884 6.010-4.538 8.204-2.188 1.308-5.429 1.977-9.854 1.977zM399.609 413.821c0.056 2.096 0.374 4.355 1.178 5.575 0.932 1.426 2.517 2.034 3.185 2.034 1.594 0 3.775-1.559 3.775-6.35 0-0.361 0-1.141-0.116-1.259h-8.023zM414.589 405.075c-2.419-2.515-5.601-3.175-7.842-3.175-4.601 0-7.432 2.695-7.432 8.565 0 0.423 0.056 0.66 0.056 0.96h14.158c1.416 0 1.713 1.017 1.713 1.858 0 5.090-1.947 10.665-10.62 10.665-6.191 0-13.273-5.575-13.273-14.738 0-3.505 1.25-7.151 3.775-9.467 2.211-2.034 5.123-2.994 9.32-2.994 4.072 0 8.082 2.096 11.032 6.469 0 0.779-0.297 1.858-0.887 1.858zM442.905 402.561c0 0.718-0.116 1.854-0.766 1.854-2.36-2.215-4.363-3.351-6.076-3.351-4.422 0-7.904 3.232-7.904 10.423 0 6.649 1.472 9.943 4.601 9.943 2.185 0 3.069-2.334 3.244-4.254 0.175-1.616 1.772-2.814 3.66-2.814 1.885 0 3.241 1.497 3.241 3.355 0 2.695-3.182 6.231-9.614 6.231-6.963 0-13.098-5.694-13.098-14.558 0-3.875 1.371-7.341 3.66-9.529 2.321-2.206 4.986-3.113 9.201-3.113 3.544 0 7.61 2.514 9.851 5.812zM465.086 420.65c2.419-0.18 3.366-0.299 3.366-4.95v-10.766c0-4.963-0.947-5.491-3.366-5.672-0.35-0.356-0.35-1.673 0-2.034 1.356 0.062 4.396 0.119 7.198 0.119 3.265 0 5.898-0.057 8.379-0.119 0.35 0.361 0.35 1.678 0 2.034-3.6 0.181-4.544 0.709-4.544 5.672v10.766c0 5.011 0.944 5.549 4.544 5.729 0.35 0.361 0.35 1.678 0 2.039-2.538-0.123-8.379-0.18-8.379-0.18h-17.402c0 0.057-5.838 0.119-8.376 0.18-0.356-0.361-0.356-1.678 0-2.039 3.6-0.18 4.544-0.718 4.544-5.689v-10.784c0-4.972-0.944-5.513-4.544-5.694-0.356-0.356-0.356-1.673 0-2.034 2.475 0.062 5.111 0.119 8.376 0.119 2.802 0 5.841-0.057 7.201-0.119 0.35 0.361 0.35 1.678 0 2.034-2.422 0.181-3.366 0.722-3.366 5.694v10.784c0 4.553 0.944 4.729 3.366 4.91h3.004zM496.527 387.285c0.938 1.678 1.831 3.831 2.538 5.628 4.722 11.563 7.61 18.032 10.736 24.743 0.828 1.739 2.597 3.593 4.779 3.774 0.356 0.361 0.356 1.678 0 2.039-1.475-0.062-2.538-0.123-4.188-0.123-2.066 0-4.069 0.062-6.254 0.123-0.35-0.361-0.35-1.678 0-2.039 1.891-0.18 3.778-0.48 2.832-2.638l-6.076-13.836c-0.021-0.048-0.030-0.092-0.039-0.119 0 0.049-0.030 0.128-0.077 0.238l-5.485 12.519c-1.071 2.457-1.653 3.536 1.947 3.835 0.35 0.361 0.35 1.678 0 2.039-2.185-0.062-5.725-0.123-7.848-0.123-2.003 0-5.369 0.062-6.548 0.123-0.356-0.361-0.356-1.678 0-2.039 2.597-0.238 3.048-0.669 4.66-4.434l7.61-17.733c1-1.435 2.125-2.514 1.653-3.593l-1.398-3.294c-0.775-1.849-1.496-2.937-3.146-2.937-1.063 0-1.241 0.242-2.066 0.242-2.241 0-3.538-1.559-3.538-2.757 0-0.788 0.148-1.717 0.706-2.395 0.552-0.661 1.514-1.079 2.303-1.079 0.775 0 2.544 0.211 3.36 0.599 1.241 0.599 2.879 2.047 3.538 3.236zM525.315 412.984c0 4.311 2.775 7.966 4.957 7.966 3.422 0 6.076-2.876 6.076-10.242 0-7.79-2.716-11.264-4.835-11.264-2.953 0-6.197 1.797-6.197 13.541zM531.628 423.948c-5.544 0-9.323-3.717-10.558-6.231 0.591 3.052 1.119 5.628 1.947 7.367 1.71 3.774 2.538 4.971 8.789 4.971 5.31 0 8.023 2.814 9.379 9.106h-1.713c-1-3.175-4.36-3.774-9.201-3.774-5.898 0-8.15-5.033-9.735-8.868-1.178-2.845-2.888-7.966-2.888-13.18 0-12.999 7.195-16.711 13.152-16.711 9.207 0 13.808 6.948 13.808 15.394 0 5.87-3.482 11.924-12.98 11.924zM571.683 423.288h-12.327c-2.87 0.057-4.817 0.119-6.076 0.18-0.27-0.652-0.237-1.528 0-2.039 3.6-0.18 3.772-0.757 3.772-7.367 0-6.292-0.056-9.586-0.884-12.043-0.769-2.158-1.297-2.334-2.063-2.334-0.484 0-1.033 0.48-1.428 1.616-0.552 1.568-1.71 2.299-3.158 2.299-1.73 0-2.357-1.55-2.357-2.946 0-1.849 2.636-4.024 5.349-4.024 3.33 0 5.26 1.506 6.488 4.791 1.063 2.845 1.122 8.987 1.122 13.061 0 4.624 0.413 6.169 3.933 6.169 3.146 0 3.796 0 3.796-4.95v-10.766c0-4.963-1.537-5.491-3.956-5.672-0.35-0.356-0.35-1.673 0-2.034 1.359 0.062 4.752 0.119 7.788 0.119 3.265 0 5.901-0.057 8.379-0.119 0.353 0.361 0.353 1.678 0 2.034-3.6 0.181-4.541 0.709-4.541 5.672v10.766c0 5.011 0.941 5.549 4.541 5.729 0.353 0.361 0.353 1.678 0 2.039-2.538-0.062-8.379-0.123-8.379-0.123v-0.057zM595.811 401.839c-0.175 0-0.353 0.123-0.353 0.722v13.18c0 4.972 0.941 5.509 3.363 5.689 0.353 0.361 0.353 1.678 0 2.039-1.359-0.062-4.393-0.123-7.201-0.123-3.259 0-5.895 0.062-8.373 0.123-0.353-0.361-0.353-1.678 0-2.039 3.6-0.18 4.541-0.718 4.541-5.689v-10.784c0-4.972-0.941-5.513-4.541-5.694-0.353-0.356-0.353-1.673 0-2.034 2.538 0.062 5.114 0.119 8.373 0.119 1.891 0 3.544-0.057 4.841-0.119 0.178 0.48 0.285 0.779 0.472 1.259l7.904 20.366c0.178 0 0.356-0.119 0.356-0.718v-13.18c0-4.972-0.944-5.513-3.363-5.694-0.356-0.356-0.356-1.673 0-2.034 1.356 0.062 4.396 0.119 7.198 0.119 3.265 0 5.898-0.057 8.376-0.119 0.353 0.361 0.353 1.678 0 2.034-3.597 0.181-4.544 0.722-4.544 5.694v10.784c0 4.972 0.947 5.509 4.544 5.689 0.353 0.361 0.353 1.678 0 2.039-2.535-0.062-5.111-0.123-8.376-0.123-1.891 0-3.538 0.062-4.841 0.123-0.178-0.48-0.285-0.771-0.472-1.259l-7.904-20.37zM632.799 410.527c1.416 0.119 3.597-0.836 4.544-2.875 0.706-1.559 1.885-4.553 3.185-6.83 1.71-3.175 3.716-3.593 6.426-3.593l5.254 0.119c0.315 0.608 0.386 1.229 0 1.915-2.3 0.273-3.128 0.841-4.835 4.016-1.775 3.236-2.538 5.271-3.425 6.468-1.297 1.74-2.832 2.457-4.185 2.818v0.299c0.962 0.859 1.837 1.885 2.535 2.876 1.552 2.246 2.781 2.704 4.601 2.153 1.908-0.568 4.209 0.991 3.894 3.355-0.276 2.017-1.416 2.699-3.419 2.699-2.481 0-4.485-2.281-5.607-3.897-1.119-1.616-3.185-4.311-4.247-5.333-1.535-1.497-3.363-2.153-4.719-2.215v3.236c0 4.972 0.944 5.509 3.363 5.689 0.353 0.361 0.353 1.678 0 2.039-1.3-0.062-4.366-0.123-7.198-0.123-3.244 0-5.841 0.062-8.376 0.123-0.353-0.361-0.353-1.678 0-2.039 3.597-0.18 4.544-0.718 4.544-5.689v-10.784c0-4.972-0.947-5.513-4.544-5.694-0.353-0.356-0.353-1.673 0-2.034 2.478 0.062 5.132 0.119 8.376 0.119 2.832 0 5.841-0.057 7.198-0.119 0.353 0.361 0.353 1.678 0 2.034-2.419 0.181-3.363 0.722-3.363 5.694v5.57zM667.25 401.839c-0.178 0-0.353 0.123-0.353 0.722v13.18c0 4.972 0.941 5.509 3.363 5.689 0.353 0.361 0.353 1.678 0 2.039-1.359-0.062-4.393-0.123-7.201-0.123-3.259 0-5.898 0.062-8.373 0.123-0.353-0.361-0.353-1.678 0-2.039 3.594-0.18 4.541-0.718 4.541-5.689v-10.784c0-4.972-0.947-5.513-4.541-5.694-0.353-0.356-0.353-1.673 0-2.034 2.538 0.062 5.114 0.119 8.373 0.119 1.891 0 3.544-0.057 4.841-0.119 0.178 0.48 0.285 0.779 0.472 1.259l7.904 20.366c0.175 0 0.353-0.119 0.353-0.718v-13.18c0-4.972-0.941-5.513-3.363-5.694-0.353-0.356-0.353-1.673 0-2.034 1.359 0.062 4.393 0.119 7.201 0.119 3.259 0 5.895-0.057 8.373-0.119 0.353 0.361 0.353 1.678 0 2.034-3.597 0.181-4.541 0.722-4.541 5.694v10.784c0 4.972 0.944 5.509 4.541 5.689 0.353 0.361 0.353 1.678 0 2.039-2.535-0.062-5.114-0.123-8.373-0.123-1.891 0-3.544 0.062-4.841 0.123-0.178-0.48-0.285-0.771-0.472-1.259l-7.904-20.37zM737.743 429.875c1.38 3.624 3.304 4.016 5.901 4.196 0.353 0.357 0.353 1.673 0 2.035-1.543-0.057-3.247-0.119-5.544-0.119-2.419 0-5.663 0.062-7.851 0.119-0.35-0.361-0.35-1.678 0-2.035 2.247-0.18 4.918-0.541 4.072-2.818l-6.135-16.473c-0.157-0.41-0.43-0.379-0.549-0.119l-7.652 17.072c-0.813 1.827 1.537 2.158 4.369 2.338 0.353 0.357 0.353 1.673 0 2.035-2.182-0.057-8.085-0.119-10.382-0.119-2.419 0-5.723 0.062-7.904 0.119-0.356-0.361-0.356-1.678 0-2.035 2.297-0.242 4.111-0.48 5.369-3.236l12.092-26.597c-1.419-3.717-2.775-3.774-4.544-3.774-0.884 0-1.71 0.718-2.182 1.374-0.519 0.722-1.535 1.321-3.010 1.321-1.885 0-2.769-1.739-2.769-3.417 0-1.915 2.769-4.13 6.307-4.13 5.313 0 9.186 4.831 11.683 11.379l8.729 22.885zM753.907 396.748c8.557 0 11.801 3.893 11.801 8.146 0 4.773-4.975 6.253-6.589 6.53l-0.021 0.18c3.778 0.81 5.607 3.413 5.607 5.751 0 5.451-5.135 6.592-10.385 6.592-3.244 0-6.96-0.603-8.845-1.44-0.534-1.916-0.89-4.192-0.89-6.35 0.594-0.418 1.241-0.48 2.303-0.299 1.475 3.655 3.778 5.57 6.488 5.57 2.244 0 3.597-1.467 3.597-4.311 0-2.488-0.027-4.496-4.185-4.496h-1.828c-0.416 0-0.884-0.357-0.884-0.955 0-0.542 0.35-1.678 0.884-1.678h3.244c2.947 0 3.482-2.756 3.482-5.513 0-4.223-2.333-5.214-3.894-5.214-2.125 0-3.096 1.11-3.894 3.417-0.463 1.308-1.535 2.457-3.188 2.457-1.65 0-2.475-1.321-2.475-2.937 0-2.338 3.508-5.452 9.673-5.452zM777.919 412.984c0 4.311 2.769 7.966 4.954 7.966 3.422 0 6.076-2.876 6.076-10.242 0-7.79-2.713-11.264-4.838-11.264-2.95 0-6.191 1.797-6.191 13.541zM784.233 423.948c-5.547 0-9.323-3.717-10.564-6.231 0.591 3.052 1.122 5.628 1.947 7.367 1.713 3.774 2.535 4.971 8.789 4.971 5.313 0 8.026 2.814 9.385 9.106h-1.716c-1-3.175-4.366-3.774-9.201-3.774-5.901 0-8.15-5.033-9.732-8.868-1.181-2.845-2.894-7.966-2.894-13.18 0-12.999 7.198-16.711 13.158-16.711 9.201 0 13.805 6.948 13.805 15.394 0 5.87-3.482 11.924-12.977 11.924zM809.889 413.821c0.059 2.096 0.377 4.355 1.184 5.575 0.932 1.426 2.514 2.034 3.182 2.034 1.597 0 3.778-1.559 3.778-6.35 0-0.361 0-1.141-0.119-1.259h-8.026zM824.875 405.075c-2.419-2.515-5.604-3.175-7.845-3.175-4.604 0-7.435 2.695-7.435 8.565 0 0.423 0.059 0.66 0.059 0.96h14.158c1.419 0 1.713 1.017 1.713 1.858 0 5.090-1.947 10.665-10.62 10.665-6.194 0-13.273-5.575-13.273-14.738 0-3.505 1.25-7.151 3.778-9.467 2.211-2.034 5.12-2.994 9.317-2.994 4.072 0 8.085 2.096 11.032 6.469 0 0.779-0.294 1.858-0.884 1.858zM842.102 410.527c1.416 0.119 3.594-0.836 4.541-2.875 0.706-1.559 1.885-4.553 3.188-6.83 1.707-3.175 3.716-3.593 6.429-3.593l5.248 0.119c0.318 0.608 0.386 1.229 0 1.915-2.297 0.273-3.125 0.841-4.835 4.016-1.769 3.236-2.538 5.271-3.422 6.468-1.3 1.74-2.832 2.457-4.188 2.818v0.299c0.962 0.859 1.837 1.885 2.538 2.876 1.552 2.246 2.778 2.704 4.601 2.153 1.908-0.568 4.206 0.991 3.894 3.355-0.279 2.017-1.419 2.699-3.422 2.699-2.481 0-4.485-2.281-5.607-3.897-1.119-1.616-3.182-4.311-4.244-5.333-1.535-1.497-3.366-2.153-4.719-2.215v3.236c0 4.972 0.941 5.509 3.36 5.689 0.356 0.361 0.356 1.678 0 2.039-1.294-0.062-4.366-0.123-7.198-0.123-3.241 0-5.841 0.062-8.376 0.123-0.353-0.361-0.353-1.678 0-2.039 3.597-0.18 4.544-0.718 4.544-5.689v-10.784c0-4.972-0.947-5.513-4.544-5.694-0.353-0.356-0.353-1.673 0-2.034 2.478 0.062 5.135 0.119 8.376 0.119 2.832 0 5.841-0.057 7.198-0.119 0.356 0.361 0.356 1.678 0 2.034-2.419 0.181-3.36 0.722-3.36 5.694v5.57zM876.55 401.839c-0.175 0-0.35 0.123-0.35 0.722v13.18c0 4.972 0.941 5.509 3.36 5.689 0.356 0.361 0.356 1.678 0 2.039-1.356-0.062-4.393-0.123-7.198-0.123-3.262 0-5.898 0.062-8.373 0.123-0.356-0.361-0.356-1.678 0-2.039 3.597-0.18 4.538-0.718 4.538-5.689v-10.784c0-4.972-0.941-5.513-4.538-5.694-0.356-0.356-0.356-1.673 0-2.034 2.535 0.062 5.111 0.119 8.373 0.119 1.891 0 3.541-0.057 4.838-0.119 0.178 0.48 0.285 0.779 0.472 1.259l7.907 20.366c0.175 0 0.353-0.119 0.353-0.718v-13.18c0-4.972-0.944-5.513-3.363-5.694-0.356-0.356-0.356-1.673 0-2.034 1.356 0.062 4.396 0.119 7.198 0.119 3.265 0 5.898-0.057 8.376-0.119 0.353 0.361 0.353 1.678 0 2.034-3.597 0.181-4.544 0.722-4.544 5.694v10.784c0 4.972 0.947 5.509 4.544 5.689 0.353 0.361 0.353 1.678 0 2.039-2.535-0.062-5.111-0.123-8.376-0.123-1.891 0-3.544 0.062-4.841 0.123-0.175-0.48-0.285-0.771-0.472-1.259l-7.904-20.37zM924.63 402.561c0 0.718-0.119 1.854-0.769 1.854-2.36-2.215-4.366-3.351-6.076-3.351-4.425 0-7.904 3.232-7.904 10.423 0 6.649 1.475 9.943 4.601 9.943 2.182 0 3.066-2.334 3.244-4.254 0.178-1.616 1.769-2.814 3.66-2.814 1.885 0 3.244 1.497 3.244 3.355 0 2.695-3.188 6.231-9.62 6.231-6.957 0-13.095-5.694-13.095-14.558 0-3.875 1.368-7.341 3.66-9.529 2.321-2.206 4.983-3.113 9.201-3.113 3.541 0 7.61 2.514 9.854 5.812zM937.96 404.635c0-4.949-0.647-5.192-4.247-5.372-0.353-0.356-0.353-1.673 0-2.034 2.478 0.062 5.114 0.119 8.379 0.119 3.036 0 5.515-0.057 7.788-0.119 0.35 0.361 0.35 1.678 0 2.034-3.6 0.181-4.25 0.423-4.25 5.372v16.376h1c4.336 0 5.547-1.607 6.548-6.451 0.769-0.308 2.303 0.15 2.303 0.242-0.356 2.743-0.588 5.381-0.65 8.842-1.356-0.119-6.37-0.356-9.317-0.356h-7.432c-2.953 0-6.844 0.18-9.207 0.356-0.056-3.461-0.294-6.099-0.706-8.842-0.119-0.062 1.395-0.343 2.36-0.242 1.006 4.844 2.333 6.451 6.548 6.451h0.884v-16.376zM974.435 400.253c0.395-2.426 1.986-3.505 4.583-3.505 3.256 0 5.547 1.259 7.729 3.355-0.137 0.7-0.383 1.176-1.063 1.678-0.766-0.599-1.359-0.841-2.478-0.841-1.294 0-1.65 1.079-1.65 4.016l0.116 8.626c0 8.627-5.251 10.366-10.095 10.366-4.328 0-10.964-2.497-10.964-6.451 0-1.717 0.718-3.025 3.060-3.025 2.081 0 3.663 1.317 3.663 2.765 0 0.788-0.41 1.797-0.273 2.836 0.089 0.656 0.513 1.356 2.499 1.356 2.484 0 4.562-1.079 4.562-8.688l-3.965-1.255c-6.203-1.977-10.549-3.717-10.549-8.446 0-4.135 2.241-6.292 7.376-6.292 1.71 0 5.129 1.916 7.076 3.474l0.374 0.031zM974.124 410.408v-7.909c-1.475-1.198-2.95-2.158-4.013-2.158-2.535 0-3.419 1.739-3.419 3.598 0 2.215 0.187 4.060 4.36 5.452l3.072 1.017zM1010.403 415.74v-3.355h-9.732v3.355c0 4.972 0.941 5.509 3.36 5.689 0.356 0.361 0.356 1.678 0 2.039-1.297-0.062-4.366-0.123-7.198-0.123-3.244 0-5.838 0.062-8.373 0.123-0.356-0.361-0.356-1.678 0-2.039 3.597-0.18 4.538-0.718 4.538-5.689v-10.784c0-4.972-0.941-5.513-4.538-5.694-0.356-0.356-0.356-1.673 0-2.034 2.475 0.062 5.129 0.119 8.373 0.119 2.832 0 5.841-0.057 7.198-0.119 0.356 0.361 0.356 1.678 0 2.034-2.419 0.181-3.36 0.722-3.36 5.694v5.090h9.732v-5.090c0-4.972-0.944-5.513-3.363-5.694-0.356-0.356-0.356-1.673 0-2.034 1.356 0.062 4.366 0.119 7.198 0.119 3.244 0 5.898-0.057 8.376-0.119 0.353 0.361 0.353 1.678 0 2.034-3.597 0.181-4.544 0.722-4.544 5.694v10.784c0 4.972 0.947 5.509 4.544 5.689 0.353 0.361 0.353 1.678 0 2.039-2.535-0.062-5.132-0.123-8.376-0.123-2.832 0-5.901 0.062-7.198 0.123-0.356-0.361-0.356-1.678 0-2.039 2.419-0.18 3.363-0.718 3.363-5.689z" />
<glyph unicode="&#xe91c;" d="M394.477 463.581c5.642 0.072 8.824-5.003 9.911-10.147 1.086-0.195 2.146-0.085 3.036 0.289l-0.433 11.45c-0.074 0.581-0.362 1.451-2.17 1.451-1.736 0-3.036 1.413-3.036 5.797v29.066c0 6.014 2.024 6.306 6.002 6.523 0.724 0.433 0.724 2.029 0 2.465-2.894-0.072-8.245-0.148-11.139-0.148s-8.103 0.075-10.997 0.148c-0.721-0.437-0.721-2.032 0-2.465 3.98-0.217 6.007-0.509 6.007-6.523v-29.066c0-5.037-2.027-5.581-6.007-5.797h-7.521c-3.977 0.217-6.002 0.725-6.002 5.797v29.066c0 6.014 2.024 6.306 6.002 6.523 0.724 0.433 0.724 2.029 0 2.465-2.894-0.072-8.245-0.148-11.139-0.148s-8.103 0.075-10.997 0.148c-0.724-0.437-0.724-2.032 0-2.465 3.977-0.217 6.007-0.509 6.007-6.523v-29.066c0-6.014-2.030-6.306-6.007-6.523-0.724-0.434-0.724-2.029 0-2.462 2.894 0.072 8.103 0.145 10.997 0.145 4.604 0 10.406-0.145 14.971-0.145 4.473 0 12.517 0.145 12.517 0.145zM423.194 483.511c0.074 2.537 0.457 5.267 1.448 6.743 1.146 1.727 3.084 2.462 3.906 2.462 1.953 0 4.63-1.884 4.63-7.682 0-0.433 0-1.376-0.145-1.523h-9.839zM441.57 472.93c-2.965-3.043-6.871-3.841-9.62-3.841-5.645 0-9.115 3.26-9.115 10.364 0 0.509 0.071 0.798 0.071 1.159h17.361c1.733 0 2.098 1.234 2.098 2.249 0 6.159-2.389 12.901-13.021 12.901-7.598 0-16.277-6.743-16.277-17.832 0-4.24 1.535-8.649 4.63-11.45 2.713-2.465 6.281-3.624 11.427-3.624 4.995 0 9.911 2.537 13.529 7.826 0 0.942-0.359 2.249-1.083 2.249zM474.625 485.832v-4.061h-11.935v4.061c0 6.014 1.158 6.667 4.126 6.884 0.433 0.437 0.433 2.029 0 2.465-1.594-0.072-5.354-0.144-8.827-0.144-3.977 0-7.162 0.072-10.27 0.144-0.436-0.437-0.436-2.029 0-2.465 4.411-0.217 5.568-0.87 5.568-6.884v-13.046c0-6.017-1.158-6.67-5.568-6.887-0.436-0.434-0.436-2.029 0-2.462 3.036 0.072 6.292 0.145 10.27 0.145 3.473 0 7.162-0.072 8.827-0.145 0.433 0.433 0.433 2.029 0 2.462-2.968 0.217-4.126 0.87-4.126 6.887v6.159h11.935v-6.159c0-6.017-1.155-6.67-4.12-6.887-0.436-0.434-0.436-2.029 0-2.462 1.662 0.072 5.349 0.145 8.824 0.145 3.977 0 7.233-0.072 10.27-0.145 0.436 0.433 0.436 2.029 0 2.462-4.414 0.217-5.568 0.87-5.568 6.887v13.046c0 6.014 1.155 6.667 5.568 6.884 0.436 0.437 0.436 2.029 0 2.465-3.108-0.072-6.292-0.144-10.27-0.144-3.476 0-7.236 0.072-8.824 0.144-0.436-0.437-0.436-2.029 0-2.465 2.965-0.217 4.12-0.87 4.12-6.884zM505.44 472.4c0-5.992-0.792-6.284-5.206-6.501-0.436-0.434-0.436-2.029 0-2.462 3.036 0.072 6.269 0.145 10.273 0.145 3.722 0 6.764-0.072 9.545-0.145 0.436 0.433 0.436 2.029 0 2.462-4.414 0.217-5.206 0.509-5.206 6.501v19.81h1.229c5.316 0 6.8-1.947 8.032-7.804 0.941-0.374 2.82 0.182 2.82 0.289-0.436 3.323-0.724 6.51-0.795 10.703-1.665-0.144-7.815-0.433-11.43-0.433h-9.112c-3.618 0-8.394 0.217-11.288 0.433-0.071-4.193-0.359-7.38-0.867-10.703-0.145-0.072 1.713-0.411 2.891-0.289 1.232 5.857 2.858 7.804 8.032 7.804h1.083v-19.81zM535.68 485.976v-30.369c0-6.014-0.798-6.162-5.206-6.523-0.436-0.433-0.436-2.029 0-2.465 3.036 0.072 6.052 0.144 9.908 0.144 3.859 0 6.8-0.072 9.911-0.144 0.436 0.436 0.436 2.032 0 2.465-4.414 0.289-5.206 0.509-5.206 6.523v8.479c1.552-0.798 3.108-1.231 4.844-1.231 11.030 0 18.159 7.21 18.159 17.901 0 4.035-1.535 8.555-4.342 11.381-2.532 2.547-6.162 3.624-9.911 3.624-2.095 0-6.002-2.538-8.533-4.858h-0.413c-0.169 2.054-0.386 3.624-0.386 3.624-0.071 0.882-0.65 1.234-1.662 1.234-2.677-0.725-7.020-1.74-12.009-2.393-0.145-0.433 0-1.884 0.145-2.318 3.942-0.364 4.701-0.945 4.701-5.075zM545.086 468.292v18.58c0 0.386-0.015 0.785-0.027 1.184 2.084 1.884 4.761 2.848 6.462 2.848 2.968 0 6.441-3.624 6.441-12.104 0-6.086-2.173-12.901-8.465-12.901-0.798 0-2.606 0.436-4.411 2.393zM592.198 467.095c0.481-2.936 2.434-4.24 5.619-4.24 3.989 0 6.8 1.523 9.474 4.057-0.169 0.848-0.469 1.426-1.3 2.032-0.941-0.725-1.665-1.017-3.039-1.017-1.591 0-2.024 1.306-2.024 4.858l0.142 10.436c0 10.436-6.438 12.54-12.38 12.54-5.304 0-13.443-3.021-13.443-7.804 0-2.079 0.879-3.662 3.752-3.662 2.553 0 4.494 1.595 4.494 3.348 0 0.955-0.505 2.173-0.335 3.43 0.107 0.798 0.626 1.642 3.063 1.642 3.048 0 5.592-1.303 5.592-10.508l-4.859-1.523c-7.607-2.39-12.935-4.494-12.935-10.219 0-5 2.748-7.609 9.041-7.609 2.098 0 6.295 2.318 8.682 4.202l0.457 0.038zM591.813 479.381v-9.569c-1.811-1.448-3.618-2.607-4.918-2.607-3.111 0-4.197 2.101-4.197 4.347 0 2.682 0.229 4.918 5.354 6.595l3.761 1.234zM637.89 494.964h-15.117c-3.52 0.072-5.907 0.144-7.45 0.217-0.326-0.785-0.288-1.847 0-2.465 4.414-0.217 4.63-0.917 4.63-8.913 0-7.613-0.074-11.598-1.086-14.569-0.938-2.61-1.591-2.826-2.532-2.826-0.594 0-1.267 0.578-1.748 1.957-0.674 1.897-2.098 2.779-3.867 2.779-2.122 0-2.897-1.875-2.897-3.565 0-2.236 3.232-4.868 6.56-4.868 4.087 0 6.45 1.825 7.958 5.797 1.303 3.442 1.374 10.873 1.374 15.8 0 5.593 0.508 7.465 4.823 7.465 3.856 0 4.651 0 4.651-5.992v-13.021c0-6.005-1.879-6.645-4.844-6.862-0.433-0.434-0.433-2.029 0-2.462 1.662 0.072 5.823 0.145 9.545 0.145 4.004 0 7.236-0.072 10.276-0.145 0.433 0.433 0.433 2.029 0 2.462-4.414 0.217-5.571 0.857-5.571 6.862v13.021c0 6.064 1.158 6.718 5.571 6.934 0.433 0.437 0.433 2.029 0 2.465-3.114-0.072-10.276-0.144-10.276-0.144v-0.072zM677.098 473.147c0-4.202-1.808-6.956-6.079-6.956-3.312 0-3.977 0.505-3.977 3.115v11.234h4.271c5.426 0 5.785-4.494 5.785-7.393zM662.341 463.581l10.056-0.145c9.474 0 14.104 2.827 14.104 10.364 0 8.008-6.367 9.494-14.541 9.494h-4.918v2.537c0 6.014 1.158 6.667 5.571 6.884 0.436 0.437 0.436 2.029 0 2.465-3.111-0.072-6.269-0.144-10.273-0.144-4.001 0-7.233 0.072-10.27 0.144-0.436-0.437-0.436-2.029 0-2.465 4.414-0.217 5.568-0.87 5.568-6.884v-13.046c0-6.017-1.155-6.67-5.568-6.887-0.436-0.434-0.436-2.029 0-2.462 3.108 0.072 6.269 0.145 10.27 0.145zM716.45 485.832v-4.061h-11.935v4.061c0 6.014 1.158 6.667 4.123 6.884 0.433 0.437 0.433 2.029 0 2.465-1.591-0.072-5.352-0.144-8.824-0.144-3.977 0-7.162 0.072-10.273 0.144-0.433-0.437-0.433-2.029 0-2.465 4.411-0.217 5.571-0.87 5.571-6.884v-13.046c0-6.017-1.161-6.67-5.571-6.887-0.433-0.434-0.433-2.029 0-2.462 3.039 0.072 6.295 0.145 10.273 0.145 3.473 0 7.162-0.072 8.824-0.145 0.433 0.433 0.433 2.029 0 2.462-2.965 0.217-4.123 0.87-4.123 6.887v6.159h11.935v-6.159c0-6.017-1.155-6.67-4.123-6.887-0.433-0.434-0.433-2.029 0-2.462 1.662 0.072 5.352 0.145 8.824 0.145 3.977 0 7.236-0.072 10.273-0.145 0.436 0.433 0.436 2.029 0 2.462-4.414 0.217-5.571 0.87-5.571 6.887v13.046c0 6.014 1.158 6.667 5.571 6.884 0.436 0.437 0.436 2.029 0 2.465-3.111-0.072-6.295-0.144-10.273-0.144-3.473 0-7.233 0.072-8.824 0.144-0.433-0.437-0.433-2.029 0-2.465 2.968-0.217 4.123-0.87 4.123-6.884zM786.904 485.832c0 6.014 1.161 6.667 5.574 6.884 0.433 0.437 0.433 2.029 0 2.465-3.039-0.072-6.272-0.144-10.276-0.144-4.001 0-7.159 0.072-10.27 0.144-0.433-0.437-0.433-2.029 0-2.465 4.414-0.217 5.568-0.87 5.568-6.884v-13.046c0-6.017-1.155-6.67-5.568-6.887-0.433-0.434-0.433-2.029 0-2.462 3.036 0.072 6.269 0.145 10.27 0.145 4.004 0 7.162-0.072 10.276-0.145 0.433 0.433 0.433 2.029 0 2.462-4.414 0.217-5.574 0.87-5.574 6.887v13.046zM760.36 473.147c0-4.202-1.808-6.956-6.079-6.956-3.315 0-3.977 0.505-3.977 3.115v11.234h4.268c5.426 0 5.788-4.494 5.788-7.393zM745.6 463.581l10.056-0.145c9.477 0 14.107 2.827 14.107 10.364 0 8.008-6.367 9.494-14.541 9.494h-4.918v2.537c0 6.014 1.158 6.667 5.571 6.884 0.433 0.437 0.433 2.029 0 2.465-3.114-0.072-6.269-0.144-10.276-0.144-3.998 0-7.23 0.072-10.27 0.144-0.433-0.437-0.433-2.029 0-2.465 4.414-0.217 5.568-0.87 5.568-6.884v-13.046c0-6.017-1.155-6.67-5.568-6.887-0.433-0.434-0.433-2.029 0-2.462 3.111 0.072 6.272 0.145 10.27 0.145zM811.789 469.017c-0.217 0-0.433 0.145-0.433 0.87v15.944c0 6.014 1.158 6.667 4.126 6.884 0.433 0.437 0.433 2.029 0 2.465-1.665-0.072-5.39-0.144-8.827-0.144-4.001 0-7.233 0.072-10.27 0.144-0.436-0.437-0.436-2.029 0-2.465 4.414-0.217 5.568-0.87 5.568-6.884v-13.046c0-6.017-1.155-6.67-5.568-6.887-0.436-0.434-0.436-2.029 0-2.462 3.108 0.072 6.269 0.145 10.27 0.145 2.315 0 4.342-0.072 5.93-0.145 0.22 0.578 0.353 0.942 0.582 1.52l9.694 24.644c0.217 0 0.433-0.144 0.433-0.87v-15.945c0-6.017-1.158-6.67-4.123-6.887-0.436-0.434-0.436-2.029 0-2.462 1.662 0.072 5.387 0.145 8.824 0.145 4.001 0 7.233-0.072 10.27-0.145 0.436 0.433 0.436 2.029 0 2.462-4.408 0.217-5.568 0.87-5.568 6.887v13.046c0 6.014 1.161 6.667 5.568 6.884 0.436 0.437 0.436 2.029 0 2.465-3.108-0.072-6.269-0.144-10.27-0.144-2.315 0-4.342 0.072-5.93 0.144-0.22-0.581-0.35-0.93-0.582-1.523l-9.694-24.641zM827.199 507.357c0 1.668-1.229 2.754-3.039 2.754-1.448 0-2.965-1.231-2.965-2.682 0-0.471 0.145-0.93 0.145-1.376 0-1.884-0.724-3.335-3.473-3.335-2.823 0-3.473 1.451-3.473 3.335 0 0.264 0.145 1.171 0.145 1.448 0 1.379-1.232 2.61-2.894 2.61-1.736 0-3.111-1.303-3.111-2.899 0-4.711 4.342-7.537 9.261-7.537 4.844 0 9.403 2.899 9.403 7.682z" />
<glyph unicode="&#xe91d;" d="M875.603 466.624c-3.618 0-4.414 1.027-4.414 6.378v14.569h6.871c8.067 0 8.32-6.959 8.32-11.089 0-4.494-0.178-9.858-10.777-9.858zM878.785 507.285c7.595 0 10.273-4.058 11.718-9.277 0.87-0.144 2.386 0 3.111 0.364-0.107 3.781-0.543 8.347-1.158 12.104 0 0-6.58-0.144-8.679-0.144h-17.58c-2.82 0-11.139 0.144-11.139 0.144-0.724-0.437-0.724-2.029 0-2.465 3.98-0.217 6.004-0.506 6.004-6.523v-29.062c0-6.017-2.024-6.306-6.004-6.526-0.724-0.433-0.724-2.029 0-2.462 0 0 8.245 0.145 11.139 0.145 2.897 0 4.342-0.145 10.276-0.145l5.497 0.145c8.51 0.229 15.262 6.306 15.262 13.988 0 5.509-0.505 13.19-18.23 13.19h-7.812v10.8c0 4.35 1.012 5.725 2.532 5.725h5.064zM921.924 467.095c0.484-2.933 2.434-4.24 5.616-4.24 3.992 0 6.803 1.523 9.477 4.061-0.166 0.845-0.472 1.423-1.303 2.029-0.938-0.725-1.662-1.014-3.036-1.014-1.591 0-2.024 1.303-2.024 4.855l0.145 10.436c0 10.439-6.441 12.54-12.386 12.54-5.304 0-13.44-3.021-13.44-7.804 0-2.076 0.879-3.659 3.749-3.659 2.556 0 4.497 1.592 4.497 3.345 0 0.955-0.508 2.173-0.338 3.429 0.107 0.798 0.629 1.646 3.063 1.646 3.051 0 5.595-1.306 5.595-10.511l-4.862-1.52c-7.607-2.393-12.935-4.494-12.935-10.222 0-4.999 2.748-7.609 9.044-7.609 2.095 0 6.292 2.321 8.679 4.205l0.46 0.034zM921.538 479.381v-9.566c-1.808-1.451-3.618-2.61-4.921-2.61-3.108 0-4.194 2.101-4.194 4.35 0 2.679 0.229 4.915 5.352 6.595l3.764 1.231zM966.024 485.832v-4.057h-11.935v4.057c0 6.017 1.155 6.667 4.126 6.887 0.43 0.433 0.43 2.029 0 2.462-1.594-0.072-5.354-0.144-8.827-0.144-3.977 0-7.162 0.072-10.273 0.144-0.436-0.433-0.436-2.029 0-2.462 4.414-0.22 5.571-0.87 5.571-6.887v-13.045c0-6.017-1.158-6.668-5.571-6.887-0.436-0.433-0.436-2.029 0-2.462 3.036 0.072 6.295 0.145 10.273 0.145 3.473 0 7.162-0.072 8.827-0.145 0.43 0.433 0.43 2.029 0 2.462-2.971 0.22-4.126 0.87-4.126 6.887v6.162h11.935v-6.162c0-6.017-1.158-6.668-4.123-6.887-0.433-0.433-0.433-2.029 0-2.462 1.662 0.072 5.352 0.145 8.824 0.145 3.977 0 7.233-0.072 10.273-0.145 0.433 0.433 0.433 2.029 0 2.462-4.411 0.22-5.571 0.87-5.571 6.887v13.045c0 6.017 1.161 6.667 5.571 6.887 0.433 0.433 0.433 2.029 0 2.462-3.111-0.072-6.295-0.144-10.273-0.144-3.473 0-7.233 0.072-8.824 0.144-0.433-0.433-0.433-2.029 0-2.462 2.965-0.22 4.123-0.87 4.123-6.887zM999.878 479.526c1.736 0.145 4.414-1.015 5.571-3.477 0.867-1.887 2.312-5.511 3.903-8.263 2.098-3.844 4.559-4.35 7.886-4.35l6.438 0.145c0.386 0.738 0.472 1.486 0 2.318-2.82 0.326-3.835 1.017-5.933 4.858-2.167 3.913-3.108 6.378-4.191 7.826-1.594 2.104-3.476 2.971-5.138 3.407v0.361c1.181 1.039 2.253 2.283 3.108 3.48 1.906 2.717 3.413 3.273 5.645 2.61 2.339-0.688 5.159 1.197 4.773 4.058-0.338 2.44-1.736 3.263-4.197 3.263-3.036 0-5.497-2.754-6.868-4.711-1.377-1.957-3.909-5.22-5.209-6.451-1.882-1.812-4.123-2.61-5.788-2.682v3.913c0 6.017 1.158 6.667 4.123 6.887 0.436 0.433 0.436 2.029 0 2.462-1.594-0.072-5.354-0.144-8.824-0.144-3.98 0-7.162 0.072-10.27 0.144-0.436-0.433-0.436-2.029 0-2.462 4.408-0.22 5.568-0.87 5.568-6.887v-13.045c0-6.017-1.161-6.668-5.568-6.887-0.436-0.433-0.436-2.029 0-2.462 3.036 0.072 6.289 0.145 10.27 0.145 3.47 0 7.159-0.072 8.824-0.145 0.436 0.433 0.436 2.029 0 2.462-2.965 0.22-4.123 0.87-4.123 6.887v6.739z" />
<glyph unicode="&#xe91e;" glyph-name="LogoMB" d="M688.613 612.571v-109.712h192c30.298 0 54.857 24.559 54.857 54.857s-24.559 54.855-54.857 54.855h-192zM688.613 448.005v-164.576h192c45.446 0 82.281 36.84 82.281 82.288 0 45.429-36.818 82.261-82.239 82.288h-0.093l-0.2-0.010-191.749 0.010zM880.613 667.429c60.587 0 109.712-49.115 109.712-109.712 0-30.7-12.61-58.444-32.929-78.358 36.423-24.652 60.353-66.353 60.353-113.642 0-75.744-61.399-137.145-137.136-137.145l-0.251 0.007-246.606-0.007v299.593l-279.374-299.593v299.593l-279.375-299.593h-75.007l409.239 438.857v-299.593l228.22 244.736h-75.006l51.151 54.857h267.008z" />
<glyph unicode="&#xe91f;" glyph-name="menu" d="M85.333 448c0 23.565 19.103 42.667 42.667 42.667h768c23.565 0 42.667-19.102 42.667-42.667s-19.102-42.667-42.667-42.667h-768c-23.564 0-42.667 19.102-42.667 42.667zM85.333 704c0 23.564 19.103 42.667 42.667 42.667h768c23.565 0 42.667-19.103 42.667-42.667s-19.102-42.667-42.667-42.667h-768c-23.564 0-42.667 19.103-42.667 42.667zM85.333 192c0 23.565 19.103 42.667 42.667 42.667h768c23.565 0 42.667-19.102 42.667-42.667s-19.102-42.667-42.667-42.667h-768c-23.564 0-42.667 19.102-42.667 42.667z" />
<glyph unicode="&#xe920;" glyph-name="printer" d="M213.333 874.667c0 23.564 19.103 42.667 42.667 42.667h512c23.563 0 42.667-19.103 42.667-42.667v-298.667c0-23.564-19.103-42.667-42.667-42.667s-42.667 19.103-42.667 42.667v256h-426.667v-256c0-23.564-19.103-42.667-42.667-42.667s-42.667 19.103-42.667 42.667v298.667zM170.667 533.333c-11.316 0-22.168-4.495-30.17-12.497s-12.497-18.854-12.497-30.17v-213.333c0-11.315 4.495-22.17 12.497-30.168 8.001-8.004 18.854-12.498 30.17-12.498h85.333c23.564 0 42.667-19.103 42.667-42.667s-19.103-42.667-42.667-42.667h-85.333c-33.948 0-66.505 13.488-90.51 37.49-24.005 24.007-37.49 56.565-37.49 90.51v213.333c0 33.948 13.486 66.505 37.49 90.51s56.562 37.49 90.51 37.49h682.667c33.946 0 66.503-13.486 90.51-37.49 24.001-24.005 37.49-56.562 37.49-90.51v-213.333c0-33.946-13.488-66.503-37.49-90.51-24.007-24.001-56.565-37.49-90.51-37.49h-85.333c-23.563 0-42.667 19.103-42.667 42.667s19.103 42.667 42.667 42.667h85.333c11.315 0 22.17 4.494 30.168 12.498 8.004 7.999 12.498 18.853 12.498 30.168v213.333c0 11.316-4.494 22.168-12.498 30.17-7.999 8.001-18.853 12.497-30.168 12.497h-682.667zM213.333 362.667c0 23.563 19.103 42.667 42.667 42.667h512c23.563 0 42.667-19.103 42.667-42.667v-341.333c0-23.563-19.103-42.667-42.667-42.667h-512c-23.564 0-42.667 19.103-42.667 42.667v341.333zM298.667 320v-256h426.667v256h-426.667z" />
<glyph unicode="&#xe921;" glyph-name="qr-code" d="M60.231 502.154v384h384v-384h-384zM188.231 758.154v-128h128v128h-128zM572.231 886.154h383.996v-384h-383.996v384zM828.227 630.154v128h-127.996v-128h127.996zM60.231-9.846v384h384v-384h-384zM188.231 246.154v-128h128v128h-128zM892.227 374.154h64v-256h-191.996v64h-64v-192h-128v384h192v-64h127.996v64zM892.227 54.154h64v-64h-64v64zM764.231 54.154h63.996v-64h-63.996v64z" />
<glyph unicode="&#xe922;" glyph-name="refresh-cw" d="M981.333 832c23.563 0 42.667-19.103 42.667-42.667v-256c0-23.564-19.103-42.667-42.667-42.667h-256c-23.563 0-42.667 19.103-42.667 42.667s19.103 42.667 42.667 42.667h213.333v213.333c0 23.564 19.103 42.667 42.667 42.667zM0 362.667c0 23.563 19.103 42.667 42.667 42.667h256c23.565 0 42.667-19.103 42.667-42.667s-19.102-42.667-42.667-42.667h-213.333v-213.333c0-23.563-19.102-42.667-42.667-42.667s-42.667 19.103-42.667 42.667v256zM606.606 775.892c-55.388 16.021-113.933 17.75-170.17 5.026s-108.335-39.488-151.431-77.792c-43.097-38.304-75.787-86.902-95.022-141.258-7.861-22.215-32.242-33.85-54.456-25.989s-33.851 32.242-25.989 54.456c24.043 67.945 64.907 128.692 118.777 176.573s118.993 81.335 189.289 97.24c70.297 15.906 143.477 13.744 212.713-6.282 69.018-19.963 131.868-57.029 182.733-107.756l197.501-185.581c17.169-16.136 18.011-43.138 1.877-60.311-16.139-17.172-43.139-18.012-60.314-1.876l-197.973 186.027c-0.324 0.305-0.643 0.616-0.961 0.931-40.761 40.781-91.187 70.572-146.574 86.593zM11.573 391.985c16.136 17.172 43.138 18.012 60.31 1.876l197.973-186.029c0.325-0.302 0.645-0.614 0.961-0.927 40.76-40.784 91.188-70.576 146.576-86.596s113.933-17.749 170.172-5.023c56.235 12.72 108.334 39.487 151.433 77.79 43.093 38.303 75.787 86.903 95.022 141.261 7.856 22.215 32.239 33.849 54.454 25.987s33.849-32.239 25.987-54.454c-24.041-67.948-64.905-128.694-118.773-176.572-53.874-47.883-118.994-81.34-189.292-97.24-70.296-15.906-143.477-13.744-212.713 6.281-69.015 19.962-131.869 57.025-182.735 107.753l-197.499 185.583c-17.172 16.139-18.013 43.139-1.876 60.311z" />
<glyph unicode="&#xe923;" glyph-name="RSS" d="M37.957 835.251c0 50.81 44.689 91.826 95.499 86.317 449.948-44.689 807.458-402.81 852.144-852.145 4.897-50.813-35.506-95.499-86.929-95.499-44.686 0-81.417 33.667-85.704 78.358-36.73 367.914-329.35 660.535-697.264 697.265-44.077 4.285-77.746 41.016-77.746 85.704zM135.292 571.999c-51.423 8.57-97.336-33.67-97.336-85.706 0-43.462 32.445-78.358 75.297-85.704 178.755-31.219 319.555-172.633 351.388-351.388 7.346-42.852 42.238-75.295 85.704-75.295 52.033 0 94.275 45.911 86.314 97.333-41.628 257.113-244.256 459.744-501.369 500.76zM171.41 240.827c-73.704 0-133.454-59.748-133.454-133.454s59.75-133.454 133.454-133.454c73.704 0 133.454 59.748 133.454 133.454s-59.75 133.454-133.454 133.454z" />
<glyph unicode="&#xe924;" glyph-name="search" d="M460.8 857.6c-197.939 0-358.4-160.461-358.4-358.4s160.461-358.4 358.4-358.4c197.939 0 358.4 160.461 358.4 358.4s-160.461 358.4-358.4 358.4zM0 499.2c0 254.493 206.307 460.8 460.8 460.8 254.495 0 460.8-206.307 460.8-460.8 0-254.495-206.305-460.8-460.8-460.8-254.493 0-460.8 206.305-460.8 460.8zM713.897 246.103c19.994 19.994 52.413 19.994 72.407 0l222.72-222.72c19.994-19.994 19.994-52.413 0-72.407s-52.413-19.994-72.407 0l-222.72 222.72c-19.994 19.994-19.994 52.413 0 72.407z" />
<glyph unicode="&#xe925;" glyph-name="send" d="M653.084-63.977c-17.522 0.626-33.326 11.184-40.528 27.398l-177.425 399.201-399.201 177.402c-17.294 7.68-28.126 25.156-27.352 44.066 0.762 18.91 13.005 35.442 30.868 41.688l923.147 323.083c16.748 5.86 35.328 1.638 47.878-10.911 12.538-12.538 16.782-31.152 10.923-47.878l-323.083-923.159c-6.258-17.863-22.778-30.094-41.688-30.868-1.183-0.046-2.367-0.068-3.538-0.023zM649.626 107.292l222.436 635.551-346.26-346.271c-1.081-1.070-2.23-2.071-3.402-2.992l127.226-286.288zM469.891 448.182c0.649 0.762 1.343 1.513 2.059 2.241l352.188 352.176-644.312-225.485 290.065-128.933z" />
<glyph unicode="&#xe926;" glyph-name="share-2" d="M768 832c-47.13 0-85.333-38.205-85.333-85.333s38.204-85.333 85.333-85.333c47.13 0 85.333 38.205 85.333 85.333s-38.204 85.333-85.333 85.333zM597.333 746.667c0 94.257 76.412 170.667 170.667 170.667s170.667-76.41 170.667-170.667c0-94.257-76.412-170.667-170.667-170.667s-170.667 76.41-170.667 170.667zM256 533.333c-47.128 0-85.333-38.204-85.333-85.333s38.205-85.333 85.333-85.333c47.128 0 85.333 38.204 85.333 85.333s-38.205 85.333-85.333 85.333zM85.333 448c0 94.257 76.41 170.667 170.667 170.667s170.667-76.41 170.667-170.667c0-94.255-76.41-170.667-170.667-170.667s-170.667 76.412-170.667 170.667zM768 234.667c-47.13 0-85.333-38.204-85.333-85.333s38.204-85.333 85.333-85.333c47.13 0 85.333 38.204 85.333 85.333s-38.204 85.333-85.333 85.333zM597.333 149.333c0 94.255 76.412 170.667 170.667 170.667s170.667-76.412 170.667-170.667c0-94.255-76.412-170.667-170.667-170.667s-170.667 76.412-170.667 170.667zM329.642 405.056c11.864 20.361 37.987 27.247 58.346 15.381l291.414-169.813c20.361-11.866 27.247-37.986 15.381-58.347s-37.986-27.247-58.347-15.381l-291.412 169.813c-20.36 11.866-27.247 37.986-15.383 58.347zM694.345 703.745c11.878-20.352 5.005-46.479-15.347-58.356l-290.985-169.814c-20.352-11.878-46.479-5.005-58.356 15.347s-5.007 46.478 15.345 58.355l290.988 169.813c20.352 11.877 46.477 5.007 58.355-15.345z" />
<glyph unicode="&#xe927;" glyph-name="smartphone" d="M725.333-21.333h-426.667c-72.533 0-128 55.467-128 128v682.667c0 72.533 55.467 128 128 128h426.667c72.533 0 128-55.467 128-128v-682.667c0-72.533-55.467-128-128-128zM298.667 832c-25.6 0-42.667-17.067-42.667-42.667v-682.667c0-25.6 17.067-42.667 42.667-42.667h426.667c25.6 0 42.667 17.067 42.667 42.667v682.667c0 25.6-17.067 42.667-42.667 42.667h-426.667zM512 149.333c-4.267 0-12.8 0-17.067 4.267-4.267 0-8.533 4.267-12.8 8.533-8.533 8.533-12.8 17.067-12.8 29.867 0 4.267 0 12.8 4.267 17.067s4.267 8.533 8.533 12.8c17.067 17.067 42.667 17.067 59.733 0 8.533-8.533 12.8-21.333 12.8-29.867 0-12.8-4.267-21.333-12.8-29.867s-17.067-12.8-29.867-12.8z" />
<glyph unicode="&#xe928;" glyph-name="tag" d="M42.667 874.667c0 23.564 19.103 42.667 42.667 42.667h426.667c11.316 0 22.168-4.495 30.17-12.497l366.596-366.597c23.842-23.983 37.222-56.424 37.222-90.24s-13.38-66.258-37.222-90.237l-30.259 30.077 30.168-30.168-305.903-305.903c-0.006-0.006 0.006 0.006 0 0-11.884-11.895-26.010-21.345-41.542-27.785-15.539-6.446-32.196-9.756-49.017-9.756s-33.477 3.311-49.017 9.756c-15.535 6.44-29.649 15.878-41.535 27.773-0.003 0.006 0.003 0 0 0l-366.481 366.055c-8.012 8.003-12.514 18.863-12.514 30.188v426.667zM848.247 417.92c0.011 0.013 0.028 0.026 0.040 0.039 7.919 7.991 12.368 18.788 12.368 30.041s-4.449 22.050-12.368 30.041c-0.011 0.013-0.028 0.026-0.040 0.039l-353.921 353.92h-366.327v-366.312l354.027-353.617c3.962-3.965 8.668-7.111 13.847-9.262 5.18-2.145 10.732-3.248 16.339-3.248s11.159 1.104 16.339 3.248c5.179 2.15 9.885 5.296 13.847 9.262l305.848 305.849z" />
<glyph unicode="&#xe929;" glyph-name="thumbs-down" d="M853.787 803.697c-9.978 8.564-22.753 13.167-35.897 12.934l-0.725-0.006h-68.403v-368.642l69.128-0.004c13.144-0.233 25.919 4.37 35.897 12.935 9.376 8.045 15.667 19.067 17.854 31.179v280.423c-2.187 12.113-8.479 23.133-17.854 31.181zM666.841 415.719v400.906l-421.532 0.002c-9.878 0.112-19.464-3.351-26.991-9.748s-12.488-15.301-13.969-25.068l-56.529-368.669c0.001 0.008-0.001-0.008 0 0-0.886-5.861-0.489-11.85 1.164-17.543 1.656-5.702 4.531-10.977 8.427-15.458s8.72-8.061 14.137-10.49c5.417-2.433 11.298-3.658 17.236-3.588h232.297c22.622 0 40.96-18.338 40.96-40.96v-163.84c0-21.725 8.63-42.562 23.994-57.926 9.331-9.331 20.685-16.179 33.030-20.12l147.775 332.501zM816.837 898.545c33.075 0.489 65.196-11.134 90.305-32.687 25.211-21.639 41.599-51.78 46.051-84.703 0.246-1.82 0.369-3.654 0.369-5.49v-286.722c0-1.835-0.123-3.67-0.369-5.489-4.452-32.924-20.84-63.066-46.051-84.701-25.108-21.553-57.229-33.178-90.305-32.69h-82.416l-153.031-344.314c-6.574-14.791-21.242-24.326-37.429-24.326-43.454 0-85.127 17.265-115.851 47.989-30.727 30.728-47.989 72.401-47.989 115.851v122.88h-190.664c-17.725-0.164-35.278 3.51-51.452 10.768-16.251 7.295-30.722 18.035-42.411 31.478-11.689 13.439-20.315 29.262-25.281 46.371-4.966 17.105-6.154 35.086-3.481 52.699l56.524 368.635c0.002 0.013-0.002-0.012 0 0 4.45 29.287 19.336 56.017 41.908 75.203 22.516 19.139 51.173 29.521 80.717 29.248h570.856z" />
<glyph unicode="&#xe92a;" glyph-name="thumbs-up" d="M430.345 891.995l-159.406-358.662h-100.272c-33.948 0-66.505-13.487-90.51-37.491s-37.49-56.563-37.49-90.509v-298.667c0-33.95 13.486-66.505 37.49-90.509s56.562-37.491 90.51-37.491h609.058c30.775-0.286 60.629 10.53 84.087 30.468 23.509 19.985 39.019 47.825 43.652 78.336 0 0.009 0-0.013 0 0l58.88 383.991c2.782 18.347 1.545 37.077-3.627 54.899-5.175 17.818-14.161 34.299-26.334 48.301-12.177 14.002-27.251 25.19-44.181 32.787-16.845 7.561-35.132 11.387-53.594 11.217h-198.609v128c0 45.264-17.98 88.673-49.988 120.68-32.004 32.006-75.413 49.987-120.678 49.987-16.862 0-32.141-9.93-38.989-25.338zM341.333 481.613l153.933 346.351c12.86-4.102 24.687-11.236 34.406-20.957 16.004-16.003 24.994-37.708 24.994-60.34v-170.667c0-23.564 19.102-42.667 42.667-42.667l241.975 0.003c6.187 0.070 12.314-1.206 17.954-3.736 5.645-2.534 10.667-6.263 14.729-10.931 4.058-4.668 7.053-10.159 8.777-16.102 1.724-5.931 2.138-12.169 1.212-18.278 0 0.004 0-0.009 0 0l-58.884-384.026c-1.545-10.172-6.711-19.447-14.549-26.112-7.842-6.665-17.826-10.27-28.117-10.155l-439.095 0.004v417.613zM256 64h-85.333c-11.316 0-22.168 4.497-30.17 12.497s-12.497 18.854-12.497 30.17v298.667c0 11.315 4.495 22.17 12.497 30.17s18.854 12.497 30.17 12.497h85.333v-384z" />
<glyph unicode="&#xe92b;" glyph-name="Vector" d="M782.35 460.686l-526.31 473.679c-10.983 9.885-28.484 2.090-28.484-12.686v-947.359c0-14.774 17.501-22.568 28.484-12.686l526.31 473.68c7.533 6.779 7.533 18.592 0 25.371z" />
<glyph unicode="&#xe92c;" glyph-name="zap" d="M571.657 913.803c17.374-7.542 27.696-25.636 25.347-44.431l-36.671-293.375h335.667c16.555 0 31.616-9.577 38.639-24.57 7.023-14.99 4.739-32.691-5.862-45.412l-426.667-512c-12.123-14.549-32.39-19.365-49.766-11.822-17.374 7.541-27.696 25.634-25.347 44.43l36.671 293.373h-335.667c-16.556 0-31.617 9.577-38.639 24.57s-4.737 32.694 5.861 45.412l426.667 512c12.126 14.551 32.393 19.366 49.766 11.824zM219.096 405.33h292.904c12.24 0 23.888-5.254 31.986-14.43 8.101-9.173 11.87-21.385 10.351-33.527l-24.616-196.929 275.186 330.22h-292.907c-12.237 0-23.888 5.257-31.986 14.43-8.098 9.176-11.87 21.385-10.351 33.53l24.616 196.927-275.184-330.221z" />
</font>
</defs>
</svg>
