<svg
                                                    width="22"
                                                    height="20"
                                                    viewBox="0 0 22 20"
                                                    fill="none"
                                                    xmlns="http://www.w3.org/2000/svg"
                                                  >
                                                    <path
                                                      d="M5.83843 11.2128L0.434202 8.84815C-0.174837 8.58187 -0.13363 7.70428 0.497839 7.49653L21.048 0.721942C21.5857 0.544868 22.1096 1.02483 21.9801 1.5762L17.8735 19.0366C17.7509 19.5582 17.124 19.771 16.7095 19.4315L11.8841 15.4832L5.83843 11.2128Z"
                                                      fill="#EBF0FA"
                                                    ></path>
                                                    <path
                                                      d="M17.0356 4.49297L5.83838 11.2134L7.20844 17.5684C7.33133 18.1386 8.00336 18.3898 8.47017 18.0403L11.8841 15.4837L9.07513 13.185L17.3894 4.94814C17.6331 4.70661 17.3299 4.31633 17.0356 4.49297Z"
                                                      fill="#BEC3D2"
                                                    ></path>
                                                    <path
                                                      d="M7.66028 18.128C7.91199 18.2418 8.22046 18.2269 8.47024 18.0398L11.8842 15.4833L10.4797 14.3339L9.0752 13.1846L7.66028 18.128Z"
                                                      fill="#AFB4C8"
                                                    ></path>
                                                    </svg>