<svg width="153" height="153" viewBox="30 25 94 94" fill="none" xmlns="http://www.w3.org/2000/svg">
    <g filter="url(#filter0_d)">
        <rect x="30" y="25" width="93" height="93" rx="15" fill="url(#paint0_linear)"/>
    </g>
    <mask id="mask0" mask-type="alpha" maskUnits="userSpaceOnUse" x="30" y="25" width="93" height="93">
        <rect x="30" y="25" width="93" height="93" rx="15" fill="url(#paint1_linear)"/>
    </mask>
    <g mask="url(#mask0)">
        <g filter="url(#filter1_dd)">
            <circle cx="77" cy="72" r="39" fill="white"/>
        </g>
        <mask id="mask1" mask-type="alpha" maskUnits="userSpaceOnUse" x="38" y="33" width="78" height="78">
            <circle cx="77" cy="72" r="39" fill="#FFC700"/>
        </mask>
        <g mask="url(#mask1)">
            <circle cx="77" cy="72" r="39" fill="url(#paint2_linear)"/>
            <rect width="12.48" height="83.85" transform="matrix(-0.898794 0.438371 0.438371 0.898794 79.3345 22.4697)" fill="#FFE27D"/>
            <rect width="4.68" height="83.85" transform="matrix(-0.898794 0.438371 0.438371 0.898794 66.8535 30.2695)" fill="#FFE27D"/>
            <rect width="3.9" height="83.85" transform="matrix(-0.898794 0.438371 0.438371 0.898794 37.9946 41.5801)" fill="#FFE27D"/>
        </g>
        <path fill-rule="evenodd" clip-rule="evenodd" d="M77.0003 33C98.5392 33 116 50.4608 116 72.0003C116 93.5392 98.5392 111 77.0003 111C55.4608 111 38 93.5392 38 72.0003C38 50.4608 55.4608 33 77.0003 33ZM75.375 81.3931H75.3757H75.375V107.712C56.3855 106.862 41.25 91.1998 41.25 72.0003C41.25 52.2562 57.2562 36.25 77.0003 36.25C96.7445 36.25 112.75 52.2562 112.75 72.0003C112.75 91.1998 97.6152 106.862 78.625 107.712V82.0204C82.491 82.4958 89.0144 82.2684 95.2252 76.6764C104.055 68.7256 102.123 58.2675 101.991 57.4289C101.169 57.2089 90.9711 54.1942 82.1404 62.1449C73.3103 70.0956 75.1996 79.8097 75.375 81.3931Z" fill="black" fill-opacity="0.87"/>
        <path fill-rule="evenodd" clip-rule="evenodd" d="M73.5882 70.8693C72.4242 71.124 65.3448 73.2893 58.7387 67.3413C52.1333 61.3932 53.5787 53.5705 53.678 52.9425C54.292 52.7778 61.9214 50.5225 68.5268 56.4705C75.1328 62.4186 73.7195 69.6853 73.5882 70.8693Z" fill="black" fill-opacity="0.87"/>
        <path fill-rule="evenodd" clip-rule="evenodd" d="M78.3857 78.6834C79.6484 78.8941 80.865 78.9941 82.371 78.9007C86.4544 78.6467 90.0211 76.99 93.0511 74.2613C97.1365 70.5826 99.2225 65.4719 98.9998 60.1239C93.7111 59.3505 88.3831 60.8986 84.3157 64.5606C81.2857 67.2886 79.265 70.6626 78.5863 74.6967C78.3357 76.1847 78.3077 77.4054 78.3857 78.6834Z" fill="#219653"/>
        <path fill-rule="evenodd" clip-rule="evenodd" d="M70.5448 68.129C70.5541 67.461 70.5108 66.7816 70.3781 65.995C69.9008 63.1596 68.4801 60.8016 66.3514 58.8849C63.668 56.4682 60.2094 55.3635 56.7227 55.6855C56.7627 59.1896 58.2167 62.4976 60.9127 64.9249C63.0414 66.8416 65.5354 68.0083 68.4048 68.1863C69.2008 68.2356 69.8814 68.2083 70.5448 68.129Z" fill="#219653"/>
    </g>
    <defs>
        <filter id="filter0_d" x="0" y="0" width="153" height="153" filterUnits="userSpaceOnUse" color-interpolation-filters="sRGB">
            <feFlood flood-opacity="0" result="BackgroundImageFix"/>
            <feColorMatrix in="SourceAlpha" type="matrix" values="0 0 0 0 0 0 0 0 0 0 0 0 0 0 0 0 0 0 127 0"/>
            <feOffset dy="5"/>
            <feGaussianBlur stdDeviation="15"/>
            <feColorMatrix type="matrix" values="0 0 0 0 0 0 0 0 0 0 0 0 0 0 0 0 0 0 0.1 0"/>
            <feBlend mode="normal" in2="BackgroundImageFix" result="effect1_dropShadow"/>
            <feBlend mode="normal" in="SourceGraphic" in2="effect1_dropShadow" result="shape"/>
        </filter>
        <filter id="filter1_dd" x="13" y="20" width="128" height="128" filterUnits="userSpaceOnUse" color-interpolation-filters="sRGB">
            <feFlood flood-opacity="0" result="BackgroundImageFix"/>
            <feColorMatrix in="SourceAlpha" type="matrix" values="0 0 0 0 0 0 0 0 0 0 0 0 0 0 0 0 0 0 127 0"/>
            <feOffset dy="12"/>
            <feGaussianBlur stdDeviation="12.5"/>
            <feColorMatrix type="matrix" values="0 0 0 0 0 0 0 0 0 0 0 0 0 0 0 0 0 0 0.1 0"/>
            <feBlend mode="normal" in2="BackgroundImageFix" result="effect1_dropShadow"/>
            <feColorMatrix in="SourceAlpha" type="matrix" values="0 0 0 0 0 0 0 0 0 0 0 0 0 0 0 0 0 0 127 0"/>
            <feOffset dy="5"/>
            <feGaussianBlur stdDeviation="5"/>
            <feColorMatrix type="matrix" values="0 0 0 0 0 0 0 0 0 0 0 0 0 0 0 0 0 0 0.1 0"/>
            <feBlend mode="normal" in2="effect1_dropShadow" result="effect2_dropShadow"/>
            <feBlend mode="normal" in="SourceGraphic" in2="effect2_dropShadow" result="shape"/>
        </filter>
        <linearGradient id="paint0_linear" x1="76.5" y1="25" x2="76.5" y2="118" gradientUnits="userSpaceOnUse">
            <stop stop-color="#FFDA44"/>
            <stop offset="1" stop-color="#E8B40B"/>
        </linearGradient>
        <linearGradient id="paint1_linear" x1="76.5" y1="25" x2="76.5" y2="118" gradientUnits="userSpaceOnUse">
            <stop stop-color="#FFDA44"/>
            <stop offset="1" stop-color="#E8B40B"/>
        </linearGradient>
        <linearGradient id="paint2_linear" x1="77" y1="33" x2="77" y2="111" gradientUnits="userSpaceOnUse">
            <stop stop-color="#FFDA44"/>
            <stop offset="1" stop-color="#E8B40B"/>
        </linearGradient>
    </defs>
</svg>
