<svg xmlns="http://www.w3.org/2000/svg" width="80.385" height="71.892" viewBox="0 0 80.385 71.892">
    <g id="Group_24" data-name="Group 24" transform="translate(-46.632 -31.811)">
        <path id="Path_42" data-name="Path 42" d="M346.526,310.914V304.9h16.282V303.46a34.687,34.687,0,0,0-2.075-11.68,48.1,48.1,0,0,0-12.582-18.653l-1.625-1.393V259.283c0-.7.227-2.472-1.424-2.472-1.56,0-1.457,1.432-1.457,2.472v4.047l-2.025,1.488a40.283,40.283,0,0,0-7.465,7.992c-4.773,6.465-10.67,17.2-13.9,33.512l-.336,1.72h23.724v2.872H303.632l.662,1.911c.557,1.623,5.725,15.878,13.2,15.878h46.354c12.631,0,19.076-15.148,19.345-15.8l.827-1.988Zm11.106-19.134a32.29,32.29,0,0,1,2.265,10.24H349.245a40.8,40.8,0,0,0,1.385-10.24c.008-.5.017-1.008.017-1.536a69.4,69.4,0,0,0-.968-11.412A45.493,45.493,0,0,1,357.632,291.78Zm-11.106-14.119a66.265,66.265,0,0,1,1.241,12.583c0,.528-.01,1.047-.02,1.536a38.4,38.4,0,0,1-1.221,9.259Zm-23.08,27.5a82.6,82.6,0,0,1,10.709-27.143,56.039,56.039,0,0,1,5.678-7.522,90.144,90.144,0,0,0-1.826,18.347q0,1.54.058,2.938c.28,6.82,1.471,11.056,2.4,13.38Zm17.5-13.38q-.056-1.383-.056-2.938a81.837,81.837,0,0,1,2.755-21.738V305.19C342.944,303.825,341.282,299.781,340.946,291.78Zm22.9,34.041H317.491c-3.64,0-7.6-6.743-9.76-12.026H379.54C377.456,317.666,372.077,325.821,363.845,325.821Z" transform="translate(-257 -225)"/>
    </g>
</svg>
